<svg xmlns="http://www.w3.org/2000/svg" xmlns:xlink="http://www.w3.org/1999/xlink" width="114.305" height="114.305" viewBox="0 0 114.305 114.305">
  <defs>
    <clipPath id="clip-path">
      <rect id="Rectángulo_5898" data-name="Rectángulo 5898" width="50" height="66.514" fill="#12263f"/>
    </clipPath>
  </defs>
  <g id="Grupo_80472" data-name="Grupo 80472" transform="translate(-1007 -5484.329)">
    <path id="Trazado_105794" data-name="Trazado 105794" d="M57.152,0A57.152,57.152,0,1,1,0,57.152,57.152,57.152,0,0,1,57.152,0Z" transform="translate(1007 5484.329)" fill="#80cab6"/>
    <g id="Grupo_57014" data-name="Grupo 57014" transform="translate(0 -940.414)">
      <g id="Grupo_57013" data-name="Grupo 57013" transform="translate(1039 6448.743)">
        <g id="Grupo_57012" data-name="Grupo 57012" clip-path="url(#clip-path)">
          <path id="Trazado_105795" data-name="Trazado 105795" d="M12.223,102.538c0,6.854,4.363,13.169,11.17,16.248H41.5c6.807-3.079,11.17-9.393,11.17-16.248a16.761,16.761,0,0,0-2.6-8.91H14.821a16.761,16.761,0,0,0-2.6,8.91" transform="translate(-7.447 -57.047)" fill="#12263f"/>
          <path id="Trazado_105796" data-name="Trazado 105796" d="M96.316,102.663a1.968,1.968,0,1,1-1.968-1.968,1.967,1.967,0,0,1,1.968,1.968" transform="translate(-56.287 -61.353)" fill="#12263f"/>
          <path id="Trazado_105797" data-name="Trazado 105797" d="M59.169,65.937a1.545,1.545,0,1,1-1.545-1.545,1.545,1.545,0,0,1,1.545,1.545" transform="translate(-34.169 -39.234)" fill="#12263f"/>
          <path id="Trazado_105798" data-name="Trazado 105798" d="M70.738,75.676A3.375,3.375,0,1,1,67.363,72.3a3.375,3.375,0,0,1,3.375,3.375" transform="translate(-38.988 -44.053)" fill="#12263f"/>
          <path id="Trazado_105799" data-name="Trazado 105799" d="M84.95,115.079a4,4,0,1,1-4-4,4,4,0,0,1,4,4" transform="translate(-46.889 -67.682)" fill="#12263f"/>
          <path id="Trazado_105800" data-name="Trazado 105800" d="M34.735,77.093H15.266a1.5,1.5,0,0,1-.578-.116C5.766,73.258,0,65.051,0,56.07A22.213,22.213,0,0,1,8.51,38.811a1.5,1.5,0,0,1,1.885,2.339A19.221,19.221,0,0,0,3,56.07c0,7.674,4.924,14.717,12.568,18.02H34.429C42.073,70.787,47,63.744,47,56.07c0-8.7-6.128-16.332-15.248-19a1.5,1.5,0,0,1-1.08-1.441V23.434a1.5,1.5,0,0,1,1.5-1.5h1.423a.783.783,0,0,0,0-1.566H16.406a.783.783,0,0,0,0,1.566H17.83a1.5,1.5,0,0,1,1.5,1.5V35.629A1.5,1.5,0,0,1,18.25,37.07a23.207,23.207,0,0,0-2.857,1.043,1.5,1.5,0,1,1-1.213-2.748c.7-.309,1.419-.589,2.148-.836V24.934a3.786,3.786,0,0,1,.077-7.571H33.594a3.786,3.786,0,0,1,.078,7.571v9.594C43.486,37.851,50,46.379,50,56.07c0,8.981-5.765,17.188-14.687,20.908a1.5,1.5,0,0,1-.578.116" transform="translate(0 -10.579)" fill="#12263f"/>
          <path id="Trazado_105801" data-name="Trazado 105801" d="M58.5,9.787H47.266a1.5,1.5,0,0,1-1.5-1.5V1.5a1.5,1.5,0,0,1,1.5-1.5H58.5A1.5,1.5,0,0,1,60,1.5V8.285a1.5,1.5,0,0,1-1.5,1.5m-9.735-3H57V3H48.768Z" transform="translate(-27.885)" fill="#12263f"/>
        </g>
      </g>
    </g>
  </g>
</svg>
