<svg id="Grupo_57837" data-name="Grupo 57837" xmlns="http://www.w3.org/2000/svg" xmlns:xlink="http://www.w3.org/1999/xlink" width="48.825" height="49.252" viewBox="0 0 48.825 49.252">
  <defs>
    <clipPath id="clip-path">
      <rect id="Rectángulo_6448" data-name="Rectángulo 6448" width="48.825" height="49.252" fill="none"/>
    </clipPath>
  </defs>
  <g id="Grupo_57836" data-name="Grupo 57836" clip-path="url(#clip-path)">
    <path id="Trazado_113581" data-name="Trazado 113581" d="M35.479,66.578H0V30.757C0,27.3,3.57,24.49,7.973,24.49H27.506c4.4,0,7.973,2.806,7.973,6.267Z" transform="translate(0 -17.326)" fill="#52abaf"/>
    <path id="Trazado_113582" data-name="Trazado 113582" d="M27.477,24.49h0a5.886,5.886,0,0,1,2.96,4.883v35.8H0v1.408H35.479V30.78c0-3.474-3.583-6.29-8-6.29" transform="translate(0 -17.326)" fill="#3f9191"/>
    <path id="Trazado_113583" data-name="Trazado 113583" d="M31.258,59.306H17.949c-1.941,0-3.517-1.238-3.517-2.765V52.86c0-1.528,1.576-2.765,3.517-2.765H31.258c1.943,0,3.518,1.238,3.518,2.765v3.681c0,1.527-1.575,2.765-3.518,2.765" transform="translate(-9.061 -35.441)" fill="#a7e8e8"/>
    <path id="Trazado_113584" data-name="Trazado 113584" d="M85.318,68.776h-.736a1.012,1.012,0,0,1-1.106-.869V65.084a1.012,1.012,0,0,1,1.106-.869h.736a1.012,1.012,0,0,1,1.105.869v2.823a1.012,1.012,0,0,1-1.105.869" transform="translate(-52.411 -45.431)" fill="#2e7a78"/>
    <path id="Trazado_113585" data-name="Trazado 113585" d="M100.226,74.217H92.9a.816.816,0,0,1-.9-.7V52.342H86.392a.724.724,0,1,1,0-1.408H92.9a.817.817,0,0,1,.9.7V72.81h5.533V44.218a.921.921,0,0,1,1.79,0v29.3a.817.817,0,0,1-.895.7" transform="translate(-53.68 -30.786)" fill="#52abaf"/>
    <path id="Trazado_113586" data-name="Trazado 113586" d="M107.615,13.3a2.228,2.228,0,0,1-2.442-1.919V7.472L98.482,3.443A1.664,1.664,0,0,1,98.027.752,2.907,2.907,0,0,1,101.45.4L109.1,5a1.813,1.813,0,0,1,.957,1.523v4.861a2.228,2.228,0,0,1-2.441,1.919" transform="translate(-61.231 0)" fill="#3f9191"/>
    <path id="Trazado_113587" data-name="Trazado 113587" d="M44.653,64.274H37.275a1.012,1.012,0,0,1-1.106-.869v-.47a1.012,1.012,0,0,1,1.106-.869h7.378a1.012,1.012,0,0,1,1.105.869v.47a1.012,1.012,0,0,1-1.105.869" transform="translate(-22.709 -43.911)" fill="#66aaa8"/>
    <path id="Trazado_113588" data-name="Trazado 113588" d="M24.073,64.274H22.7a1.012,1.012,0,0,1-1.105-.869v-.47a1.012,1.012,0,0,1,1.105-.869h1.373a1.012,1.012,0,0,1,1.106.869v.47a1.012,1.012,0,0,1-1.106.869" transform="translate(-13.559 -43.911)" fill="#66aaa8"/>
    <path id="Trazado_113589" data-name="Trazado 113589" d="M26.568,107.337s-4.695-8.953,4.185-10.367,6.506-3.855,6.506-3.855,6.82,5.336.231,9.113a60.214,60.214,0,0,1-10.922,5.109" transform="translate(-15.902 -65.877)" fill="#247f74"/>
    <path id="Trazado_113590" data-name="Trazado 113590" d="M39.062,93.115a1.113,1.113,0,0,1,.135,1.3c1.583,1.818,3.474,5.192-1.1,7.814a67.639,67.639,0,0,1-9.9,4.752c.1.228.172.357.172.357a60.18,60.18,0,0,0,10.922-5.109c6.588-3.776-.231-9.113-.231-9.113" transform="translate(-17.706 -65.877)" fill="#0e6659"/>
    <path id="Trazado_113591" data-name="Trazado 113591" d="M39.5,97.626a2.2,2.2,0,0,1,.042,1.042,3.527,3.527,0,0,1-.355,1.014,5.527,5.527,0,0,1-.63.932,8.22,8.22,0,0,1-.825.833,12.6,12.6,0,0,1-2.008,1.391,21.4,21.4,0,0,1-2.277,1.1c-.2.079-.393.164-.593.238l-.6.225a4.076,4.076,0,0,0-.533.262c-.173.1-.341.206-.5.317a7,7,0,0,0-.892.736,7.1,7.1,0,0,0-.731.844,6.785,6.785,0,0,0-.963,1.9,8.356,8.356,0,0,0-.368,2.051,7.064,7.064,0,0,1,.191-2.082,6.268,6.268,0,0,1,.888-1.983,6.669,6.669,0,0,1,1.642-1.675,6.222,6.222,0,0,1,.525-.339,4.445,4.445,0,0,1,.587-.291l.594-.227c.2-.073.389-.159.584-.237a22.086,22.086,0,0,0,2.247-1.064,13.528,13.528,0,0,0,2-1.322,8.835,8.835,0,0,0,.837-.786,5.529,5.529,0,0,0,.664-.882,3.662,3.662,0,0,0,.42-.971,2.612,2.612,0,0,0,.086-.511,1.755,1.755,0,0,0-.028-.518" transform="translate(-17.741 -69.069)" fill="#0f7266"/>
    <path id="Trazado_113592" data-name="Trazado 113592" d="M30.152,129.265s-.363-4.854,4.146-4.382,3.892-.993,3.892-.993,2.125,3.412-1.789,4.356a34.361,34.361,0,0,1-6.249,1.019" transform="translate(-18.927 -87.651)" fill="#288e84"/>
    <path id="Trazado_113593" data-name="Trazado 113593" d="M38.191,123.891a.566.566,0,0,1-.206.634c.373,1.067.567,2.911-2.151,3.567a38.887,38.887,0,0,1-5.688.981c0,.122.007.192.007.192a34.391,34.391,0,0,0,6.249-1.019c3.914-.945,1.789-4.356,1.789-4.356" transform="translate(-18.927 -87.651)" fill="#0f7266"/>
    <path id="Trazado_113594" data-name="Trazado 113594" d="M38.014,126.212a1.16,1.16,0,0,1-.177.508l-.076.121-.091.113a1.945,1.945,0,0,1-.2.216,4.049,4.049,0,0,1-1.056.677,7.556,7.556,0,0,1-1.253.414c-.217.051-.434.1-.655.135l-.332.054-.165.027c-.055.008-.111.013-.166.019l-.666.066a2.29,2.29,0,0,0-.293.053c-.05.01-.1.025-.149.039s-.1.027-.148.044a4.406,4.406,0,0,0-.568.224c-.088.047-.178.092-.265.141s-.17.1-.253.155a4.9,4.9,0,0,0-1.5,1.664,3.758,3.758,0,0,1,1.312-1.832,4.119,4.119,0,0,1,1.143-.6c.053-.019.106-.037.161-.052s.109-.032.166-.045a2.7,2.7,0,0,1,.354-.067l.652-.071c.054-.006.109-.01.163-.017l.16-.025.321-.049c.216-.027.422-.079.634-.121a8.759,8.759,0,0,0,1.216-.35,4.6,4.6,0,0,0,1.058-.574,1.962,1.962,0,0,0,.221-.186l.1-.1.09-.106a1.39,1.39,0,0,0,.266-.47" transform="translate(-18.833 -89.293)" fill="#0f7266"/>
  </g>
</svg>
