<svg xmlns="http://www.w3.org/2000/svg" xmlns:xlink="http://www.w3.org/1999/xlink" width="133" height="133" viewBox="0 0 133 133">
  <defs>
    <clipPath id="clip-path">
      <rect id="Rectángulo_6431" data-name="Rectángulo 6431" width="73.969" height="79.882" fill="none"/>
    </clipPath>
  </defs>
  <g id="Grupo_80466" data-name="Grupo 80466" transform="translate(-737 -1263)">
    <circle id="Elipse_1346" data-name="Elipse 1346" cx="66.5" cy="66.5" r="66.5" transform="translate(737 1263)" fill="#adc46c"/>
    <g id="Grupo_57818" data-name="Grupo 57818" transform="translate(3.984 2)">
      <g id="Grupo_57817" data-name="Grupo 57817" transform="translate(763.016 1288)">
        <g id="Grupo_57816" data-name="Grupo 57816" transform="translate(0 0)" clip-path="url(#clip-path)">
          <path id="Trazado_113520" data-name="Trazado 113520" d="M52.2,18.453a5.62,5.62,0,1,1-5.619-5.619A5.618,5.618,0,0,1,52.2,18.453" transform="translate(20.041 6.28)" fill="#c6b07f"/>
          <path id="Trazado_113521" data-name="Trazado 113521" d="M53.381,63.6,46.23,14.757a1.39,1.39,0,0,0-1.376-1.19H28.482a1.392,1.392,0,0,0-1.372,1.154L18.538,63.833a1.389,1.389,0,0,0,1.37,1.631H52.045a.143.143,0,0,0,.025,0,1.392,1.392,0,0,0,1.394-1.392,1.415,1.415,0,0,0-.083-.471" transform="translate(9.06 6.638)" fill="#6d5c42"/>
          <path id="Trazado_113522" data-name="Trazado 113522" d="M44.413,57.881a1.172,1.172,0,0,1-1.169,1.184H29.684V15.312H37.16a1.168,1.168,0,0,1,1.154,1l6.029,41.175a.932.932,0,0,1,.07.39" transform="translate(14.524 7.492)" fill="#896d3b"/>
          <path id="Trazado_113523" data-name="Trazado 113523" d="M51.577,31.881H25.665a1.39,1.39,0,0,0-1.391,1.392V62.885a1.391,1.391,0,0,0,1.391,1.392H51.577a1.393,1.393,0,0,0,1.394-1.392V33.273a1.392,1.392,0,0,0-1.394-1.392" transform="translate(11.877 15.599)" fill="#625038"/>
          <path id="Trazado_113524" data-name="Trazado 113524" d="M27.3,31.881H1.391A1.39,1.39,0,0,0,0,33.273V62.885a1.391,1.391,0,0,0,1.391,1.392H27.3A1.392,1.392,0,0,0,28.7,62.885V33.273A1.391,1.391,0,0,0,27.3,31.881" transform="translate(0 15.599)" fill="#625038"/>
          <path id="Trazado_113525" data-name="Trazado 113525" d="M40.472,68.82,33.319,19.976a1.391,1.391,0,0,0-1.376-1.19H15.575A1.393,1.393,0,0,0,14.2,19.94L5.629,69.052A1.391,1.391,0,0,0,7,70.684H39.135a.162.162,0,0,0,.027,0,1.393,1.393,0,0,0,1.392-1.392,1.416,1.416,0,0,0-.082-.472" transform="translate(2.743 9.192)" fill="#977a52"/>
          <path id="Trazado_113526" data-name="Trazado 113526" d="M32.067,66.827A1.173,1.173,0,0,1,30.9,68.012H17.337V24.259h7.478a1.167,1.167,0,0,1,1.153,1L32,66.438a.929.929,0,0,1,.07.389" transform="translate(8.482 11.87)" fill="#a98c60"/>
          <path id="Trazado_113527" data-name="Trazado 113527" d="M52.187,25.381H43.064a1.391,1.391,0,0,0-1.391,1.392V66.065a1.391,1.391,0,0,0,1.391,1.392h9.123a1.392,1.392,0,0,0,1.392-1.392V26.773a1.392,1.392,0,0,0-1.392-1.392" transform="translate(20.389 12.419)" fill="#6d5c42"/>
          <path id="Trazado_113528" data-name="Trazado 113528" d="M49.717,31.166V64.034A1.176,1.176,0,0,1,48.548,65.2H44.734V30h3.814a1.176,1.176,0,0,1,1.169,1.169" transform="translate(21.887 14.677)" fill="#977a52"/>
          <path id="Trazado_113529" data-name="Trazado 113529" d="M28.633,12.9a7.717,7.717,0,1,1-7.719-7.719A7.717,7.717,0,0,1,28.633,12.9" transform="translate(6.458 2.535)" fill="#625038"/>
          <path id="Trazado_113530" data-name="Trazado 113530" d="M51.223,20.639a4.163,4.163,0,1,1-4.163-4.161,4.163,4.163,0,0,1,4.163,4.161" transform="translate(20.989 8.063)" fill="#625038"/>
          <path id="Trazado_113531" data-name="Trazado 113531" d="M39.095,7.717A7.719,7.719,0,1,1,31.374,0a7.719,7.719,0,0,1,7.72,7.717" transform="translate(11.575 0)" fill="#d6c494"/>
          <path id="Trazado_113532" data-name="Trazado 113532" d="M29.621,7.028A5.62,5.62,0,1,1,24,1.409a5.619,5.619,0,0,1,5.619,5.619" transform="translate(8.993 0.69)" fill="#c6b07f"/>
          <path id="Trazado_113533" data-name="Trazado 113533" d="M29.866,10.222a3.856,3.856,0,1,1-3.856-3.856,3.855,3.855,0,0,1,3.856,3.856" transform="translate(10.84 3.115)" fill="#493618"/>
          <path id="Trazado_113534" data-name="Trazado 113534" d="M47.789,22.325A2.821,2.821,0,1,1,44.967,19.5a2.822,2.822,0,0,1,2.822,2.822" transform="translate(20.621 9.543)" fill="#493618"/>
          <path id="Trazado_113535" data-name="Trazado 113535" d="M39.751,9.037A3.855,3.855,0,1,1,35.9,5.181a3.855,3.855,0,0,1,3.856,3.856" transform="translate(15.677 2.535)" fill="#bca27f"/>
          <path id="Trazado_113536" data-name="Trazado 113536" d="M46.811,17.241a1.927,1.927,0,1,1-1.927-1.929,1.926,1.926,0,0,1,1.927,1.929" transform="translate(21.018 7.492)" fill="#bca27f"/>
          <path id="Trazado_113537" data-name="Trazado 113537" d="M32.076,42.04A11.094,11.094,0,1,1,20.984,30.949,11.094,11.094,0,0,1,32.076,42.04" transform="translate(4.838 15.143)" fill="#f6c90c"/>
          <path id="Trazado_113538" data-name="Trazado 113538" d="M17.136,38.719a.3.3,0,0,0,.389.124,3.033,3.033,0,0,1,2.749.131.3.3,0,0,0,.152.042.346.346,0,0,0,.077-.01.3.3,0,0,0,.183-.139l2.685-4.647a.3.3,0,0,0-.107-.411,8.9,8.9,0,0,0-8.7-.158.292.292,0,0,0-.143.183.3.3,0,0,0,.028.231Z" transform="translate(7.05 15.947)" fill="#493618"/>
          <path id="Trazado_113539" data-name="Trazado 113539" d="M18.725,41.333A3.013,3.013,0,0,1,17.219,38.7a.3.3,0,0,0-.3-.3H11.753a.3.3,0,0,0-.216.092.305.305,0,0,0-.086.216,8.814,8.814,0,0,0,4.492,7.457.279.279,0,0,0,.146.042.3.3,0,0,0,.262-.152l2.486-4.307a.314.314,0,0,0,.03-.229.3.3,0,0,0-.141-.182" transform="translate(5.603 18.787)" fill="#493618"/>
          <path id="Trazado_113540" data-name="Trazado 113540" d="M25.488,38.488a.3.3,0,0,0-.216-.091H20.113a.335.335,0,0,0-.3.337,3.014,3.014,0,0,1-1.258,2.444.3.3,0,0,0-.088.393l2.489,4.316a.3.3,0,0,0,.188.143.382.382,0,0,0,.074.007.29.29,0,0,0,.155-.043,8.737,8.737,0,0,0,4.207-7.288.307.307,0,0,0-.088-.217" transform="translate(9.014 18.787)" fill="#493618"/>
          <path id="Trazado_113541" data-name="Trazado 113541" d="M18.061,37.121a2.2,2.2,0,1,0,2.2,2.2,2.2,2.2,0,0,0-2.2-2.2" transform="translate(7.761 18.163)" fill="#493618"/>
          <path id="Trazado_113542" data-name="Trazado 113542" d="M39.741,26.491A6.792,6.792,0,1,1,32.947,19.7a6.794,6.794,0,0,1,6.794,6.793" transform="translate(12.798 9.638)" fill="#d7b800"/>
          <path id="Trazado_113543" data-name="Trazado 113543" d="M30.594,24.455a.185.185,0,0,0,.237.077,1.858,1.858,0,0,1,1.684.079.194.194,0,0,0,.092.027.178.178,0,0,0,.049-.007.182.182,0,0,0,.112-.083L34.413,21.7a.18.18,0,0,0-.066-.25,5.45,5.45,0,0,0-5.329-.1.18.18,0,0,0-.07.253Z" transform="translate(14.151 10.131)" fill="#493618"/>
          <path id="Trazado_113544" data-name="Trazado 113544" d="M31.566,26.057a1.845,1.845,0,0,1-.923-1.613.185.185,0,0,0-.183-.185H27.3a.194.194,0,0,0-.134.055.2.2,0,0,0-.051.134,5.4,5.4,0,0,0,2.751,4.566.183.183,0,0,0,.249-.067l1.524-2.637a.194.194,0,0,0,.016-.141.178.178,0,0,0-.085-.112" transform="translate(13.265 11.87)" fill="#493618"/>
          <path id="Trazado_113545" data-name="Trazado 113545" d="M35.708,24.314a.189.189,0,0,0-.13-.055H32.417a.2.2,0,0,0-.185.207,1.835,1.835,0,0,1-.773,1.494.188.188,0,0,0-.052.244l1.522,2.642a.188.188,0,0,0,.116.088.211.211,0,0,0,.043,0,.186.186,0,0,0,.1-.025,5.36,5.36,0,0,0,2.575-4.463.189.189,0,0,0-.054-.134" transform="translate(15.355 11.87)" fill="#493618"/>
          <path id="Trazado_113546" data-name="Trazado 113546" d="M31.159,23.477A1.346,1.346,0,1,0,32.5,24.823a1.346,1.346,0,0,0-1.345-1.346" transform="translate(14.587 11.487)" fill="#493618"/>
        </g>
      </g>
    </g>
  </g>
</svg>
