<svg xmlns="http://www.w3.org/2000/svg" width="29.925" height="29.85" viewBox="0 0 29.925 29.85">
  <g id="Grupo_80461" data-name="Grupo 80461" transform="translate(-1249.75 -7347.979)">
    <path id="Icon_material-slow-motion-video" data-name="Icon material-slow-motion-video" d="M19.575,14.685,15,11.25v13.5l4.575-3.435L24,18Zm0,0L15,11.25v13.5l4.575-3.435L24,18Zm0,0L15,11.25v13.5l4.575-3.435L24,18ZM16.5,6.105V3.075A14.923,14.923,0,0,0,8.52,6.39l2.13,2.145A11.912,11.912,0,0,1,16.5,6.1ZM8.535,10.65,6.39,8.52A14.923,14.923,0,0,0,3.075,16.5h3.03A11.912,11.912,0,0,1,8.535,10.65ZM6.105,19.5H3.075A14.923,14.923,0,0,0,6.39,27.48l2.145-2.145A11.8,11.8,0,0,1,6.1,19.5ZM8.52,29.61a14.972,14.972,0,0,0,7.98,3.315v-3.03a11.912,11.912,0,0,1-5.85-2.43L8.52,29.61ZM33,18A15.022,15.022,0,0,1,19.575,32.925v-3.03a12,12,0,0,0,0-23.79V3.075A15.022,15.022,0,0,1,33,18Z" transform="translate(1246.675 7344.904)" fill="#0540b7"/>
  </g>
</svg>
