<svg id="Grupo_57995" data-name="Grupo 57995" xmlns="http://www.w3.org/2000/svg" xmlns:xlink="http://www.w3.org/1999/xlink" width="195.445" height="197.154" viewBox="0 0 195.445 197.154">
  <defs>
    <clipPath id="clip-path">
      <rect id="Rectángulo_6448" data-name="Rectángulo 6448" width="195.445" height="197.154" fill="none"/>
    </clipPath>
  </defs>
  <g id="Grupo_57836" data-name="Grupo 57836" clip-path="url(#clip-path)">
    <path id="Trazado_113581" data-name="Trazado 113581" d="M142.023,192.967H0V49.579C0,35.723,14.292,24.49,31.916,24.49h78.19c17.626,0,31.916,11.233,31.916,25.089Z" transform="translate(0 4.186)" fill="#52abaf"/>
    <path id="Trazado_113582" data-name="Trazado 113582" d="M109.989,24.49h-.009c7.228,4.617,11.847,11.656,11.847,19.545v143.3H0v5.635H142.023V49.668c0-13.9-14.341-25.178-32.034-25.178" transform="translate(0 4.186)" fill="#3f9191"/>
    <path id="Trazado_113583" data-name="Trazado 113583" d="M81.786,86.966H28.511c-7.772,0-14.079-4.955-14.079-11.068V61.164c0-6.115,6.307-11.069,14.079-11.069H81.786c7.779,0,14.082,4.954,14.082,11.069V75.9c0,6.112-6.3,11.068-14.082,11.068" transform="translate(7.067 8.563)" fill="#a7e8e8"/>
    <path id="Trazado_113584" data-name="Trazado 113584" d="M90.85,82.473H87.9c-2.434,0-4.426-1.567-4.426-3.479v-11.3c0-1.915,1.992-3.479,4.426-3.479H90.85c2.433,0,4.424,1.564,4.424,3.479v11.3c0,1.912-1.992,3.479-4.424,3.479" transform="translate(40.877 10.977)" fill="#2e7a78"/>
    <path id="Trazado_113585" data-name="Trazado 113585" d="M144.459,166.415H115.142c-1.98,0-3.583-1.26-3.583-2.815V78.849H89.081c-1.977,0-3.584-1.261-3.584-2.819s1.607-2.816,3.584-2.816h26.061c1.978,0,3.584,1.261,3.584,2.816v84.75h22.149V46.33c0-1.555,1.606-2.815,3.584-2.815s3.581,1.26,3.581,2.815V163.6c0,1.555-1.6,2.815-3.581,2.815" transform="translate(41.866 7.439)" fill="#52abaf"/>
    <path id="Trazado_113586" data-name="Trazado 113586" d="M137.918,53.257c-5.4,0-9.774-3.438-9.774-7.681V29.908L101.357,13.781c-4.287-2.581-5.1-7.4-1.819-10.771s9.416-4,13.7-1.425l30.619,18.434a7.258,7.258,0,0,1,3.831,6.1v19.46c0,4.243-4.375,7.681-9.772,7.681" transform="translate(47.756 0)" fill="#3f9191"/>
    <path id="Trazado_113587" data-name="Trazado 113587" d="M70.129,70.9H40.595c-2.434,0-4.426-1.564-4.426-3.479V65.544c0-1.913,1.992-3.478,4.426-3.478H70.129c2.433,0,4.424,1.564,4.424,3.478v1.881c0,1.915-1.992,3.479-4.424,3.479" transform="translate(17.711 10.61)" fill="#66aaa8"/>
    <path id="Trazado_113588" data-name="Trazado 113588" d="M31.516,70.9h-5.5c-2.431,0-4.424-1.564-4.424-3.479V65.544c0-1.913,1.993-3.478,4.424-3.478h5.5c2.434,0,4.426,1.564,4.426,3.478v1.881c0,1.915-1.992,3.479-4.426,3.479" transform="translate(10.575 10.61)" fill="#66aaa8"/>
    <path id="Trazado_113589" data-name="Trazado 113589" d="M30.292,150.045s-18.794-35.839,16.751-41.5S73.086,93.115,73.086,93.115s27.3,21.362.927,36.477-43.721,20.453-43.721,20.453" transform="translate(12.402 15.917)" fill="#247f74"/>
    <path id="Trazado_113590" data-name="Trazado 113590" d="M71.681,93.115a4.457,4.457,0,0,1,.542,5.2c6.337,7.276,13.906,20.783-4.408,31.278A270.755,270.755,0,0,1,28.2,148.614c.414.913.687,1.431.687,1.431s17.349-5.337,43.719-20.453-.925-36.477-.925-36.477" transform="translate(13.809 15.917)" fill="#0e6659"/>
    <path id="Trazado_113591" data-name="Trazado 113591" d="M73.278,97.626a8.8,8.8,0,0,1,.167,4.171,14.117,14.117,0,0,1-1.421,4.061,22.125,22.125,0,0,1-2.522,3.731,32.9,32.9,0,0,1-3.3,3.332,50.454,50.454,0,0,1-8.04,5.567,85.669,85.669,0,0,1-9.114,4.395c-.791.317-1.573.658-2.375.951l-2.4.9a16.316,16.316,0,0,0-2.133,1.049c-.694.4-1.365.823-2.011,1.27A28.006,28.006,0,0,0,36.55,130a28.4,28.4,0,0,0-2.924,3.379A27.159,27.159,0,0,0,29.772,141a33.448,33.448,0,0,0-1.473,8.208,28.278,28.278,0,0,1,.766-8.334,25.089,25.089,0,0,1,3.553-7.937,26.7,26.7,0,0,1,6.574-6.7,24.917,24.917,0,0,1,2.1-1.357,17.792,17.792,0,0,1,2.349-1.165l2.379-.907c.8-.294,1.558-.635,2.337-.948a88.413,88.413,0,0,0,8.995-4.261,54.15,54.15,0,0,0,8.007-5.29,35.364,35.364,0,0,0,3.349-3.148,22.131,22.131,0,0,0,2.656-3.529,14.661,14.661,0,0,0,1.682-3.885,10.458,10.458,0,0,0,.343-2.046,7.026,7.026,0,0,0-.11-2.073" transform="translate(13.837 16.688)" fill="#0f7266"/>
    <path id="Trazado_113592" data-name="Trazado 113592" d="M30.173,145.4s-1.452-19.432,16.6-17.541,15.579-3.973,15.579-3.973,8.508,13.657-7.161,17.436S30.173,145.4,30.173,145.4" transform="translate(14.762 21.178)" fill="#288e84"/>
    <path id="Trazado_113593" data-name="Trazado 113593" d="M62.35,123.891a2.264,2.264,0,0,1-.825,2.539c1.493,4.269,2.27,11.654-8.61,14.278a155.665,155.665,0,0,1-22.768,3.929c.006.488.027.768.027.768s9.349-.3,25.016-4.077,7.161-17.436,7.161-17.436" transform="translate(14.762 21.178)" fill="#0f7266"/>
    <path id="Trazado_113594" data-name="Trazado 113594" d="M62.1,126.212a4.645,4.645,0,0,1-.708,2.035l-.305.482-.363.453a7.784,7.784,0,0,1-.812.864,16.209,16.209,0,0,1-4.228,2.71,30.245,30.245,0,0,1-5.017,1.658c-.867.2-1.735.417-2.62.542l-1.329.216-.661.109c-.222.03-.444.051-.666.076l-2.667.266a9.173,9.173,0,0,0-1.171.212c-.2.041-.4.1-.6.157s-.395.11-.591.174a17.637,17.637,0,0,0-2.272.9c-.353.188-.712.37-1.059.564s-.682.405-1.013.62A19.606,19.606,0,0,0,30,144.9a15.045,15.045,0,0,1,5.251-7.332,16.49,16.49,0,0,1,4.575-2.418c.212-.076.423-.15.645-.21s.436-.129.664-.18a10.8,10.8,0,0,1,1.418-.267l2.608-.285c.217-.023.436-.04.652-.068l.642-.1,1.284-.2c.866-.107,1.689-.317,2.537-.484a35.062,35.062,0,0,0,4.868-1.4,18.4,18.4,0,0,0,4.237-2.3,7.854,7.854,0,0,0,.883-.746l.41-.4.359-.425a5.563,5.563,0,0,0,1.067-1.883" transform="translate(14.688 21.575)" fill="#0f7266"/>
  </g>
</svg>
