<svg xmlns="http://www.w3.org/2000/svg" xmlns:xlink="http://www.w3.org/1999/xlink" width="610" height="494" viewBox="0 0 610 494">
  <defs>
    <clipPath id="clip-path">
      <rect id="Rectángulo_5640" data-name="Rectángulo 5640" width="441.954" height="337.279" fill="none"/>
    </clipPath>
    <clipPath id="clip-path-2">
      <rect id="Rectángulo_5601" data-name="Rectángulo 5601" width="113.384" height="78.695" fill="none"/>
    </clipPath>
    <clipPath id="clip-path-4">
      <rect id="Rectángulo_5603" data-name="Rectángulo 5603" width="156.668" height="108.744" fill="none"/>
    </clipPath>
  </defs>
  <g id="_5" data-name="5" transform="translate(-810 -1593.323)">
    <rect id="Rectángulo_339874" data-name="Rectángulo 339874" width="505" height="34" rx="17" transform="translate(855.5 2013.323)" fill="#feb12e"/>
    <g id="Grupo_56800" data-name="Grupo 56800" transform="translate(893.046 1700.684)">
      <g id="Grupo_56799" data-name="Grupo 56799" clip-path="url(#clip-path)">
        <path id="Trazado_104954" data-name="Trazado 104954" d="M220.563,337.256c.576.006,1.15.023,1.727.023a151.8,151.8,0,0,0,112.831-50.058H220.563Z" fill="#aaabb0"/>
        <path id="Trazado_104955" data-name="Trazado 104955" d="M220.563,337.256V287.221h-111.1a151.79,151.79,0,0,0,111.1,50.035" fill="#83b7be"/>
        <path id="Trazado_104956" data-name="Trazado 104956" d="M221.007,288.366H334.781a151.951,151.951,0,0,0,33.511-60.215H221.007Z" fill="#c8c7c7"/>
        <path id="Trazado_104957" data-name="Trazado 104957" d="M109.122,288.366H221.008V228.151H75.612a151.937,151.937,0,0,0,33.51,60.215" fill="#c5e2f2"/>
        <path id="Trazado_104958" data-name="Trazado 104958" d="M54.331,155.255l-.5-.007a7.663,7.663,0,0,0-9.179-7.635,8.974,8.974,0,0,0-17.376.961,7.1,7.1,0,0,0-.929-.083,7.005,7.005,0,0,0-7.1,6.707A12.893,12.893,0,0,0,10.1,164.26l54.65.843c-1.328-5.557-4.455-9.759-10.415-9.848" fill="#b8e3ff"/>
        <path id="Trazado_104959" data-name="Trazado 104959" d="M36.383,141.209a8.978,8.978,0,0,0-8.992,7.2,7,7,0,0,1,5.906,6.408l11.476-7.248a8.979,8.979,0,0,0-8.39-6.359" fill="#b8e3ff"/>
        <path id="Trazado_104960" data-name="Trazado 104960" d="M19.317,154.976l8.075-6.568a7.11,7.11,0,0,0-.929-.089,7,7,0,0,0-7.146,6.657" fill="#b8e3ff"/>
        <path id="Trazado_104961" data-name="Trazado 104961" d="M27.391,148.408l5.906,6.407a7,7,0,0,0-5.906-6.407" fill="#b8e3ff"/>
        <path id="Trazado_104962" data-name="Trazado 104962" d="M46.4,147.428a7.7,7.7,0,0,0-1.623.139l-1.042,7.476,10.167.222a7.671,7.671,0,0,0-7.5-7.837" fill="#b8e3ff"/>
        <path id="Trazado_104963" data-name="Trazado 104963" d="M54.4,155.276l-.5-.011-34.6-.093c0-.066.011-.13.014-.2a12.894,12.894,0,0,0-9.216,9l55.107,1.234c-1.289-5.567-4.851-9.8-10.81-9.933" fill="#b8e3ff"/>
        <path id="Trazado_104964" data-name="Trazado 104964" d="M32.593,158.416a6.967,6.967,0,0,0,.723-2.937c0-.224,0-.444-.019-.664Z" fill="#b8e3ff"/>
        <path id="Trazado_104965" data-name="Trazado 104965" d="M32.593,158.416a6.967,6.967,0,0,0,.723-2.937c0-.224,0-.444-.019-.664Z" fill="#b8e3ff"/>
        <path id="Trazado_104966" data-name="Trazado 104966" d="M27.39,148.661s4.781,1.552,4.542,6.01a6.433,6.433,0,0,1-4.542,6.009,6.009,6.009,0,1,0,0-12.019" fill="#c6e9ff"/>
        <path id="Trazado_104967" data-name="Trazado 104967" d="M56.045,155.7a8.871,8.871,0,0,0-9,8.737s2.378-7.455,8.951-7a9.734,9.734,0,0,1,8.788,7.268,8.87,8.87,0,0,0-8.737-9" fill="#c6e9ff"/>
        <path id="Trazado_104968" data-name="Trazado 104968" d="M170.565,99.075a8.773,8.773,0,0,0-10.127-8.355,11.319,11.319,0,0,0-21.917-1.212,9.667,9.667,0,0,0-11.578,9.63l-.628.009c-7.517.112-11.462,5.412-13.136,12.422l68.931-1.063a16.261,16.261,0,0,0-11.545-11.431" fill="#b8e3ff"/>
        <path id="Trazado_104969" data-name="Trazado 104969" d="M160.3,90.83a7.58,7.58,0,1,0,0,15.16,8.113,8.113,0,0,1-5.728-7.58c-.3-5.622,5.728-7.58,5.728-7.58" fill="#c6e9ff"/>
        <path id="Trazado_104970" data-name="Trazado 104970" d="M124.154,99.706a11.188,11.188,0,0,0-11.02,11.355s1.936-8.539,11.084-9.168c8.291-.569,11.291,8.833,11.291,8.833a11.19,11.19,0,0,0-11.355-11.02" fill="#c6e9ff"/>
        <path id="Trazado_104971" data-name="Trazado 104971" d="M214.189,256.243l-.048-.052-.048.053c-1.338,1.5-4.113,4.013-7.664,4.029h-.035a10.161,10.161,0,0,1-7.694-4.061l-.049-.061-.051.058c-1.346,1.533-4.133,4.1-7.7,4.1h-.035a10.084,10.084,0,0,1-7.628-4.1l-.048-.061-.051.058a11.277,11.277,0,0,1-6.26,3.965l.025.128a11.357,11.357,0,0,0,6.281-3.948,10.2,10.2,0,0,0,7.68,4.084h.036c3.574,0,6.367-2.53,7.747-4.085a10.272,10.272,0,0,0,7.747,4.05h.036c2.651-.013,5.387-1.439,7.712-4.019a11.7,11.7,0,0,0,6.494,3.915l.021-.128a11.622,11.622,0,0,1-6.468-3.928" fill="#0076ce"/>
        <path id="Trazado_104972" data-name="Trazado 104972" d="M214.189,256.243l-.048-.052-.048.053c-1.338,1.5-4.113,4.013-7.664,4.029h-.035a10.161,10.161,0,0,1-7.694-4.061l-.049-.061-.051.058c-1.346,1.533-4.133,4.1-7.7,4.1h-.035a10.084,10.084,0,0,1-7.628-4.1l-.048-.061-.051.058a11.277,11.277,0,0,1-6.26,3.965l.025.128a11.357,11.357,0,0,0,6.281-3.948,10.2,10.2,0,0,0,7.68,4.084h.036c3.574,0,6.367-2.53,7.747-4.085a10.272,10.272,0,0,0,7.747,4.05h.036c2.651-.013,5.387-1.439,7.712-4.019a11.7,11.7,0,0,0,6.494,3.915l.021-.128A11.622,11.622,0,0,1,214.189,256.243Z" fill="none" stroke="#0065c4" stroke-miterlimit="10" stroke-width="0.283"/>
        <path id="Trazado_104973" data-name="Trazado 104973" d="M214.189,258.3l-.048-.052-.048.053c-1.338,1.5-4.113,4.013-7.664,4.029h-.035a10.161,10.161,0,0,1-7.694-4.061l-.049-.061-.051.058c-1.346,1.533-4.133,4.1-7.7,4.1h-.035a10.084,10.084,0,0,1-7.628-4.1l-.048-.061-.051.058a11.276,11.276,0,0,1-6.26,3.965l.025.128a11.357,11.357,0,0,0,6.281-3.948,10.2,10.2,0,0,0,7.68,4.084h.036c3.574,0,6.367-2.53,7.747-4.085a10.272,10.272,0,0,0,7.747,4.05h.036c2.651-.012,5.387-1.439,7.712-4.019a11.7,11.7,0,0,0,6.494,3.915l.021-.128a11.622,11.622,0,0,1-6.468-3.928" fill="#0076ce"/>
        <path id="Trazado_104974" data-name="Trazado 104974" d="M214.189,258.3l-.048-.052-.048.053c-1.338,1.5-4.113,4.013-7.664,4.029h-.035a10.161,10.161,0,0,1-7.694-4.061l-.049-.061-.051.058c-1.346,1.533-4.133,4.1-7.7,4.1h-.035a10.084,10.084,0,0,1-7.628-4.1l-.048-.061-.051.058a11.276,11.276,0,0,1-6.26,3.965l.025.128a11.357,11.357,0,0,0,6.281-3.948,10.2,10.2,0,0,0,7.68,4.084h.036c3.574,0,6.367-2.53,7.747-4.085a10.272,10.272,0,0,0,7.747,4.05h.036c2.651-.012,5.387-1.439,7.712-4.019a11.7,11.7,0,0,0,6.494,3.915l.021-.128A11.622,11.622,0,0,1,214.189,258.3Z" fill="none" stroke="#0065c4" stroke-miterlimit="10" stroke-width="0.283"/>
        <path id="Trazado_104975" data-name="Trazado 104975" d="M214.189,260.364l-.048-.051-.048.053c-1.338,1.5-4.113,4.012-7.664,4.029h-.035a10.162,10.162,0,0,1-7.694-4.062l-.049-.061-.051.058c-1.346,1.533-4.133,4.1-7.7,4.1h-.035a10.084,10.084,0,0,1-7.628-4.1l-.048-.061-.051.058a11.284,11.284,0,0,1-6.26,3.966l.025.128a11.359,11.359,0,0,0,6.281-3.949,10.2,10.2,0,0,0,7.68,4.085h.036c3.574,0,6.367-2.531,7.747-4.086a10.272,10.272,0,0,0,7.747,4.05h.036c2.651-.012,5.387-1.439,7.712-4.018,2.191,2.348,4.5,3.682,6.85,3.963l.016-.129c-2.341-.279-4.635-1.618-6.819-3.976" fill="#0076ce"/>
        <path id="Trazado_104976" data-name="Trazado 104976" d="M214.189,260.364l-.048-.051-.048.053c-1.338,1.5-4.113,4.012-7.664,4.029h-.035a10.162,10.162,0,0,1-7.694-4.062l-.049-.061-.051.058c-1.346,1.533-4.133,4.1-7.7,4.1h-.035a10.084,10.084,0,0,1-7.628-4.1l-.048-.061-.051.058a11.284,11.284,0,0,1-6.26,3.966l.025.128a11.359,11.359,0,0,0,6.281-3.949,10.2,10.2,0,0,0,7.68,4.085h.036c3.574,0,6.367-2.531,7.747-4.086a10.272,10.272,0,0,0,7.747,4.05h.036c2.651-.012,5.387-1.439,7.712-4.018,2.191,2.348,4.5,3.682,6.85,3.963l.016-.129C218.667,264.061,216.373,262.722,214.189,260.364Z" fill="none" stroke="#0065c4" stroke-miterlimit="10" stroke-width="0.283"/>
        <path id="Trazado_104977" data-name="Trazado 104977" d="M258.318,256.243l-.048-.052-.048.053c-1.338,1.5-4.113,4.013-7.664,4.029h-.035a10.164,10.164,0,0,1-7.695-4.061l-.048-.061-.051.058c-1.346,1.533-4.133,4.1-7.7,4.1h-.035a10.084,10.084,0,0,1-7.628-4.1l-.048-.061-.052.058a11.271,11.271,0,0,1-6.259,3.965l.024.128a11.356,11.356,0,0,0,6.282-3.948,10.2,10.2,0,0,0,7.68,4.084h.036c3.574,0,6.367-2.53,7.747-4.085a10.27,10.27,0,0,0,7.747,4.05h.036c2.651-.013,5.387-1.439,7.712-4.019a11.7,11.7,0,0,0,6.494,3.915l.021-.128a11.619,11.619,0,0,1-6.468-3.928" fill="#424445"/>
        <path id="Trazado_104978" data-name="Trazado 104978" d="M258.318,256.243l-.048-.052-.048.053c-1.338,1.5-4.113,4.013-7.664,4.029h-.035a10.164,10.164,0,0,1-7.695-4.061l-.048-.061-.051.058c-1.346,1.533-4.133,4.1-7.7,4.1h-.035a10.084,10.084,0,0,1-7.628-4.1l-.048-.061-.052.058a11.271,11.271,0,0,1-6.259,3.965l.024.128a11.356,11.356,0,0,0,6.282-3.948,10.2,10.2,0,0,0,7.68,4.084h.036c3.574,0,6.367-2.53,7.747-4.085a10.27,10.27,0,0,0,7.747,4.05h.036c2.651-.013,5.387-1.439,7.712-4.019a11.7,11.7,0,0,0,6.494,3.915l.021-.128A11.619,11.619,0,0,1,258.318,256.243Z" fill="none" stroke="#424445" stroke-miterlimit="10" stroke-width="0.283"/>
        <path id="Trazado_104979" data-name="Trazado 104979" d="M258.318,258.3l-.048-.052-.048.053c-1.338,1.5-4.113,4.013-7.664,4.029h-.035a10.164,10.164,0,0,1-7.695-4.061l-.048-.061-.051.058c-1.346,1.533-4.133,4.1-7.7,4.1h-.035a10.084,10.084,0,0,1-7.628-4.1l-.048-.061-.052.058a11.271,11.271,0,0,1-6.259,3.965l.024.128a11.356,11.356,0,0,0,6.282-3.948,10.2,10.2,0,0,0,7.68,4.084h.036c3.574,0,6.367-2.53,7.747-4.085a10.27,10.27,0,0,0,7.747,4.05h.036c2.651-.012,5.387-1.439,7.712-4.019a11.7,11.7,0,0,0,6.494,3.915l.021-.128a11.619,11.619,0,0,1-6.468-3.928" fill="#424445"/>
        <path id="Trazado_104980" data-name="Trazado 104980" d="M258.318,258.3l-.048-.052-.048.053c-1.338,1.5-4.113,4.013-7.664,4.029h-.035a10.164,10.164,0,0,1-7.695-4.061l-.048-.061-.051.058c-1.346,1.533-4.133,4.1-7.7,4.1h-.035a10.084,10.084,0,0,1-7.628-4.1l-.048-.061-.052.058a11.271,11.271,0,0,1-6.259,3.965l.024.128a11.356,11.356,0,0,0,6.282-3.948,10.2,10.2,0,0,0,7.68,4.084h.036c3.574,0,6.367-2.53,7.747-4.085a10.27,10.27,0,0,0,7.747,4.05h.036c2.651-.012,5.387-1.439,7.712-4.019a11.7,11.7,0,0,0,6.494,3.915l.021-.128A11.619,11.619,0,0,1,258.318,258.3Z" fill="none" stroke="#424445" stroke-miterlimit="10" stroke-width="0.283"/>
        <path id="Trazado_104981" data-name="Trazado 104981" d="M258.318,260.364l-.048-.051-.048.053c-1.338,1.5-4.113,4.012-7.664,4.029h-.035a10.166,10.166,0,0,1-7.695-4.062l-.048-.061-.051.058c-1.346,1.533-4.133,4.1-7.7,4.1h-.035a10.084,10.084,0,0,1-7.628-4.1l-.048-.061-.052.058a11.278,11.278,0,0,1-6.259,3.966l.024.128a11.358,11.358,0,0,0,6.282-3.949,10.194,10.194,0,0,0,7.68,4.085h.036c3.574,0,6.367-2.531,7.747-4.086a10.27,10.27,0,0,0,7.747,4.05h.036c2.651-.012,5.387-1.439,7.712-4.018,2.191,2.348,4.495,3.682,6.85,3.963l.016-.129c-2.341-.279-4.635-1.618-6.819-3.976" fill="#424445"/>
        <path id="Trazado_104982" data-name="Trazado 104982" d="M258.318,260.364l-.048-.051-.048.053c-1.338,1.5-4.113,4.012-7.664,4.029h-.035a10.166,10.166,0,0,1-7.695-4.062l-.048-.061-.051.058c-1.346,1.533-4.133,4.1-7.7,4.1h-.035a10.084,10.084,0,0,1-7.628-4.1l-.048-.061-.052.058a11.278,11.278,0,0,1-6.259,3.966l.024.128a11.358,11.358,0,0,0,6.282-3.949,10.194,10.194,0,0,0,7.68,4.085h.036c3.574,0,6.367-2.531,7.747-4.086a10.27,10.27,0,0,0,7.747,4.05h.036c2.651-.012,5.387-1.439,7.712-4.018,2.191,2.348,4.495,3.682,6.85,3.963l.016-.129C262.8,264.061,260.5,262.722,258.318,260.364Z" fill="none" stroke="#424445" stroke-miterlimit="10" stroke-width="0.283"/>
        <path id="Trazado_104983" data-name="Trazado 104983" d="M330.033,278.48H330a8.689,8.689,0,0,1-6.578-3.472l-.041-.052-.044.05c-1.15,1.311-3.533,3.5-6.581,3.5h-.031a8.62,8.62,0,0,1-6.52-3.5l-.041-.053-.044.05a9.631,9.631,0,0,1-5.351,3.389l.021.11a9.706,9.706,0,0,0,5.369-3.375,8.716,8.716,0,0,0,6.566,3.491h.031c3.054,0,5.442-2.162,6.621-3.492A8.782,8.782,0,0,0,330,278.591h.031a6.43,6.43,0,0,0,.743-.052l-.021-.11a6.133,6.133,0,0,1-.723.051" fill="#424445"/>
        <path id="Trazado_104984" data-name="Trazado 104984" d="M330.033,278.48H330a8.689,8.689,0,0,1-6.578-3.472l-.041-.052-.044.05c-1.15,1.311-3.533,3.5-6.581,3.5h-.031a8.62,8.62,0,0,1-6.52-3.5l-.041-.053-.044.05a9.631,9.631,0,0,1-5.351,3.389l.021.11a9.706,9.706,0,0,0,5.369-3.375,8.716,8.716,0,0,0,6.566,3.491h.031c3.054,0,5.442-2.162,6.621-3.492A8.782,8.782,0,0,0,330,278.591h.031a6.43,6.43,0,0,0,.743-.052l-.021-.11A6.133,6.133,0,0,1,330.033,278.48Z" fill="none" stroke="#424445" stroke-miterlimit="10" stroke-width="0.283"/>
        <path id="Trazado_104985" data-name="Trazado 104985" d="M330.033,280.241H330a8.689,8.689,0,0,1-6.578-3.472l-.041-.052-.044.05c-1.15,1.311-3.533,3.5-6.581,3.5h-.031a8.62,8.62,0,0,1-6.52-3.5l-.041-.053-.044.05a9.631,9.631,0,0,1-5.351,3.389l.021.11a9.706,9.706,0,0,0,5.369-3.375,8.716,8.716,0,0,0,6.566,3.491h.031c3.054,0,5.442-2.162,6.621-3.492A8.782,8.782,0,0,0,330,280.352h.031a6.243,6.243,0,0,0,.793-.058c0-.037,0-.074,0-.112a6.064,6.064,0,0,1-.793.059" fill="#424445"/>
        <path id="Trazado_104986" data-name="Trazado 104986" d="M330.033,280.241H330a8.689,8.689,0,0,1-6.578-3.472l-.041-.052-.044.05c-1.15,1.311-3.533,3.5-6.581,3.5h-.031a8.62,8.62,0,0,1-6.52-3.5l-.041-.053-.044.05a9.631,9.631,0,0,1-5.351,3.389l.021.11a9.706,9.706,0,0,0,5.369-3.375,8.716,8.716,0,0,0,6.566,3.491h.031c3.054,0,5.442-2.162,6.621-3.492A8.782,8.782,0,0,0,330,280.352h.031a6.243,6.243,0,0,0,.793-.058c0-.037,0-.074,0-.112A6.064,6.064,0,0,1,330.033,280.241Z" fill="none" stroke="#424445" stroke-miterlimit="10" stroke-width="0.283"/>
        <path id="Trazado_104987" data-name="Trazado 104987" d="M330,282a8.689,8.689,0,0,1-6.578-3.472l-.041-.052-.044.05c-1.15,1.311-3.533,3.5-6.582,3.5h-.03a8.62,8.62,0,0,1-6.52-3.5l-.041-.053-.044.05a9.634,9.634,0,0,1-5.351,3.389l.021.11a9.709,9.709,0,0,0,5.369-3.375,8.716,8.716,0,0,0,6.565,3.491h.031c3.055,0,5.443-2.162,6.622-3.492A8.782,8.782,0,0,0,330,282.113h.031a6.328,6.328,0,0,0,.786-.058c0-.038,0-.075,0-.112a6.179,6.179,0,0,1-.788.059Z" fill="#424445"/>
        <path id="Trazado_104988" data-name="Trazado 104988" d="M330,282a8.689,8.689,0,0,1-6.578-3.472l-.041-.052-.044.05c-1.15,1.311-3.533,3.5-6.582,3.5h-.03a8.62,8.62,0,0,1-6.52-3.5l-.041-.053-.044.05a9.634,9.634,0,0,1-5.351,3.389l.021.11a9.709,9.709,0,0,0,5.369-3.375,8.716,8.716,0,0,0,6.565,3.491h.031c3.055,0,5.443-2.162,6.622-3.492A8.782,8.782,0,0,0,330,282.113h.031a6.328,6.328,0,0,0,.786-.058c0-.038,0-.075,0-.112a6.179,6.179,0,0,1-.788.059Z" fill="none" stroke="#424445" stroke-miterlimit="10" stroke-width="0.283"/>
        <path id="Trazado_104989" data-name="Trazado 104989" d="M136,53.934a5.556,5.556,0,0,0-2.967.858,7.462,7.462,0,0,0-10.907-5.423,15.478,15.478,0,0,0-28.328.7A9.511,9.511,0,0,0,83.352,61.69H130.41c.108-.089.219-.177.322-.273.033.093.072.183.11.273H141.16A5.6,5.6,0,0,0,136,53.934" fill="#c6e9ff"/>
        <path id="Trazado_104990" data-name="Trazado 104990" d="M108.112,40.456a15.478,15.478,0,0,0-14.318,9.6,9.534,9.534,0,0,1,8.379,9.461l19.949-10.162a15.476,15.476,0,0,0-14.01-8.9" fill="#c6e9ff"/>
        <path id="Trazado_104991" data-name="Trazado 104991" d="M83.1,59.516l10.7-9.461a9.489,9.489,0,0,0-10.7,9.461" fill="#c6e9ff"/>
        <path id="Trazado_104992" data-name="Trazado 104992" d="M93.794,50.055l8.38,9.461a9.535,9.535,0,0,0-8.38-9.461" fill="#c6e9ff"/>
        <path id="Trazado_104993" data-name="Trazado 104993" d="M125.659,48.464a7.431,7.431,0,0,0-3.536.89l10.906,5.422a7.464,7.464,0,0,0-7.37-6.312" fill="#c6e9ff"/>
        <path id="Trazado_104994" data-name="Trazado 104994" d="M179.9,6.252a5.23,5.23,0,0,0-.642.043,8.586,8.586,0,0,0-15.713-.389,4.138,4.138,0,0,0-6.05,3.008,3.1,3.1,0,0,0-4.51,3.826h5.723c.021-.05.043-.1.061-.151.058.053.119.1.179.151h26.1A5.276,5.276,0,0,0,179.9,6.252" fill="#fff"/>
        <path id="Trazado_104995" data-name="Trazado 104995" d="M171.321.962A8.585,8.585,0,0,0,163.55,5.9l11.065,5.636a5.289,5.289,0,0,1,4.648-5.248A8.587,8.587,0,0,0,171.321.962" fill="#fff"/>
        <path id="Trazado_104996" data-name="Trazado 104996" d="M179.9,6.244a5.23,5.23,0,0,0-.642.043l5.932,5.247a5.289,5.289,0,0,0-5.29-5.29" fill="#fff"/>
        <path id="Trazado_104997" data-name="Trazado 104997" d="M174.615,11.534l4.648-5.248a5.289,5.289,0,0,0-4.648,5.248" fill="#fff"/>
        <path id="Trazado_104998" data-name="Trazado 104998" d="M157.5,8.9,163.55,5.9A4.139,4.139,0,0,0,157.5,8.9" fill="#fff"/>
        <path id="Trazado_104999" data-name="Trazado 104999" d="M66.475,94.559a6.731,6.731,0,0,0-2.249.391,13.232,13.232,0,0,0-26.417-.193,5.292,5.292,0,0,0-3.85,7.034H73.221c.011-.153.024-.306.024-.462a6.77,6.77,0,0,0-6.77-6.77" fill="#fff"/>
        <path id="Trazado_105000" data-name="Trazado 105000" d="M375.357,127.4a4.875,4.875,0,0,0-1.627.283,9.573,9.573,0,0,0-19.113-.14,3.832,3.832,0,0,0-2.786,5.09h28.408c.007-.111.017-.222.017-.334a4.9,4.9,0,0,0-4.9-4.9" fill="#c8c7c7"/>
        <path id="Trazado_105001" data-name="Trazado 105001" d="M99.821,52.024a17.911,17.911,0,0,0-35.758.26,9.146,9.146,0,0,0-12.209,8.637c0,.21.017.417.031.624h53.148a7.164,7.164,0,0,0-5.212-9.521" fill="#b8e3ff"/>
        <g id="Grupo_56794" data-name="Grupo 56794" transform="translate(35.139 123.778)">
          <g id="Grupo_56793" data-name="Grupo 56793" clip-path="url(#clip-path-2)">
            <g id="Grupo_56792" data-name="Grupo 56792">
              <g id="Grupo_56791" data-name="Grupo 56791" clip-path="url(#clip-path-2)">
                <path id="Trazado_105002" data-name="Trazado 105002" d="M84.332,155.5a2.968,2.968,0,0,1-2.956-2.956v-9.773a2.95,2.95,0,0,0-5.9,0v3.179a2.745,2.745,0,0,1-2.743,2.732h-.257a2.737,2.737,0,0,1-2.7-2.351L36.157,193.953c-2.328,3.3-.436,8.229,3.381,8.509.123.011.258.011.381.011H143.747c.135,0,.258,0,.381-.011,3.818-.28,5.71-5.217,3.37-8.509l-36.8-51.746v6.572a2.743,2.743,0,0,1-2.732,2.731h-.257a2.744,2.744,0,0,1-2.743-2.731v-7.848a2.95,2.95,0,0,0-5.9,0v10.49a2.943,2.943,0,0,1-5.878.235v-5.34a2.956,2.956,0,1,0-5.911,0v6.224a2.958,2.958,0,0,1-2.945,2.956" transform="translate(-35.139 -123.778)" fill="#fff"/>
                <path id="Trazado_105003" data-name="Trazado 105003" d="M81.376,152.54a2.95,2.95,0,1,0,5.9,0v-6.225a2.955,2.955,0,0,1,5.911,0v5.341a2.943,2.943,0,0,0,5.878-.235V140.93a2.95,2.95,0,0,1,5.9,0v7.848a2.745,2.745,0,0,0,2.743,2.732h.258a2.742,2.742,0,0,0,2.731-2.732v-6.571l-9.516-13.379a11.614,11.614,0,0,0-9.449-5.05,11.874,11.874,0,0,0-9.695,5.2L74.3,139.934l1.68,1.187a2.951,2.951,0,0,1,5.4,1.645Z" transform="translate(-35.139 -123.778)" fill="#fff"/>
              </g>
            </g>
          </g>
        </g>
        <path id="Trazado_105004" data-name="Trazado 105004" d="M136.312,178.3H47.271L36.215,193.962c-2.323,3.29-.432,8.211,3.378,8.493.125.009.251.014.377.014H143.705c.127,0,.253,0,.377-.014,3.813-.282,5.7-5.212,3.364-8.5Z" fill="#007980"/>
        <g id="Grupo_56798" data-name="Grupo 56798" transform="translate(101.415 94.204)">
          <g id="Grupo_56797" data-name="Grupo 56797" clip-path="url(#clip-path-4)">
            <g id="Grupo_56796" data-name="Grupo 56796">
              <g id="Grupo_56795" data-name="Grupo 56795" clip-path="url(#clip-path-4)">
                <path id="Trazado_105005" data-name="Trazado 105005" d="M191.935,121.242a4.378,4.378,0,0,0-8.755,0v9.236a4.377,4.377,0,1,1-8.755,0h.034V112.789a4.378,4.378,0,0,0-8.755,0V138.55a4.377,4.377,0,1,1-8.755,0V114.5l-54.131,76.679c-3.213,4.557-.594,11.353,4.679,11.744.168.012.348.023.515.023H251.5c.179,0,.347-.011.515-.023,5.284-.391,7.881-7.21,4.657-11.744L200.7,112.453v23.276a4.383,4.383,0,0,1-8.766,0Z" transform="translate(-101.415 -94.204)" fill="#fff"/>
                <path id="Trazado_105006" data-name="Trazado 105006" d="M184.468,118.152a4.37,4.37,0,0,1,7.467,3.09v14.487a4.384,4.384,0,0,0,8.767,0V112.453l-8.028-11.274a16.071,16.071,0,0,0-13.065-6.974,16.472,16.472,0,0,0-13.4,7.176L156.949,114.5V138.55a4.378,4.378,0,0,0,8.755,0V112.789a4.378,4.378,0,0,1,8.755,0v17.689h-.033a4.369,4.369,0,0,0,7.467,3.09,4.345,4.345,0,0,0,1.287-3.09v-9.236a4.369,4.369,0,0,1,1.288-3.09" transform="translate(-101.415 -94.204)" fill="#83b7be"/>
              </g>
            </g>
          </g>
        </g>
        <path id="Trazado_105007" data-name="Trazado 105007" d="M241.271,169.517H118.114l-15.291,21.662c-3.213,4.552-.6,11.358,4.673,11.748.172.013.346.019.521.019H251.5c.175,0,.349-.006.521-.019,5.274-.39,7.882-7.21,4.653-11.752Z" fill="#62898f"/>
        <rect id="Rectángulo_5604" data-name="Rectángulo 5604" width="53.637" height="65.033" transform="translate(243.002 138.276)" fill="#615654"/>
        <rect id="Rectángulo_5605" data-name="Rectángulo 5605" width="53.637" height="3.301" transform="translate(243.002 161.668)" fill="#d9cbca"/>
        <rect id="Rectángulo_5606" data-name="Rectángulo 5606" width="53.637" height="11.316" transform="translate(243.002 173.85)" fill="#d9cbca"/>
        <path id="Trazado_105008" data-name="Trazado 105008" d="M281.449,185.483h6.61V173.389h-6.61Zm.636-11.462h5.339v10.828h-5.339Z" fill="#615654"/>
        <path id="Trazado_105009" data-name="Trazado 105009" d="M269.5,185.483h6.609V173.389H269.5Zm.636-11.462h5.337v10.828h-5.337Z" fill="#615654"/>
        <path id="Trazado_105010" data-name="Trazado 105010" d="M293.4,185.483h3.561V173.389H293.4Zm.636-11.462h2.289v10.828h-2.289Z" fill="#615654"/>
        <path id="Trazado_105011" data-name="Trazado 105011" d="M287.423,185.483h6.609V173.389h-6.609Zm.636-11.462H293.4v10.828h-5.337Z" fill="#615654"/>
        <path id="Trazado_105012" data-name="Trazado 105012" d="M275.476,185.483h6.609V173.389h-6.609Zm.635-11.462h5.337v10.828h-5.337Z" fill="#615654"/>
        <path id="Trazado_105013" data-name="Trazado 105013" d="M242.684,185.483h3.561V173.389h-3.561Zm.636-11.462h2.289v10.828H243.32Z" fill="#615654"/>
        <path id="Trazado_105014" data-name="Trazado 105014" d="M245.609,185.483h6.609V173.389h-6.609Zm.636-11.462h5.337v10.828h-5.337Z" fill="#615654"/>
        <path id="Trazado_105015" data-name="Trazado 105015" d="M251.582,185.483h6.609V173.389h-6.609Zm.636-11.462h5.337v10.828h-5.337Z" fill="#615654"/>
        <path id="Trazado_105016" data-name="Trazado 105016" d="M263.528,185.483h6.61V173.389h-6.61Zm.636-11.462H269.5v10.828h-5.338Z" fill="#615654"/>
        <path id="Trazado_105017" data-name="Trazado 105017" d="M257.555,185.483h6.609V173.389h-6.609Zm.636-11.462h5.337v10.828h-5.337Z" fill="#615654"/>
        <path id="Trazado_105018" data-name="Trazado 105018" d="M263.356,101.562,258.8,203.109l16.871.2-2.154-101.627Z" fill="#a3a1a1"/>
        <path id="Trazado_105019" data-name="Trazado 105019" d="M258.8,203.209l8.435.1,1.2-101.587-5.079-.06Z" fill="#757474"/>
        <path id="Trazado_105020" data-name="Trazado 105020" d="M268.146,126.13l-5.824-.069-.265,5.895,6.019.072,6.019.071-.125-5.9Z" fill="#edecec"/>
        <path id="Trazado_105021" data-name="Trazado 105021" d="M267.983,139.92l-6.293-.074-.386,8.619,6.577.078,6.577.078L274.275,140Z" fill="#edecec"/>
        <path id="Trazado_105022" data-name="Trazado 105022" d="M202.9,42.184a11.119,11.119,0,0,0-12.54,11.091h0v.018a11.239,11.239,0,0,0,.3,2.532h30.825v-24.8c-.592-.058-1.189-.1-1.8-.1A18.146,18.146,0,0,0,202.9,42.184" fill="#b8e3ff"/>
        <path id="Trazado_105023" data-name="Trazado 105023" d="M252.3,46.715a6.586,6.586,0,0,0-3.514,1.016l0-.02,0,0a8.836,8.836,0,0,0-12.916-6.422,18.335,18.335,0,0,0-14.777-10.438V55.9h24.592c.128-.107.259-.21.381-.324.04.11.085.217.13.324h12.22a6.631,6.631,0,0,0-6.116-9.186" fill="#95969c"/>
        <rect id="Rectángulo_5607" data-name="Rectángulo 5607" width="60.564" height="56.188" transform="translate(337.621 146.998)" fill="#747176"/>
        <rect id="Rectángulo_5608" data-name="Rectángulo 5608" width="15.057" height="56.188" transform="translate(383.166 147.121)" fill="#a3a1a1"/>
        <path id="Trazado_105024" data-name="Trazado 105024" d="M399.423,145.8H336.284a1.2,1.2,0,0,0,0,2.4h63.139a1.2,1.2,0,0,0,0-2.4" fill="#525151"/>
        <rect id="Rectángulo_5609" data-name="Rectángulo 5609" width="3.787" height="5.627" transform="translate(390.255 157.873)" fill="#edecec"/>
        <rect id="Rectángulo_5610" data-name="Rectángulo 5610" width="3.788" height="5.627" transform="translate(383.339 157.873)" fill="#edecec"/>
        <rect id="Rectángulo_5611" data-name="Rectángulo 5611" width="3.788" height="5.627" transform="translate(376.422 157.873)" fill="#edecec"/>
        <rect id="Rectángulo_5612" data-name="Rectángulo 5612" width="3.788" height="5.627" transform="translate(369.506 157.873)" fill="#edecec"/>
        <rect id="Rectángulo_5613" data-name="Rectángulo 5613" width="3.787" height="5.627" transform="translate(362.589 157.873)" fill="#edecec"/>
        <rect id="Rectángulo_5614" data-name="Rectángulo 5614" width="3.788" height="5.627" transform="translate(355.673 157.873)" fill="#edecec"/>
        <rect id="Rectángulo_5615" data-name="Rectángulo 5615" width="3.788" height="5.627" transform="translate(348.756 157.873)" fill="#edecec"/>
        <rect id="Rectángulo_5616" data-name="Rectángulo 5616" width="3.788" height="5.627" transform="translate(341.84 157.873)" fill="#edecec"/>
        <rect id="Rectángulo_5617" data-name="Rectángulo 5617" width="3.787" height="5.627" transform="translate(390.255 168.689)" fill="#edecec"/>
        <rect id="Rectángulo_5618" data-name="Rectángulo 5618" width="3.788" height="5.627" transform="translate(383.339 168.689)" fill="#edecec"/>
        <rect id="Rectángulo_5619" data-name="Rectángulo 5619" width="3.788" height="5.627" transform="translate(376.422 168.689)" fill="#edecec"/>
        <rect id="Rectángulo_5620" data-name="Rectángulo 5620" width="3.788" height="5.627" transform="translate(369.506 168.689)" fill="#edecec"/>
        <rect id="Rectángulo_5621" data-name="Rectángulo 5621" width="3.787" height="5.627" transform="translate(362.589 168.689)" fill="#edecec"/>
        <rect id="Rectángulo_5622" data-name="Rectángulo 5622" width="3.788" height="5.627" transform="translate(355.673 168.689)" fill="#edecec"/>
        <rect id="Rectángulo_5623" data-name="Rectángulo 5623" width="3.788" height="5.627" transform="translate(348.756 168.689)" fill="#edecec"/>
        <rect id="Rectángulo_5624" data-name="Rectángulo 5624" width="3.788" height="5.627" transform="translate(341.84 168.689)" fill="#edecec"/>
        <rect id="Rectángulo_5625" data-name="Rectángulo 5625" width="3.787" height="5.627" transform="translate(390.255 179.504)" fill="#edecec"/>
        <rect id="Rectángulo_5626" data-name="Rectángulo 5626" width="3.788" height="5.627" transform="translate(383.339 179.504)" fill="#edecec"/>
        <rect id="Rectángulo_5627" data-name="Rectángulo 5627" width="3.788" height="5.627" transform="translate(376.422 179.504)" fill="#edecec"/>
        <rect id="Rectángulo_5628" data-name="Rectángulo 5628" width="3.788" height="5.627" transform="translate(369.506 179.504)" fill="#edecec"/>
        <rect id="Rectángulo_5629" data-name="Rectángulo 5629" width="3.787" height="5.627" transform="translate(362.589 179.504)" fill="#edecec"/>
        <rect id="Rectángulo_5630" data-name="Rectángulo 5630" width="3.788" height="5.627" transform="translate(355.673 179.504)" fill="#edecec"/>
        <rect id="Rectángulo_5631" data-name="Rectángulo 5631" width="3.788" height="5.627" transform="translate(348.756 179.504)" fill="#edecec"/>
        <rect id="Rectángulo_5632" data-name="Rectángulo 5632" width="3.788" height="5.627" transform="translate(341.84 179.504)" fill="#edecec"/>
        <rect id="Rectángulo_5633" data-name="Rectángulo 5633" width="60.603" height="3.633" transform="translate(337.552 199.077)" fill="#525151"/>
        <path id="Trazado_105025" data-name="Trazado 105025" d="M306.094,129.719s-3.142,65.4-10,73.59h50.269s-10.282-22.274-12-73.59Z" fill="#7d6660"/>
        <path id="Trazado_105026" data-name="Trazado 105026" d="M321.231,129.719v73.59h25.135s-10.283-22.274-12-73.59Z" fill="#97776c"/>
        <path id="Trazado_105027" data-name="Trazado 105027" d="M304.787,150.072l-.28,3.713h31.425l-.346-3.713Z" fill="#624800"/>
        <path id="Trazado_105028" data-name="Trazado 105028" d="M303.551,164.638l-.373,3.732h34.557l-.533-3.732Z" fill="#624800"/>
        <path id="Trazado_105029" data-name="Trazado 105029" d="M306.406,129.719l-.221,4.12,28.345.059-.161-4.179Z" fill="#624800"/>
        <path id="Trazado_105030" data-name="Trazado 105030" d="M237.61,118.132c-7.472-8.388-16.633-22.188-16.633-22.188L220.9,203.309h28.467s-.4-60.886-1.131-64.975-3.15-11.814-10.622-20.2" fill="#8f534a"/>
        <path id="Trazado_105031" data-name="Trazado 105031" d="M237.61,118.132c-7.472-8.388-16.633-22.188-16.633-22.188l10.245,22.98c.434.974,7.9,15.983,7.988,31.879l.49,52.506h9.663s-.4-60.886-1.131-64.975-3.15-11.814-10.622-20.2" fill="#a5756e"/>
        <rect id="Rectángulo_5634" data-name="Rectángulo 5634" width="27.611" height="5.09" transform="translate(220.952 140.266)" fill="#bfa8a6"/>
        <rect id="Rectángulo_5635" data-name="Rectángulo 5635" width="28.019" height="1.221" transform="translate(220.896 154.695)" fill="#bfa8a6"/>
        <rect id="Rectángulo_5636" data-name="Rectángulo 5636" width="28.019" height="1.221" transform="translate(220.896 157.502)" fill="#bfa8a6"/>
        <rect id="Rectángulo_5637" data-name="Rectángulo 5637" width="28.019" height="1.221" transform="translate(220.896 160.309)" fill="#bfa8a6"/>
        <rect id="Rectángulo_5638" data-name="Rectángulo 5638" width="28.019" height="1.221" transform="translate(220.896 163.116)" fill="#bfa8a6"/>
        <rect id="Rectángulo_5639" data-name="Rectángulo 5639" width="28.019" height="1.221" transform="translate(220.896 165.923)" fill="#bfa8a6"/>
        <path id="Trazado_105032" data-name="Trazado 105032" d="M129.776,188.15c-16.923,0-31.226,6.177-35.919,14.667H165.7c-4.692-8.49-19-14.667-35.919-14.667" fill="#93b033"/>
        <path id="Trazado_105033" data-name="Trazado 105033" d="M185.679,183.062c-16.592,0-30.616,8.406-35.217,19.958H220.9c-4.6-11.552-18.625-19.958-35.217-19.958" fill="#789c00"/>
        <path id="Trazado_105034" data-name="Trazado 105034" d="M169.345,188.121c-3.309.969-5.3,3.414-4.6,4.921s3.447,1.678,6.292.844,5.05-2.459,4.82-4.1-3.2-2.632-6.509-1.663" fill="#93b033"/>
        <path id="Trazado_105035" data-name="Trazado 105035" d="M181.08,188.709c-1.761.013-3.117.87-3.04,1.76s1.444,1.487,3.064,1.475,2.988-.628,3.052-1.519-1.315-1.729-3.076-1.716" fill="#93b033"/>
        <path id="Trazado_105036" data-name="Trazado 105036" d="M95.02,181.55a5.5,5.5,0,1,0-10.992,0,5.652,5.652,0,0,0,.06.774,6.978,6.978,0,1,0,10.871,0,5.5,5.5,0,0,0,.061-.774" fill="#dadf4d"/>
        <path id="Trazado_105037" data-name="Trazado 105037" d="M89.773,184.184,89.5,202.27a.268.268,0,0,0,.27.266h.035a.268.268,0,0,0,.27-.266s-.121-18.086-.27-18.086c0,0-.035-.146-.035,0" fill="#624800"/>
        <path id="Trazado_105038" data-name="Trazado 105038" d="M87.861,190.188a8.255,8.255,0,0,1-1.624-1.616c1.833,2.95,3.518,2.864,3.518,2.864l.036-.415s-.362.276-1.93-.833" fill="#624800"/>
        <path id="Trazado_105039" data-name="Trazado 105039" d="M91.431,189.146c-1.332.943-1.64.708-1.64.708l.03.353s1.432.073,2.99-2.434a7.017,7.017,0,0,1-1.38,1.373" fill="#624800"/>
        <path id="Trazado_105040" data-name="Trazado 105040" d="M88.467,187.133a5.65,5.65,0,0,1-1.114-1.108c1.257,2.023,2.413,1.964,2.413,1.964l.025-.285s-.249.19-1.324-.571" fill="#624800"/>
        <path id="Trazado_105041" data-name="Trazado 105041" d="M210.185,146.4a4.958,4.958,0,0,0-5.181,0c-5.653,3.543-22.271,49.061,2.591,49.061,26.315,0,8.243-45.518,2.59-49.061" fill="#33a257"/>
        <path id="Trazado_105042" data-name="Trazado 105042" d="M200.954,177.138c-.4-17.933,4.915-31.284,4.05-30.742-5.654,3.543-22.271,49.062,2.59,49.062,0,0-6.244-.509-6.64-18.32" fill="#00744c"/>
        <path id="Trazado_105043" data-name="Trazado 105043" d="M208.591,168.463l-1.765,34.271c.42-.019,3.167.025,3.586,0-.13-14.661-1.458-34.271-1.724-34.271,0,0-.1-.4-.1,0" fill="#624800"/>
        <path id="Trazado_105044" data-name="Trazado 105044" d="M203.35,184.922a22.593,22.593,0,0,1-4.454-4.429c5.027,8.087,9.646,7.851,9.646,7.851l.1-1.139s-.993.758-5.289-2.283" fill="#624800"/>
        <path id="Trazado_105045" data-name="Trazado 105045" d="M213.136,182.066c-3.652,2.584-4.5,1.94-4.5,1.94l.083.968s3.926.2,8.2-6.672a19.179,19.179,0,0,1-3.784,3.764" fill="#624800"/>
        <path id="Trazado_105046" data-name="Trazado 105046" d="M205.011,176.547a15.5,15.5,0,0,1-3.055-3.038c3.448,5.547,6.617,5.385,6.617,5.385l.067-.781s-.681.52-3.629-1.566" fill="#624800"/>
        <path id="Trazado_105047" data-name="Trazado 105047" d="M151.66,163.677a3.452,3.452,0,0,0-3.609,0c-3.938,2.468-15.512,34.173,1.805,34.173,18.329,0,5.742-31.705,1.8-34.173" fill="#33a257"/>
        <path id="Trazado_105048" data-name="Trazado 105048" d="M145.231,185.09c-.278-12.491,3.424-21.79,2.821-21.413-3.938,2.468-15.513,34.173,1.8,34.173,0,0-4.349-.354-4.625-12.76" fill="#00744c"/>
        <path id="Trazado_105049" data-name="Trazado 105049" d="M150.551,179.048l-1.229,23.871c.291-.014,2.2.017,2.5,0-.089-10.212-1.015-23.871-1.2-23.871,0,0-.066-.28-.066,0" fill="#624800"/>
        <path id="Trazado_105050" data-name="Trazado 105050" d="M146.9,190.511a15.726,15.726,0,0,1-3.1-3.085c3.5,5.633,6.719,5.469,6.719,5.469l.068-.793s-.692.528-3.685-1.591" fill="#624800"/>
        <path id="Trazado_105051" data-name="Trazado 105051" d="M153.716,188.522c-2.543,1.8-3.132,1.351-3.132,1.351l.058.675s2.735.139,5.71-4.648a13.4,13.4,0,0,1-2.636,2.622" fill="#624800"/>
        <path id="Trazado_105052" data-name="Trazado 105052" d="M148.057,184.678a10.805,10.805,0,0,1-2.129-2.116c2.4,3.864,4.609,3.751,4.609,3.751l.048-.544s-.476.362-2.528-1.091" fill="#624800"/>
        <path id="Trazado_105053" data-name="Trazado 105053" d="M193.794,158.465a3.754,3.754,0,0,0-3.924,0c-4.283,2.684-17.971,37.162,1.962,37.162,18.832,0,6.244-34.478,1.962-37.162" fill="#97c266"/>
        <path id="Trazado_105054" data-name="Trazado 105054" d="M185.816,182.017c-.293-13.108,3.592-22.867,2.959-22.47-4.132,2.59-16.278,35.861,1.894,35.861,0,0-4.564-.372-4.853-13.391" fill="#71924d"/>
        <path id="Trazado_105055" data-name="Trazado 105055" d="M191.341,177.6,190.03,203.07c.312-.015,2.352.018,2.664,0-.1-10.894-1.084-25.466-1.281-25.466,0,0-.072-.3-.072,0" fill="#624800"/>
        <path id="Trazado_105056" data-name="Trazado 105056" d="M187.446,189.834a16.774,16.774,0,0,1-3.309-3.291c3.735,6.009,7.168,5.834,7.168,5.834l.072-.847s-.738.563-3.931-1.7" fill="#624800"/>
        <path id="Trazado_105057" data-name="Trazado 105057" d="M194.717,187.711c-2.713,1.921-3.341,1.441-3.341,1.441l.062.72s2.917.149,6.091-4.958a14.292,14.292,0,0,1-2.812,2.8" fill="#624800"/>
        <path id="Trazado_105058" data-name="Trazado 105058" d="M188.68,183.611a11.519,11.519,0,0,1-2.27-2.257c2.562,4.122,4.917,4,4.917,4l.05-.58s-.507.386-2.7-1.164" fill="#624800"/>
        <path id="Trazado_105059" data-name="Trazado 105059" d="M123.558,158.314a3.754,3.754,0,0,0-3.924,0c-4.283,2.684-17.971,37.162,1.962,37.162,18.832,0,6.244-34.478,1.962-37.162" fill="#009969"/>
        <path id="Trazado_105060" data-name="Trazado 105060" d="M115.579,181.866c-.292-13.108,3.593-22.867,2.96-22.47-4.132,2.59-16.279,35.861,1.894,35.861,0,0-4.564-.372-4.854-13.391" fill="#00744c"/>
        <path id="Trazado_105061" data-name="Trazado 105061" d="M121.1,177.453l-1.311,25.466c.312-.015,2.353.018,2.664,0-.1-10.9-1.083-25.466-1.281-25.466,0,0-.072-.3-.072,0" fill="#624800"/>
        <path id="Trazado_105062" data-name="Trazado 105062" d="M117.209,189.682a16.774,16.774,0,0,1-3.309-3.291c3.735,6.009,7.167,5.834,7.167,5.834l.073-.847s-.738.564-3.931-1.7" fill="#624800"/>
        <path id="Trazado_105063" data-name="Trazado 105063" d="M124.481,187.56c-2.713,1.92-3.341,1.441-3.341,1.441l.062.72s2.917.149,6.091-4.958a14.292,14.292,0,0,1-2.812,2.8" fill="#624800"/>
        <path id="Trazado_105064" data-name="Trazado 105064" d="M118.443,183.459a11.519,11.519,0,0,1-2.27-2.257c2.562,4.122,4.917,4,4.917,4l.05-.58s-.507.386-2.7-1.164" fill="#624800"/>
        <path id="Trazado_105065" data-name="Trazado 105065" d="M137.959,151.4a4.42,4.42,0,0,0-4.618,0c-5.04,3.158-21.15,43.735,2.309,43.735,22.162,0,7.349-40.577,2.309-43.735" fill="#00b452"/>
        <path id="Trazado_105066" data-name="Trazado 105066" d="M128.955,179.352c-.347-15.569,4.267-27.16,3.516-26.689-4.908,3.076-19.335,42.593,2.249,42.593,0,0-5.421-.441-5.765-15.9" fill="#00873e"/>
        <path id="Trazado_105067" data-name="Trazado 105067" d="M135.346,174.611l-1.458,28.307c.347-.016,2.616.02,2.962,0-.108-12.11-1.205-28.307-1.424-28.307,0,0-.08-.332-.08,0" fill="#624800"/>
        <path id="Trazado_105068" data-name="Trazado 105068" d="M131.017,188.205a18.665,18.665,0,0,1-3.678-3.658c4.151,6.679,7.967,6.484,7.967,6.484l.081-.941s-.821.627-4.37-1.885" fill="#624800"/>
        <path id="Trazado_105069" data-name="Trazado 105069" d="M139.1,185.846c-3.016,2.134-3.713,1.6-3.713,1.6l.068.8s3.243.166,6.771-5.511a15.844,15.844,0,0,1-3.126,3.109" fill="#624800"/>
        <path id="Trazado_105070" data-name="Trazado 105070" d="M132.389,181.287a12.8,12.8,0,0,1-2.523-2.508c2.848,4.582,5.465,4.448,5.465,4.448l.055-.646s-.562.429-3-1.294" fill="#624800"/>
        <path id="Trazado_105071" data-name="Trazado 105071" d="M114.7,171.9a8.182,8.182,0,1,0-16.364,0,8.09,8.09,0,0,0,.091,1.152,10.386,10.386,0,1,0,16.183,0,8.239,8.239,0,0,0,.09-1.152" fill="#c2d56a"/>
        <path id="Trazado_105072" data-name="Trazado 105072" d="M106.928,171.871l-.449,30.6a.449.449,0,0,0,.449.449h.059a.449.449,0,0,0,.449-.449s-.2-30.6-.449-30.6c0,0-.059-.248-.059,0" fill="#624800"/>
        <path id="Trazado_105073" data-name="Trazado 105073" d="M103.749,182.031a13.836,13.836,0,0,1-2.7-2.734c3.047,4.992,5.849,4.846,5.849,4.846l.059-.7s-.6.468-3.208-1.409" fill="#624800"/>
        <path id="Trazado_105074" data-name="Trazado 105074" d="M109.684,180.268c-2.214,1.6-2.726,1.2-2.726,1.2l.05.6s2.381.124,4.971-4.118a11.753,11.753,0,0,1-2.295,2.323" fill="#624800"/>
        <path id="Trazado_105075" data-name="Trazado 105075" d="M104.757,176.861a9.49,9.49,0,0,1-1.852-1.875c2.09,3.424,4.012,3.324,4.012,3.324l.041-.482s-.414.321-2.2-.967" fill="#624800"/>
        <path id="Trazado_105076" data-name="Trazado 105076" d="M71.369,180.286a5.869,5.869,0,1,0-11.672.826,7.449,7.449,0,1,0,11.607,0,5.913,5.913,0,0,0,.065-.826" fill="#c2d56a"/>
        <path id="Trazado_105077" data-name="Trazado 105077" d="M65.8,180.263l-.322,21.95a.323.323,0,0,0,.322.323h.042a.323.323,0,0,0,.322-.323s-.144-21.95-.322-21.95c0,0-.042-.178-.042,0" fill="#624800"/>
        <path id="Trazado_105078" data-name="Trazado 105078" d="M63.518,187.55a9.936,9.936,0,0,1-1.937-1.961c2.186,3.581,4.195,3.476,4.195,3.476l.043-.5s-.432.335-2.3-1.011" fill="#624800"/>
        <path id="Trazado_105079" data-name="Trazado 105079" d="M67.774,186.285c-1.588,1.144-1.955.859-1.955.859l.036.429s1.707.088,3.565-2.954a8.458,8.458,0,0,1-1.646,1.666" fill="#624800"/>
        <path id="Trazado_105080" data-name="Trazado 105080" d="M64.24,183.842a6.84,6.84,0,0,1-1.329-1.345c1.5,2.456,2.878,2.384,2.878,2.384l.029-.346s-.3.23-1.578-.693" fill="#624800"/>
        <path id="Trazado_105081" data-name="Trazado 105081" d="M57.479,198.162a2.267,2.267,0,0,0-1.458.53c.008-.106.017-.213.017-.321a4.334,4.334,0,0,0-7.684-2.749,3.037,3.037,0,0,0-.929-.147,3,3,0,0,0-1.253.275,6.034,6.034,0,0,0-12,.917c0,.029,0,.056,0,.085a3.019,3.019,0,1,0-.706,5.953v.112H57.795v-.137a2.27,2.27,0,0,0-.316-4.518" fill="#93b033"/>
        <path id="Trazado_105082" data-name="Trazado 105082" d="M39.58,190.81a5.521,5.521,0,1,0,0,11.042s-3.171-1-3.413-5.521a5.673,5.673,0,0,1,3.413-5.521" fill="#6d9300"/>
        <path id="Trazado_105083" data-name="Trazado 105083" d="M47.5,195.546a2.879,2.879,0,0,0-2.834,2.921,3.216,3.216,0,0,1,5.754-.086,2.879,2.879,0,0,0-2.92-2.835" fill="#6d9300"/>
        <path id="Trazado_105084" data-name="Trazado 105084" d="M129.315,145a4.234,4.234,0,0,0-1.306,1.546,4.25,4.25,0,0,0-1.865-.722c-1.648-.243-2.863.331-3.013,1.351,0,0,.456-.925,2.91-.646a4.448,4.448,0,0,1,1.78.558l-.045,1.272.61-.14.714-.163-.649-1.109a5.8,5.8,0,0,1,1.291-1.376c1.746-1.4,2.863-.829,2.863-.829-.617-.826-1.956-.741-3.29.258" fill="#84888a"/>
        <path id="Trazado_105085" data-name="Trazado 105085" d="M72.059,117.764a3.656,3.656,0,0,0-1.073,1.436,3.59,3.59,0,0,0-1.6-.73c-1.406-.27-2.425.245-2.528,1.209,0,0,.365-.867,2.457-.543a3.683,3.683,0,0,1,1.526.572l-.008,1.205.516-.118.6-.138-.578-1.067a4.944,4.944,0,0,1,1.064-1.275c1.451-1.287,2.414-.717,2.414-.717-.545-.8-1.681-.749-2.79.166" fill="#84888a"/>
        <path id="Trazado_105086" data-name="Trazado 105086" d="M70.257,131.932a2.131,2.131,0,0,0-.667.766,2.16,2.16,0,0,0-.943-.349c-.834-.114-1.452.173-1.532.675,0,0,.234-.457,1.477-.328a2.286,2.286,0,0,1,.9.269l-.028.626.31-.071.362-.083-.325-.543a2.928,2.928,0,0,1,.659-.682c.89-.7,1.454-.418,1.454-.418-.31-.4-.989-.358-1.668.138" fill="#84888a"/>
        <path id="Trazado_105087" data-name="Trazado 105087" d="M43.67,125.393a2.923,2.923,0,0,0-.91,1.044,2.924,2.924,0,0,0-1.284-.476c-1.137-.155-1.979.236-2.087.921,0,0,.319-.623,2.013-.448a3.11,3.11,0,0,1,1.226.366l-.037.854.422-.1.494-.113-.443-.741a4.037,4.037,0,0,1,.9-.929c1.213-.948,1.981-.57,1.981-.57-.422-.551-1.347-.487-2.273.189" fill="#84888a"/>
        <path id="Trazado_105088" data-name="Trazado 105088" d="M130.448,137.46a1.545,1.545,0,0,0-.485.557,1.573,1.573,0,0,0-.685-.254c-.607-.083-1.056.126-1.114.491,0,0,.17-.332,1.074-.239a1.662,1.662,0,0,1,.654.2l-.02.455.226-.052.263-.06-.236-.4a2.127,2.127,0,0,1,.479-.5c.647-.506,1.057-.3,1.057-.3-.225-.294-.719-.26-1.213.1" fill="#84888a"/>
        <path id="Trazado_105089" data-name="Trazado 105089" d="M214.146,200.27a1.456,1.456,0,0,0-.936.34c.006-.068.011-.136.011-.206a2.781,2.781,0,0,0-4.932-1.764,1.918,1.918,0,0,0-1.4.082,3.873,3.873,0,0,0-7.7.588c0,.019,0,.036,0,.055a1.937,1.937,0,1,0-.453,3.821v.072h15.613v-.088a1.457,1.457,0,0,0-.2-2.9" fill="#93b033"/>
        <path id="Trazado_105090" data-name="Trazado 105090" d="M202.657,195.551a3.544,3.544,0,1,0,0,7.087s-2.035-.643-2.191-3.543a3.641,3.641,0,0,1,2.191-3.544" fill="#6d9300"/>
        <path id="Trazado_105091" data-name="Trazado 105091" d="M207.743,198.591a1.846,1.846,0,0,0-1.819,1.874,2.064,2.064,0,0,1,3.693-.055,1.846,1.846,0,0,0-1.874-1.819" fill="#6d9300"/>
        <path id="Trazado_105092" data-name="Trazado 105092" d="M96.855,198.744a2.012,2.012,0,0,0-.468.057c0-.019,0-.037,0-.056a4,4,0,0,0-7.945-.607,1.982,1.982,0,0,0-.829-.182,2.015,2.015,0,0,0-.615.1,2.87,2.87,0,0,0-5.088,1.82c0,.072.006.142.011.213a1.5,1.5,0,1,0-1.174,2.64v.091H96.855v-.074a2,2,0,0,0,0-4" fill="#789c00"/>
        <path id="Trazado_105093" data-name="Trazado 105093" d="M92.81,194.867a3.755,3.755,0,0,1,2.26,3.655c-.16,2.992-2.26,3.656-2.26,3.656a3.655,3.655,0,1,0,0-7.311" fill="#00744c"/>
        <path id="Trazado_105094" data-name="Trazado 105094" d="M87.564,198a1.9,1.9,0,0,0-1.933,1.876,2.129,2.129,0,0,1,3.809.057A1.9,1.9,0,0,0,87.564,198" fill="#00744c"/>
        <path id="Trazado_105095" data-name="Trazado 105095" d="M82.786,174a7.527,7.527,0,1,0-14.97,1.059,9.555,9.555,0,1,0,14.887,0A7.54,7.54,0,0,0,82.786,174" fill="#97c266"/>
        <path id="Trazado_105096" data-name="Trazado 105096" d="M75.64,173.969l-.413,28.153a.413.413,0,0,0,.413.413h.054a.413.413,0,0,0,.413-.413s-.185-28.153-.413-28.153c0,0-.054-.228-.054,0" fill="#624800"/>
        <path id="Trazado_105097" data-name="Trazado 105097" d="M72.716,183.315a12.736,12.736,0,0,1-2.484-2.515c2.8,4.592,5.381,4.458,5.381,4.458l.054-.647s-.554.431-2.951-1.3" fill="#624800"/>
        <path id="Trazado_105098" data-name="Trazado 105098" d="M78.175,181.693c-2.037,1.468-2.508,1.1-2.508,1.1l.046.548s2.19.115,4.573-3.787a10.788,10.788,0,0,1-2.111,2.136" fill="#624800"/>
        <path id="Trazado_105099" data-name="Trazado 105099" d="M73.643,178.56a8.725,8.725,0,0,1-1.7-1.725c1.923,3.15,3.691,3.058,3.691,3.058l.038-.444s-.381.3-2.025-.889" fill="#624800"/>
        <path id="Trazado_105100" data-name="Trazado 105100" d="M313.006,90.922a5.643,5.643,0,1,0,5.643,5.643,5.643,5.643,0,0,0-5.643-5.643" fill="#aaabb0"/>
        <path id="Trazado_105101" data-name="Trazado 105101" d="M264.8,90.373a3.589,3.589,0,1,0,3.589,3.589,3.589,3.589,0,0,0-3.589-3.589" fill="#aaabb0"/>
        <path id="Trazado_105102" data-name="Trazado 105102" d="M273.065,76.818A6.938,6.938,0,1,0,280,83.756a6.938,6.938,0,0,0-6.937-6.938" fill="#c8c7c7"/>
        <path id="Trazado_105103" data-name="Trazado 105103" d="M304.487,102.876a2.374,2.374,0,1,0,2.394,2.353,2.373,2.373,0,0,0-2.394-2.353" fill="#aaabb0"/>
        <path id="Trazado_105104" data-name="Trazado 105104" d="M387.226,82.334l-.482.009a7.419,7.419,0,0,0-9.131-7.083,8.686,8.686,0,0,0-16.778,1.5,6.9,6.9,0,0,0-.9-.049,6.78,6.78,0,0,0-6.648,6.722,12.477,12.477,0,0,0-8.556,9.069l52.9-.984c-1.467-5.333-4.631-9.295-10.4-9.185" fill="#95969c"/>
        <path id="Trazado_105105" data-name="Trazado 105105" d="M387.291,82.353l-.482.006a7.42,7.42,0,0,0-9.082-7.147A8.686,8.686,0,0,0,360.939,76.6a6.729,6.729,0,0,0-7.6,6.62,12.48,12.48,0,0,0-8.619,9.009l53.352-.62c-1.431-5.343-5.016-9.324-10.785-9.254" fill="#95969c"/>
        <path id="Trazado_105106" data-name="Trazado 105106" d="M360.09,76.5s4.628,1.5,4.4,5.817a6.228,6.228,0,0,1-4.4,5.818,5.818,5.818,0,0,0,0-11.635" fill="#a3a1a1"/>
        <path id="Trazado_105107" data-name="Trazado 105107" d="M388.827,82.314a8.587,8.587,0,0,0-8.714,8.457s2.3-7.216,8.665-6.778a9.421,9.421,0,0,1,8.506,7.035,8.586,8.586,0,0,0-8.457-8.714" fill="#a3a1a1"/>
        <path id="Trazado_105108" data-name="Trazado 105108" d="M91.926,44.52A4.278,4.278,0,1,0,96.205,48.8a4.279,4.279,0,0,0-4.279-4.279" fill="#dceef7"/>
        <path id="Trazado_105109" data-name="Trazado 105109" d="M68.659,56.232a1.591,1.591,0,1,0,1.591,1.591,1.591,1.591,0,0,0-1.591-1.591" fill="#fff"/>
        <path id="Trazado_105110" data-name="Trazado 105110" d="M151.407,103.972a2.019,2.019,0,1,0,2.018,2.018,2.018,2.018,0,0,0-2.018-2.018" fill="#fff"/>
        <path id="Trazado_105111" data-name="Trazado 105111" d="M121.972,116.569a10.242,10.242,0,1,0,10.241,10.241,10.241,10.241,0,0,0-10.241-10.241" fill="#fdffb2"/>
        <path id="Trazado_105112" data-name="Trazado 105112" d="M122.323,116.569a10.242,10.242,0,1,0,0,20.483s-5.558-5.121-5.558-10.242,5.558-10.241,5.558-10.241" fill="#fff566"/>
        <path id="Trazado_105113" data-name="Trazado 105113" d="M292.128,60.491H280.315a6.534,6.534,0,0,0,0,13.069h11.813a6.534,6.534,0,0,0,0-13.069" fill="#aaabb0"/>
        <path id="Trazado_105114" data-name="Trazado 105114" d="M283.726,0H271.913a6.535,6.535,0,0,0,0,13.069h11.813a6.535,6.535,0,0,0,0-13.069" fill="#c8c7c7"/>
        <path id="Trazado_105115" data-name="Trazado 105115" d="M227.409,77.221H221.7V90.29h5.71a6.535,6.535,0,0,0,0-13.069" fill="#aaabb0"/>
        <path id="Trazado_105116" data-name="Trazado 105116" d="M322.457,38.385h-18.9a10.456,10.456,0,0,0,0,20.912h18.9a10.456,10.456,0,0,0,0-20.912" fill="#c8c7c7"/>
        <path id="Trazado_105117" data-name="Trazado 105117" d="M349.646,52.141H316.18a6.663,6.663,0,0,0,0,13.326h33.466a6.663,6.663,0,0,0,0-13.326" fill="#c8c7c7"/>
        <path id="Trazado_105118" data-name="Trazado 105118" d="M171.658,276.941h-16.35a3.255,3.255,0,1,0,0,6.51h16.35a3.255,3.255,0,1,0,0-6.51" fill="#a1d1e0"/>
        <path id="Trazado_105119" data-name="Trazado 105119" d="M159.539,258.3h-50.5c-5.529,0-8.053,2.151-8.053,4.781s2.524,4.78,8.053,4.78h50.5c5.529,0,8.053-2.151,8.053-4.78s-2.524-4.781-8.053-4.781" fill="#a1d1e0"/>
        <path id="Trazado_105120" data-name="Trazado 105120" d="M324.564,246.975H305.149a3.865,3.865,0,1,0,0,7.731h19.415a3.865,3.865,0,0,0,0-7.731" fill="#aaabb0"/>
        <path id="Trazado_105121" data-name="Trazado 105121" d="M312.523,251.849H280.829a6.31,6.31,0,0,0,0,12.62h31.694a6.31,6.31,0,1,0,0-12.62" fill="#aaabb0"/>
        <path id="Trazado_105122" data-name="Trazado 105122" d="M135.626,246.761a5.714,5.714,0,0,1-.669.047,8.113,8.113,0,0,1-6.157-3.24l-.145-.185-.153.18c-1.073,1.221-3.3,3.273-6.137,3.273a8.044,8.044,0,0,1-6.1-3.267l-.145-.184-.154.176a9,9,0,0,1-4.995,3.169l-.14.026.072.383.14-.026a9.258,9.258,0,0,0,5.061-3.123,8.38,8.38,0,0,0,6.233,3.235h.03c2.871,0,5.126-1.973,6.277-3.236a8.45,8.45,0,0,0,6.288,3.208,6.2,6.2,0,0,0,.751-.051l.151-.019-.075-.382Z" fill="#0065c4"/>
        <path id="Trazado_105123" data-name="Trazado 105123" d="M135.691,248.424a5.836,5.836,0,0,1-.734.055,8.115,8.115,0,0,1-6.158-3.241l-.144-.184-.153.18c-1.074,1.221-3.3,3.273-6.137,3.273a8.046,8.046,0,0,1-6.1-3.267l-.144-.184-.155.176a9,9,0,0,1-4.995,3.169l-.139.026.072.383.14-.027a9.246,9.246,0,0,0,5.06-3.123,8.38,8.38,0,0,0,6.234,3.236h.03c2.871,0,5.126-1.973,6.276-3.237a8.45,8.45,0,0,0,6.288,3.208,6.255,6.255,0,0,0,.8-.055l.128-.017-.005-.391Z" fill="#0065c4"/>
        <path id="Trazado_105124" data-name="Trazado 105124" d="M134.957,250.15a8.113,8.113,0,0,1-6.157-3.24l-.145-.185-.153.18c-1.073,1.222-3.3,3.273-6.137,3.273a8.041,8.041,0,0,1-6.1-3.267l-.145-.184-.154.176a9,9,0,0,1-4.995,3.169l-.14.026.072.383.14-.026a9.258,9.258,0,0,0,5.061-3.123,8.38,8.38,0,0,0,6.233,3.235h.03c2.871,0,5.126-1.973,6.277-3.236a8.45,8.45,0,0,0,6.288,3.208,6.149,6.149,0,0,0,.793-.057l.12-.016,0-.392-.161.021a5.557,5.557,0,0,1-.729.055" fill="#0065c4"/>
        <path id="Trazado_105125" data-name="Trazado 105125" d="M416.952,202.4H26.648c-13.023,0-11.925,12.811,0,12.811h390.3c10.828,0,9.73-12.811,0-12.811" fill="#009969"/>
        <path id="Trazado_105126" data-name="Trazado 105126" d="M389.223,228.014a7.366,7.366,0,0,0-1.14-.094H56.778c-10.407.106-11.139,10.812,0,10.812H388.654c6.135,0,5.949-9.873.569-10.718" fill="#84888a"/>
        <path id="Trazado_105127" data-name="Trazado 105127" d="M436.461,215.334a8.805,8.805,0,0,0-1.347-.122H9.629c-12.656,0-13.021,12.814,0,12.814H435.791c7.888,0,8.3-11.5.67-12.692" fill="#00744c"/>
        <path id="Trazado_105128" data-name="Trazado 105128" d="M416.952,202.4H220.977v12.811H416.952c10.828,0,9.73-12.811,0-12.811" fill="#cf9e50"/>
        <path id="Trazado_105129" data-name="Trazado 105129" d="M389.278,228.026h-168.3v10.706H388.654c6.113,0,5.948-9.8.624-10.706" fill="#84888a"/>
        <path id="Trazado_105130" data-name="Trazado 105130" d="M436.462,215.334a8.805,8.805,0,0,0-1.347-.122H220.977V227.92H388.084a7.363,7.363,0,0,1,1.139.094c.019,0,.037.009.056.012h46.512c7.889,0,8.3-11.5.671-12.692" fill="#ab6e37"/>
        <path id="Trazado_105131" data-name="Trazado 105131" d="M388.083,227.92H220.977v.106h168.3c-.019,0-.036-.009-.055-.012a7.376,7.376,0,0,0-1.14-.094" fill="#ab6e37"/>
        <path id="Trazado_105132" data-name="Trazado 105132" d="M293.01,114.168l-3.993,88.967,14.78.175-1.886-89.037Z" fill="#a3a1a1"/>
        <path id="Trazado_105133" data-name="Trazado 105133" d="M289.017,203.134l7.39.087,1.054-89-4.451-.053Z" fill="#757474"/>
        <path id="Trazado_105134" data-name="Trazado 105134" d="M297.207,135.692l-5.1-.06-.232,5.165,5.274.062,5.273.063-.109-5.17Z" fill="#edecec"/>
        <path id="Trazado_105135" data-name="Trazado 105135" d="M297.064,147.773l-5.513-.065-.339,7.551,5.763.068,5.762.069-.16-7.558Z" fill="#edecec"/>
      </g>
    </g>
    <rect id="Rectángulo_339875" data-name="Rectángulo 339875" width="610" height="494" transform="translate(810 1593.323)" fill="none"/>
  </g>
</svg>
