<svg xmlns="http://www.w3.org/2000/svg" width="110" height="110" viewBox="0 0 110 110">
  <g id="_6" data-name="6" transform="translate(-285 -2872)">
    <rect id="Rectángulo_339844" data-name="Rectángulo 339844" width="110" height="110" transform="translate(285 2872)" fill="#feb12e"/>
    <g id="notas-adhesivas" transform="translate(305 2891)">
      <path id="Trazado_704395" data-name="Trazado 704395" d="M419.559,128.481h-4.186L407,97.99l8.373-30.49h4.186Z" transform="translate(-351.252 -58.081)" fill="#666ddc"/>
      <path id="Trazado_704396" data-name="Trazado 704396" d="M194.236,362.525H150V339.5l44.236,18.839Z" transform="translate(-130.115 -292.125)" fill="#7d8fe5"/>
      <path id="Trazado_704397" data-name="Trazado 704397" d="M389.559,98.481h-4.186L377,67.99l8.373-30.49h4.186Z" transform="translate(-325.438 -32.267)" fill="#ff336d"/>
      <path id="Trazado_704398" data-name="Trazado 704398" d="M120,339.5h44.236v18.839H120Z" transform="translate(-104.301 -292.125)" fill="#ff545a"/>
      <path id="Trazado_704399" data-name="Trazado 704399" d="M57.142,209.5,27.559,227.641H15a6.279,6.279,0,0,0,6.279,6.279H63.422Z" transform="translate(-13.953 -180.265)" fill="#ffb44e"/>
      <path id="Trazado_704400" data-name="Trazado 704400" d="M317,209.5v18.141a6.279,6.279,0,0,0,6.28,6.279h4.186V209.5Z" transform="translate(-273.811 -180.265)" fill="#ff9733"/>
      <path id="Trazado_704401" data-name="Trazado 704401" d="M381.186,7.5,377,59.749a6.28,6.28,0,0,0,8.373-5.921V7.5Z" transform="translate(-325.438 -6.453)" fill="#ffb44e"/>
      <path id="Trazado_704402" data-name="Trazado 704402" d="M105,7.5V53.829h33.77a6.281,6.281,0,0,0,4.186,5.921,6.281,6.281,0,0,0,4.186-5.921V7.5Z" transform="translate(-91.394 -6.453)" fill="#ffd06a"/>
      <circle id="Elipse_5219" data-name="Elipse 5219" cx="2.093" cy="2.093" r="2.093" transform="translate(34.677 34.816)" fill="#4e4cd3"/>
      <path id="Trazado_704403" data-name="Trazado 704403" d="M258.093,67.5A2.093,2.093,0,0,0,256,69.593V86.618a2.093,2.093,0,0,0,4.186,0V69.593A2.093,2.093,0,0,0,258.093,67.5Z" transform="translate(-221.323 -58.081)" fill="#4e4cd3"/>
      <path id="Trazado_704404" data-name="Trazado 704404" d="M75.807,8.373h-3.14V5.233a1.047,1.047,0,0,0-1.047-1.047h-3.14V1.047A1.047,1.047,0,0,0,67.434,0H21.106a1.047,1.047,0,0,0-1.047,1.047V46.329H8.547A1.047,1.047,0,0,0,7.5,47.375,7.334,7.334,0,0,0,14.826,54.7H61.155a7.334,7.334,0,0,0,7.326-7.326V6.279h2.093V65.167H24.245V57.841a1.047,1.047,0,1,0-2.093,0v8.373A1.047,1.047,0,0,0,23.2,67.26h3.14V70.4a1.047,1.047,0,0,0,1.047,1.047H75.807A1.047,1.047,0,0,0,76.854,70.4V9.419A1.047,1.047,0,0,0,75.807,8.373ZM14.826,52.608A5.242,5.242,0,0,1,9.7,48.422H53.9a7.314,7.314,0,0,0,2.129,4.186Zm51.562-5.233a5.233,5.233,0,0,1-10.466,0,1.047,1.047,0,0,0-1.047-1.047H22.152V2.093H66.388ZM74.76,69.354H28.432V67.26H71.621a1.047,1.047,0,0,0,1.047-1.047V10.466H74.76Z" transform="translate(-7.5)"/>
      <path id="Trazado_704405" data-name="Trazado 704405" d="M251.64,60a3.143,3.143,0,0,0-3.14,3.14V80.164a3.14,3.14,0,1,0,6.279,0V63.14A3.143,3.143,0,0,0,251.64,60Zm1.047,20.164a1.047,1.047,0,0,1-2.093,0V63.14a1.047,1.047,0,0,1,2.093,0Z" transform="translate(-214.87 -51.627)"/>
      <path id="Trazado_704406" data-name="Trazado 704406" d="M251.64,242a3.14,3.14,0,1,0,3.14,3.14A3.143,3.143,0,0,0,251.64,242Zm0,4.186a1.047,1.047,0,1,1,1.047-1.047A1.048,1.048,0,0,1,251.64,246.186Z" transform="translate(-214.87 -208.23)"/>
    </g>
  </g>
</svg>
