<svg xmlns="http://www.w3.org/2000/svg" xmlns:xlink="http://www.w3.org/1999/xlink" width="101.984" height="101.983" viewBox="0 0 101.984 101.983">
  <defs>
    <clipPath id="clip-path">
      <rect id="Rectángulo_5760" data-name="Rectángulo 5760" width="88" height="88" transform="translate(-0.256 -0.199)" fill="none"/>
    </clipPath>
  </defs>
  <g id="Grupo_57272" data-name="Grupo 57272" transform="translate(-1066.057 -5265)">
    <g id="Grupo_56931" data-name="Grupo 56931" transform="translate(1066.057 5265)">
      <g id="Grupo_20664" data-name="Grupo 20664" transform="translate(0 0)">
        <g id="Trazado_99078" data-name="Trazado 99078" fill="#fff">
          <path d="M 50.99175262451172 100.483512878418 C 44.30975341796875 100.483512878418 37.82842254638672 99.17516326904297 31.7277946472168 96.59482574462891 C 25.83452415466309 94.10218048095703 20.54152488708496 90.53342437744141 15.99579524993896 85.98770904541016 C 11.45008087158203 81.44199371337891 7.881324291229248 76.14897918701172 5.38869571685791 70.25572204589844 C 2.808338403701782 64.15509796142578 1.499995470046997 57.67375183105469 1.499995470046997 50.99175262451172 C 1.499995470046997 44.30975341796875 2.808338403701782 37.82842254638672 5.38869571685791 31.7277946472168 C 7.881324291229248 25.83452415466309 11.45008087158203 20.54152488708496 15.99579524993896 15.99579524993896 C 20.54152488708496 11.45008087158203 25.83452415466309 7.881324291229248 31.7277946472168 5.38869571685791 C 37.82842254638672 2.808338403701782 44.30975341796875 1.499995470046997 50.99175262451172 1.499995470046997 C 57.67375183105469 1.499995470046997 64.15509796142578 2.808338403701782 70.25572204589844 5.38869571685791 C 76.14897918701172 7.881324291229248 81.44199371337891 11.45008087158203 85.98770904541016 15.99579524993896 C 90.53342437744141 20.54152488708496 94.10218048095703 25.83452415466309 96.59482574462891 31.7277946472168 C 99.17516326904297 37.82842254638672 100.483512878418 44.30975341796875 100.483512878418 50.99175262451172 C 100.483512878418 57.67375183105469 99.17516326904297 64.15509796142578 96.59482574462891 70.25572204589844 C 94.10218048095703 76.14897918701172 90.53342437744141 81.44199371337891 85.98770904541016 85.98770904541016 C 81.44199371337891 90.53342437744141 76.14897918701172 94.10218048095703 70.25572204589844 96.59482574462891 C 64.15509796142578 99.17516326904297 57.67375183105469 100.483512878418 50.99175262451172 100.483512878418 Z" stroke="none"/>
          <path d="M 50.99175262451172 3 C 44.5115852355957 3 38.22684478759766 4.268478393554688 32.31211853027344 6.770195007324219 C 26.59764862060547 9.187217712402344 21.46490478515625 12.64801788330078 17.05645751953125 17.05645751953125 C 12.64801788330078 21.46490478515625 9.187217712402344 26.59764862060547 6.770195007324219 32.31211853027344 C 4.268478393554688 38.22684478759766 3 44.5115852355957 3 50.99175262451172 C 3 57.47192001342773 4.268478393554688 63.75666046142578 6.770195007324219 69.67138671875 C 9.187217712402344 75.3858642578125 12.64801788330078 80.51860046386719 17.05645751953125 84.92704772949219 C 21.46490478515625 89.33549499511719 26.59764862060547 92.79629516601562 32.31211853027344 95.21330261230469 C 38.22684478759766 97.71502685546875 44.5115852355957 98.98350524902344 50.99175262451172 98.98350524902344 C 57.47192001342773 98.98350524902344 63.75666046142578 97.71502685546875 69.67138671875 95.21330261230469 C 75.3858642578125 92.79629516601562 80.51860046386719 89.33549499511719 84.92704772949219 84.92704772949219 C 89.33549499511719 80.51860046386719 92.79629516601562 75.3858642578125 95.21330261230469 69.67138671875 C 97.71502685546875 63.75666046142578 98.98350524902344 57.47192001342773 98.98350524902344 50.99175262451172 C 98.98350524902344 44.5115852355957 97.71502685546875 38.22684478759766 95.21330261230469 32.31211853027344 C 92.79629516601562 26.59764862060547 89.33549499511719 21.46490478515625 84.92704772949219 17.05645751953125 C 80.51860046386719 12.64801788330078 75.3858642578125 9.187217712402344 69.67138671875 6.770195007324219 C 63.75666046142578 4.268478393554688 57.47192001342773 3 50.99175262451172 3 M 50.99175262451172 0 C 79.15372467041016 0 101.9835052490234 22.82978057861328 101.9835052490234 50.99175262451172 C 101.9835052490234 79.15372467041016 79.15372467041016 101.9835052490234 50.99175262451172 101.9835052490234 C 22.82978057861328 101.9835052490234 0 79.15372467041016 0 50.99175262451172 C 0 22.82978057861328 22.82978057861328 0 50.99175262451172 0 Z" stroke="none" fill="#adc46c"/>
        </g>
      </g>
    </g>
    <g id="Grupo_56932" data-name="Grupo 56932" transform="translate(1073.256 5272.199)">
      <g id="Grupo_56877" data-name="Grupo 56877" transform="translate(0 0)" clip-path="url(#clip-path)">
        <path id="Trazado_105226" data-name="Trazado 105226" d="M87.706,43.853A43.853,43.853,0,1,0,43.853,87.706,43.853,43.853,0,0,0,87.706,43.853" transform="translate(-0.06 -0.06)" fill="#2b2b2b"/>
        <path id="Trazado_105227" data-name="Trazado 105227" d="M44.468,83.935A39.468,39.468,0,1,1,83.935,44.468,39.512,39.512,0,0,1,44.468,83.935" transform="translate(-0.675 -0.675)" fill="#fe3613"/>
        <path id="Trazado_105228" data-name="Trazado 105228" d="M56.68,26.835h.005l-3.9,26.906h-.005a3.629,3.629,0,0,1-3.891,3.226A3.629,3.629,0,0,1,45,53.742H45L41.1,26.835h.005A9.961,9.961,0,0,1,41,25.394c0-4.36,2.657-7.894,7.894-7.894s7.894,3.534,7.894,7.894a9.961,9.961,0,0,1-.107,1.442M48.894,62.23c-4.073,0-6.139,2.749-6.139,6.139s2.066,6.139,6.139,6.139,6.139-2.749,6.139-6.139-2.066-6.139-6.139-6.139" transform="translate(-5.101 -2.211)" fill="#fff"/>
      </g>
    </g>
  </g>
</svg>
