<svg id="Grupo_80179" data-name="Grupo 80179" xmlns="http://www.w3.org/2000/svg" xmlns:xlink="http://www.w3.org/1999/xlink" width="263.565" height="274.322" viewBox="0 0 263.565 274.322">
  <defs>
    <clipPath id="clip-path">
      <rect id="Rectángulo_33792" data-name="Rectángulo 33792" width="263.565" height="274.322" fill="none"/>
    </clipPath>
    <clipPath id="clip-path-3">
      <rect id="Rectángulo_33760" data-name="Rectángulo 33760" width="21.651" height="36.185" fill="none"/>
    </clipPath>
    <clipPath id="clip-path-4">
      <rect id="Rectángulo_33761" data-name="Rectángulo 33761" width="19.746" height="40.898" fill="none"/>
    </clipPath>
    <clipPath id="clip-path-5">
      <rect id="Rectángulo_33762" data-name="Rectángulo 33762" width="42.702" height="60.561" fill="none"/>
    </clipPath>
    <clipPath id="clip-path-6">
      <rect id="Rectángulo_33763" data-name="Rectángulo 33763" width="205.929" height="157.683" fill="none"/>
    </clipPath>
    <clipPath id="clip-path-7">
      <rect id="Rectángulo_33764" data-name="Rectángulo 33764" width="189.731" height="120.426" fill="none"/>
    </clipPath>
    <clipPath id="clip-path-8">
      <rect id="Rectángulo_33765" data-name="Rectángulo 33765" width="142.831" height="64.087" fill="none"/>
    </clipPath>
    <clipPath id="clip-path-9">
      <rect id="Rectángulo_33766" data-name="Rectángulo 33766" width="18.698" height="25.872" fill="none"/>
    </clipPath>
    <clipPath id="clip-path-10">
      <rect id="Rectángulo_33767" data-name="Rectángulo 33767" width="68.521" height="32.413" fill="none"/>
    </clipPath>
    <clipPath id="clip-path-11">
      <rect id="Rectángulo_33768" data-name="Rectángulo 33768" width="13.632" height="13.829" fill="none"/>
    </clipPath>
    <clipPath id="clip-path-12">
      <rect id="Rectángulo_33769" data-name="Rectángulo 33769" width="142.814" height="29.696" fill="none"/>
    </clipPath>
    <clipPath id="clip-path-13">
      <rect id="Rectángulo_33770" data-name="Rectángulo 33770" width="28.571" height="18.873" fill="none"/>
    </clipPath>
    <clipPath id="clip-path-14">
      <rect id="Rectángulo_33771" data-name="Rectángulo 33771" width="21.6" height="17.46" fill="none"/>
    </clipPath>
    <clipPath id="clip-path-15">
      <rect id="Rectángulo_33772" data-name="Rectángulo 33772" width="31.905" height="16.817" fill="none"/>
    </clipPath>
    <clipPath id="clip-path-16">
      <rect id="Rectángulo_33773" data-name="Rectángulo 33773" width="31.905" height="12.646" fill="none"/>
    </clipPath>
    <clipPath id="clip-path-17">
      <rect id="Rectángulo_33774" data-name="Rectángulo 33774" width="21.6" height="15.207" fill="none"/>
    </clipPath>
    <clipPath id="clip-path-18">
      <rect id="Rectángulo_33775" data-name="Rectángulo 33775" width="28.571" height="15.155" fill="none"/>
    </clipPath>
    <clipPath id="clip-path-19">
      <rect id="Rectángulo_33776" data-name="Rectángulo 33776" width="32.206" height="17.721" fill="none"/>
    </clipPath>
    <clipPath id="clip-path-20">
      <rect id="Rectángulo_33777" data-name="Rectángulo 33777" width="25.073" height="11.808" fill="none"/>
    </clipPath>
    <clipPath id="clip-path-21">
      <rect id="Rectángulo_33778" data-name="Rectángulo 33778" width="10.786" height="6.105" fill="none"/>
    </clipPath>
    <clipPath id="clip-path-22">
      <rect id="Rectángulo_33779" data-name="Rectángulo 33779" width="17.811" height="14.699" fill="none"/>
    </clipPath>
    <clipPath id="clip-path-23">
      <rect id="Rectángulo_33780" data-name="Rectángulo 33780" width="17.93" height="6.768" fill="none"/>
    </clipPath>
    <clipPath id="clip-path-24">
      <rect id="Rectángulo_33781" data-name="Rectángulo 33781" width="16.117" height="16.375" fill="none"/>
    </clipPath>
    <clipPath id="clip-path-25">
      <rect id="Rectángulo_33782" data-name="Rectángulo 33782" width="16.117" height="12.675" fill="none"/>
    </clipPath>
    <clipPath id="clip-path-26">
      <rect id="Rectángulo_33783" data-name="Rectángulo 33783" width="9.114" height="7.263" fill="none"/>
    </clipPath>
    <clipPath id="clip-path-27">
      <rect id="Rectángulo_33784" data-name="Rectángulo 33784" width="17.93" height="6.653" fill="none"/>
    </clipPath>
    <clipPath id="clip-path-28">
      <rect id="Rectángulo_33785" data-name="Rectángulo 33785" width="17.795" height="13.656" fill="none"/>
    </clipPath>
    <clipPath id="clip-path-29">
      <rect id="Rectángulo_33786" data-name="Rectángulo 33786" width="10.786" height="3.425" fill="none"/>
    </clipPath>
    <clipPath id="clip-path-30">
      <rect id="Rectángulo_33787" data-name="Rectángulo 33787" width="5.671" height="27.948" fill="none"/>
    </clipPath>
    <clipPath id="clip-path-31">
      <rect id="Rectángulo_33788" data-name="Rectángulo 33788" width="14.911" height="15.14" fill="none"/>
    </clipPath>
    <clipPath id="clip-path-32">
      <rect id="Rectángulo_33789" data-name="Rectángulo 33789" width="7.403" height="7.403" fill="none"/>
    </clipPath>
    <clipPath id="clip-path-33">
      <rect id="Rectángulo_33790" data-name="Rectángulo 33790" width="50.172" height="48.488" fill="none"/>
    </clipPath>
  </defs>
  <g id="Grupo_80178" data-name="Grupo 80178" clip-path="url(#clip-path)">
    <g id="Grupo_80177" data-name="Grupo 80177">
      <g id="Grupo_80176" data-name="Grupo 80176" clip-path="url(#clip-path)">
        <path id="Trazado_113706" data-name="Trazado 113706" d="M416.7,696.557c-2.493,4.557-8.821,10.967-15.767,18.67-11.029,12.227-19.1,11.438-30.657,15.116s-17.7-4.2-27.184-2.627c-8.836,1.464-28.212-6.806-24.755-8.471a3.4,3.4,0,0,1,1.129-.249c7.466-.656,47.183,6.283,73.969-8.923,13.769-7.813,19.256-12.779,21.341-15.754,1.448-2.068,2.88-.8,2.333,1.234a4.684,4.684,0,0,1-.409,1" transform="translate(-209.583 -457.01)" fill="#cfe2eb"/>
        <path id="Trazado_113707" data-name="Trazado 113707" d="M417.9,695.553c-4.2,5.919-15.051,11.222-20.316,16.334-7.79,7.567-23.72,8.355-35.392,10.847s-17.794,1.341-25.539.17c-6.057-.914-12.874-1.433-17.524-3.659a3.4,3.4,0,0,1,1.129-.25c7.466-.656,47.183,6.283,73.969-8.923,13.769-7.814,19.257-12.779,21.341-15.754,1.448-2.068,2.88-.8,2.333,1.234" transform="translate(-210.374 -457.01)" fill="#bdced6"/>
        <path id="Trazado_113708" data-name="Trazado 113708" d="M294.829,221.112a102.976,102.976,0,0,1-17.252,57.229q-.966,1.455-1.98,2.875a104.025,104.025,0,0,1-25.932,25.4,102.9,102.9,0,0,1-42.108,16.728q-3.405.542-6.887.851-4.6.411-9.328.413a103.889,103.889,0,0,1-15.058-1.09,103.566,103.566,0,0,1-86.84-84.175c-.23-1.3-.437-2.612-.616-3.933q-.692-5.022-.9-10.191-.077-2.04-.079-4.1c0-1.3.028-2.589.072-3.877q.155-4.175.632-8.266.286-2.41.676-4.791a103.5,103.5,0,0,1,205.583,14.875c.012.684.02,1.372.02,2.06" transform="translate(-57.91 -77.537)" fill="#9cd1e6"/>
        <g id="Grupo_80085" data-name="Grupo 80085" transform="translate(88.04 167.04)" opacity="0.42">
          <g id="Grupo_80084" data-name="Grupo 80084">
            <g id="Grupo_80083" data-name="Grupo 80083" clip-path="url(#clip-path-3)">
              <path id="Trazado_113709" data-name="Trazado 113709" d="M265.651,491.473c-8.02-.126-9.174,4.624-4.746,10.533s1.686,11-.955,14.488,3.17,4.625,8.724,8.465,4.542-1.183.016-4.192,2.613-2.1,3.078-8-2.667-4.958-5.54-9.338,6.539-9.31,12.929-12.751c2.926-1.575-1.844.976-13.506.793" transform="translate(-258.346 -490.164)" fill="#67a4c3"/>
            </g>
          </g>
        </g>
        <g id="Grupo_80088" data-name="Grupo 80088" transform="translate(126.461 167.491)" opacity="0.42">
          <g id="Grupo_80087" data-name="Grupo 80087">
            <g id="Grupo_80086" data-name="Grupo 80086" clip-path="url(#clip-path-4)">
              <path id="Trazado_113710" data-name="Trazado 113710" d="M376.078,512.73c-5.091,8.349-5.8,13.733-.973,16.413s7.071,4.954,13.059,1.464.7-3.365-4.056-2.844,1.331-2.694-3.174-7.653,3.736-6.777,4.7-10.125,5.127-3.858,1.5-10.137-11.846,1.65-13.492-5.132-3.97-1.544-1.407,3.518,4.447,1.751,5.021,6.286,2.046,2.93-1.173,8.209" transform="translate(-371.089 -491.488)" fill="#67a4c3"/>
            </g>
          </g>
        </g>
        <g id="Grupo_80091" data-name="Grupo 80091" transform="translate(142.973 135.615)" opacity="0.42">
          <g id="Grupo_80090" data-name="Grupo 80090">
            <g id="Grupo_80089" data-name="Grupo 80089" clip-path="url(#clip-path-5)">
              <path id="Trazado_113711" data-name="Trazado 113711" d="M428.6,398.092c5.682,1.394,13.517,3.554,15.289,7.555s8.306,2.086,9.556,8.447,6.878,3.607,8.67,11.1-15.034,11.031-14.5,20.42-17.576,10.4-21.893,12.046-9.016.788-4.014-1.466,4.64-8.1,10.224-9.34,10.248-3.1,12.7-10.141,8.829-7.987,7.943-15.044-5.1-7.9-11.671-10.227-.873-4.488-6.559-7.48-9.513-6.792-5.739-5.866" transform="translate(-419.542 -397.95)" fill="#67a4c3"/>
            </g>
          </g>
        </g>
        <path id="Trazado_113712" data-name="Trazado 113712" d="M386.408,622.319c-1.236,4.825-7.464,6.892-10.226,10.338s-10.45,2.121-17.077,0,5.3-7.879,11.133-16,9.69-13.423,18.1-15.014,4.633,4.777.822,9.016-1.778,7.862-2.751,11.66" transform="translate(-235.443 -396.449)" fill="#489da2"/>
        <path id="Trazado_113713" data-name="Trazado 113713" d="M214.272,571.728c0-4.157,4.908-3.228,7.027-2.432s1.588.662-.665,3.048-.665,4.109-3.712,4.506-2.65-2.558-2.65-5.122" transform="translate(-141.24 -374.837)" fill="#489da2"/>
        <path id="Trazado_113714" data-name="Trazado 113714" d="M209.724,622.687c-.8,3.181-2.518,2.916.8,6.759s2.651,3.446,5.7,6.1,3.446-1.06,3.711-3.976,2.651.4.6-4.97-1.5-5.623-2.98-9.388-4.658.116-5.71,2-2.112,3.477-2.112,3.477" transform="translate(-137.488 -405.829)" fill="#489da2"/>
        <path id="Trazado_113715" data-name="Trazado 113715" d="M189.153,539.245c-1.437,3.578-5.654,6.9-6.468,12.591s-4.523,5.833-2.162,11.068-7.169-1.282-7.573-5.877.789-6.98,3.572-9.167,7.878-5.594,10.2-8.264,3.712-3.543,2.43-.351" transform="translate(-113.961 -354.13)" fill="#489da2"/>
        <path id="Trazado_113716" data-name="Trazado 113716" d="M125.855,426.043c6.6,10.338-.557,16.9-6.919,17.893s-8.35.8-8.748,8.748,13.5,13.519,13.11,19.881c-.056.9-.076,1.833-.064,2.784a103.371,103.371,0,0,1-33.1-59.094q-.346-1.956-.616-3.932-.692-5.022-.9-10.191-.078-2.04-.079-4.1c0-1.3.028-2.588.072-3.877q.155-4.175.632-8.266c.744,4.131,2.568,7.96,7.829,12.143,10.736,8.533,10.441.529,14.235,11.439s7.956,6.239,14.553,16.577" transform="translate(-58.364 -254.381)" fill="#489da2"/>
        <path id="Trazado_113717" data-name="Trazado 113717" d="M317.451,709.51a102.726,102.726,0,0,1-15.817-3.595c1.726-1.65,4.127-3.2,6.835-2.8,3.05.449,6.525,3.67,8.982,6.4" transform="translate(-198.842 -463.462)" fill="#489da2"/>
        <path id="Trazado_113718" data-name="Trazado 113718" d="M527.078,417.533a102.975,102.975,0,0,1-17.253,57.229q-.966,1.455-1.98,2.875a104.023,104.023,0,0,1-25.932,25.4,102.9,102.9,0,0,1-42.108,16.728c0-.04,0-.08,0-.119-.159-7.022,21.63-12.064,12.056-18.426s3.611-14.314,17.527-21.427,19.483-6.405,26.028-16.135,9.758-14.127,12.143-24.068c2.195-9.149,10.453-12.573,19.5-24.111.012.684.02,1.372.02,2.06" transform="translate(-289.924 -273.887)" fill="#489da2"/>
        <g id="Grupo_80094" data-name="Grupo 80094" transform="translate(29.416 89.455)" opacity="0.12" style="mix-blend-mode: multiply;isolation: isolate">
          <g id="Grupo_80093" data-name="Grupo 80093">
            <g id="Grupo_80092" data-name="Grupo 80092" clip-path="url(#clip-path-6)">
              <path id="Trazado_113719" data-name="Trazado 113719" d="M292.247,331.5a102.923,102.923,0,0,1-18.179,45.29,104.053,104.053,0,0,1-25.933,25.4,103.053,103.053,0,0,1-48.993,17.577q-4.607.41-9.331.413A103.521,103.521,0,0,1,87.917,334.917q-.347-1.956-.619-3.933-.694-5.024-.9-10.19-.082-2.045-.08-4.106,0-1.944.072-3.874A102.92,102.92,0,0,1,101.625,262.5a104.242,104.242,0,0,0-.98,10.932q-.068,1.932-.071,3.875,0,2.063.08,4.106c.134,3.441.894,6.809.9,10.189.017,8.021,5.911,17.136,6.541,25.089,2.386,30.121,18.675,48.4,68.912,63.905,14.69,4.534,27.984-.5,36.391-.21a75.862,75.862,0,0,0,38.2-8.509,41.219,41.219,0,0,0,10.789-9.068c11.746-13.994,18.853-15.487,25.933-25.4q2.06-2.882,3.924-5.908" transform="translate(-86.318 -262.497)" fill="#557387"/>
            </g>
          </g>
        </g>
        <g id="Grupo_80097" data-name="Grupo 80097" transform="translate(30.173 126.712)" opacity="0.15" style="mix-blend-mode: multiply;isolation: isolate">
          <g id="Grupo_80096" data-name="Grupo 80096">
            <g id="Grupo_80095" data-name="Grupo 80095" clip-path="url(#clip-path-7)">
              <path id="Trazado_113720" data-name="Trazado 113720" d="M278.269,445.987q-.966,1.454-1.981,2.873a104.052,104.052,0,0,1-25.933,25.4,103.052,103.052,0,0,1-48.993,17.577q-4.607.411-9.331.413A103.521,103.521,0,0,1,90.137,406.987c-.231-1.3-.438-2.613-.619-3.933q-.694-5.024-.9-10.19-.082-2.044-.08-4.106,0-1.944.072-3.875a103.672,103.672,0,0,1,1.308-13.059q-.009.662-.009,1.327,0,2.158.084,4.3.211,5.4.942,10.659c.189,1.383.4,2.751.646,4.116,3,16.9,10.153,32.585,21,43.44C123.3,446.4,129.846,457.29,141.4,465.88c14.712,10.934,29.985,10.5,48.651,12.234,8.549.8,16.359,3.472,24.311,2.08,21.282-3.724,20.811-6.183,33-12.525,3.856-2,10.938-4.535,14.5-6.972,7-4.781,10.714-8.462,16.4-14.71" transform="translate(-88.538 -371.824)" fill="#557387"/>
            </g>
          </g>
        </g>
        <g id="Grupo_80100" data-name="Grupo 80100" transform="translate(64.919 48.265)" opacity="0.81">
          <g id="Grupo_80099" data-name="Grupo 80099">
            <g id="Grupo_80098" data-name="Grupo 80098" clip-path="url(#clip-path-8)">
              <path id="Trazado_113721" data-name="Trazado 113721" d="M327.406,200.2c-5.074,1.078-18.625,4.334-33.738.827s-27.5-1.777-42.024.716-21.126,7.086-31.559.851-27.141-6.759-28.279-14.712a92.835,92.835,0,0,1-1.292-10.839c-.183-6.167,1.125-12.723,7.352-17.674,10.207-8.115,11.368-10.684,16.23-13.523,4.2-2.445,16.267-3.169,19.519-3.324l.815-.036s11.956-2.612,32.943,1.312,27.042,6.688,39.865,15.774c.422.3.831.584,1.233.859,6.632,4.553,10.982,6.354,14.489,8.819a21.864,21.864,0,0,1,6.286,6.775c.4.636.791,1.32,1.193,2.06,5.7,10.517,2.044,21.042-3.034,22.115" transform="translate(-190.499 -141.629)" fill="#f7fdff"/>
            </g>
          </g>
        </g>
        <g id="Grupo_80103" data-name="Grupo 80103" transform="translate(87.613 52.743)" opacity="0.28">
          <g id="Grupo_80102" data-name="Grupo 80102">
            <g id="Grupo_80101" data-name="Grupo 80101" clip-path="url(#clip-path-9)">
              <path id="Trazado_113722" data-name="Trazado 113722" d="M257.517,179.07c.778,1.942,2.534,1.8,3.686,1.093s1.749-3.211,2.466-5.48.768-5.016,3.191-5.971,8.931-6.688,8.931-6.688l-7.156-7.254-8.444,11-3.1,6.529Z" transform="translate(-257.092 -154.77)" fill="#9cd1e6"/>
            </g>
          </g>
        </g>
        <g id="Grupo_80106" data-name="Grupo 80106" transform="translate(107.679 47.478)" opacity="0.28">
          <g id="Grupo_80105" data-name="Grupo 80105">
            <g id="Grupo_80104" data-name="Grupo 80104" clip-path="url(#clip-path-10)">
              <path id="Trazado_113723" data-name="Trazado 113723" d="M348.575,141.27c18.905,3.54,24.365,6.026,35.919,14.212a9.748,9.748,0,0,0-5.933,2.995c-1.265,1.659-7.333,9.089-9.662,10.809s-6.642,2.447-6.642,2.447l4.672-16.347s-7.194-.33-12.489-1.075-8.648.179-11.174,1.97-7.505,3.762-12.163,7.7a52.579,52.579,0,0,1-11.511,7.749l-3.618-11.153,2.185-20.46.734-.032s10.773-2.354,29.682,1.182" transform="translate(-315.973 -139.32)" fill="#9cd1e6"/>
            </g>
          </g>
        </g>
        <g id="Grupo_80109" data-name="Grupo 80109" transform="translate(177.31 64.414)" opacity="0.28">
          <g id="Grupo_80108" data-name="Grupo 80108">
            <g id="Grupo_80107" data-name="Grupo 80107" clip-path="url(#clip-path-11)">
              <path id="Trazado_113724" data-name="Trazado 113724" d="M526.051,202.846l1.189-5.563a99.648,99.648,0,0,0-6.939-8.265c5.976,4.1,10.472,5.412,13.632,7.633-2.956,2.619-7.882,6.2-7.882,6.2" transform="translate(-520.301 -189.017)" fill="#9cd1e6"/>
            </g>
          </g>
        </g>
        <g id="Grupo_80112" data-name="Grupo 80112" transform="translate(64.935 82.656)" opacity="0.51">
          <g id="Grupo_80111" data-name="Grupo 80111">
            <g id="Grupo_80110" data-name="Grupo 80110" clip-path="url(#clip-path-12)">
              <path id="Trazado_113725" data-name="Trazado 113725" d="M327.437,266.723c-5.075,1.076-18.625,4.332-33.737.828s-27.5-1.778-42.022.715-21.129,7.085-31.562.849-27.14-6.757-28.278-14.711a93.211,93.211,0,0,1-1.292-10.84c2.827,3.408,7.712,5.579,11.845,7.358,8.263,3.561-4.4,5.051,5.859,9.383s14.306-.4,20.671.91-3.885,6.273,8.33,3.853,16.468-10.483,30.178-4.918,14.763-.475,30.382,4.151,21.991,3.837,17.776-.626.4-3.785,8.169-3.731,8.988-4.289,1.621-10.905c-5.75-5.165,3.11-3.192,3.9-6.49.395.635.79,1.319,1.192,2.059,5.7,10.516,2.042,21.041-3.036,22.116" transform="translate(-190.547 -242.548)" fill="#9cd1e6"/>
            </g>
          </g>
        </g>
        <path id="Trazado_113726" data-name="Trazado 113726" d="M244.64,113.29a26.346,26.346,0,0,1-4.273,15.09c-4.868,7.356-5.409,10.817-4.111,14.82s2.812,10.385,6.382,8.87,2.967-6.382,2.024-8.113-1.936-4.651.724-5.949a20.971,20.971,0,0,0,10.449-9.736c3.029-6.058-11.2-14.982-11.2-14.982" transform="translate(-155.346 -74.683)" fill="#c7bdb5"/>
        <path id="Trazado_113727" data-name="Trazado 113727" d="M489.07,73.248s6.881,10.64,10.127,21.89,4,17.741,7.139,20.985-3.244,9.334-5.407,10.4-5.086.383-4.653-2.291c.332-2.054,4.263-7.274-3.57-12.115-7.762-4.8-8.546-6.058-10.276-12.873s6.64-26,6.64-26" transform="translate(-317.87 -48.286)" fill="#c7bdb5"/>
        <path id="Trazado_113728" data-name="Trazado 113728" d="M290.448,58.734c-3.543,3.54-6.936,12.145-9.576,17.763v0s-.007.007-.007.011c-1.308,2.784-2.429,4.833-3.289,5.155-2.6.971-9.089,1.945-12.442.433-1.68-.76-1.486-2.117-.587-3.486a15.383,15.383,0,0,1,3.618-3.547c2.271-1.623,3.027-5.951,4.435-9.411s-.974-8.33-.974-8.33c-2.272-1.945-15.144.649-21.095,1.3s-15.577-1.73-16.226-1.512c-.075.025-.111.269-.107.684V57.8c.018,3.106,1.981,15.735,2.271,18.02a9.374,9.374,0,0,1,0,2.572c-.294,1.978-1.462,3.78-4.765,3.7-4.758-.111-10.132.7-10.132-1.684a2.6,2.6,0,0,1,.326-1.279,11.627,11.627,0,0,1,1.9-2.143,5.4,5.4,0,0,0,1.415-2.361c.516-1.917-2.232-7.8-4.822-13.85-.81-1.888-1.605-3.794-2.279-5.6-.337-.9-.641-1.777-.906-2.616-2.067-6.567-3.088-5.653-6.667-9.884-.029-.032-.054-.064-.082-.1l-.021-.022c-.129-.157-.265-.322-.4-.494-.6-.742-1.268-1.627-2.017-2.7-4.93-7.072-6.341-11.26-9.118-15.667-.1-.165-.211-.333-.319-.5v0c-.362-.555-.745-1.111-1.164-1.68a24.565,24.565,0,0,0-2.927-3.479,29.4,29.4,0,0,0-4.081-2.766.079.079,0,0,0-.021-.014c-.53-.355-1.136-.781-1.842-1.315-3.511-2.648-4.432-5.188-4.672-6.4a3.715,3.715,0,0,1-.086-.738c.151-.412.43-.749,2.68-.949.985-.09,2.347-.154,4.242-.186,4.245-.075,5.417-.326,6.818-.788l.047-.011c.638-.215,1.329-.47,2.386-.771a16.438,16.438,0,0,1,6.968-.068A26.865,26.865,0,0,1,211.967,5.4c.068.025.133.054.2.082,3.457,1.436,7.172,5.653,10.78,5.868.588.036,1.376.05,2.314.064,3.951.072,10.551.176,15.731,1.885a16.717,16.717,0,0,1,3.586,1.619c6.277,3.894,13.306,3.679,24.125,4.435,7.678.537,15.842,1.892,21.56,5.962a18.365,18.365,0,0,1,2.311,1.931.781.781,0,0,0,.107.108,16.434,16.434,0,0,1,3.171,4.439c4.543,9.3-.108,21.635-5.406,26.938" transform="translate(-121.157 -2.44)" fill="#f5eadf"/>
        <path id="Trazado_113729" data-name="Trazado 113729" d="M233.6,4.038l-1.72.767s-.255-.068-2.762-.247a20.315,20.315,0,0,0-4.872.319c.638-.215,1.329-.469,2.386-.77a16.432,16.432,0,0,1,6.968-.068" transform="translate(-147.825 -2.44)" fill="#c7bdb5"/>
        <path id="Trazado_113730" data-name="Trazado 113730" d="M275.712,15.351c.587.036,1.376.05,2.314.064-.53.057-1.032.129-1.49.222-4.181.835-7.047-.537-8.358-1.791s-4.149-1.795-4.063-2.214l.817-2.15c3.457,1.437,7.172,5.653,10.78,5.868" transform="translate(-174.108 -6.251)" fill="#c7bdb5"/>
        <path id="Trazado_113731" data-name="Trazado 113731" d="M400.374,44.438c-2.451-1.444-6.151-2.261-11.5-2.1-7.384.226-10.211,0-10.389-1.881s-9.494.09-13.077-.717a16.073,16.073,0,0,1-7.523-3.4,50.463,50.463,0,0,0-6.782-3.919,16.718,16.718,0,0,1,3.586,1.619c6.277,3.894,13.306,3.679,24.125,4.435,7.677.537,15.842,1.891,21.56,5.961" transform="translate(-231.452 -21.373)" fill="#e6dbd1"/>
        <path id="Trazado_113732" data-name="Trazado 113732" d="M245.295,2.825s3.84-4.327,7.68-2.272S251.623,5.8,251.623,5.8Z" transform="translate(-161.702 0)" fill="#e6dbd1"/>
        <path id="Trazado_113733" data-name="Trazado 113733" d="M365.577,136.337c-2.271-1.945-15.144.649-21.095,1.3a41,41,0,0,1-9.526-.509h-.011c-3.493-.509-6.345-1.118-6.689-1-.075.025-.111.269-.108.684-.218-2.9-2.185-7.763-1.351-8.24s5.256,6.208,11.228,4.543,6.209-3.11,7.642-1.795.6,3.224,5.614.716,6.449-1.315,8.956-3.941,5.61-7.165,4.417-3.346a13.41,13.41,0,0,0-.545,4.138,21.447,21.447,0,0,0,1.465,7.455" transform="translate(-215.296 -81.265)" fill="#e6dbd1"/>
        <path id="Trazado_113734" data-name="Trazado 113734" d="M186.47,10.1c-.505,1.8-1.684,1.913-2.594,1.687a3.7,3.7,0,0,1-.086-.738c.151-.412.43-.749,2.68-.949" transform="translate(-121.157 -6.661)" fill="#61696e"/>
        <path id="Trazado_113735" data-name="Trazado 113735" d="M249.067,7.28c-.846-.037,1.577-.97,3.147-1.507s2.913.119,2.913.537-.716-.6-1.642-.179a14.188,14.188,0,0,0-2.209,1.4c-.579.388-1.881-.24-2.209-.254" transform="translate(-164.074 -3.673)" fill="#c7bdb5"/>
        <path id="Trazado_113736" data-name="Trazado 113736" d="M435.218,217.9c-1.308,2.784-2.429,4.833-3.289,5.155-2.6.971-9.089,1.945-12.442.433-1.68-.76-1.487-2.117-.588-3.486-.125,1.852.914,2.182,3.651,1.44,3.7-1,.946,2.128,5.972.924,4.833-1.157,6.567-4.231,6.7-4.467" transform="translate(-275.697 -143.643)" fill="#e6dbd1"/>
        <path id="Trazado_113737" data-name="Trazado 113737" d="M309.019,223.43c-.294,1.978-1.462,3.78-4.765,3.7-4.758-.111-10.132.7-10.132-1.684a2.6,2.6,0,0,1,.326-1.279c.075.742.864,1.2,2.945.917,3.672-.494.627,1.627,4.03.925,3.113-.641,3.977,1.325,7.6-2.583" transform="translate(-193.891 -147.289)" fill="#e6dbd1"/>
        <path id="Trazado_113738" data-name="Trazado 113738" d="M294.07,187.96a5.4,5.4,0,0,0,1.415-2.361c.516-1.917-2.232-7.8-4.822-13.85,2.1,3.669,5.428,6.961,6.778,10,1.791,4.03-3.371,6.212-3.371,6.212" transform="translate(-191.61 -113.22)" fill="#e6dbd1"/>
        <path id="Trazado_113739" data-name="Trazado 113739" d="M247.35,93.874c-.337-.9-.641-1.777-.906-2.615-1.917-6.09-2.934-5.747-5.926-9.039-.039-.043-.079-.09-.125-.136-.172-.193-.351-.4-.541-.62-.025-.029-.05-.058-.075-.09s-.054-.064-.082-.1l-.021-.021c-.129-.158-.265-.322-.4-.494-.6-.742-1.268-1.627-2.017-2.7a96.806,96.806,0,0,1-7.015-11.98c-.666-1.258-1.333-2.465-2.1-3.687,3.966,2.336,8.595,4.231,10.193,4.363,2.132.179,6.968-.179,5.714.9s-5.159,1.075-5.714,2.149,4.511,1.075,5.919,2.687-3.78,1.433-3.246,3.583,4.3,3.214,5.37,3.665-2.15,4.575,0,6.725c2.1,2.1,1.032,7.194.981,7.412" transform="translate(-150.389 -41.131)" fill="#e6dbd1"/>
        <path id="Trazado_113740" data-name="Trazado 113740" d="M252.311,26.006c-1.367,3.031-1.8,3.851-3.1,5.105s-3.856.595-3.919,2,5.007.24,6.413-.387-1.191,3.762,1.5,3.314,3.045.96,5.016.032a6.53,6.53,0,0,0,3.135-4.87c0-1.163-1.792,1.255-2.374.449s.851-2.06,0-2.956-3.538,2.149-2.821.716,1.7-3.935.448-3.714-2.65-3.338-4.295.31" transform="translate(-161.701 -16.054)" fill="#e6dbd1"/>
        <path id="Trazado_113741" data-name="Trazado 113741" d="M421.523,77.324c2.568,2.568,3.752,8.359,3.19,10.748s-2.712-1.672-3.667,0-2.269-.961-3.463.774-1.853-5.073-.628-5.192.271-3.7,1.763-3.583-.06-5.613,2.806-2.747" transform="translate(-274.432 -50.444)" fill="#e6dbd1"/>
        <path id="Trazado_113742" data-name="Trazado 113742" d="M381.485,110.69c-.724,1.27-2.866,2.693-5.553,4.126a18.984,18.984,0,0,0-5.374,3.941c-1.612,1.612,2.6.089,3.045,0s2.866.269,3.672-1.792,3.314.731,4.21-1.874,1.881-1.709,1.881-3.59-.448-3.326-1.881-.812" transform="translate(-244.037 -72.082)" fill="#e6dbd1"/>
        <path id="Trazado_113743" data-name="Trazado 113743" d="M219.283,50.637c-.362-.555-.745-1.111-1.164-1.68a24.526,24.526,0,0,0-2.927-3.479c1.637.25,3.926-.452,4.912-.007,1.193.537-1.075,1.551-1.014,2.626s-.272,1.021.194,2.54" transform="translate(-141.858 -29.875)" fill="#e6dbd1"/>
        <path id="Trazado_113744" data-name="Trazado 113744" d="M381.754,147.182c-2.271-1.945-15.144.649-21.095,1.3a41,41,0,0,1-9.526-.509c4.535.215,6.413-2.827,7.577-1.573s.172-.09,5.5-.717,8.2-.716,11.156-2.866c2.1-1.526,3.633-2.963,4.919-3.088a21.448,21.448,0,0,0,1.465,7.455" transform="translate(-231.473 -92.11)" fill="#c7bdb5"/>
        <path id="Trazado_113745" data-name="Trazado 113745" d="M243.92,88.6c-.025-.029-.05-.057-.075-.09s-.054-.064-.082-.1l-.021-.021c-.129-.157-.265-.322-.4-.494-.6-.742-1.268-1.627-2.017-2.7a96.816,96.816,0,0,1-7.015-11.98,12.1,12.1,0,0,1,1.713,2.021c1.791,2.6,5.195,2.6,5.195,4.21s-1.892,2.149.756,4.3c2.419,1.963.394,2.784,1.953,4.854" transform="translate(-154.457 -48.263)" fill="#c7bdb5"/>
        <path id="Trazado_113746" data-name="Trazado 113746" d="M226.266,12.623c.875-.163,1.523.159,1.657.562s.247,1.388-.279,1.343-2.037-1.783-1.377-1.906" transform="translate(-149.05 -8.293)" fill="#61696e"/>
        <g id="Grupo_80115" data-name="Grupo 80115" transform="translate(175.074 119.526)" opacity="0.81">
          <g id="Grupo_80114" data-name="Grupo 80114">
            <g id="Grupo_80113" data-name="Grupo 80113" clip-path="url(#clip-path-13)">
              <path id="Trazado_113747" data-name="Trazado 113747" d="M542.182,361.81c-1.193,10.318-9.145,8.366-17.1,5.583-5.813-2.036-12.068-6.716-11.277-10.259.294-1.3,1.539-2.453,4.119-3.261,6.362-1.988,5.964-4.374,12.032-2.385,3.749,1.229,7.98.942,10.389,2.97,1.495,1.253,2.29,3.4,1.833,7.352" transform="translate(-513.74 -350.74)" fill="#f7fdff"/>
            </g>
          </g>
        </g>
        <g id="Grupo_80118" data-name="Grupo 80118" transform="translate(139.078 111.504)" opacity="0.81">
          <g id="Grupo_80117" data-name="Grupo 80117">
            <g id="Grupo_80116" data-name="Grupo 80116" clip-path="url(#clip-path-14)">
              <path id="Trazado_113748" data-name="Trazado 113748" d="M426.825,343.161c-5.567,3.917-14.843-.469-16.434-6.036-.875-3.058-2.545-4.835-2.242-6.215.246-1.129,1.813-1.992,6.231-3.066,4.863-1.181,11.173-.8,13.3,1.606a2.8,2.8,0,0,1,.735,2.107c-.266,4.238,3.976,7.686-1.59,11.6" transform="translate(-408.113 -327.198)" fill="#f7fdff"/>
            </g>
          </g>
        </g>
        <g id="Grupo_80121" data-name="Grupo 80121" transform="translate(49.207 108.497)" opacity="0.81">
          <g id="Grupo_80120" data-name="Grupo 80120">
            <g id="Grupo_80119" data-name="Grupo 80119" clip-path="url(#clip-path-15)">
              <path id="Trazado_113749" data-name="Trazado 113749" d="M173.851,333.031c-4.175,5.567-11.133-1.085-19.881-3.626-7.666-2.223-12.735-4.207-7.316-6.859a24.194,24.194,0,0,1,2.942-1.165c9.742-3.261,16.7-4.692,22.466,0a16.038,16.038,0,0,1,3.415,3.471c1.392,2.191,1.117,4.517-1.626,8.179" transform="translate(-144.393 -318.375)" fill="#f7fdff"/>
            </g>
          </g>
        </g>
        <g id="Grupo_80124" data-name="Grupo 80124" transform="translate(49.207 112.668)" opacity="0.51">
          <g id="Grupo_80123" data-name="Grupo 80123">
            <g id="Grupo_80122" data-name="Grupo 80122" clip-path="url(#clip-path-16)">
              <path id="Trazado_113750" data-name="Trazado 113750" d="M173.851,341.1c-4.175,5.567-11.133-1.085-19.881-3.626-7.666-2.223-12.735-4.207-7.316-6.859.867.744,3.94.736,5.925,1.837,2.684,1.491,2.612,2.286,7.765,0s-1.4,4.779,4.759,5.022,3.968,4,7.555.708a8.327,8.327,0,0,0,2.819-5.26c1.392,2.191,1.117,4.517-1.626,8.179" transform="translate(-144.393 -330.614)" fill="#9cd1e6"/>
            </g>
          </g>
        </g>
        <g id="Grupo_80127" data-name="Grupo 80127" transform="translate(139.078 113.757)" opacity="0.51">
          <g id="Grupo_80126" data-name="Grupo 80126">
            <g id="Grupo_80125" data-name="Grupo 80125" clip-path="url(#clip-path-17)">
              <path id="Trazado_113751" data-name="Trazado 113751" d="M426.825,347.521c-5.567,3.917-14.843-.469-16.434-6.036-.875-3.058-2.545-4.835-2.242-6.215.565,1.968,2.867,1.757,4.362,4.31,1.889,3.229,2.883,6.807,5.169,3.725s1.094,3.678,5.567,2.485,2.028-3.1,3.678-5.5c1.423-2.075.171-4.906.756-6.477a2.8,2.8,0,0,1,.735,2.107c-.266,4.238,3.976,7.686-1.59,11.6" transform="translate(-408.113 -333.811)" fill="#9cd1e6"/>
            </g>
          </g>
        </g>
        <g id="Grupo_80130" data-name="Grupo 80130" transform="translate(175.074 123.244)" opacity="0.51">
          <g id="Grupo_80129" data-name="Grupo 80129">
            <g id="Grupo_80128" data-name="Grupo 80128" clip-path="url(#clip-path-18)">
              <path id="Trazado_113752" data-name="Trazado 113752" d="M542.182,369c-1.193,10.318-9.145,8.366-17.1,5.583-5.813-2.036-12.068-6.716-11.277-10.259,1.078,2.437,1.539,1.268,4.318,3.892,3.579,3.38,6.263,4.672,6.163,1.094s-.5.2,4.772,2.585,1.889-1.69,4.871-.8,3.678-1.193,3.877-4.672,4.572,2.286,2.783-3.38a4.96,4.96,0,0,1-.243-1.4c1.495,1.253,2.29,3.4,1.833,7.352" transform="translate(-513.74 -361.65)" fill="#9cd1e6"/>
            </g>
          </g>
        </g>
        <path id="Trazado_113753" data-name="Trazado 113753" d="M179.808,479.957a88.211,88.211,0,0,1-12.319,4.949c-4.149,1.371-9.457,3.766-14.915,5.358-6.262,1.82-9.715,5.661-18.21,6.653-5.47.641-7.216-.863-14.3,3.979-6.191,4.228-9.257,4.9-16.714,4.9-6.091,0-13.473-.933-18.447,2.241-4.675,2.983-7.657,2.35-12.669,1.737-5.67-.7-8.245,1.812-16.123,3.137-6.67,1.121-14.036-.575-19.66-2.754-6.07-2.354-5.491-8.032-12.506-7.116-5.458.717-11.111-2.15-14.256-4.828C-1.475,488.723-1.45,476.25,2.125,466.347a36.973,36.973,0,0,1,8.915-14.136,44.546,44.546,0,0,1,7.024-5.066,1.212,1.212,0,0,1,1.491,1.875c-4.554,4.883-9.92,13.79-6.9,27.013,1.15,5.024,5.507,6.274,10.79,13.39,3.712,5,13.186,5.249,22.259,8.786,8.261,3.224,17.123-1.812,27.85-.409,10.245,1.338,19.889-2.883,31.929-3.216,18.094-.5,42.573-10.748,73.119-17.018a5.076,5.076,0,0,1,1.329-.112c1.7.129,1.775,1.5-.125,2.5" transform="translate(0 -294.651)" fill="#cfe2eb"/>
        <path id="Trazado_113754" data-name="Trazado 113754" d="M182.606,477.453c-4.17,2.541-10.195,4.945-18.9,6.532-27.4,5-13.977,12.219-39.719,12.735s-30.362,7.816-44.2,6.7-32.216,9.17-41.711-2.229S13.564,499.15,7.248,487.039A31.065,31.065,0,0,1,4.8,466.346a36.98,36.98,0,0,1,8.915-14.136,44.529,44.529,0,0,1,7.024-5.066,1.212,1.212,0,0,1,1.491,1.875c-4.554,4.882-9.919,13.79-6.9,27.013,1.15,5.024,5.507,6.274,10.79,13.389,3.712,5,13.186,5.249,22.259,8.786,8.261,3.224,17.123-1.812,27.85-.408,10.245,1.337,19.889-2.883,31.929-3.216,18.093-.5,42.573-10.748,73.119-17.018a5.088,5.088,0,0,1,1.329-.112" transform="translate(-2.674 -294.651)" fill="#bdced6"/>
        <g id="Grupo_80133" data-name="Grupo 80133" transform="translate(64.092 134.063)" opacity="0.81">
          <g id="Grupo_80132" data-name="Grupo 80132">
            <g id="Grupo_80131" data-name="Grupo 80131" clip-path="url(#clip-path-19)">
              <path id="Trazado_113755" data-name="Trazado 113755" d="M208.939,411.114c-5.245.175-3.4-8.847-7.288-9.145-2.115-.163-4.258-1.312-6.445-2.66-1.829-1.129-3.686-2.394-5.583-3.344-4.159-2.079.35-3.813,9.881-1.388,0,0,6.067.9,9.7,3.9a23.848,23.848,0,0,0,4.923,3.288l0,0a31.391,31.391,0,0,0,5.082,1.817c4.211,1.217-5.026,7.352-10.271,7.527" transform="translate(-188.071 -393.395)" fill="#f7fdff"/>
            </g>
          </g>
        </g>
        <g id="Grupo_80136" data-name="Grupo 80136" transform="translate(71.225 139.976)" opacity="0.51">
          <g id="Grupo_80135" data-name="Grupo 80135">
            <g id="Grupo_80134" data-name="Grupo 80134" clip-path="url(#clip-path-20)">
              <path id="Trazado_113756" data-name="Trazado 113756" d="M222.739,422.553c-5.245.175-3.4-8.847-7.288-9.145-2.115-.163-4.258-1.312-6.445-2.66,3.682.731,5.153.234,7.042,1,2.119.863.4,2.851,3.447,3.913s3.38-.135,6.227,1.59,4.215-1.988,2.207-4.044a31.393,31.393,0,0,0,5.082,1.817c4.211,1.217-5.026,7.352-10.271,7.527" transform="translate(-209.005 -410.748)" fill="#9cd1e6"/>
            </g>
          </g>
        </g>
        <g id="Grupo_80139" data-name="Grupo 80139" transform="translate(87.852 110.19)" opacity="0.81">
          <g id="Grupo_80138" data-name="Grupo 80138">
            <g id="Grupo_80137" data-name="Grupo 80137" clip-path="url(#clip-path-21)">
              <path id="Trazado_113757" data-name="Trazado 113757" d="M267.286,329.415c-4.446-.4-9.916-.6-9.467-2.505.076-.318.155-.616.239-.886,1.082-3.547,2.772-3.106,4-1.368a14.645,14.645,0,0,0,3.69,2.6c2.266,1.312,4.211,2.4,1.539,2.163" transform="translate(-257.793 -323.342)" fill="#f7fdff"/>
            </g>
          </g>
        </g>
        <g id="Grupo_80142" data-name="Grupo 80142" transform="translate(83.849 118.373)" opacity="0.81">
          <g id="Grupo_80141" data-name="Grupo 80141">
            <g id="Grupo_80140" data-name="Grupo 80140" clip-path="url(#clip-path-22)">
              <path id="Trazado_113758" data-name="Trazado 113758" d="M263.857,357.948c-.131,5.145-1.722,4.791-8.414,2.537s-7.754-3.579-7.853-7.288c-.06-2.3-1.364-3.865-1.527-4.8v0c-.1-.568.231-.9,1.527-1.03,1.479-.143,3.678,1.459,5.8,2.978a23.8,23.8,0,0,0,4.27,1.714c2.994,1.1,6.282,2.672,6.2,5.892" transform="translate(-246.048 -347.355)" fill="#f7fdff"/>
            </g>
          </g>
        </g>
        <g id="Grupo_80145" data-name="Grupo 80145" transform="translate(119.395 109.822)" opacity="0.81">
          <g id="Grupo_80144" data-name="Grupo 80144">
            <g id="Grupo_80143" data-name="Grupo 80143" clip-path="url(#clip-path-23)">
              <path id="Trazado_113759" data-name="Trazado 113759" d="M368.174,324.794c-.895,1.92-1.69,2.747-5.952,3.94s-3.69-1.59-8.064-1.889c-3.479-.239-4.632-.35-3.2-1.217.366-.223.9-.5,1.614-.835,3.479-1.658,1.674-.557,7.853-2.163a12,12,0,0,1,4.6-.255c2.175.314,3.7,1.245,3.153,2.418" transform="translate(-350.355 -322.262)" fill="#f7fdff"/>
            </g>
          </g>
        </g>
        <g id="Grupo_80148" data-name="Grupo 80148" transform="translate(201.385 103.759)" opacity="0.81">
          <g id="Grupo_80147" data-name="Grupo 80147">
            <g id="Grupo_80146" data-name="Grupo 80146" clip-path="url(#clip-path-24)">
              <path id="Trazado_113760" data-name="Trazado 113760" d="M606.2,314.47c-3.578,8.3-6.362,6.612-12.994,5.233-1.805-.374-2.39-.887-2.234-1.583.294-1.34,3.336-3.36,5.678-6.386a13.539,13.539,0,0,0,2.2-3.972c1.412-4.239,4.982-4.016,6.918-1.408a6.367,6.367,0,0,1,.931,1.817,8.817,8.817,0,0,1-.493,6.3" transform="translate(-590.947 -304.471)" fill="#f7fdff"/>
            </g>
          </g>
        </g>
        <path id="Trazado_113761" data-name="Trazado 113761" d="M596.061,272.541c-.478,2.531-2.1,6.143-5.028,7.934-3.767,2.308-1.258,4.839-3.281,8.361-1.877,3.263-4.787,6.979-8.464,9.049-4.348,2.45-6.579,2.239-9.062,4.8-2.192,2.264-3.393,3.741-6.828,4.124-3.664.413-6.879,3.763-9.837,6.152-3.621,2.923-5.368,3.8-10.035,4.176-5.338.43-5.6,1.847-8.5,3.681-4.516,2.846-7.7,2.338-11.451,3.909-3.272,1.369-6.789,2.29-9.342,3.25a54.58,54.58,0,0,1-7.922,2.428,2.527,2.527,0,0,1-.7.047c-.982-.09-1.029-.973.344-1.679,17.289-8.938,33.192-13.561,42.172-20.415,5.975-4.563,12.313-6.3,16.76-10.965,4.663-4.891,10.939-5.919,13.686-10.724,3.018-5.278,7.516-9.114,7.357-13-.224-5.528,1.4-7.844-.013-10.733a17.879,17.879,0,0,0-13.945-10.41.756.756,0,0,1-.009-1.494,27.812,27.812,0,0,1,5.4-.3c6.884.413,21.448,7.25,18.7,21.8" transform="translate(-332.836 -165.271)" fill="#cfe2eb"/>
        <path id="Trazado_113762" data-name="Trazado 113762" d="M589.745,276.4c-4.878,6.755-3.944,14.788-15.244,19.67s-11.589,9.041-18.193,11.624-17.186,6.6-19.644,9.471-9.915,3.629-18.094,7.7c-7.28,3.62-10.871,3.814-12.958,6.229-.982-.09-1.029-.973.344-1.679,17.289-8.937,33.192-13.561,42.173-20.415,5.976-4.563,12.313-6.3,16.76-10.965,4.663-4.891,10.94-5.92,13.686-10.724,3.018-5.278,7.517-9.114,7.357-13-.224-5.528,1.4-7.844-.013-10.733a17.878,17.878,0,0,0-13.944-10.41.755.755,0,0,1-.008-1.494c6.875,2.058,11.9.8,14.766,7.383s7.891,10.591,3.014,17.341" transform="translate(-332.836 -165.908)" fill="#bdced6"/>
        <g id="Grupo_80151" data-name="Grupo 80151" transform="translate(201.385 107.459)" opacity="0.51">
          <g id="Grupo_80150" data-name="Grupo 80150">
            <g id="Grupo_80149" data-name="Grupo 80149" clip-path="url(#clip-path-25)">
              <path id="Trazado_113763" data-name="Trazado 113763" d="M606.2,321.627c-3.578,8.3-6.362,6.612-12.994,5.233-1.805-.374-2.39-.887-2.234-1.583.429.74.878.608,3.3,1.173,3.113.728,2.881-.4,4.734-1.392s1.031,1.193,3.218-1.658.6-3.046,2.851-4.7c1.857-1.368,1.28-1.968,1.618-3.368a8.817,8.817,0,0,1-.493,6.3" transform="translate(-590.947 -315.329)" fill="#9cd1e6"/>
            </g>
          </g>
        </g>
        <g id="Grupo_80154" data-name="Grupo 80154" transform="translate(207.087 103.759)" opacity="0.51">
          <g id="Grupo_80153" data-name="Grupo 80153">
            <g id="Grupo_80152" data-name="Grupo 80152" clip-path="url(#clip-path-26)">
              <path id="Trazado_113764" data-name="Trazado 113764" d="M616.792,306.354a4.487,4.487,0,0,0-2.445.115c-1.869.776-2.286,2.286-2.883,3.479-.513,1.022-2.477.978-3.785,1.785a13.528,13.528,0,0,0,2.195-3.972c1.412-4.238,4.982-4.016,6.919-1.407" transform="translate(-607.679 -304.471)" fill="#9cd1e6"/>
            </g>
          </g>
        </g>
        <g id="Grupo_80157" data-name="Grupo 80157" transform="translate(119.395 109.936)" opacity="0.51">
          <g id="Grupo_80156" data-name="Grupo 80156">
            <g id="Grupo_80155" data-name="Grupo 80155" clip-path="url(#clip-path-27)">
              <path id="Trazado_113765" data-name="Trazado 113765" d="M368.174,325.016c-.895,1.92-1.69,2.747-5.952,3.94s-3.69-1.59-8.064-1.889c-3.479-.239-4.632-.35-3.2-1.217,1.082.342,1.42-.485,3.6.016,2.915.672,4.441,1.984,6.294,0s1.443.8,3.539-1.384a2.511,2.511,0,0,0,.632-1.885c2.175.314,3.7,1.245,3.153,2.418" transform="translate(-350.355 -322.598)" fill="#9cd1e6"/>
            </g>
          </g>
        </g>
        <g id="Grupo_80160" data-name="Grupo 80160" transform="translate(83.865 119.415)" opacity="0.51">
          <g id="Grupo_80159" data-name="Grupo 80159">
            <g id="Grupo_80158" data-name="Grupo 80158" clip-path="url(#clip-path-28)">
              <path id="Trazado_113766" data-name="Trazado 113766" d="M263.889,359.965c-.131,5.145-1.722,4.791-8.414,2.537s-7.754-3.579-7.853-7.288c-.06-2.3-1.364-3.865-1.527-4.8a15.544,15.544,0,0,1,1.626,1.945c1.789,2.588,1.9,1.694,2.052,4.708s3.065.135,5.213,1.857a7.553,7.553,0,0,0,6.716,1.59c2.187-.549-.4-4.374-2.318-5.1a3.719,3.719,0,0,1-1.694-1.34c2.994,1.1,6.282,2.672,6.2,5.893" transform="translate(-246.096 -350.414)" fill="#9cd1e6"/>
            </g>
          </g>
        </g>
        <g id="Grupo_80163" data-name="Grupo 80163" transform="translate(87.852 112.871)" opacity="0.51">
          <g id="Grupo_80162" data-name="Grupo 80162">
            <g id="Grupo_80161" data-name="Grupo 80161" clip-path="url(#clip-path-29)">
              <path id="Trazado_113767" data-name="Trazado 113767" d="M267.286,334.6c-4.446-.4-9.916-.6-9.467-2.505.076-.318.155-.616.239-.886a8.6,8.6,0,0,1,1.416.886,4.981,4.981,0,0,0,4.187,1.113c.445-.107,1.225-.453,2.088-.771,2.266,1.312,4.211,2.4,1.539,2.163" transform="translate(-257.793 -331.21)" fill="#9cd1e6"/>
            </g>
          </g>
        </g>
        <path id="Trazado_113768" data-name="Trazado 113768" d="M648.156,532.955V454.679a6.176,6.176,0,0,0-12.352,0v78.276a13.531,13.531,0,1,0,12.352,0" transform="translate(-414.284 -295.66)" fill="#1c5276"/>
        <path id="Trazado_113769" data-name="Trazado 113769" d="M648.443,561.647a10.189,10.189,0,0,1-4.649-19.257l1.814-.932V461.142a2.835,2.835,0,0,1,5.67,0v80.316l1.814.932a10.189,10.189,0,0,1-4.649,19.257" transform="translate(-420.747 -302.124)" fill="#fff"/>
        <path id="Trazado_113770" data-name="Trazado 113770" d="M658.63,586.71a10.191,10.191,0,1,1-20.381,0q0-.283.016-.563a10.156,10.156,0,0,1,5.528-8.5l1.781-.917.032-.016V514.619a2.835,2.835,0,0,1,5.671,0V576.71l1.813.933a10.156,10.156,0,0,1,5.541,9.067" transform="translate(-420.744 -337.376)" fill="#c92041"/>
        <g id="Grupo_80166" data-name="Grupo 80166" transform="translate(224.862 202.991)" opacity="0.86">
          <g id="Grupo_80165" data-name="Grupo 80165">
            <g id="Grupo_80164" data-name="Grupo 80164" clip-path="url(#clip-path-30)">
              <path id="Trazado_113771" data-name="Trazado 113771" d="M659.838,595.659h5.671v27.948h-5.671V595.659Z" transform="translate(-659.837 -595.659)" fill="#f5781f"/>
            </g>
          </g>
        </g>
        <path id="Trazado_113772" data-name="Trazado 113772" d="M659.838,540.368V514.619a2.836,2.836,0,0,1,5.671,0v25.9h-5.671Z" transform="translate(-434.976 -337.377)" fill="#ffaa3f"/>
        <path id="Trazado_113773" data-name="Trazado 113773" d="M75.067,203.3c2.77,2.966,10.477,3.259,15.012,3.946s1.555,3.452,9.759,3.033,22.127-2.05,23.781-4.009c.543-.645-.748-1-2.846-1.191-4.278-.39-11.912-.089-14.155-.118-3.341-.047-4.619-2.582-10.132-3.462a21.792,21.792,0,0,1-6.44-1.726h0a10.251,10.251,0,0,1-3.163-2.6c-2.236-2.571,7.418-5.791,4.785-6.014a16.8,16.8,0,0,0-2.543-.042c-4,.263-5.827,2.156-10.157,3.78-3.066,1.15-4.889,2.81-5.247,4.619a4.261,4.261,0,0,0,1.35,3.781" transform="translate(-48.551 -125.968)" fill="#cfe2eb"/>
        <path id="Trazado_113774" data-name="Trazado 113774" d="M75.067,219.6c2.77,2.966,10.477,3.259,15.012,3.946s1.555,3.452,9.759,3.033,22.127-2.05,23.781-4.009c.543-.645-.748-1-2.846-1.191-1.612.481-4.435.659-7.62,1.307a43.226,43.226,0,0,1-13.96.683c-3.479-.455-.555-2.419-6.612-2.593s-12.113-.349-14.555-2.045c-1.458-1.013-3.281-1.681-4.309-2.911a4.261,4.261,0,0,0,1.35,3.781" transform="translate(-48.551 -142.273)" fill="#bdced6"/>
        <path id="Trazado_113775" data-name="Trazado 113775" d="M111.672,199.77a10.252,10.252,0,0,1-3.164-2.6c-2.236-2.571,7.418-5.791,4.785-6.014a16.713,16.713,0,0,0-2.543-.042c-1.023,2.4-3.427,1.831-4.193,4.468-.921,3.164,4.923,4.153,5.114,4.186" transform="translate(-70.18 -125.967)" fill="#bdced6"/>
        <path id="Trazado_113776" data-name="Trazado 113776" d="M537.334,518.338c4.241-.53,5.832-2.253,9.808-5.832s3.446-10.471,6.362-17.363-1.856-5.434-5.7,0,.663,6.627-4.506,11.133-2.121,7.368-8.35,9.383-7.555,1.485-7.289,5.064-2.051,5.7-.032,5.7,9.707-8.085,9.707-8.085" transform="translate(-347.271 -323.349)" fill="#489da2"/>
        <path id="Trazado_113777" data-name="Trazado 113777" d="M549.548,510.635c-.256,4.234-.782,3.446-2.578,5.832s-1.266,3.181-2.989,2.518-3.181-5.036-2.518-7.555,2.568,1.325,4.73-.8,3.494-2.3,3.355,0" transform="translate(-356.834 -335.527)" fill="#489da2"/>
        <path id="Trazado_113778" data-name="Trazado 113778" d="M572.88,493c-.164,1.853,2.651,1.325,3.976,0s-3.579-4.506-3.976,0" transform="translate(-377.647 -323.454)" fill="#489da2"/>
        <path id="Trazado_113779" data-name="Trazado 113779" d="M620.108,464.258c-1.456,1.817.819,2.253.819,3.446s1.458-2.253,2.916-5.036,3.579-4.507,1.458-5.434-2.963,4.241-5.193,7.025" transform="translate(-408.464 -301.343)" fill="#489da2"/>
        <path id="Trazado_113780" data-name="Trazado 113780" d="M171.479,456.359c2.479,2.431,6.035,3.579,7.227,4.9s1.193-1.988,0-4.108-3.181-1.458-4.241-4.374-5.4,1.211-2.986,3.579" transform="translate(-112.567 -297.818)" fill="#489da2"/>
        <path id="Trazado_113781" data-name="Trazado 113781" d="M203.9,476.355a1.782,1.782,0,1,0,3.429-.966c-.778-1.856-4.357-1.513-3.429.966" transform="translate(-134.313 -312.606)" fill="#489da2"/>
        <path id="Trazado_113782" data-name="Trazado 113782" d="M223.547,491.663c.387,2.454-1.349,4.307-.284,6.56s-.658,3.313-2.513.53-3.579-3.711-4.772-7.091,1.058-6.387,1.855-8.33,2.519,1.036,2.652,3.854,2.78,2.682,3.062,4.475" transform="translate(-142.151 -318.212)" fill="#489da2"/>
        <path id="Trazado_113783" data-name="Trazado 113783" d="M470.617,595.181c.966,3.141,4.075,2.783,5.467-1.292s-1.889-3.479-2.733-2.187-3.529.895-2.734,3.479" transform="translate(-310.142 -389.423)" fill="#489da2"/>
        <path id="Trazado_113784" data-name="Trazado 113784" d="M518.139,551.819c-.206,2.1-4.858,5.991-4.448,2.115s.808-1.392,1.6-5.268,2.286-4.212,1.889-1.709,1.416.164.957,4.863" transform="translate(-338.616 -359.508)" fill="#489da2"/>
        <path id="Trazado_113785" data-name="Trazado 113785" d="M603.126,517.4c-.477,1.793-2.425,3.877-2.425,4.871s1.491-1.392,2.982-2.436,1.789-2.038,1.491-2.932-1-3.436-2.049.5" transform="translate(-395.992 -339.67)" fill="#489da2"/>
        <path id="Trazado_113786" data-name="Trazado 113786" d="M230.674,468.6c1.165,1.352,2.651,0,1.458-1.59s-.53-3.645-1.458-3.247-1.657,2.916,0,4.838" transform="translate(-151.413 -305.689)" fill="#489da2"/>
        <g id="Grupo_80169" data-name="Grupo 80169" transform="translate(217.521 239.35)" opacity="0.18">
          <g id="Grupo_80168" data-name="Grupo 80168">
            <g id="Grupo_80167" data-name="Grupo 80167" clip-path="url(#clip-path-31)">
              <path id="Trazado_113787" data-name="Trazado 113787" d="M653.206,709.922a7.57,7.57,0,0,1-14.911,1.851,10.157,10.157,0,0,1,5.528-8.5l1.781-.917h.032a7.57,7.57,0,0,1,7.57,7.57" transform="translate(-638.295 -702.352)" fill="#fff"/>
            </g>
          </g>
        </g>
        <g id="Grupo_80172" data-name="Grupo 80172" transform="translate(225.834 249.174)" opacity="0.26">
          <g id="Grupo_80171" data-name="Grupo 80171">
            <g id="Grupo_80170" data-name="Grupo 80170" clip-path="url(#clip-path-32)">
              <path id="Trazado_113788" data-name="Trazado 113788" d="M670.093,734.881a3.7,3.7,0,1,1-3.7-3.7,3.7,3.7,0,0,1,3.7,3.7" transform="translate(-662.69 -731.179)" fill="#fff"/>
            </g>
          </g>
        </g>
        <g id="Grupo_80175" data-name="Grupo 80175" transform="translate(105.704 121.725)" opacity="0.42">
          <g id="Grupo_80174" data-name="Grupo 80174">
            <g id="Grupo_80173" data-name="Grupo 80173" clip-path="url(#clip-path-33)">
              <path id="Trazado_113789" data-name="Trazado 113789" d="M313.194,357.235c-4.995,1.051-3.324,11.276,1.651,16.059s1.082,6.2,11.621,6.909,4.869,7.972,13.549,12.046,15.944-.976,17.007,9.255,2.461-.585,3.268-8.463-6.551-2.563-12.881-4.866.181-8.627-2.8-13.144c-3.417-5.173-6.83-5.846-14.287-6.377s-6.634,2.923-12.781-1.056c-4.537-2.936-1.051-11.055-4.343-10.363" transform="translate(-310.178 -357.193)" fill="#67a4c3"/>
            </g>
          </g>
        </g>
      </g>
    </g>
  </g>
</svg>
