<svg id="Grupo_80406" data-name="Grupo 80406" xmlns="http://www.w3.org/2000/svg" xmlns:xlink="http://www.w3.org/1999/xlink" width="115.588" height="129.282" viewBox="0 0 115.588 129.282">
  <defs>
    <clipPath id="clip-path">
      <rect id="Rectángulo_34042" data-name="Rectángulo 34042" width="115.588" height="129.282" fill="#12263f"/>
    </clipPath>
  </defs>
  <g id="Grupo_80405" data-name="Grupo 80405" clip-path="url(#clip-path)">
    <path id="Trazado_113913" data-name="Trazado 113913" d="M81.432,127.172c-2.18,1.005-20.245,4.2-29.762,0-3.257-34.083-4.745-50.308-2.919-82.762C49.836,25.116,53.073,0,67.464,0S85.914,23.94,85.154,54.916c-.792,32.273-3.723,72.256-3.723,72.256" transform="translate(-7.863 0)" fill="#12263f"/>
    <path id="Trazado_113914" data-name="Trazado 113914" d="M70.851,72.7l.554.71c.392.495.992,1.232,1.8,2.146s1.819,2,3.036,3.166a42.2,42.2,0,0,0,4.242,3.591,23.863,23.863,0,0,0,5.2,2.972,8.921,8.921,0,0,0,4.728.721,5.961,5.961,0,0,0,1.839-.641,7.8,7.8,0,0,0,1.869-1.345,16.762,16.762,0,0,0,3.163-4.917,39.794,39.794,0,0,0,2.277-6.922,70.468,70.468,0,0,0,1.336-7.427,118.917,118.917,0,0,0,.894-13.8c.043-4.093-.089-7.519-.219-9.888-.066-1.185-.133-2.105-.183-2.716s-.083-.889-.082-.858c-.107-5.906,5.234-10.769,11.928-10.864s12.208,4.617,12.314,10.523c0,0-.023.423-.069,1.215-.052.741-.135,1.8-.261,3.141-.254,2.675-.676,6.455-1.407,10.986a136.658,136.658,0,0,1-3.378,15.5,86.919,86.919,0,0,1-2.986,8.793,55.427,55.427,0,0,1-4.639,9.145,31.084,31.084,0,0,1-8.281,8.88,25.053,25.053,0,0,1-6.212,3.1,22.936,22.936,0,0,1-7.2,1.218,23.474,23.474,0,0,1-6.774-.953,26.915,26.915,0,0,1-5.363-2.236A36.116,36.116,0,0,1,71.6,90.5a51.779,51.779,0,0,1-4.745-5.14c-1.274-1.575-2.283-2.982-3.083-4.158s-1.385-2.123-1.782-2.785c-.411-.7-.63-1.08-.63-1.08A4.526,4.526,0,0,1,63.7,70.9a5.871,5.871,0,0,1,6.948,1.542Z" transform="translate(-9.96 -6.988)" fill="#12263f"/>
    <path id="Trazado_113915" data-name="Trazado 113915" d="M68.384,38.646l-.558.78c-.346.474-.85,1.145-1.517,1.979a60.938,60.938,0,0,1-6.1,6.574,48.716,48.716,0,0,1-4.924,4,36.426,36.426,0,0,1-6.761,3.811A27.445,27.445,0,0,1,39.157,58a24.531,24.531,0,0,1-5.434-.328,25.014,25.014,0,0,1-5.2-1.511,24.649,24.649,0,0,1-2.339-1.1l-.281-.149-.14-.074c.19.122-.3-.186-.258-.159l-.024-.013-.049-.025-.395-.2-.788-.4a4.572,4.572,0,0,1-.428-.231l-.552-.344-1.1-.7c-.722-.476-1.279-.915-1.92-1.385a29.14,29.14,0,0,1-6.175-6.548,30.645,30.645,0,0,1-3.644-7.219,34.253,34.253,0,0,1-1.591-6.693,40.514,40.514,0,0,1-.11-9.933c.135-1.206.3-2.172.441-2.877A11.58,11.58,0,0,1,9.494,16.8c2.043-5.625,8.868-8.722,15.244-6.92s9.888,7.823,7.845,13.448c.052-.142-.005-.1-.152.17a13.554,13.554,0,0,0-.63,1.352,23.942,23.942,0,0,0-1.509,5.455,15.891,15.891,0,0,0,.437,7.2,11.613,11.613,0,0,0,1.814,3.516l.655.813.269.33.133.174a2.378,2.378,0,0,0,.288.253l.664.549.333.274.041.035.021.017c.058.038-.416-.261-.211-.131l.05.035.1.07a8.374,8.374,0,0,0,.785.521,7.468,7.468,0,0,0,3.26,1.084,11.5,11.5,0,0,0,4.189-.493,23.284,23.284,0,0,0,4.556-1.916,37.849,37.849,0,0,0,4.09-2.585,52.616,52.616,0,0,0,5.728-4.824c.648-.63,1.139-1.135,1.456-1.471l.445-.474.227-.243a5.932,5.932,0,0,1,7.634-.634,4.406,4.406,0,0,1,1.128,6.238" transform="translate(-1.39 -2.459)" fill="#12263f"/>
    <path id="Trazado_113916" data-name="Trazado 113916" d="M63.566,110.2l-.159.213-.427.55c-.359.452-.877,1.079-1.58,1.839a33.617,33.617,0,0,1-6.817,5.672,29.168,29.168,0,0,1-5.928,2.849,26.888,26.888,0,0,1-7.933,1.43,27.629,27.629,0,0,1-8.692-1.171c-.68-.222-1.367-.448-2.046-.69l-1.954-.81-1.85-.909-.231-.117c.119.074-.194-.119-.169-.1l-.023-.011-.044-.021-.089-.044-.354-.175-.708-.349-.354-.174-.437-.246-.883-.506c-.613-.347-1.124-.671-1.654-1s-1.053-.67-1.561-1.022-1.022-.7-1.511-1.072a49.475,49.475,0,0,1-5.442-4.662A50.668,50.668,0,0,1,5.046,99.9,47.981,47.981,0,0,1,1.2,92.05,22.566,22.566,0,0,1,.081,88.359c-.767-5.867,4-11.173,10.653-11.85s12.665,3.53,13.433,9.4c-.043-.332-.116.227-.025,1.432a27.163,27.163,0,0,0,.961,5.212,30.068,30.068,0,0,0,3.063,7.159,29.152,29.152,0,0,0,2.593,3.689c.242.306.5.6.767.892s.529.593.814.875.571.591.813.819l.38.376.2.194.3.242.6.485.3.242.074.06.037.03.019.015c.038.025-.26-.161-.128-.078l.109.075.864.614.865.534.862.457a11.133,11.133,0,0,0,3.409,1.051,11.443,11.443,0,0,0,3.5-.083A16.065,16.065,0,0,0,48,109.124a23.42,23.42,0,0,0,5.119-3.105c.578-.457,1-.833,1.272-1.076l.277-.253a.371.371,0,0,0,.075-.068l.079-.084a5.937,5.937,0,0,1,7.639-.677,4.433,4.433,0,0,1,1.1,6.335" transform="translate(0 -20.06)" fill="#12263f"/>
  </g>
</svg>
