<svg id="Grupo_57667" data-name="Grupo 57667" xmlns="http://www.w3.org/2000/svg" xmlns:xlink="http://www.w3.org/1999/xlink" width="112.18" height="91.504" viewBox="0 0 112.18 91.504">
  <defs>
    <clipPath id="clip-path">
      <rect id="Rectángulo_6318" data-name="Rectángulo 6318" width="112.18" height="91.504" transform="translate(0 0)" fill="#12263f"/>
    </clipPath>
  </defs>
  <g id="Grupo_57659" data-name="Grupo 57659" clip-path="url(#clip-path)">
    <path id="Trazado_106353" data-name="Trazado 106353" d="M111.352,56.943a7.515,7.515,0,0,0-9.9-3.312L75.912,66H69.36a8.029,8.029,0,0,0,1.282-5.219,8.255,8.255,0,0,0-8.27-7.2H37.825a1.8,1.8,0,0,0-.688.136L18.3,61.467a4.189,4.189,0,0,0-3.979-2.923H4.2a4.2,4.2,0,0,0-4.2,4.2V87.306a4.2,4.2,0,0,0,4.2,4.2H14.323a4.2,4.2,0,0,0,4.084-3.261H39.068a1.844,1.844,0,0,0,.339-.032L82.15,80.046a1.8,1.8,0,0,0,.477-.163l25.449-12.861a7.472,7.472,0,0,0,3.276-10.079M14.9,87.306a.58.58,0,0,1-.58.58H4.2a.58.58,0,0,1-.58-.58V62.742a.58.58,0,0,1,.58-.58H14.323a.58.58,0,0,1,.58.58V87.306Zm93.466-25.761a3.831,3.831,0,0,1-1.926,2.247L81.222,76.539,38.9,84.625H18.522V65.291l19.662-8.1H62.372a4.609,4.609,0,0,1,4.671,3.945,4.36,4.36,0,0,1-1.116,3.4A4.41,4.41,0,0,1,62.665,66H41.551a1.809,1.809,0,0,0,0,3.619H76.327a1.809,1.809,0,0,0,.788-.181l25.913-12.545a3.875,3.875,0,0,1,5.1,1.708,3.825,3.825,0,0,1,.237,2.949" fill="#12263f"/>
    <path id="Trazado_106354" data-name="Trazado 106354" d="M63.758,43.425A17.693,17.693,0,0,0,81.431,25.752C81.431,16.486,66.69,2.112,65.01.5a1.81,1.81,0,0,0-2.5,0c-1.68,1.609-16.421,15.983-16.421,25.249A17.693,17.693,0,0,0,63.758,43.425m0-39.075c4.841,4.886,14.053,15.419,14.053,21.4a14.053,14.053,0,1,1-28.107,0c0-5.977,9.212-16.513,14.054-21.4" fill="#12263f"/>
  </g>
</svg>
