<svg id="Grupo_57677" data-name="Grupo 57677" xmlns="http://www.w3.org/2000/svg" xmlns:xlink="http://www.w3.org/1999/xlink" width="99.69" height="102" viewBox="0 0 99.69 102">
  <defs>
    <clipPath id="clip-path">
      <rect id="Rectángulo_5729" data-name="Rectángulo 5729" width="99.69" height="102" fill="#12263f"/>
    </clipPath>
  </defs>
  <g id="Grupo_56829" data-name="Grupo 56829" transform="translate(0 0)" clip-path="url(#clip-path)">
    <path id="Trazado_105182" data-name="Trazado 105182" d="M49.845,100.9a49.845,49.845,0,1,1,0-99.69,1.734,1.734,0,0,1,0,3.468A46.378,46.378,0,1,0,96.224,51.058a1.733,1.733,0,0,1,3.466,0A49.9,49.9,0,0,1,49.845,100.9" transform="translate(0 1.098)" fill="#12263f"/>
    <path id="Trazado_105183" data-name="Trazado 105183" d="M28.757,66.782c-1.291,0-2.6-.063-3.874-.187a1.733,1.733,0,1,1,.333-3.451c1.167.114,2.36.171,3.54.171A36.554,36.554,0,0,0,65.1,29.557a1.734,1.734,0,0,1,3.458.253,40.036,40.036,0,0,1-39.8,36.971" transform="translate(21.088 25.28)" fill="#12263f"/>
    <path id="Trazado_105184" data-name="Trazado 105184" d="M32.732,83.915a1.682,1.682,0,0,1-.562-.1A39.915,39.915,0,0,1,38.216,6.758a1.733,1.733,0,1,1,.6,3.415A36.449,36.449,0,0,0,33.291,80.54a1.734,1.734,0,0,1-.56,3.375" transform="translate(4.721 6.09)" fill="#12263f"/>
    <path id="Trazado_105185" data-name="Trazado 105185" d="M26.724,6.99a1.734,1.734,0,0,1-1.306-2.872l2.015-2.31a1.733,1.733,0,0,1,2.613,2.278L28.032,6.4a1.731,1.731,0,0,1-1.308.594" transform="translate(22.603 1.097)" fill="#12263f"/>
    <path id="Trazado_105186" data-name="Trazado 105186" d="M28.74,5.778a1.731,1.731,0,0,1-1.308-.594l-2.013-2.31A1.733,1.733,0,0,1,28.031.6l2.015,2.31A1.734,1.734,0,0,1,28.74,5.778" transform="translate(22.604 0.001)" fill="#12263f"/>
    <path id="Trazado_105187" data-name="Trazado 105187" d="M54.169,43.03c-2.156,0-7.732-1.883-9.867-4.319a3.82,3.82,0,0,1-.933-3.881,2.5,2.5,0,0,0,.01-2.249c-.179-.211-.975-.861-3.647-.373-6,1.084-10.046-5.216-11.573-7.589l-.2-.307A10.063,10.063,0,0,1,27.1,17.08a6.069,6.069,0,0,1,2.984-4.018c.48-.249.7-1.67.04-4.2A1.734,1.734,0,0,1,32.079,6.72a39.812,39.812,0,0,1,32.9,32.861,1.731,1.731,0,0,1-1.03,1.874,24.136,24.136,0,0,1-8.5,1.5c-.377.013-.663.017-.825.04a2.391,2.391,0,0,1-.451.036M41.439,28.57a5.686,5.686,0,0,1,4.567,1.746c1.183,1.375,1.411,3.375.644,5.633-.029.076.07.23.129.314,1.19,1.67,6.108,3.259,7.315,3.3a11.8,11.8,0,0,1,1.232-.076,24.994,24.994,0,0,0,5.969-.766,36.343,36.343,0,0,0-27.344-28.1c.293,3.344-.988,4.841-2.259,5.51a2.677,2.677,0,0,0-1.24,1.821,6.88,6.88,0,0,0,.411,4.464l.209.326c1.183,1.838,4.314,6.728,8.039,6.052a13,13,0,0,1,2.327-.227" transform="translate(24.233 6.059)" fill="#12263f"/>
    <path id="Trazado_105188" data-name="Trazado 105188" d="M49.287,50.511c-3.561,0-8.631-2.379-9.857-5.53-.794-2.042-1.619-2.52-5.868-4.717l-.369-.192a4.52,4.52,0,0,1-2.516-2.594,4.226,4.226,0,0,1,.954-3.453c.735-1.15,1.367-2.142.914-3.8-.575-2.114-.291-3.679.842-4.654,1.872-1.613,4.967-.368,5.567-.1a1.72,1.72,0,0,1,.333.2c.594.442,1.223.967,1.889,1.529,3.338,2.815,7.13,6,12.87,3.333A11.175,11.175,0,0,1,60.611,29.4a1.735,1.735,0,0,1,1.451,1.771,39.486,39.486,0,0,1-4.013,16.117,1.738,1.738,0,0,1-1.03.889c-1.154.369-2.388.817-3.508,1.223-.931.339-1.786.648-2.464.868a5.807,5.807,0,0,1-1.76.244M34.127,36.591a4.432,4.432,0,0,0,.659.4l.368.19c4.266,2.205,6.212,3.213,7.507,6.538.741,1.9,5.561,3.82,7.317,3.247.648-.209,1.463-.507,2.35-.828.931-.337,1.941-.7,2.92-1.032A36.023,36.023,0,0,0,58.5,32.78a9.421,9.421,0,0,0-2.986.884C47.758,37.277,42.454,32.8,38.94,29.84c-.545-.461-1.063-.9-1.556-1.274a4.693,4.693,0,0,0-1.661-.349,3.613,3.613,0,0,0,.168,1.091,7.654,7.654,0,0,1-1.337,6.58c-.141.221-.318.5-.427.7" transform="translate(27.653 22.39)" fill="#12263f"/>
    <path id="Trazado_105189" data-name="Trazado 105189" d="M10.031,48.325a24.893,24.893,0,0,1-2.9-.175,1.73,1.73,0,0,1-1.516-1.48,40.4,40.4,0,0,1-.4-5.6A39.634,39.634,0,0,1,17,12.764a1.733,1.733,0,0,1,2.807.529c1.007,2.278,2.5,3.4,4.554,3.432,4.462.065,5.784,2.261,6.174,3.563.935,3.118-1.527,7.035-4.449,9.023-.4.269-.766.512-1.1.735A9.1,9.1,0,0,0,23.1,31.465c-.006.114.1.674,1.312,2.636,1.331,2.154,1.12,5.022-.568,7.673-2.11,3.318-6.768,6.551-13.819,6.551m-1.146-3.5c6.353.356,10.413-2.354,12.04-4.91.943-1.48,1.15-3.007.545-3.986-2.95-4.761-2.27-6.222,1.6-8.776.326-.215.68-.448,1.063-.708,2.129-1.447,3.424-4.007,3.078-5.159-.284-.952-2.125-1.082-2.9-1.093a7.82,7.82,0,0,1-6.426-3.319,36.345,36.345,0,0,0-9,27.951" transform="translate(4.721 11.088)" fill="#12263f"/>
    <path id="Trazado_105190" data-name="Trazado 105190" d="M27.119,59.307a1.731,1.731,0,0,1-.792-.192A39.948,39.948,0,0,1,5.93,33.736a1.732,1.732,0,0,1,1.663-2.173c5.925-.029,9.37,1.419,10.415,4.34a22.935,22.935,0,0,1,.935,3.8c.539,2.975.809,4.47,5.609,5.6a6.227,6.227,0,0,1,4.2,3.239c1.588,3.02.986,7.092-.013,9.661a1.743,1.743,0,0,1-1.617,1.106M9.954,35.115a36.49,36.49,0,0,0,16.1,19.894,7.761,7.761,0,0,0-.373-4.854,2.744,2.744,0,0,0-1.923-1.48c-7.01-1.649-7.627-5.056-8.225-8.353a19.84,19.84,0,0,0-.788-3.249c-.369-1.034-2.108-1.725-4.79-1.958" transform="translate(5.312 28.547)" fill="#12263f"/>
  </g>
</svg>
