<svg id="Grupo_57676" data-name="Grupo 57676" xmlns="http://www.w3.org/2000/svg" xmlns:xlink="http://www.w3.org/1999/xlink" width="88.351" height="102" viewBox="0 0 88.351 102">
  <defs>
    <clipPath id="clip-path">
      <rect id="Rectángulo_5730" data-name="Rectángulo 5730" width="88.351" height="102" fill="#12263f"/>
    </clipPath>
  </defs>
  <g id="Grupo_56831" data-name="Grupo 56831" transform="translate(0 0)" clip-path="url(#clip-path)">
    <path id="Trazado_105191" data-name="Trazado 105191" d="M27.719,16.1a7.891,7.891,0,0,1-7.7-8.05A7.889,7.889,0,0,1,27.719,0a7.889,7.889,0,0,1,7.7,8.05,7.891,7.891,0,0,1-7.7,8.05m0-12.784A4.575,4.575,0,0,0,23.333,8.05a4.574,4.574,0,0,0,4.386,4.732A4.574,4.574,0,0,0,32.1,8.05a4.575,4.575,0,0,0-4.386-4.734" transform="translate(16.456 0.001)" fill="#12263f"/>
    <path id="Trazado_105192" data-name="Trazado 105192" d="M24.992,49.887a1.658,1.658,0,0,1-1.658-1.658v-22.3a1.658,1.658,0,0,1,3.316,0v22.3a1.658,1.658,0,0,1-1.658,1.658" transform="translate(19.183 19.95)" fill="#12263f"/>
    <path id="Trazado_105193" data-name="Trazado 105193" d="M43.984,66.58H30.478a1.657,1.657,0,0,1-1.658-1.658V24.941A30.158,30.158,0,0,1,9.178,11.716a5.111,5.111,0,0,1,7.952-6.29,40.507,40.507,0,0,0,13.635,9.127H43.7A40.5,40.5,0,0,0,57.331,5.426a5.11,5.11,0,0,1,7.952,6.29A30.149,30.149,0,0,1,45.642,24.941V64.922a1.657,1.657,0,0,1-1.658,1.658M32.136,63.264H42.325V23.556a1.657,1.657,0,0,1,1.4-1.638c9.417-1.492,15.843-7.132,18.717-11.913A1.793,1.793,0,0,0,62,7.664a1.763,1.763,0,0,0-2.327.108A42.284,42.284,0,0,1,44.5,17.787a1.65,1.65,0,0,1-.516.082H30.478a1.65,1.65,0,0,1-.516-.082A42.3,42.3,0,0,1,14.782,7.771a1.761,1.761,0,0,0-2.327-.108,1.8,1.8,0,0,0-.435,2.341c2.875,4.781,9.3,10.421,18.717,11.913a1.659,1.659,0,0,1,1.4,1.638Z" transform="translate(6.945 3.257)" fill="#12263f"/>
    <path id="Trazado_105194" data-name="Trazado 105194" d="M56.937,55.905H12.911a1.657,1.657,0,0,1-1.658-1.658V46.206a1.657,1.657,0,0,1,1.658-1.658h5.577V38.165a1.658,1.658,0,0,1,1.658-1.658H49.7a1.657,1.657,0,0,1,1.658,1.658v6.383h5.579A1.658,1.658,0,0,1,58.6,46.206v8.041a1.658,1.658,0,0,1-1.658,1.658M14.569,52.589H55.277V47.864H49.7a1.657,1.657,0,0,1-1.658-1.658V39.823H21.8v6.383a1.657,1.657,0,0,1-1.658,1.658H14.569Z" transform="translate(9.251 30.014)" fill="#12263f"/>
    <path id="Trazado_105195" data-name="Trazado 105195" d="M80.273,64.73H4.085a1.657,1.657,0,0,1-1.658-1.658V55.033a1.657,1.657,0,0,1,1.658-1.658h5.78V46.992a1.659,1.659,0,0,1,1.658-1.66H72.837a1.66,1.66,0,0,1,1.658,1.66v6.383h5.778a1.659,1.659,0,0,1,1.66,1.658v8.039a1.659,1.659,0,0,1-1.66,1.658M5.743,61.414H78.615V56.691H72.837a1.659,1.659,0,0,1-1.66-1.658V48.65h-58v6.383a1.657,1.657,0,0,1-1.658,1.658H5.743Z" transform="translate(1.995 37.269)" fill="#12263f"/>
    <path id="Trazado_105196" data-name="Trazado 105196" d="M86.693,57.475H1.658a1.658,1.658,0,1,1,0-3.316H86.693a1.658,1.658,0,0,1,0,3.316" transform="translate(0 44.525)" fill="#12263f"/>
    <path id="Trazado_105197" data-name="Trazado 105197" d="M64.674,53.062H14.015a1.658,1.658,0,0,1,0-3.316H64.674a1.658,1.658,0,0,1,0,3.316" transform="translate(10.159 40.897)" fill="#12263f"/>
    <path id="Trazado_105198" data-name="Trazado 105198" d="M35.379,44.236h-18.5a1.658,1.658,0,0,1,0-3.316h18.5a1.658,1.658,0,0,1,0,3.316" transform="translate(12.517 33.641)" fill="#12263f"/>
    <path id="Trazado_105199" data-name="Trazado 105199" d="M41.854,31.232A1.658,1.658,0,0,1,40.2,29.574V21.8a1.657,1.657,0,0,1,2.748-1.25l2.5,2.179a1.658,1.658,0,0,1-1.928,2.68v4.164a1.658,1.658,0,0,1-1.658,1.658" transform="translate(33.046 16.559)" fill="#12263f"/>
    <path id="Trazado_105200" data-name="Trazado 105200" d="M42.98,31.231a1.658,1.658,0,0,1-1.658-1.658V25.409a1.658,1.658,0,0,1-1.928-2.68l2.5-2.179a1.658,1.658,0,0,1,2.748,1.25v7.773a1.658,1.658,0,0,1-1.658,1.658" transform="translate(31.919 16.56)" fill="#12263f"/>
    <path id="Trazado_105201" data-name="Trazado 105201" d="M9.256,31.231A1.658,1.658,0,0,1,7.6,29.573V25.409a1.658,1.658,0,0,1-1.928-2.68l2.5-2.179a1.657,1.657,0,0,1,2.748,1.25v7.773a1.658,1.658,0,0,1-1.658,1.658" transform="translate(4.195 16.56)" fill="#12263f"/>
    <path id="Trazado_105202" data-name="Trazado 105202" d="M8.13,31.232a1.658,1.658,0,0,1-1.658-1.658V21.8A1.658,1.658,0,0,1,9.22,20.55l2.5,2.179a1.658,1.658,0,0,1-1.928,2.68v4.164A1.658,1.658,0,0,1,8.13,31.232" transform="translate(5.321 16.559)" fill="#12263f"/>
  </g>
</svg>
