<svg xmlns="http://www.w3.org/2000/svg" xmlns:xlink="http://www.w3.org/1999/xlink" width="1600" height="221" viewBox="0 0 1600 221">
  <defs>
    <clipPath id="clip-path">
      <path id="Recurso_1" data-name="Recurso 1" d="M0,0H1600V220H0Z" transform="translate(-10886 -13455)" fill="#0e494d"/>
    </clipPath>
    <clipPath id="clip-path-2">
      <rect id="Rectángulo_339787" data-name="Rectángulo 339787" width="137" height="141" transform="translate(-11807 -12596)" fill="#fff" stroke="#707070" stroke-width="1"/>
    </clipPath>
    <clipPath id="clip-path-3">
      <rect id="Rectángulo_339746" data-name="Rectángulo 339746" width="30.344" height="92.743" transform="translate(84.291 44.92)" fill="none"/>
    </clipPath>
    <clipPath id="clip-path-4">
      <rect id="Rectángulo_339747" data-name="Rectángulo 339747" width="93.61" height="69.504" transform="translate(82.871 43.704)" fill="none"/>
    </clipPath>
    <clipPath id="clip-path-5">
      <rect id="Rectángulo_339769" data-name="Rectángulo 339769" width="201.074" height="175.663" fill="none"/>
    </clipPath>
    <clipPath id="clip-path-7">
      <rect id="Rectángulo_339765" data-name="Rectángulo 339765" width="96.945" height="35.709" fill="none"/>
    </clipPath>
    <clipPath id="clip-path-8">
      <rect id="Rectángulo_339766" data-name="Rectángulo 339766" width="72.153" height="26.345" fill="none"/>
    </clipPath>
    <clipPath id="clip-path-9">
      <rect id="Rectángulo_339767" data-name="Rectángulo 339767" width="26.806" height="71.974" fill="none"/>
    </clipPath>
  </defs>
  <g id="banner-interno" transform="translate(0 -69)">
    <g id="Grupo_84532" data-name="Grupo 84532">
      <g id="Grupo_49020" data-name="Grupo 49020" transform="translate(0 69)">
        <g id="Group_1153" data-name="Group 1153">
          <path id="Recurso_1-2" data-name="Recurso 1" d="M0,0H1600V220H0Z" fill="#0e494d"/>
        </g>
      </g>
    </g>
    <g id="Enmascarar_grupo_927216" data-name="Enmascarar grupo 927216" transform="translate(10886 13525)" clip-path="url(#clip-path)">
      <g id="Grupo_957485" data-name="Grupo 957485" transform="translate(-468.412 728)">
        <g id="Enmascarar_grupo_927214" data-name="Enmascarar grupo 927214" transform="translate(2735 -1507.845)" clip-path="url(#clip-path-2)">
          <path id="Trazado_725122" data-name="Trazado 725122" d="M201.02.4A203.318,203.318,0,0,1,157.281,36c-2.317-3.839-7.294-11.189-13.989-15.756-9.405-6.383-17.511-6.871-21.033-1.111-2.811,6.111,2.11,12.561,12.673,16.8,5.915,2.384,12.687,2.907,17.488,2.907a207.578,207.578,0,0,1-25.29,12.221c-1.5-3.738-5.562-12.59-12.072-18.5-8.438-7.633-16.4-9.228-20.677-4.017-3.621,5.678.362,12.75,10.235,18.4,6.338,3.637,14.122,5.027,18.86,5.538-3.5,1.34-7.044,2.606-10.617,3.756C106.4,58.314,99.8,60.064,93.165,61.553c-1.039-3.812-4.033-13.177-9.882-19.85-7.489-8.555-15.205-11.051-20.056-6.384-4.249,5.229-1.122,12.706,8.017,19.467,5.816,4.294,13.267,6.561,17.922,7.649a223.466,223.466,0,0,1-25.917,3.812c-.832-3.778-3.416-13.395-9-20.416C47.137,36.958,39.549,34.1,34.5,38.553c-4.5,5.028-1.7,12.644,7.127,19.811C46.932,62.68,53.794,65.23,58.42,66.6c-4.4.277-8.794.472-13.182.5-1.823,0-3.772-.01-5.706-.061C36.11,64.663,28.05,59.587,19.549,58.2,8.322,56.353.767,59.313,0,66.019c.034,6.738,7.217,10.512,18.566,9.922,8.294-.427,16.545-4.29,20.412-6.362a193.65,193.65,0,0,0,30.9-1.538c-4.116,2.528-10.143,6.828-14.182,12.433-6.65,9.228-7.367,17.312-1.7,20.978,6.05,2.989,12.639-1.767,17.16-12.2,3.484-8.049,3.517-17.783,3.362-21.8a233.709,233.709,0,0,0,31.227-6.5c-3.54,2.928-9.873,8.789-13.334,15.9-4.96,10.233-4.278,18.322,1.918,20.978,6.466,1.889,12.154-3.906,14.828-14.967,2.188-9.056.216-19.317-.573-22.728a221,221,0,0,0,28.983-10.816c-2.461,1.86-10.95,8.688-15.167,17.383-4.977,10.222-4.3,18.316,1.911,20.956,6.461,1.916,12.14-3.9,14.805-14.94,2.5-10.31-.387-22.166-.805-23.732q7.641-3.508,14.944-7.644c1.572-.872,3.111-1.806,4.644-2.723.512-.05.823-.094.823-.094s-.061-.11-.166-.295c3.527-2.139,7.006-4.383,10.388-6.738a46.834,46.834,0,0,0-7.728,14.034c-3.384,10.838-1.5,18.739,5.011,20.444,6.684.906,11.434-5.672,12.434-17,.772-8.778-2.285-18.044-3.717-21.784a206.891,206.891,0,0,0,27.91-25.1A1.247,1.247,0,0,0,201.02.4" transform="matrix(0.259, 0.966, -0.966, 0.259, -11701.872, -12605.188)" fill="#246b1a"/>
        </g>
        <g id="Grupo_957444" data-name="Grupo 957444" transform="translate(2746.211 -1346.894)">
          <path id="Trazado_725039" data-name="Trazado 725039" d="M109.876,46.76A77.87,77.87,0,0,0,128.37,57.885a20.3,20.3,0,0,1,4.448-6.728c3.224-2.925,6.268-3.551,7.915-1.561,1.4,2.168-.122,4.879-3.894,7.053a18.369,18.369,0,0,1-6.472,2.046,78.553,78.553,0,0,0,10.246,3.265,20.248,20.248,0,0,1,3.571-7.657c2.787-3.354,5.714-4.39,7.614-2.643,1.68,1.957.555,4.847-2.879,7.526a19.449,19.449,0,0,1-6.846,3.114c1.4.323,2.8.608,4.223.851,2.559.435,5.152.748,7.751.951a20.4,20.4,0,0,1,2.665-8.055c2.377-3.647,5.166-5.008,7.257-3.5,1.889,1.75,1.114,4.751-1.983,7.807a19.4,19.4,0,0,1-6.383,3.865,84.514,84.514,0,0,0,10.028.046,20.547,20.547,0,0,1,2.3-8.221c2.214-3.747,4.933-5.239,7.091-3.826,1.979,1.663,1.327,4.7-1.63,7.889a19.084,19.084,0,0,1-5.918,4.031c1.686-.134,3.354-.3,5.025-.524.69-.1,1.424-.208,2.156-.326a20.359,20.359,0,0,1,7.091-4.433c4.156-1.3,7.181-.6,7.831,1.907.348,2.557-2.165,4.376-6.5,4.761a19.967,19.967,0,0,1-8.079-1.311A73.709,73.709,0,0,1,163.213,65.3a19.249,19.249,0,0,1,6.049,3.944c3.022,3.137,3.725,6.164,1.777,7.852-2.131,1.463-4.882.016-7.16-3.691a20.63,20.63,0,0,1-2.453-8.079,89.969,89.969,0,0,1-12.179-.777,20.022,20.022,0,0,1,5.914,5.308c2.425,3.609,2.605,6.714.407,8.049-2.353,1.061-4.822-.82-6.431-4.873a20.741,20.741,0,0,1-1.012-8.641,83.163,83.163,0,0,1-11.56-2.527,20.656,20.656,0,0,1,6.68,5.766c2.441,3.606,2.623,6.71.408,8.041-2.345,1.081-4.811-.82-6.414-4.857a21.165,21.165,0,0,1-.978-9.038c-2.06-.61-4.079-1.31-6.074-2.091-.64-.246-1.274-.515-1.909-.778-.193.009-.316.01-.316.01s.019-.046.05-.118q-2.182-.933-4.3-1.994a17.862,17.862,0,0,1,3.684,4.9c1.874,3.922,1.584,7.015-.8,8.013-2.478.705-4.633-1.528-5.627-5.766A20.47,20.47,0,0,1,121.2,55.5a78.8,78.8,0,0,1-11.924-8.006.474.474,0,0,1,.6-.734" transform="translate(-13254.667 -12893.649)" fill="#3a8931"/>
          <path id="Trazado_725040" data-name="Trazado 725040" d="M84.288,44.926s.492.287,1.416.832c.8.575,2.239,1.351,3.555,2.439A61.125,61.125,0,0,1,99.274,57.33a63.611,63.611,0,0,1,9.2,13.734,61.379,61.379,0,0,1,5.308,16.615,60.1,60.1,0,0,1,.383,17.429,62.643,62.643,0,0,1-4.27,15.968,67.951,67.951,0,0,1-3.236,6.638c-1.088,1.987-2.347,3.78-3.341,5.238a42.032,42.032,0,0,1-2.594,3.456c-.645.806-1.081,1.253-1.081,1.253s-.55-.277-1.426-.827c-.812-.567-2.252-1.352-3.574-2.437-1.406-1.067-3.181-2.357-4.852-3.889a68.463,68.463,0,0,1-5.2-5.241A62.4,62.4,0,0,1,75.4,111.538,60.412,60.412,0,0,1,70.146,94.9a61.215,61.215,0,0,1-.333-17.439,63.481,63.481,0,0,1,4.281-15.96,61.644,61.644,0,0,1,6.531-11.881c.9-1.452,2.008-2.659,2.585-3.451.7-.817,1.078-1.248,1.078-1.248" transform="translate(-13254.667 -12893.649)" fill="#aed144"/>
          <path id="Trazado_725041" data-name="Trazado 725041" d="M74.553,83.207q5.9-11.751,11.778-23.488L89.79,80.643c-.1.082-.217.138-.27.247q-6.231,12.429-12.462,24.851c-.4.81.915,1.3,1.312.5Q84.262,94.5,90.142,82.751l3.467,20.928c-.1.081-.224.149-.273.257q-3.6,7.172-7.2,14.345c-.4.814.916,1.3,1.311.5q3.261-6.5,6.513-12.99l4.748,28.683,1.149-.2-4.642-28.064q5.151,4.633,10.31,9.259c.669.616,1.485-.542.806-1.131q-5.736-5.163-11.481-10.321L91.4,83.175q.444.4.9.812c2.234,2.014,4.49,4.025,6.735,6.045,3.4,3.053,6.8,6.118,10.208,9.159.667.621,1.479-.533.813-1.13q-9.516-8.541-19.018-17.088L87.579,60.132c.3.271.6.541.889.81q3.372,3.018,6.738,6.052,5.113,4.579,10.21,9.164c.671.606,1.483-.545.813-1.143q-9.5-8.542-19.016-17.081l-.994-6.026-1.157.194.914,5.5c-.1.076-.224.138-.271.248Q79.466,70.272,73.247,82.7c-.412.809.9,1.3,1.306.506" transform="translate(-13254.667 -12893.649)" fill="#246b1a"/>
          <g id="Grupo_957418" data-name="Grupo 957418" transform="translate(-13254.667 -12893.649)" opacity="0.1">
            <g id="Grupo_957417" data-name="Grupo 957417">
              <g id="Grupo_957416" data-name="Grupo 957416" clip-path="url(#clip-path-3)">
                <path id="Trazado_725042" data-name="Trazado 725042" d="M99.649,137.663s.442-.447,1.081-1.247a42.154,42.154,0,0,0,2.6-3.456c.984-1.466,2.249-3.261,3.339-5.247a66.76,66.76,0,0,0,3.23-6.64,62.215,62.215,0,0,0,4.274-15.964,60.4,60.4,0,0,0-.381-17.432,61.785,61.785,0,0,0-5.307-16.619A63.621,63.621,0,0,0,99.28,57.331a61.5,61.5,0,0,0-10.016-9.136,41.389,41.389,0,0,0-3.556-2.436c-.917-.533-1.415-.831-1.417-.839Z" fill="#211a72"/>
              </g>
            </g>
          </g>
          <path id="Trazado_725043" data-name="Trazado 725043" d="M92.751,75.352a77.956,77.956,0,0,1,15.87,14.629,20.234,20.234,0,0,0-5.208,6.158c-1.9,3.914-1.649,7.011.725,8.035,2.471.731,4.646-1.489,5.674-5.719a18.446,18.446,0,0,0,.148-6.787,78.67,78.67,0,0,1,6.008,8.917,20.262,20.262,0,0,0-6.346,5.578c-2.436,3.616-2.61,6.715-.4,8.049,2.35,1.064,4.806-.828,6.413-4.877a19.432,19.432,0,0,0,1.067-7.444c.7,1.254,1.373,2.522,2,3.814,1.135,2.335,2.164,4.736,3.087,7.172a20.43,20.43,0,0,0-6.981,4.82c-2.834,3.306-3.355,6.365-1.324,7.948,2.211,1.321,4.875-.264,6.936-4.095a19.447,19.447,0,0,0,1.921-7.21,85.558,85.558,0,0,1,2.858,9.611,20.552,20.552,0,0,0-7.246,4.518c-2.972,3.18-3.643,6.207-1.678,7.882,2.149,1.428,4.884-.047,7.112-3.781a19.1,19.1,0,0,0,2.206-6.809c.345,1.652.658,3.3.91,4.968.1.69.2,1.425.29,2.161a20.385,20.385,0,0,0-2.261,8.051c-.086,4.356,1.442,7.06,4.026,6.979,2.554-.382,3.593-3.3,2.747-7.571a20,20,0,0,0-3.524-7.383,74.234,74.234,0,0,0-2.265-11.626,19.227,19.227,0,0,0,5.483,4.7c3.858,2.021,6.96,1.846,8.035-.5.8-2.456-1.357-4.692-5.553-5.836a20.648,20.648,0,0,0-8.442-.086,89.88,89.88,0,0,0-4.164-11.472,19.944,19.944,0,0,0,6.753,4.185c4.145,1.317,7.173.618,7.841-1.868.358-2.555-2.144-4.4-6.483-4.8a20.677,20.677,0,0,0-8.575,1.456,83.156,83.156,0,0,0-5.676-10.388,20.68,20.68,0,0,0,7.411,4.793c4.145,1.33,7.176.633,7.832-1.866.379-2.552-2.137-4.388-6.461-4.791a21.116,21.116,0,0,0-8.95,1.6c-1.165-1.806-2.4-3.548-3.713-5.244-.413-.546-.85-1.078-1.283-1.611-.043-.189-.077-.309-.077-.309l-.1.083q-1.5-1.832-3.12-3.568a17.864,17.864,0,0,0,5.736,2.162c4.293.695,7.178-.451,7.469-3.013-.018-2.577-2.769-4.019-7.116-3.783a20.45,20.45,0,0,0-8.051,2.592,78.351,78.351,0,0,0-11.031-9.195.472.472,0,0,0-.535.778" transform="translate(-13254.667 -12893.649)" fill="#3a8931"/>
          <path id="Trazado_725044" data-name="Trazado 725044" d="M82.873,46.088s.676-.174,1.952-.507c1.19-.2,3.112-.766,5.192-.962a75.035,75.035,0,0,1,16.587-.743,77.777,77.777,0,0,1,19.876,3.93,75.175,75.175,0,0,1,18.982,9.821,73.64,73.64,0,0,1,15.426,14.779,76.715,76.715,0,0,1,10.118,17.541,81.256,81.256,0,0,1,2.937,8.561,75.047,75.047,0,0,1,1.642,7.44,48.555,48.555,0,0,1,.744,5.239c.143,1.257.148,2.02.148,2.02s-.719.235-1.95.523c-1.2.2-3.127.775-5.215.977-2.142.287-4.8.708-7.575.828a83.473,83.473,0,0,1-9.04-.041,76.613,76.613,0,0,1-19.862-3.947,74.02,74.02,0,0,1-18.952-9.872A74.565,74.565,0,0,1,98.5,86.83,77.5,77.5,0,0,1,88.39,69.282a75.741,75.741,0,0,1-4.627-15.946c-.47-2.04-.555-4.056-.742-5.235-.1-1.309-.148-2.013-.148-2.013" transform="translate(-13254.667 -12893.649)" fill="#aed144"/>
          <path id="Trazado_725045" data-name="Trazado 725045" d="M107.568,87.708q-5.049-15.287-10.12-30.558l21.117,15.143a1,1,0,0,0-.021.449q5.358,16.176,10.71,32.343c.359,1.049,1.916.337,1.57-.7Q125.771,89.1,120.7,73.825l21.124,15.14a1.075,1.075,0,0,0-.025.464q3.1,9.332,6.18,18.672c.355,1.048,1.927.33,1.573-.695q-2.8-8.467-5.592-16.906l28.947,20.755.824-1.166L145.412,89.783q8.477-.444,16.954-.9c1.113-.043.818-1.751-.274-1.673q-9.448.479-18.9.985L122.149,73.1c.5-.021.993-.04,1.478-.071,3.687-.19,7.386-.394,11.08-.584q8.393-.447,16.779-.895c1.116-.044.823-1.749-.273-1.68q-15.645.817-31.285,1.64L98.889,56.427c.5-.027.987-.054,1.484-.077,3.689-.2,7.389-.391,11.074-.572q8.4-.46,16.789-.9c1.11-.054.818-1.751-.283-1.684Q112.314,54,96.676,54.831L90.6,50.475l-.843,1.157L95.31,55.61a.983.983,0,0,0-.026.455Q100.645,72.237,106,88.4c.342,1.057,1.9.338,1.565-.7" transform="translate(-13254.667 -12893.649)" fill="#246b1a"/>
          <g id="Grupo_957421" data-name="Grupo 957421" transform="translate(-13254.667 -12893.649)" opacity="0.1">
            <g id="Grupo_957420" data-name="Grupo 957420">
              <g id="Grupo_957419" data-name="Grupo 957419" clip-path="url(#clip-path-4)">
                <path id="Trazado_725046" data-name="Trazado 725046" d="M176.481,113.208c0-.007,0-.769-.144-2.024a52.579,52.579,0,0,0-.734-5.246c-.418-2.118-.869-4.776-1.655-7.439a79.326,79.326,0,0,0-2.939-8.554A76.43,76.43,0,0,0,160.9,72.4a74.24,74.24,0,0,0-15.423-14.783A75.438,75.438,0,0,0,126.484,47.8a77.5,77.5,0,0,0-19.866-3.935,75.328,75.328,0,0,0-16.6.741,52.07,52.07,0,0,0-5.189.967c-1.257.334-1.953.508-1.959.505Z" fill="#211a72"/>
              </g>
            </g>
          </g>
        </g>
        <path id="Trazado_725101" data-name="Trazado 725101" d="M1601.151,0V447.3H1.15V136.385c49.9-14.835,104.981-16.6,156.2-8,41.728,7.008,82.048,19.544,121.835,34.29.3.133.6.243.917.354,20.224,7.539,40.32,15.653,60.395,23.921,36.587,15.056,73.067,30.6,110.123,44.017,274.9,99.575,588.715,77.489,848.107-59.67C1400.788,117.35,1496.681,45.764,1601.151,0" transform="translate(-10418.738 -14186.497)" fill="#b9efe8" opacity="0.1"/>
        <path id="Trazado_725123" data-name="Trazado 725123" d="M1688.065,0V455.074H1.15V138.754c52.609-15.092,110.684-16.892,164.688-8.142,43.995,7.13,86.505,19.883,128.453,34.885.315.135.63.247.967.36,21.323,7.67,42.51,15.924,63.675,24.337,38.574,15.317,77.036,31.129,116.1,44.782,289.834,101.3,620.695,78.835,894.177-60.706C1476.818,119.389,1577.921,46.559,1688.065,0" transform="translate(-10505.652 -14256.496)" fill="#b9efe8" opacity="0.1"/>
        <g id="Grupo_957466" data-name="Grupo 957466" transform="matrix(0.788, -0.616, 0.616, 0.788, -10550.887, -13993.017)" clip-path="url(#clip-path-5)">
          <g id="Grupo_957465" data-name="Grupo 957465">
            <g id="Grupo_957464" data-name="Grupo 957464" clip-path="url(#clip-path-5)">
              <path id="Trazado_725102" data-name="Trazado 725102" d="M81.071,137.981a1.494,1.494,0,0,1,.83-.878c.083-.032.17-.07.256-.105a209.613,209.613,0,0,1,21.968-17.144,1.408,1.408,0,0,1,.224-.295c19.9-20.8,32.44-50.543,36.806-78.906.321-2.045,3.542-1.83,3.225.222-3.956,25.663-14.339,52.187-30.69,72.8a248.583,248.583,0,0,1,30.6-15.82c18.471-8.007,38.562-14.777,58.61-17.544,2.053-.285,2.663,2.882.6,3.167-19.353,2.677-38.56,9.184-56.482,16.721a226.976,226.976,0,0,0-55.277,32.816c24.638-9.486,52.859-14.739,78.8-10.858,2.052.308,1.84,3.532-.224,3.218-28.739-4.3-60.334,2.786-86.488,14.406a183.467,183.467,0,0,0-32.312,38.156c-1.109,1.757-3.773-.057-2.664-1.818a184.208,184.208,0,0,1,32.21-38.139" transform="translate(-48.596 -2.991)" fill="#aed144"/>
              <path id="Trazado_725103" data-name="Trazado 725103" d="M0,95.855,1.4,96.9c.878.554,2.225,1.644,3.818,2.494a65.1,65.1,0,0,0,12.99,6.1,67.046,67.046,0,0,0,17.158,3.452,64.923,64.923,0,0,0,18.4-1.529,63.949,63.949,0,0,0,17.211-6.674A66.147,66.147,0,0,0,84.863,90.1a70.27,70.27,0,0,0,5.181-5.851c1.51-1.865,2.754-3.834,3.786-5.388a44.859,44.859,0,0,0,2.327-3.937c.527-.958.785-1.564.785-1.564s-.5-.427-1.391-1.058c-.878-.564-2.229-1.657-3.824-2.514-1.612-.939-3.6-2.157-5.773-3.173a71.72,71.72,0,0,0-7.224-2.965,66.1,66.1,0,0,0-17.158-3.44A63.868,63.868,0,0,0,43.183,61.8a64.548,64.548,0,0,0-17.2,6.729A67.273,67.273,0,0,0,12.1,79.179,65.283,65.283,0,0,0,3.12,90.373C2.066,91.838,1.331,93.409.789,94.3.274,95.31,0,95.855,0,95.855" transform="translate(104.128 -4.583)" fill="#aed144"/>
              <path id="Trazado_725104" data-name="Trazado 725104" d="M29.665,71.166q-9.1,10.515-18.212,21.019l21.871-5.078a.967.967,0,0,1,.13-.362Q43.1,75.619,52.726,64.5c.631-.724,1.644.362,1.025,1.077Q44.64,76.1,35.532,86.594l21.879-5.071a.92.92,0,0,1,.134-.371Q63.108,74.728,68.671,68.3c.631-.718,1.638.369,1.025,1.08q-5.039,5.824-10.073,11.631L89.6,74.057l.279,1.2L60.536,82.068q6.622,3.169,13.231,6.341c.87.4.069,1.664-.779,1.244q-7.376-3.519-14.74-7.056L36.454,87.652c.384.187.766.366,1.153.549q4.312,2.067,8.639,4.145,6.548,3.14,13.1,6.28c.868.406.071,1.664-.781,1.25q-12.2-5.842-24.41-11.687L12.366,93.24l1.154.548q4.32,2.073,8.641,4.138,6.55,3.145,13.1,6.286c.863.407.063,1.667-.788,1.251q-12.2-5.833-24.409-11.684L3.771,95.233l-.285-1.2L9.237,92.7a.887.887,0,0,1,.131-.372Q19.008,81.2,28.646,70.086c.628-.725,1.634.362,1.019,1.08" transform="translate(107.976 -4.9)" fill="#3a8931"/>
              <g id="Grupo_957457" data-name="Grupo 957457" transform="translate(104.129 68.788)" opacity="0.1">
                <g id="Grupo_957456" data-name="Grupo 957456">
                  <g id="Grupo_957455" data-name="Grupo 957455" clip-path="url(#clip-path-7)">
                    <path id="Trazado_725105" data-name="Trazado 725105" d="M96.945,74.467s-.259.61-.785,1.565a45.048,45.048,0,0,1-2.328,3.936c-1.034,1.555-2.275,3.523-3.785,5.388a70.321,70.321,0,0,1-5.182,5.85,66.047,66.047,0,0,1-13.889,10.64,63.906,63.906,0,0,1-17.209,6.674,64.963,64.963,0,0,1-18.4,1.53A67.054,67.054,0,0,1,18.206,106.6a64.78,64.78,0,0,1-12.988-6.1c-1.6-.85-2.949-1.939-3.821-2.494-.9-.686-1.391-1.048-1.4-1.048Z" transform="translate(0 -74.467)" fill="#211a72"/>
                  </g>
                </g>
              </g>
              <path id="Trazado_725106" data-name="Trazado 725106" d="M31.758,128.319s.205.4.593,1.151c.41.66.962,1.823,1.747,2.911a48.708,48.708,0,0,0,6.722,8.277,49.542,49.542,0,0,0,10.367,7.863A48.055,48.055,0,0,0,64,153.454a47.565,47.565,0,0,0,13.677,1.106,49.2,49.2,0,0,0,12.737-2.625,53.221,53.221,0,0,0,5.358-2.235c1.617-.766,3.089-1.683,4.278-2.391a32.6,32.6,0,0,0,2.839-1.876c.659-.474,1.027-.791,1.027-.791s-.192-.446-.589-1.161c-.4-.663-.957-1.83-1.744-2.92-.772-1.151-1.709-2.606-2.839-3.988a51.179,51.179,0,0,0-3.874-4.321,49.332,49.332,0,0,0-10.366-7.86,47.2,47.2,0,0,0-12.822-4.882,47.829,47.829,0,0,0-13.686-1.068,49.8,49.8,0,0,0-12.742,2.635,48.14,48.14,0,0,0-9.629,4.584c-1.177.638-2.18,1.452-2.828,1.872-.676.51-1.036.785-1.036.785" transform="translate(67.825 -9.024)" fill="#aed144"/>
              <path id="Trazado_725107" data-name="Trazado 725107" d="M59.141,122.5q-9.494,4.092-18.988,8.171l16.28,3.683c.07-.077.122-.17.207-.2q10.051-4.327,20.1-8.652c.654-.279.983.772.337,1.055q-9.5,4.086-19,8.168l16.287,3.687c.063-.077.12-.17.209-.205l11.6-5c.657-.278.977.78.341,1.055q-5.26,2.265-10.506,4.526l22.31,5.045-.2.891-21.84-4.934q3.407,4.255,6.8,8.518c.452.554-.493,1.134-.924.583q-3.8-4.74-7.584-9.491L58.353,135.73c.2.25.394.491.593.737,1.476,1.853,2.965,3.715,4.442,5.568q3.364,4.216,6.734,8.44c.446.558-.5,1.141-.927.587Q62.919,143.2,56.64,135.339l-16.217-3.671c.2.248.4.5.6.744,1.481,1.853,2.962,3.719,4.44,5.566q3.377,4.226,6.741,8.447c.442.551-.5,1.138-.939.583q-6.27-7.851-12.553-15.723l-4.683-1.061.205-.888,4.277.965c.07-.083.125-.174.2-.205q10.054-4.329,20.1-8.655c.657-.272.979.779.332,1.058" transform="translate(71.326 -9.257)" fill="#3a8931"/>
              <g id="Grupo_957460" data-name="Grupo 957460" transform="translate(99.583 119.299)" opacity="0.1">
                <g id="Grupo_957459" data-name="Grupo 957459">
                  <g id="Grupo_957458" data-name="Grupo 957458" clip-path="url(#clip-path-8)">
                    <path id="Trazado_725108" data-name="Trazado 725108" d="M103.912,145.47s-.369.318-1.029.792a32.03,32.03,0,0,1-2.836,1.875c-1.191.708-2.663,1.626-4.279,2.392a53.689,53.689,0,0,1-5.357,2.235,49.27,49.27,0,0,1-12.739,2.625,47.987,47.987,0,0,1-26.484-6.039,49.352,49.352,0,0,1-10.367-7.864,48.447,48.447,0,0,1-6.722-8.277c-.789-1.086-1.337-2.25-1.747-2.911l-.594-1.151Z" transform="translate(-31.759 -129.147)" fill="#211a72"/>
                  </g>
                </g>
              </g>
              <path id="Trazado_725109" data-name="Trazado 725109" d="M104.841,71.974s.407-.2,1.16-.58c.664-.4,1.827-.942,2.924-1.715a48.408,48.408,0,0,0,8.351-6.632,49.433,49.433,0,0,0,7.976-10.283,48.068,48.068,0,0,0,5.071-12.755,47.426,47.426,0,0,0,1.25-13.665,48.753,48.753,0,0,0-2.488-12.762A52.382,52.382,0,0,0,126.911,8.2c-.746-1.621-1.647-3.106-2.34-4.3a31.942,31.942,0,0,0-1.849-2.856C122.254.371,121.94,0,121.94,0s-.445.189-1.167.58a33.345,33.345,0,0,0-2.937,1.709c-1.157.763-2.625,1.68-4.019,2.8a50.334,50.334,0,0,0-4.363,3.834,49.108,49.108,0,0,0-7.973,10.277,47,47,0,0,0-5.016,12.768,47.91,47.91,0,0,0-1.218,13.671,49.93,49.93,0,0,0,2.5,12.772,47.832,47.832,0,0,0,4.481,9.674c.625,1.189,1.427,2.2,1.84,2.853.5.683.776,1.042.776,1.042" transform="translate(-18.484 0)" fill="#aed144"/>
              <path id="Trazado_725110" data-name="Trazado 725110" d="M100.324,42.977q3.991,9.534,7.96,19.076l3.862-16.246c-.079-.067-.173-.115-.2-.205q-4.222-10.1-8.431-20.182c-.273-.66.779-.981,1.058-.331q3.977,9.544,7.96,19.083l3.862-16.246a.638.638,0,0,1-.205-.212q-2.437-5.828-4.866-11.655c-.273-.658.786-.968,1.059-.327q2.2,5.283,4.407,10.556l5.283-22.257.894.215-5.174,21.782q4.294-3.356,8.594-6.713c.564-.445,1.132.507.571.93q-4.775,3.755-9.569,7.485l-3.846,16.175c.256-.2.5-.388.75-.587,1.866-1.459,3.744-2.926,5.61-4.379q4.259-3.317,8.517-6.645c.555-.436,1.132.507.577.936q-7.934,6.194-15.862,12.384L109.29,61.791c.25-.193.5-.388.744-.59,1.875-1.455,3.758-2.92,5.619-4.379q4.261-3.323,8.515-6.648c.557-.436,1.134.515.576.945q-7.919,6.188-15.861,12.384l-1.109,4.67-.888-.215L107.9,63.7c-.077-.073-.17-.127-.205-.212q-4.216-10.093-8.437-20.191c-.262-.658.789-.972,1.068-.318" transform="translate(-19.795 -0.307)" fill="#3a8931"/>
              <g id="Grupo_957463" data-name="Grupo 957463" transform="translate(86.36)" opacity="0.1">
                <g id="Grupo_957462" data-name="Grupo 957462" transform="translate(0)">
                  <g id="Grupo_957461" data-name="Grupo 957461" transform="translate(0)" clip-path="url(#clip-path-9)">
                    <path id="Trazado_725111" data-name="Trazado 725111" d="M112.261,0s.318.371.779,1.042A31.843,31.843,0,0,1,114.893,3.9c.7,1.192,1.6,2.676,2.344,4.3a51.745,51.745,0,0,1,2.17,5.385,48.76,48.76,0,0,1,2.488,12.762,47.421,47.421,0,0,1-1.247,13.665,48.261,48.261,0,0,1-5.071,12.756A49.343,49.343,0,0,1,107.6,63.047a48.138,48.138,0,0,1-8.351,6.632c-1.09.772-2.263,1.311-2.927,1.715-.753.375-1.154.58-1.154.58Z" transform="translate(-95.166)" fill="#211a72"/>
                  </g>
                </g>
              </g>
            </g>
          </g>
        </g>
        <g id="Grupo_957479" data-name="Grupo 957479" transform="translate(-8901.228 -13864.849) rotate(-106)" clip-path="url(#clip-path-5)">
          <g id="Grupo_957478" data-name="Grupo 957478">
            <g id="Grupo_957477" data-name="Grupo 957477" clip-path="url(#clip-path-5)">
              <path id="Trazado_725112" data-name="Trazado 725112" d="M81.071,137.981a1.494,1.494,0,0,1,.83-.878c.083-.032.17-.07.256-.105a209.613,209.613,0,0,1,21.968-17.144,1.408,1.408,0,0,1,.224-.295c19.9-20.8,32.44-50.543,36.806-78.906.321-2.045,3.542-1.83,3.225.222-3.956,25.663-14.339,52.187-30.69,72.8a248.583,248.583,0,0,1,30.6-15.82c18.471-8.007,38.562-14.777,58.61-17.544,2.053-.285,2.663,2.882.6,3.167-19.353,2.677-38.56,9.184-56.482,16.721a226.976,226.976,0,0,0-55.277,32.816c24.638-9.486,52.859-14.739,78.8-10.858,2.052.308,1.84,3.532-.224,3.218-28.739-4.3-60.334,2.786-86.488,14.406a183.467,183.467,0,0,0-32.312,38.156c-1.109,1.757-3.773-.057-2.664-1.818a184.208,184.208,0,0,1,32.21-38.139" transform="translate(-48.596 -2.991)" fill="#aed144"/>
              <path id="Trazado_725113" data-name="Trazado 725113" d="M0,95.855,1.4,96.9c.878.554,2.225,1.644,3.818,2.494a65.1,65.1,0,0,0,12.99,6.1,67.046,67.046,0,0,0,17.158,3.452,64.923,64.923,0,0,0,18.4-1.529,63.949,63.949,0,0,0,17.211-6.674A66.147,66.147,0,0,0,84.863,90.1a70.27,70.27,0,0,0,5.181-5.851c1.51-1.865,2.754-3.834,3.786-5.388a44.859,44.859,0,0,0,2.327-3.937c.527-.958.785-1.564.785-1.564s-.5-.427-1.391-1.058c-.878-.564-2.229-1.657-3.824-2.514-1.612-.939-3.6-2.157-5.773-3.173a71.72,71.72,0,0,0-7.224-2.965,66.1,66.1,0,0,0-17.158-3.44A63.868,63.868,0,0,0,43.183,61.8a64.548,64.548,0,0,0-17.2,6.729A67.273,67.273,0,0,0,12.1,79.179,65.283,65.283,0,0,0,3.12,90.373C2.066,91.838,1.331,93.409.789,94.3.274,95.31,0,95.855,0,95.855" transform="translate(104.128 -4.583)" fill="#aed144"/>
              <path id="Trazado_725114" data-name="Trazado 725114" d="M29.665,71.166q-9.1,10.515-18.212,21.019l21.871-5.078a.967.967,0,0,1,.13-.362Q43.1,75.619,52.726,64.5c.631-.724,1.644.362,1.025,1.077Q44.64,76.1,35.532,86.594l21.879-5.071a.92.92,0,0,1,.134-.371Q63.108,74.728,68.671,68.3c.631-.718,1.638.369,1.025,1.08q-5.039,5.824-10.073,11.631L89.6,74.057l.279,1.2L60.536,82.068q6.622,3.169,13.231,6.341c.87.4.069,1.664-.779,1.244q-7.376-3.519-14.74-7.056L36.454,87.652c.384.187.766.366,1.153.549q4.312,2.067,8.639,4.145,6.548,3.14,13.1,6.28c.868.406.071,1.664-.781,1.25q-12.2-5.842-24.41-11.687L12.366,93.24l1.154.548q4.32,2.073,8.641,4.138,6.55,3.145,13.1,6.286c.863.407.063,1.667-.788,1.251q-12.2-5.833-24.409-11.684L3.771,95.233l-.285-1.2L9.237,92.7a.887.887,0,0,1,.131-.372Q19.008,81.2,28.646,70.086c.628-.725,1.634.362,1.019,1.08" transform="translate(107.976 -4.9)" fill="#3a8931"/>
              <g id="Grupo_957470" data-name="Grupo 957470" transform="translate(104.129 68.788)" opacity="0.1">
                <g id="Grupo_957469" data-name="Grupo 957469">
                  <g id="Grupo_957468" data-name="Grupo 957468" clip-path="url(#clip-path-7)">
                    <path id="Trazado_725115" data-name="Trazado 725115" d="M96.945,74.467s-.259.61-.785,1.565a45.048,45.048,0,0,1-2.328,3.936c-1.034,1.555-2.275,3.523-3.785,5.388a70.321,70.321,0,0,1-5.182,5.85,66.047,66.047,0,0,1-13.889,10.64,63.906,63.906,0,0,1-17.209,6.674,64.963,64.963,0,0,1-18.4,1.53A67.054,67.054,0,0,1,18.206,106.6a64.78,64.78,0,0,1-12.988-6.1c-1.6-.85-2.949-1.939-3.821-2.494-.9-.686-1.391-1.048-1.4-1.048Z" transform="translate(0 -74.467)" fill="#211a72"/>
                  </g>
                </g>
              </g>
              <path id="Trazado_725116" data-name="Trazado 725116" d="M31.758,128.319s.205.4.593,1.151c.41.66.962,1.823,1.747,2.911a48.708,48.708,0,0,0,6.722,8.277,49.542,49.542,0,0,0,10.367,7.863A48.055,48.055,0,0,0,64,153.454a47.565,47.565,0,0,0,13.677,1.106,49.2,49.2,0,0,0,12.737-2.625,53.221,53.221,0,0,0,5.358-2.235c1.617-.766,3.089-1.683,4.278-2.391a32.6,32.6,0,0,0,2.839-1.876c.659-.474,1.027-.791,1.027-.791s-.192-.446-.589-1.161c-.4-.663-.957-1.83-1.744-2.92-.772-1.151-1.709-2.606-2.839-3.988a51.179,51.179,0,0,0-3.874-4.321,49.332,49.332,0,0,0-10.366-7.86,47.2,47.2,0,0,0-12.822-4.882,47.829,47.829,0,0,0-13.686-1.068,49.8,49.8,0,0,0-12.742,2.635,48.14,48.14,0,0,0-9.629,4.584c-1.177.638-2.18,1.452-2.828,1.872-.676.51-1.036.785-1.036.785" transform="translate(67.825 -9.024)" fill="#aed144"/>
              <path id="Trazado_725117" data-name="Trazado 725117" d="M59.141,122.5q-9.494,4.092-18.988,8.171l16.28,3.683c.07-.077.122-.17.207-.2q10.051-4.327,20.1-8.652c.654-.279.983.772.337,1.055q-9.5,4.086-19,8.168l16.287,3.687c.063-.077.12-.17.209-.205l11.6-5c.657-.278.977.78.341,1.055q-5.26,2.265-10.506,4.526l22.31,5.045-.2.891-21.84-4.934q3.407,4.255,6.8,8.518c.452.554-.493,1.134-.924.583q-3.8-4.74-7.584-9.491L58.353,135.73c.2.25.394.491.593.737,1.476,1.853,2.965,3.715,4.442,5.568q3.364,4.216,6.734,8.44c.446.558-.5,1.141-.927.587Q62.919,143.2,56.64,135.339l-16.217-3.671c.2.248.4.5.6.744,1.481,1.853,2.962,3.719,4.44,5.566q3.377,4.226,6.741,8.447c.442.551-.5,1.138-.939.583q-6.27-7.851-12.553-15.723l-4.683-1.061.205-.888,4.277.965c.07-.083.125-.174.2-.205q10.054-4.329,20.1-8.655c.657-.272.979.779.332,1.058" transform="translate(71.326 -9.257)" fill="#3a8931"/>
              <g id="Grupo_957473" data-name="Grupo 957473" transform="translate(99.583 119.299)" opacity="0.1">
                <g id="Grupo_957472" data-name="Grupo 957472">
                  <g id="Grupo_957471" data-name="Grupo 957471" clip-path="url(#clip-path-8)">
                    <path id="Trazado_725118" data-name="Trazado 725118" d="M103.912,145.47s-.369.318-1.029.792a32.03,32.03,0,0,1-2.836,1.875c-1.191.708-2.663,1.626-4.279,2.392a53.689,53.689,0,0,1-5.357,2.235,49.27,49.27,0,0,1-12.739,2.625,47.987,47.987,0,0,1-26.484-6.039,49.352,49.352,0,0,1-10.367-7.864,48.447,48.447,0,0,1-6.722-8.277c-.789-1.086-1.337-2.25-1.747-2.911l-.594-1.151Z" transform="translate(-31.759 -129.147)" fill="#211a72"/>
                  </g>
                </g>
              </g>
              <path id="Trazado_725119" data-name="Trazado 725119" d="M104.841,71.974s.407-.2,1.16-.58c.664-.4,1.827-.942,2.924-1.715a48.408,48.408,0,0,0,8.351-6.632,49.433,49.433,0,0,0,7.976-10.283,48.068,48.068,0,0,0,5.071-12.755,47.426,47.426,0,0,0,1.25-13.665,48.753,48.753,0,0,0-2.488-12.762A52.382,52.382,0,0,0,126.911,8.2c-.746-1.621-1.647-3.106-2.34-4.3a31.942,31.942,0,0,0-1.849-2.856C122.254.371,121.94,0,121.94,0s-.445.189-1.167.58a33.345,33.345,0,0,0-2.937,1.709c-1.157.763-2.625,1.68-4.019,2.8a50.334,50.334,0,0,0-4.363,3.834,49.108,49.108,0,0,0-7.973,10.277,47,47,0,0,0-5.016,12.768,47.91,47.91,0,0,0-1.218,13.671,49.93,49.93,0,0,0,2.5,12.772,47.832,47.832,0,0,0,4.481,9.674c.625,1.189,1.427,2.2,1.84,2.853.5.683.776,1.042.776,1.042" transform="translate(-18.484 0)" fill="#aed144"/>
              <path id="Trazado_725120" data-name="Trazado 725120" d="M100.324,42.977q3.991,9.534,7.96,19.076l3.862-16.246c-.079-.067-.173-.115-.2-.205q-4.222-10.1-8.431-20.182c-.273-.66.779-.981,1.058-.331q3.977,9.544,7.96,19.083l3.862-16.246a.638.638,0,0,1-.205-.212q-2.437-5.828-4.866-11.655c-.273-.658.786-.968,1.059-.327q2.2,5.283,4.407,10.556l5.283-22.257.894.215-5.174,21.782q4.294-3.356,8.594-6.713c.564-.445,1.132.507.571.93q-4.775,3.755-9.569,7.485l-3.846,16.175c.256-.2.5-.388.75-.587,1.866-1.459,3.744-2.926,5.61-4.379q4.259-3.317,8.517-6.645c.555-.436,1.132.507.577.936q-7.934,6.194-15.862,12.384L109.29,61.791c.25-.193.5-.388.744-.59,1.875-1.455,3.758-2.92,5.619-4.379q4.261-3.323,8.515-6.648c.557-.436,1.134.515.576.945q-7.919,6.188-15.861,12.384l-1.109,4.67-.888-.215L107.9,63.7c-.077-.073-.17-.127-.205-.212q-4.216-10.093-8.437-20.191c-.262-.658.789-.972,1.068-.318" transform="translate(-19.795 -0.307)" fill="#3a8931"/>
              <g id="Grupo_957476" data-name="Grupo 957476" transform="translate(86.36)" opacity="0.1">
                <g id="Grupo_957475" data-name="Grupo 957475" transform="translate(0)">
                  <g id="Grupo_957474" data-name="Grupo 957474" transform="translate(0)" clip-path="url(#clip-path-9)">
                    <path id="Trazado_725121" data-name="Trazado 725121" d="M112.261,0s.318.371.779,1.042A31.843,31.843,0,0,1,114.893,3.9c.7,1.192,1.6,2.676,2.344,4.3a51.745,51.745,0,0,1,2.17,5.385,48.76,48.76,0,0,1,2.488,12.762,47.421,47.421,0,0,1-1.247,13.665,48.261,48.261,0,0,1-5.071,12.756A49.343,49.343,0,0,1,107.6,63.047a48.138,48.138,0,0,1-8.351,6.632c-1.09.772-2.263,1.311-2.927,1.715-.753.375-1.154.58-1.154.58Z" transform="translate(-95.166)" fill="#211a72"/>
                  </g>
                </g>
              </g>
            </g>
          </g>
        </g>
      </g>
    </g>
  </g>
</svg>
