<svg xmlns="http://www.w3.org/2000/svg" xmlns:xlink="http://www.w3.org/1999/xlink" width="89.592" height="45.123" viewBox="0 0 89.592 45.123">
  <defs>
    <clipPath id="clip-path">
      <rect id="Rectángulo_5568" data-name="Rectángulo 5568" width="89.592" height="45.123" fill="none" stroke="#12263f" stroke-width="2"/>
    </clipPath>
  </defs>
  <g id="Grupo_57507" data-name="Grupo 57507" transform="translate(0 0)">
    <g id="Grupo_56691" data-name="Grupo 56691" transform="translate(0 0)" clip-path="url(#clip-path)">
      <path id="Trazado_104836" data-name="Trazado 104836" d="M88.637.178a89.651,89.651,0,0,1-19.286,15.7,23.267,23.267,0,0,0-6.168-6.947c-4.147-2.814-7.721-3.03-9.274-.49-1.24,2.694.93,5.539,5.588,7.41a21.4,21.4,0,0,0,7.711,1.282,91.53,91.53,0,0,1-11.151,5.389,23.526,23.526,0,0,0-5.323-8.157c-3.721-3.366-7.231-4.069-9.117-1.771-1.6,2.5.16,5.622,4.513,8.114a22.3,22.3,0,0,0,8.316,2.442c-1.543.591-3.106,1.149-4.682,1.656-2.849.914-5.757,1.686-8.684,2.342a23.5,23.5,0,0,0-4.358-8.752c-3.3-3.772-6.7-4.873-8.844-2.815-1.873,2.305-.495,5.6,3.535,8.584a22.424,22.424,0,0,0,7.9,3.373,98.534,98.534,0,0,1-11.428,1.681,23.69,23.69,0,0,0-3.969-9C20.785,16.3,17.439,15.038,15.212,17c-1.986,2.217-.752,5.575,3.143,8.736a21.957,21.957,0,0,0,7.4,3.63c-1.94.122-3.878.208-5.812.222-.8,0-1.663,0-2.516-.027a23.449,23.449,0,0,0-8.812-3.9c-4.95-.815-8.282.49-8.62,3.447.015,2.971,3.182,4.635,8.186,4.375a23.116,23.116,0,0,0,9-2.805A85.388,85.388,0,0,0,30.811,30a22.174,22.174,0,0,0-6.254,5.482c-2.932,4.069-3.249,7.634-.75,9.25,2.668,1.318,5.573-.779,7.567-5.38a23.67,23.67,0,0,0,1.482-9.612,103.051,103.051,0,0,0,13.769-2.866,22.951,22.951,0,0,0-5.879,7.013c-2.187,4.512-1.886,8.079.846,9.25,2.851.833,5.359-1.722,6.538-6.6a23.812,23.812,0,0,0-.253-10.022,97.447,97.447,0,0,0,12.78-4.769,23.924,23.924,0,0,0-6.688,7.665c-2.195,4.507-1.9,8.076.843,9.24,2.849.845,5.353-1.72,6.528-6.587,1.1-4.546-.171-9.774-.355-10.464q3.369-1.547,6.59-3.371c.693-.385,1.372-.8,2.048-1.2.226-.022.363-.042.363-.042s-.027-.049-.073-.13c1.555-.943,3.089-1.933,4.581-2.971a20.651,20.651,0,0,0-3.407,6.188c-1.492,4.779-.664,8.263,2.209,9.014,2.947.4,5.042-2.5,5.483-7.5a23.447,23.447,0,0,0-1.639-9.605A91.226,91.226,0,0,0,89.446.923a.55.55,0,0,0-.808-.745" transform="translate(0 0)" fill="none" stroke="#12263f" stroke-width="2"/>
    </g>
  </g>
</svg>
