<svg xmlns="http://www.w3.org/2000/svg" xmlns:xlink="http://www.w3.org/1999/xlink" width="53.724" height="87" viewBox="0 0 53.724 87">
  <defs>
    <clipPath id="clip-path">
      <rect id="Rectángulo_6390" data-name="Rectángulo 6390" width="53.724" height="87" fill="none" stroke="#12263f" stroke-width="3"/>
    </clipPath>
  </defs>
  <g id="Grupo_57718" data-name="Grupo 57718" transform="translate(0 0)">
    <g id="Grupo_57717" data-name="Grupo 57717" transform="translate(0 0)" clip-path="url(#clip-path)">
      <path id="Trazado_106368" data-name="Trazado 106368" d="M44.93,8.121A26.023,26.023,0,0,0,.5,26.527a24.725,24.725,0,0,0,.144,2.758.777.777,0,0,0,.027.146,23.843,23.843,0,0,0,.391,2.487c.045.173.089.345.132.535.158.681.334,1.345.548,2.01.072.216.159.434.231.651.218.607.433,1.2.677,1.792.1.215.218.434.335.664.258.565.518,1.113.823,1.65.131.215.273.433.4.649.3.52.624,1.026.954,1.517.161.22.319.434.478.637.361.475.709.939,1.1,1.388.174.218.362.4.548.62.392.421.783.838,1.2,1.229a1.119,1.119,0,0,0,.186.2c.017.017.03.03.044.03a2.408,2.408,0,0,0,.335.32c.173.158.345.3.518.446.188.159.361.32.563.478a8.257,8.257,0,0,1,2.2,5.624.782.782,0,0,1-.015.188c0,.017,0,.017.015.017v8.225A7.665,7.665,0,0,0,20,68.454H33.047a7.666,7.666,0,0,0,7.663-7.663V52.566c.013,0,.013,0,.013-.017a.878.878,0,0,1-.013-.188,8.263,8.263,0,0,1,2.2-5.624c.2-.158.377-.319.563-.478.174-.143.349-.288.521-.446a2.483,2.483,0,0,0,.332-.32c.013,0,.029-.013.045-.03a1.256,1.256,0,0,0,.186-.2c.419-.391.808-.808,1.2-1.229.188-.216.374-.4.548-.62.389-.449.739-.914,1.1-1.388.158-.2.317-.418.478-.637.33-.491.651-1,.954-1.517.129-.216.272-.434.4-.649.305-.537.563-1.085.825-1.65.116-.23.23-.449.334-.664.245-.594.461-1.185.679-1.792.072-.216.158-.434.231-.651.216-.666.389-1.33.548-2.01.045-.189.087-.362.131-.535a23.844,23.844,0,0,0,.392-2.487.661.661,0,0,0,.027-.146,24.33,24.33,0,0,0,.144-2.758A25.931,25.931,0,0,0,44.93,8.121Z" transform="translate(0.338 0.339)" fill="none" stroke="#12263f" stroke-miterlimit="10" stroke-width="3"/>
      <path id="Rectángulo_6387" data-name="Rectángulo 6387" d="M1.637,0h27.9a1.636,1.636,0,0,1,1.636,1.636v14.1a1.635,1.635,0,0,1-1.635,1.635H1.635A1.635,1.635,0,0,1,0,15.735V1.637A1.637,1.637,0,0,1,1.637,0Z" transform="translate(11.271 68.793)" fill="none" stroke="#12263f" stroke-miterlimit="10" stroke-width="3"/>
      <path id="Rectángulo_6388" data-name="Rectángulo 6388" d="M1.726,0H29.449a1.724,1.724,0,0,1,1.724,1.724V6.771a1.724,1.724,0,0,1-1.724,1.724H1.726A1.726,1.726,0,0,1,0,6.769V1.726A1.726,1.726,0,0,1,1.726,0Z" transform="translate(11.277 73.232)" fill="none" stroke="#12263f" stroke-miterlimit="10" stroke-width="3"/>
      <rect id="Rectángulo_6389" data-name="Rectángulo 6389" width="31.173" height="1.568" transform="translate(11.271 76.693)" fill="none" stroke="#12263f" stroke-miterlimit="10" stroke-width="3"/>
      <path id="Trazado_106369" data-name="Trazado 106369" d="M41.47,15.372h0c0-3.535-1.132-6.405-2.527-6.405s-2.532,2.871-2.532,6.405a2.916,2.916,0,0,1-2.6,1.335,2.56,2.56,0,0,1-2.46-1.335c0-3.535-1.132-6.405-2.529-6.405s-2.53,2.871-2.53,6.405a3.066,3.066,0,0,1-5.061,0c0-3.538-1.134-6.405-2.529-6.405s-2.53,2.867-2.53,6.405a2.432,2.432,0,0,1-2.45,1.33,2.815,2.815,0,0,1-2.611-1.33c0-3.538-1.134-6.405-2.53-6.405s-2.53,2.867-2.53,6.405h0L22.769,62.723c.989,0,18.7-47.334,18.7-47.349Z" transform="translate(4.093 6.069)" fill="none" stroke="#12263f" stroke-miterlimit="10" stroke-width="3"/>
      <path id="Trazado_106370" data-name="Trazado 106370" d="M19.995,47.442,10.14,16.405H32.084Z" transform="translate(6.863 11.103)" fill="none" stroke="#12263f" stroke-miterlimit="10" stroke-width="3"/>
    </g>
  </g>
</svg>
