<svg xmlns="http://www.w3.org/2000/svg" width="23.617" height="22.311" viewBox="0 0 23.617 22.311">
  <path id="Icon_simple-microsoftonenote" data-name="Icon simple-microsoftonenote" d="M23.565,10.364V13.9a.5.5,0,0,1-.5.5H22.3V9.862h.767a.481.481,0,0,1,.351.147A.488.488,0,0,1,23.565,10.364Zm-.5,4.56a.5.5,0,0,1,.5.5v3.55a.5.5,0,0,1-.5.5H22.3V14.922h.767Zm0-10.126a.576.576,0,0,1,.378.148.456.456,0,0,1,.173.354V8.837a.449.449,0,0,1-.173.359.608.608,0,0,1-.378.133H21.8V20.236a.411.411,0,0,1-.154.326.6.6,0,0,1-.358.118h-6.6V18.451h5.124V17.388H14.688V16.135h5.124v-1H14.688V13.846h5.124v-.989H14.688V11.6h5.124v-.99H14.688V9.329h5.124v-1H14.688V7.071h5.124V6.023H14.688V3.53h6.777a.576.576,0,0,1,.166.133A.57.57,0,0,1,21.8,4v.8h1.267ZM13.429,1V23.307L0,20.988V3.374L13.429,1h0ZM9.6,7.609l-1.575.1v2.932q-.027,2.576,0,2.973L4.883,7.89l-1.6.063v8.124l1.254.1V10.185L7.919,16.35l1.678.1V7.609Z" transform="translate(0 -0.996)" fill="#0540b7"/>
</svg>
