<svg id="Grupo_57648" data-name="Grupo 57648" xmlns="http://www.w3.org/2000/svg" xmlns:xlink="http://www.w3.org/1999/xlink" width="112.178" height="102.01" viewBox="0 0 112.178 102.01">
  <defs>
    <clipPath id="clip-path">
      <rect id="Rectángulo_6312" data-name="Rectángulo 6312" width="112.178" height="102.01" transform="translate(0 0)" fill="#12263f"/>
    </clipPath>
  </defs>
  <g id="Grupo_57647" data-name="Grupo 57647" clip-path="url(#clip-path)">
    <path id="Trazado_106337" data-name="Trazado 106337" d="M110.369,55.1H109a17.484,17.484,0,0,0-14.528,7.766V52.5c2.865-2.513,13.776-12.924,13.776-25.762C108.243,12.272,94.387.881,93.8.4a1.808,1.808,0,0,0-2.279,0C90.93.881,77.074,12.272,77.074,26.735c0,12.836,10.908,23.247,13.774,25.761V62.863A17.484,17.484,0,0,0,76.322,55.1H74.948a1.809,1.809,0,0,0-1.809,1.809v1.374a17.511,17.511,0,0,0,17.49,17.491h.219v3.922a18.717,18.717,0,0,1-18.7,18.7H38.386a18.717,18.717,0,0,1-18.7-18.7V50.8A16.29,16.29,0,0,0,35.1,34.563V17.552a1.809,1.809,0,0,0-1.809-1.809H27.889V3.121a1.809,1.809,0,0,0-3.619,0V15.743H10.834V3.121a1.809,1.809,0,1,0-3.618,0V15.743H1.81A1.809,1.809,0,0,0,0,17.552V34.563A16.3,16.3,0,0,0,16.071,50.836V79.695A22.34,22.34,0,0,0,38.386,102.01H72.152A22.34,22.34,0,0,0,94.467,79.695V75.773h.221a17.511,17.511,0,0,0,17.49-17.491V56.908a1.809,1.809,0,0,0-1.809-1.809M76.764,58.725A13.889,13.889,0,0,1,90.186,72.147,13.889,13.889,0,0,1,76.764,58.725M3.619,34.563v-15.2H31.486v15.2A12.68,12.68,0,0,1,18.82,47.228H16.284A12.679,12.679,0,0,1,3.619,34.563m77.074-7.828c0-10.465,8.779-19.556,11.967-22.512,3.19,2.95,11.964,12.022,11.964,22.512,0,8.867-6.293,16.732-10.157,20.73V20.176a1.81,1.81,0,0,0-3.619,0v27.3c-3.863-3.99-10.155-11.845-10.155-20.736M95.131,72.147a13.889,13.889,0,0,1,13.421-13.422A13.888,13.888,0,0,1,95.131,72.147" fill="#12263f"/>
  </g>
</svg>
