<svg xmlns="http://www.w3.org/2000/svg" xmlns:xlink="http://www.w3.org/1999/xlink" width="134" height="115.181" viewBox="0 0 134 115.181">
  <defs>
    <clipPath id="clip-path">
      <rect id="Rectángulo_6257" data-name="Rectángulo 6257" width="134" height="115.181" fill="#12263f"/>
    </clipPath>
  </defs>
  <g id="Grupo_57646" data-name="Grupo 57646" transform="translate(0 0)">
    <g id="Grupo_57562" data-name="Grupo 57562" transform="translate(0 0)" clip-path="url(#clip-path)">
      <path id="Trazado_106336" data-name="Trazado 106336" d="M132.668,83.487a2.162,2.162,0,0,0-.2-4.065c-8.142-2.462-16.486-10.309-20.5-14.492A99.358,99.358,0,0,0,123.7,61.191a2.162,2.162,0,0,0,.475-3.77c-4.9-3.514-11-11.035-14.15-15.126,2.148-.432,5.207-1.135,9.027-2.24a2.161,2.161,0,0,0,.332-4.026c-5.578-2.669-14.039-9.351-20.367-18.268a2.243,2.243,0,0,0-3.526,0c-6.327,8.917-14.788,15.6-20.368,18.268a2.161,2.161,0,0,0,.332,4.026c3.82,1.1,6.879,1.807,9.028,2.24-3.146,4.09-9.25,11.608-14.152,15.126a2.162,2.162,0,0,0,.475,3.77,99.223,99.223,0,0,0,11.74,3.739C78.531,69.112,70.2,76.956,62.04,79.422a2.162,2.162,0,0,0-.2,4.065c8.546,3.547,16.757,5.2,28.631,5.626v21.745h-54.7V75.919a15.172,15.172,0,0,0,8.528,2.6A15.384,15.384,0,0,0,59.658,63.155,15.2,15.2,0,0,0,57.6,55.487a22.885,22.885,0,0,0-8.024-34.176c.016-.313.024-.615.024-.915a20.4,20.4,0,1,0-40.676,2.19A14.788,14.788,0,0,0,0,36.116a14.631,14.631,0,0,0,3.163,9.113,22.59,22.59,0,0,0-1.905,9.121A22.93,22.93,0,0,0,23.9,77.249v33.609H2.161a2.161,2.161,0,1,0,0,4.322H130.879a2.161,2.161,0,1,0,0-4.322H104.038V89.113c11.872-.424,20.084-2.08,28.631-5.626M88.3,65.032a2.16,2.16,0,0,0-1.26-3.518,87.981,87.981,0,0,1-11.153-3.065c6.744-6.1,13.849-15.943,14.192-16.42a2.162,2.162,0,0,0-1.491-3.407,69.126,69.126,0,0,1-6.925-1.384A70.027,70.027,0,0,0,97.253,22.623a69.976,69.976,0,0,0,15.585,14.615,69.276,69.276,0,0,1-6.925,1.384,2.162,2.162,0,0,0-1.491,3.407c.343.477,7.447,10.324,14.191,16.42a88,88,0,0,1-11.152,3.065,2.161,2.161,0,0,0-1.261,3.518c.434.515,9.341,10.986,19.724,16.342-6.858,2.213-14.111,3.25-24.069,3.482l-.029,0c-2.941.066-6.208.066-9.149,0-.012,0-.023,0-.035,0-9.954-.231-17.206-1.267-24.061-3.481C78.964,76.019,87.872,65.547,88.3,65.032M5.581,54.351a18.367,18.367,0,0,1,2.065-8.486,2.16,2.16,0,0,0-.373-2.5A10.4,10.4,0,0,1,11.913,26.1a2.164,2.164,0,0,0,1.534-2.51,16.088,16.088,0,1,1,31.691-1.218,2.163,2.163,0,0,0,1.31,2.255A18.565,18.565,0,0,1,53.3,53.938a2.161,2.161,0,0,0-.11,2.7,10.942,10.942,0,0,1,2.149,6.521A11.057,11.057,0,0,1,44.291,74.2a10.938,10.938,0,0,1-8.021-3.471,2.167,2.167,0,0,0-.506-.385V59.649l8.171-8.171a2.161,2.161,0,1,0-3.056-3.057l-5.115,5.114V38.269L43.934,30.1a2.161,2.161,0,1,0-3.056-3.058l-8.8,8.8a2.161,2.161,0,0,0-.633,1.528V71.441a18.527,18.527,0,0,1-3.223,1.038V47.435a2.16,2.16,0,0,0-.632-1.528l-8.8-8.8a2.161,2.161,0,0,0-3.057,3.056L23.9,48.33v24.6A18.6,18.6,0,0,1,5.581,54.351M28.217,76.9a22.777,22.777,0,0,0,3.223-.839v34.8H28.217Zm71.5,12.319v21.644H94.791V89.214c.275,0,.564,0,.846,0,.536,0,1.064.011,1.616.011s1.079-.007,1.616-.011c.281,0,.57,0,.846,0" transform="translate(0 0)" fill="#12263f"/>
    </g>
  </g>
</svg>
