<svg xmlns="http://www.w3.org/2000/svg" xmlns:xlink="http://www.w3.org/1999/xlink" width="133" height="133" viewBox="0 0 133 133">
  <defs>
    <clipPath id="clip-path">
      <rect id="Rectángulo_6432" data-name="Rectángulo 6432" width="72.366" height="68.424" fill="none"/>
    </clipPath>
  </defs>
  <g id="Grupo_80465" data-name="Grupo 80465" transform="translate(-384 -1263)">
    <circle id="Elipse_1345" data-name="Elipse 1345" cx="66.5" cy="66.5" r="66.5" transform="translate(384 1263)" fill="#adc46c"/>
    <g id="Grupo_57821" data-name="Grupo 57821" transform="translate(1.367 -4.545)">
      <g id="Grupo_57820" data-name="Grupo 57820" transform="translate(412.634 1299.545)">
        <g id="Grupo_57819" data-name="Grupo 57819" transform="translate(0 0)" clip-path="url(#clip-path)">
          <path id="Trazado_113547" data-name="Trazado 113547" d="M68.914,24.4a7.631,7.631,0,0,0,.368-1.4,7.78,7.78,0,0,0-10.722-8.415A12.6,12.6,0,0,0,34.885,6.9a11.412,11.412,0,0,0-17.247,6.136A16.513,16.513,0,0,0,8.233,43.8a12.416,12.416,0,0,0,.195,2.109A7.792,7.792,0,1,0,18.3,56.019c.171.035.337.079.511.108A12.591,12.591,0,0,0,32.882,47.29,16.666,16.666,0,0,0,55.246,44.8a12.767,12.767,0,0,0,2.505.676A12.588,12.588,0,0,0,68.914,24.4" transform="translate(0 0)" fill="#fff"/>
          <path id="Trazado_113548" data-name="Trazado 113548" d="M19.457,14.449a5.428,5.428,0,0,0-4.469,2.015,8.6,8.6,0,0,0-1.629,5.558,8.667,8.667,0,0,0,1.567,5.615,5.526,5.526,0,0,0,4.531,1.9,11.929,11.929,0,0,0,2.483-.256c.8-.169,1.632-.388,2.5-.654v2.827a15.15,15.15,0,0,1-5.38.9,8.6,8.6,0,0,1-6.8-2.684q-2.371-2.684-2.373-7.677a12.405,12.405,0,0,1,1.151-5.5,8.237,8.237,0,0,1,3.332-3.617,10.086,10.086,0,0,1,5.117-1.255,12.721,12.721,0,0,1,5.713,1.3l-1.187,2.745a18.118,18.118,0,0,0-2.159-.849,7.8,7.8,0,0,0-2.394-.365" transform="translate(3.775 4.438)" fill="#493618"/>
          <path id="Trazado_113549" data-name="Trazado 113549" d="M41.739,21.976q0,4.925-2.463,7.656A8.9,8.9,0,0,1,32.3,32.364a8.967,8.967,0,0,1-7.013-2.711q-2.448-2.711-2.449-7.706T25.3,14.278A9.066,9.066,0,0,1,32.331,11.6a8.887,8.887,0,0,1,6.954,2.72q2.454,2.716,2.454,7.656m-15.395,0a9.052,9.052,0,0,0,1.5,5.649A5.311,5.311,0,0,0,32.3,29.547a5.292,5.292,0,0,0,4.435-1.9,9.049,9.049,0,0,0,1.5-5.669,9.063,9.063,0,0,0-1.484-5.629,5.241,5.241,0,0,0-4.421-1.918,5.348,5.348,0,0,0-4.475,1.918,8.944,8.944,0,0,0-1.512,5.629" transform="translate(8.724 4.43)" fill="#493618"/>
          <path id="Trazado_113550" data-name="Trazado 113550" d="M49.043,33.023H38.473v-1.9l4.021-4.042a33.572,33.572,0,0,0,2.36-2.588,6.062,6.062,0,0,0,.85-1.434,3.853,3.853,0,0,0,.267-1.439,2.2,2.2,0,0,0-.634-1.667,2.433,2.433,0,0,0-1.754-.605,4.7,4.7,0,0,0-1.736.329,8.1,8.1,0,0,0-1.933,1.2l-1.356-1.651a8.678,8.678,0,0,1,2.528-1.559A7.38,7.38,0,0,1,43.7,17.2a5.133,5.133,0,0,1,3.485,1.135A3.834,3.834,0,0,1,48.5,21.4,5.323,5.323,0,0,1,48.12,23.4a8.078,8.078,0,0,1-1.162,1.958,26.7,26.7,0,0,1-2.609,2.725l-2.71,2.623v.106h7.4Z" transform="translate(14.694 6.571)" fill="#493618"/>
          <path id="Trazado_113551" data-name="Trazado 113551" d="M20.272,47.539a4.415,4.415,0,1,1-4.415-4.415,4.415,4.415,0,0,1,4.415,4.415" transform="translate(4.37 16.47)" fill="#fefffd"/>
        </g>
      </g>
    </g>
  </g>
</svg>
