<svg id="Grupo_57662" data-name="Grupo 57662" xmlns="http://www.w3.org/2000/svg" xmlns:xlink="http://www.w3.org/1999/xlink" width="98.909" height="112.17" viewBox="0 0 98.909 112.17">
  <defs>
    <clipPath id="clip-path">
      <rect id="Rectángulo_6319" data-name="Rectángulo 6319" width="98.909" height="112.17" fill="#12263f"/>
    </clipPath>
  </defs>
  <g id="Grupo_57661" data-name="Grupo 57661" clip-path="url(#clip-path)">
    <path id="Trazado_106355" data-name="Trazado 106355" d="M47.938,71.774h.008A24.729,24.729,0,0,0,72.674,47.047c0-5.841-2.354-10.257-5.416-15.4L49.508.9c-.017-.031-.042-.056-.061-.086a1.668,1.668,0,0,0-.111-.154,1.538,1.538,0,0,0-.122-.133c-.04-.04-.081-.078-.124-.114a1.626,1.626,0,0,0-.164-.118C48.9.274,48.875.251,48.847.234S48.811.22,48.793.21a1.762,1.762,0,0,0-.182-.081A1.423,1.423,0,0,0,48.46.073a1.511,1.511,0,0,0-.177-.04A1.579,1.579,0,0,0,48.118,0c-.062-.006-.123,0-.184,0s-.108,0-.162,0-.124.019-.186.031-.106.021-.156.036a1.8,1.8,0,0,0-.173.064c-.054.023-.108.045-.16.072-.02.011-.041.016-.061.027s-.06.046-.092.067c-.049.033-.1.066-.145.1a1.811,1.811,0,0,0-.136.126c-.039.04-.078.079-.114.123s-.078.105-.115.159c-.018.03-.043.054-.059.084L28.637,31.624c-3.074,5.167-5.426,9.584-5.426,15.423A24.754,24.754,0,0,0,47.938,71.774M31.76,33.454,47.941,5.421,64.135,33.475c2.789,4.681,4.919,8.653,4.919,13.572A21.1,21.1,0,0,1,47.946,68.155h-.008a21.134,21.134,0,0,1-21.11-21.109c0-4.927,2.04-8.733,4.932-13.593" fill="#12263f"/>
    <path id="Trazado_106356" data-name="Trazado 106356" d="M47.938,64.537a1.81,1.81,0,0,0,0-3.619A13.886,13.886,0,0,1,34.066,47.047c0-3.094,1.491-5.824,3.949-9.954a1.809,1.809,0,0,0-3.11-1.85c-2.693,4.524-4.457,7.791-4.457,11.8a17.51,17.51,0,0,0,17.49,17.49" fill="#12263f"/>
    <path id="Trazado_106357" data-name="Trazado 106357" d="M49.455,85.784c-2.5,0-24.426.2-24.426,7.237s21.926,7.238,24.426,7.238,24.426-.2,24.426-7.238-21.926-7.237-24.426-7.237m0,10.856c-12.116,0-19.571-2.243-20.73-3.619,1.159-1.376,8.614-3.618,20.73-3.618s19.571,2.242,20.73,3.618c-1.159,1.376-8.614,3.619-20.73,3.619" fill="#12263f"/>
    <path id="Trazado_106358" data-name="Trazado 106358" d="M49.455,79.829c-17.908,0-36.94,4.624-36.94,13.193s19.032,13.193,36.94,13.193,36.94-4.624,36.94-13.193S67.363,79.829,49.455,79.829m0,22.767c-20.645,0-33.322-5.577-33.322-9.574s12.677-9.574,33.322-9.574,33.322,5.576,33.322,9.574S70.1,102.6,49.455,102.6" fill="#12263f"/>
    <path id="Trazado_106359" data-name="Trazado 106359" d="M49.455,73.872C21.723,73.872,0,82.283,0,93.021S21.723,112.17,49.455,112.17,98.91,103.759,98.91,93.021,77.187,73.872,49.455,73.872m0,34.679c-21.68,0-45.836-6.378-45.836-15.53s24.156-15.53,45.836-15.53,45.836,6.378,45.836,15.53-24.156,15.53-45.836,15.53" fill="#12263f"/>
  </g>
</svg>
