<svg id="Grupo_57506" data-name="Grupo 57506" xmlns="http://www.w3.org/2000/svg" xmlns:xlink="http://www.w3.org/1999/xlink" width="75" height="67.74" viewBox="0 0 75 67.74">
  <defs>
    <clipPath id="clip-path">
      <rect id="Rectángulo_6226" data-name="Rectángulo 6226" width="75" height="67.74" fill="#636363"/>
    </clipPath>
  </defs>
  <g id="Grupo_57505" data-name="Grupo 57505" transform="translate(0 0)" clip-path="url(#clip-path)">
    <path id="Trazado_106334" data-name="Trazado 106334" d="M74.446,65.419a5.025,5.025,0,0,0-6.619-2.214L50.752,71.472h-4.38a5.372,5.372,0,0,0,.857-3.49A5.519,5.519,0,0,0,41.7,63.168H25.289a1.218,1.218,0,0,0-.46.091L12.237,68.444a2.8,2.8,0,0,0-2.66-1.954H2.807A2.81,2.81,0,0,0,0,69.3V85.719a2.81,2.81,0,0,0,2.807,2.807H9.576a2.808,2.808,0,0,0,2.73-2.18H26.12a1.176,1.176,0,0,0,.227-.021l28.576-5.459a1.2,1.2,0,0,0,.319-.108l17.014-8.6a4.994,4.994,0,0,0,2.19-6.738M9.964,85.719a.387.387,0,0,1-.388.387H2.807a.387.387,0,0,1-.388-.387V69.3a.388.388,0,0,1,.388-.388H9.576a.388.388,0,0,1,.388.388V85.719ZM72.452,68.5A2.56,2.56,0,0,1,71.164,70L54.3,78.52l-28.3,5.406H12.383V71l13.146-5.412H41.7a3.081,3.081,0,0,1,3.123,2.637,2.914,2.914,0,0,1-.746,2.272,2.95,2.95,0,0,1-2.181.975H27.78a1.209,1.209,0,0,0,0,2.419H51.03a1.218,1.218,0,0,0,.527-.12l17.324-8.388a2.591,2.591,0,0,1,3.413,1.142,2.558,2.558,0,0,1,.158,1.972" transform="translate(0 -20.785)" fill="#636363"/>
    <path id="Trazado_106335" data-name="Trazado 106335" d="M53.91,18.548h4.436V30.68c-5.595.314-9.677,2.793-9.677,6.013A1.209,1.209,0,0,0,49.878,37.9H69.232a1.209,1.209,0,0,0,1.21-1.209c0-3.22-4.083-5.7-9.677-6.013V21.774H65.2A11.707,11.707,0,0,0,76.894,10.081V4.436a1.21,1.21,0,0,0-1.21-1.21H70.039A11.689,11.689,0,0,0,60.3,8.461,11.707,11.707,0,0,0,49.072,0H43.427a1.21,1.21,0,0,0-1.21,1.209V6.855A11.707,11.707,0,0,0,53.91,18.548M51.653,35.483c1.2-1.3,4.191-2.42,7.9-2.42s6.7,1.124,7.9,2.42ZM70.039,5.645h4.435v4.435A9.284,9.284,0,0,1,65.2,19.355H62.476l7.612-7.613a1.21,1.21,0,1,0-1.711-1.71l-7.612,7.612V14.919a9.284,9.284,0,0,1,9.274-9.274M44.637,2.42h4.435a9.285,9.285,0,0,1,9.274,9.274v2.724L49.927,6a1.21,1.21,0,1,0-1.71,1.711l8.419,8.419H53.91a9.284,9.284,0,0,1-9.274-9.274Z" transform="translate(-13.992 0)" fill="#636363"/>
  </g>
</svg>
