<svg id="Grupo_57669" data-name="Grupo 57669" xmlns="http://www.w3.org/2000/svg" xmlns:xlink="http://www.w3.org/1999/xlink" width="112.18" height="109.344" viewBox="0 0 112.18 109.344">
  <defs>
    <clipPath id="clip-path">
      <rect id="Rectángulo_6316" data-name="Rectángulo 6316" width="112.18" height="109.344" transform="translate(0 0)" fill="#12263f"/>
    </clipPath>
  </defs>
  <g id="Grupo_57655" data-name="Grupo 57655" clip-path="url(#clip-path)">
    <path id="Trazado_106346" data-name="Trazado 106346" d="M18.172,22.5a23.006,23.006,0,0,0,2.62-.132c.014,0,.025-.009.038-.011a1.812,1.812,0,0,0,.5-.15c.03-.014.058-.031.088-.047a1.8,1.8,0,0,0,.424-.3l.013-.013a1.775,1.775,0,0,0,.3-.421c.017-.031.034-.059.049-.091a1.833,1.833,0,0,0,.148-.5c0-.015.01-.027.012-.041s.017-.141.036-.361a15.083,15.083,0,0,0,8.869-3.881c5.037-5.037,4.008-13.876,3.96-14.25A1.807,1.807,0,0,0,33.66.727c-.376-.045-9.212-1.079-14.251,3.96-.255.255-.5.528-.729.812-.255-.309-.518-.608-.8-.886C12.177-1.088,2.13.08,1.707.132A1.81,1.81,0,0,0,.133,1.706C.08,2.131-1.088,12.177,4.615,17.885,8.6,21.87,14.71,22.5,18.172,22.5M31.724,4.236c.041,2.373-.271,7.015-3.01,9.756a11.2,11.2,0,0,1-6.256,2.784c-.011-.226-.032-.446-.047-.669l7.14-7.14a1.809,1.809,0,0,0-2.558-2.558L21.7,11.7a18.479,18.479,0,0,0-.982-2.814,8.027,8.027,0,0,1,1.247-1.638c2.741-2.741,7.381-3.052,9.756-3.01m-28.091-.6c2.7-.064,8.363.214,11.693,3.54A9.871,9.871,0,0,1,17.1,9.646,16.772,16.772,0,0,1,18.748,15.6c.023.214.041.43.058.648l-.383-.383L9.158,6.6A1.809,1.809,0,0,0,6.6,9.158l9.266,9.265.027.028.35.35c-2.868-.22-6.61-1.018-9.068-3.474C3.846,11.995,3.561,6.314,3.633,3.633" fill="#12263f"/>
    <path id="Trazado_106347" data-name="Trazado 106347" d="M110.371,68.332h-7.777L70.533,41.021A1.809,1.809,0,0,0,67.551,42.4V66.223l-29.585-25.2A1.81,1.81,0,0,0,34.983,42.4V68.332H28.952V26.718a1.809,1.809,0,0,0-1.809-1.809H9.05a1.809,1.809,0,0,0-1.81,1.809V68.332H1.812A1.809,1.809,0,0,0,0,70.142v37.393a1.809,1.809,0,0,0,1.809,1.809H110.371a1.81,1.81,0,0,0,1.81-1.809V70.142a1.81,1.81,0,0,0-1.81-1.81m-39.2-22.015L97.013,68.332H71.169Zm-32.567,0L64.445,68.332H38.6ZM10.859,28.528H25.333v4.825H10.859Zm0,8.443H25.333V68.332H10.859Zm0,43.424H29.706v25.33H10.859Zm97.7,25.33H33.324V78.585a1.809,1.809,0,0,0-1.809-1.809H9.05a1.809,1.809,0,0,0-1.81,1.809v27.14H3.622V71.952h104.94Z" fill="#12263f"/>
    <path id="Trazado_106348" data-name="Trazado 106348" d="M55.287,76.776H39.205a1.81,1.81,0,0,0-1.81,1.809V90.648a1.81,1.81,0,0,0,1.81,1.809H55.287A1.809,1.809,0,0,0,57.1,90.648V78.585a1.809,1.809,0,0,0-1.809-1.809M53.478,88.838H41.014V80.395H53.478Z" fill="#12263f"/>
    <path id="Trazado_106349" data-name="Trazado 106349" d="M79.211,76.776H63.127a1.809,1.809,0,0,0-1.809,1.809V90.648a1.809,1.809,0,0,0,1.809,1.809H79.211a1.809,1.809,0,0,0,1.809-1.809V78.585a1.809,1.809,0,0,0-1.809-1.809M77.4,88.838H64.937V80.395H77.4Z" fill="#12263f"/>
    <path id="Trazado_106350" data-name="Trazado 106350" d="M85.242,78.585V90.648a1.809,1.809,0,0,0,1.809,1.809h16.083a1.809,1.809,0,0,0,1.809-1.809V78.585a1.809,1.809,0,0,0-1.809-1.809H87.051a1.809,1.809,0,0,0-1.809,1.809m3.619,1.81h12.464v8.443H88.861Z" fill="#12263f"/>
  </g>
</svg>
