<svg id="Grupo_57976" data-name="Grupo 57976" xmlns="http://www.w3.org/2000/svg" xmlns:xlink="http://www.w3.org/1999/xlink" width="36.693" height="36.671" viewBox="0 0 36.693 36.671">
  <defs>
    <clipPath id="clip-path">
      <rect id="Rectángulo_6578" data-name="Rectángulo 6578" width="36.693" height="36.671" fill="none"/>
    </clipPath>
    <clipPath id="clip-path-3">
      <rect id="Rectángulo_6575" data-name="Rectángulo 6575" width="26.82" height="34.68" fill="none"/>
    </clipPath>
    <clipPath id="clip-path-4">
      <rect id="Rectángulo_6576" data-name="Rectángulo 6576" width="26.623" height="34.603" fill="none"/>
    </clipPath>
  </defs>
  <g id="Grupo_57975" data-name="Grupo 57975" clip-path="url(#clip-path)">
    <g id="Grupo_57974" data-name="Grupo 57974">
      <g id="Grupo_57973" data-name="Grupo 57973" clip-path="url(#clip-path)">
        <path id="Trazado_113667" data-name="Trazado 113667" d="M.031,18.362A18.326,18.326,0,1,0,18.356.036,18.325,18.325,0,0,0,.031,18.362" transform="translate(-0.024 -0.028)" fill="#2494e0"/>
        <path id="Trazado_113668" data-name="Trazado 113668" d="M67.2,64.079c.5.756,1.559,1,1.469,1.322-.038.137-.231.119-.294.294-.1.274.3.538.587,1.028.41.692.122,1.011.441,1.4a1.839,1.839,0,0,0,2.2.221c.851-.591.447-1.893,1.469-2.5.267-.158.32-.084.661-.294.448-.275,1.2-.922,1.1-1.542-.078-.493-.626-.555-.661-1.029-.023-.311.2-.528.587-.954,1.127-1.227,1.69-1.85,1.69-2.351,0-.526-.377-.706-.22-1.175a.959.959,0,0,1,.734-.661c.316-.021.5.25.661.147.124-.079.048-.258.22-.587.09-.173.135-.259.22-.294.293-.122.555.543,1.175.661.5.095.672-.273,1.175-.147.487.122.551.523.808.514.593-.021.962-2.187,1.1-3.011.354-2.081.531-3.122.073-3.82-.508-.775-1.289-.865-1.616-1.91a4.639,4.639,0,0,0-.294-1.029c-.256-.5-.8-1.169-1.322-1.1-.25.032-.266.2-.514.22-.427.036-.624-.438-1.1-.734-.728-.452-1.852-.333-2.056.073-.224.445.663,1.2.441,1.469-.114.136-.351-.057-.808,0-.712.089-.882.652-1.322.588s-.4-.646-.881-.808c-.531-.179-.826.449-1.763.662-1.065.241-1.637-.355-1.983,0-.4.4.33,1.211-.147,2.056-.251.446-.539.376-.734.881s0,.82-.294,1.175c-.2.242-.364.184-.514.44-.187.319.005.508-.147.808-.166.328-.472.251-.881.588-.487.4-.324.731-.661.955-.671.445-1.735-.591-2.2-.22-.323.255-.168,1.023,0,1.469.449,1.188,1.4,1.17,2.424,2.571a5.016,5.016,0,0,1,.881,1.763c.372,1.441-.242,2.058.294,2.864" transform="translate(-48.756 -35.719)" fill="#a2e362"/>
        <path id="Trazado_113669" data-name="Trazado 113669" d="M69.071,121.786a.651.651,0,0,0,.661-.22c.1-.171-.031-.324-.147-.735-.223-.8,0-1.129-.294-1.4-.184-.167-.292-.053-.588-.22-.559-.318-.612-.977-.734-.955-.143.025-.194.937.073,1.91.142.518.411,1.492,1.028,1.616" transform="translate(-52.17 -90.928)" fill="#a2e362"/>
        <path id="Trazado_113670" data-name="Trazado 113670" d="M24.758,20.257c-.037.158-1.4-.441-2.351.147-.856.527-.413,1.411-1.432,2.681-.792.987-1.52,1.028-1.616,1.762-.108.824.718,1.5.588,1.616s-.739-.609-1.763-1.176c-1.546-.855-2.424-.468-3.012-1.322-.29-.422-.485-1.111-.22-1.469.223-.3.681-.249.881-.661.124-.256.047-.481.147-.514.163-.054.321.559.735.661.115.028.338.04,1.248-.734.74-.63,1.11-.95,1.028-1.175s-.532-.341-.881-.22c-.587.2-.522.97-1.028,1.1-.456.118-.746-.443-1.175-.294-.384.133-.26.62-.661.881-.595.387-1.272-.422-1.983-.073-.569.279-.666,1.059-1.1,1.028-.211-.015-.318-.208-.441-.147-.2.1.028.656-.22.881-.21.19-.523-.073-.808,0-.962.247-.517,4.053-1.175,4.187-.246.05-.548-.432-.661-.661-.4-.8.083-1.339-.073-2.2-.2-1.078-1.271-2.053-1.91-1.909-.481.108-.877.886-1.249,1.615-.2.385-.335.748-.514.735-.237-.017-.318-.675-.441-.661-.15.016-.007.987-.441,2.057-.15.369-.437.921-.587.882-.241-.064.315-1.532-.147-3.379a11.055,11.055,0,0,1-.441-1.469A4.7,4.7,0,0,1,3.347,20c.7-1.643,2.3-2.278,2.057-2.865-.091-.226-.351-.192-.514-.514a1.448,1.448,0,0,1,.147-1.249A18.218,18.218,0,0,1,10.766,9.5a11.973,11.973,0,0,0,1.542,0,5.154,5.154,0,0,0,1.175-.147c.844-.264,1-.76,1.616-.734.21.009.18.067.661.22,1.068.342,1.508.151,1.689.441.257.41-.443,1.076-.22,1.323s1.04-.162,1.469-.368c.9-.43.828-.626,1.175-.661.927-.094,1.283,1.313,2.5,1.4.6.041,1.179-.258,1.175-.441,0-.219-.845-.243-.881-.514s.8-.74,1.616-.881c2.021-.35,4.42,1.156,4.333,2.2a1.05,1.05,0,0,1-.955.881c-.718-.025-.831-1.381-1.689-1.542-.675-.127-1.527.538-1.469.955.055.4.919.412,3.158,1.1,2.466.76,2.939,1.213,3.085,1.689.157.513-.105.923.22,1.248.284.284.606.1,1.322.368.261.1,1.019.382,1.028.808a.9.9,0,0,1-.734.734c-.762.15-1.655-.761-2.314-1.432-.464-.473-.709-.829-1.1-.808a1.491,1.491,0,0,0-.808.441c-.337.314-.43.614-.514.587-.156-.047.137-1.087-.073-1.175-.127-.053-.368.269-.661.661-.5.672-.767,1.036-.661,1.4.084.284.333.347.294.514a.671.671,0,0,1-.881.221c-.3-.238.11-.824-.221-1.248-.272-.35-.9-.405-1.028-.221s.335.52.22.882c-.124.391-.864.6-1.469.514-.7-.1-1.025-.559-1.175-.441-.175.138.061.928.587,1.542.818.953,2.017,1.106,1.983,1.249" transform="translate(-2.312 -6.624)" fill="#a2e362"/>
        <path id="Trazado_113671" data-name="Trazado 113671" d="M85.237,101.768a.845.845,0,0,0-.073-1.175.874.874,0,0,0-.808,0c-.257.11-.615.384-.587.661a1.081,1.081,0,0,0,1.469.514" transform="translate(-64.407 -77.264)" fill="#2294e0"/>
        <path id="Trazado_113672" data-name="Trazado 113672" d="M82.277,36.071c.668.012,1.02.315,1.322.073a.691.691,0,0,0,.22-.514c.019-.551-.57-1.039-.882-.955-.156.043-.141.2-.441.441-.08.064-.383.3-.514.221s.045-.332-.073-.588c-.172-.373-.818-.477-.881-.367s.413.325.367.587c-.064.365-1.036.285-1.175.734a.649.649,0,0,0,.294.662c.427.27.82-.311,1.763-.294" transform="translate(-61.667 -26.404)" fill="#2294e0"/>
        <path id="Trazado_113673" data-name="Trazado 113673" d="M64.643,37.621c-.149-.354.654-.839.514-1.249-.058-.17-.229-.178-.22-.294.02-.272.986-.29,1.028-.587.031-.214-.453-.33-.441-.587s.483-.53.881-.441a.927.927,0,0,1,.661.955c-.075.586-.925.684-.955,1.248-.021.392.379.521.294.808-.124.416-1.117.64-1.616.294a.347.347,0,0,1-.147-.147" transform="translate(-49.689 -26.485)" fill="#2294e0"/>
        <path id="Trazado_113674" data-name="Trazado 113674" d="M28.272,27.06c-.254.171-.465.313-.441.441.034.174.511.352.808.147s.3-.717.147-.808c-.1-.06-.268.055-.514.22" transform="translate(-21.397 -20.624)" fill="#2294e0"/>
        <path id="Trazado_113675" data-name="Trazado 113675" d="M110.564,7.67a6.415,6.415,0,0,1-2.167-.624c-.169-.086-.744-.385-.808-.294s.3.354.22.514c-.07.138-.441.147-.441.147s-.676-.519-.587-.735c.053-.13.351-.071.367-.146.027-.127-.87-.345-1.469-.662a3.969,3.969,0,0,1-1.726-2.02,18.427,18.427,0,0,1,6.61,3.819" transform="translate(-79.929 -2.961)" fill="#a2e362"/>
        <path id="Trazado_113676" data-name="Trazado 113676" d="M3.059,93.587c.414-.135,1.028.8,1.322,1.249.4.616.878,1.337.587,1.837-.194.333-.7.515-.882.367-.311-.25.469-1.291.073-1.762-.309-.369-.991.021-1.322-.367-.312-.367-.123-1.211.22-1.322" transform="translate(-2.061 -71.948)" fill="#a2e362"/>
        <path id="Trazado_113677" data-name="Trazado 113677" d="M14.649,125.253a5.3,5.3,0,0,1,2.424,1.248,5.35,5.35,0,0,1,1.616,2.865,17.184,17.184,0,0,1-4.04-4.114" transform="translate(-11.263 -96.305)" fill="#a2e362"/>
        <g id="Grupo_57969" data-name="Grupo 57969" transform="translate(0 1.991)" opacity="0.2">
          <g id="Grupo_57968" data-name="Grupo 57968">
            <g id="Grupo_57967" data-name="Grupo 57967" clip-path="url(#clip-path-3)">
              <path id="Trazado_113678" data-name="Trazado 113678" d="M10.035,8.615A18.28,18.28,0,0,0,.962,30.871a18.519,18.519,0,0,0,7.2,9.4,18.349,18.349,0,0,0,9.475,3.011,18.584,18.584,0,0,0,9.185-2.08A19.1,19.1,0,0,1,10.035,8.615" transform="translate(0 -8.615)" fill="#020202"/>
            </g>
          </g>
        </g>
        <g id="Grupo_57972" data-name="Grupo 57972" transform="translate(10.07)" opacity="0.2">
          <g id="Grupo_57971" data-name="Grupo 57971">
            <g id="Grupo_57970" data-name="Grupo 57970" clip-path="url(#clip-path-4)">
              <path id="Trazado_113679" data-name="Trazado 113679" d="M43.57,1.992A18.523,18.523,0,0,1,52.457.008a18.288,18.288,0,0,1,8.594,2.424A18.993,18.993,0,0,1,68.176,10a18.259,18.259,0,0,1,1.469,3.819A18.963,18.963,0,0,1,68.763,25.5,18.6,18.6,0,0,1,60.316,34.6,18.555,18.555,0,0,0,43.57,1.992" transform="translate(-43.57 0)" fill="#fff"/>
            </g>
          </g>
        </g>
      </g>
    </g>
  </g>
</svg>
