<svg id="Grupo_57644" data-name="Grupo 57644" xmlns="http://www.w3.org/2000/svg" xmlns:xlink="http://www.w3.org/1999/xlink" width="112.178" height="96.424" viewBox="0 0 112.178 96.424">
  <defs>
    <clipPath id="clip-path">
      <rect id="Rectángulo_6257" data-name="Rectángulo 6257" width="112.178" height="96.424" transform="translate(0 0)" fill="#12263f"/>
    </clipPath>
  </defs>
  <g id="Grupo_57562" data-name="Grupo 57562" clip-path="url(#clip-path)">
    <path id="Trazado_106336" data-name="Trazado 106336" d="M111.063,69.891a1.81,1.81,0,0,0-.17-3.4c-6.816-2.061-13.8-8.63-17.164-12.132a83.177,83.177,0,0,0,9.825-3.13,1.81,1.81,0,0,0,.4-3.156c-4.1-2.942-9.211-9.238-11.846-12.663,1.8-.362,4.359-.95,7.557-1.875a1.809,1.809,0,0,0,.278-3.37c-4.67-2.234-11.753-7.828-17.05-15.293a1.878,1.878,0,0,0-2.952,0c-5.3,7.465-12.38,13.059-17.051,15.293a1.809,1.809,0,0,0,.278,3.37c3.2.925,5.759,1.513,7.558,1.875C68.09,38.831,62.98,45.125,58.877,48.07a1.81,1.81,0,0,0,.4,3.156,83.063,83.063,0,0,0,9.828,3.13c-3.361,3.5-10.339,10.068-17.166,12.132a1.81,1.81,0,0,0-.17,3.4c7.154,2.969,14.028,4.355,23.968,4.71v18.2h-45.8V63.556a12.7,12.7,0,0,0,7.139,2.178A12.879,12.879,0,0,0,49.943,52.87a12.726,12.726,0,0,0-1.726-6.419A19.158,19.158,0,0,0,41.5,17.841c.013-.262.02-.515.02-.766A17.076,17.076,0,1,0,7.468,18.908,12.38,12.38,0,0,0,0,30.235a12.249,12.249,0,0,0,2.648,7.629,18.911,18.911,0,0,0-1.6,7.636A19.2,19.2,0,0,0,20,64.669V92.805H1.809a1.809,1.809,0,1,0,0,3.618H109.565a1.809,1.809,0,1,0,0-3.618H87.1V74.6c9.939-.355,16.813-1.741,23.968-4.71M73.924,54.442A1.808,1.808,0,0,0,72.869,51.5a73.653,73.653,0,0,1-9.337-2.566c5.646-5.1,11.594-13.347,11.881-13.746a1.81,1.81,0,0,0-1.248-2.852,57.867,57.867,0,0,1-5.8-1.159A58.624,58.624,0,0,0,81.415,18.939,58.581,58.581,0,0,0,94.462,31.174a58,58,0,0,1-5.8,1.159,1.81,1.81,0,0,0-1.248,2.852c.287.4,6.234,8.643,11.88,13.746A73.668,73.668,0,0,1,89.961,51.5,1.809,1.809,0,0,0,88.9,54.442c.363.431,7.82,9.2,16.512,13.681-5.741,1.853-11.813,2.721-20.149,2.915l-.024,0c-2.462.055-5.2.055-7.659,0-.01,0-.019,0-.029,0-8.333-.193-14.4-1.061-20.143-2.914,8.692-4.484,16.149-13.25,16.511-13.681M4.672,45.5A15.376,15.376,0,0,1,6.4,38.4a1.808,1.808,0,0,0-.312-2.089A8.7,8.7,0,0,1,9.973,21.851a1.811,1.811,0,0,0,1.284-2.1,13.468,13.468,0,1,1,26.53-1.02,1.811,1.811,0,0,0,1.1,1.888,15.542,15.542,0,0,1,5.733,24.536,1.809,1.809,0,0,0-.092,2.257,9.16,9.16,0,0,1,1.8,5.459,9.256,9.256,0,0,1-9.246,9.245,9.157,9.157,0,0,1-6.715-2.906,1.814,1.814,0,0,0-.424-.322V49.935l6.84-6.84a1.809,1.809,0,0,0-2.558-2.559l-4.282,4.281V32.037l6.84-6.839a1.809,1.809,0,0,0-2.558-2.56l-7.371,7.37a1.809,1.809,0,0,0-.53,1.279v28.52a15.51,15.51,0,0,1-2.7.869V39.71a1.808,1.808,0,0,0-.529-1.279l-7.371-7.369a1.809,1.809,0,1,0-2.559,2.558L20,40.46V61.051A15.573,15.573,0,0,1,4.672,45.5m18.95,18.873a19.067,19.067,0,0,0,2.7-.7V92.805h-2.7ZM83.476,74.686V92.805H79.354V74.686c.23,0,.472,0,.708,0,.449,0,.891.009,1.353.009s.9-.006,1.353-.009c.235,0,.477,0,.708,0" fill="#12263f"/>
  </g>
</svg>
