<svg xmlns="http://www.w3.org/2000/svg" xmlns:xlink="http://www.w3.org/1999/xlink" width="208" height="208" viewBox="0 0 208 208">
  <defs>
    <filter id="Elipse_4709" x="0" y="0" width="208" height="208" filterUnits="userSpaceOnUse">
      <feOffset dy="3" input="SourceAlpha"/>
      <feGaussianBlur stdDeviation="3" result="blur"/>
      <feFlood flood-opacity="0.161"/>
      <feComposite operator="in" in2="blur"/>
      <feComposite in="SourceGraphic"/>
    </filter>
    <clipPath id="clip-path">
      <rect id="Rectángulo_34057" data-name="Rectángulo 34057" width="127.869" height="105.95" fill="#12263f"/>
    </clipPath>
  </defs>
  <g id="Grupo_80469" data-name="Grupo 80469" transform="translate(-1011 -3084)">
    <g id="Grupo_80468" data-name="Grupo 80468">
      <g transform="matrix(1, 0, 0, 1, 1011, 3084)" filter="url(#Elipse_4709)">
        <circle id="Elipse_4709-2" data-name="Elipse 4709" cx="95" cy="95" r="95" transform="translate(9 6)" fill="#80cab6"/>
      </g>
    </g>
    <g id="Grupo_80455" data-name="Grupo 80455" transform="translate(1051 3132)">
      <g id="Grupo_80454" data-name="Grupo 80454" clip-path="url(#clip-path)">
        <path id="Trazado_114068" data-name="Trazado 114068" d="M95.8,105.95H32.072a6.808,6.808,0,0,1-6.8-6.8V12.526a6.808,6.808,0,0,1,6.8-6.8H51.053a2.32,2.32,0,1,1,0,4.639H32.072a2.163,2.163,0,0,0-2.16,2.161V99.15a2.163,2.163,0,0,0,2.16,2.161H95.8a2.163,2.163,0,0,0,2.161-2.161V12.526A2.163,2.163,0,0,0,95.8,10.365H76.817a2.32,2.32,0,1,1,0-4.639H95.8a6.808,6.808,0,0,1,6.8,6.8V99.15a6.809,6.809,0,0,1-6.8,6.8" fill="#12263f"/>
        <path id="Trazado_114069" data-name="Trazado 114069" d="M76.816,25.424H51.052a2.32,2.32,0,0,1-2.32-2.319A15.064,15.064,0,0,1,56.76,9.744V7.174a7.174,7.174,0,0,1,14.348,0v2.57A15.063,15.063,0,0,1,79.136,23.1a2.32,2.32,0,0,1-2.32,2.319M53.628,20.785H74.24a10.456,10.456,0,0,0-6.32-7.413,2.32,2.32,0,0,1-1.452-2.151V7.174a2.534,2.534,0,0,0-5.068,0v4.047a2.32,2.32,0,0,1-1.452,2.151,10.456,10.456,0,0,0-6.32,7.413" fill="#12263f"/>
        <path id="Trazado_114070" data-name="Trazado 114070" d="M81.3,25.425H46.572a2.32,2.32,0,0,1,0-4.639H81.3a2.32,2.32,0,1,1,0,4.639" fill="#12263f"/>
        <path id="Trazado_114071" data-name="Trazado 114071" d="M91.06,94.625H36.809a2.319,2.319,0,0,1-2.319-2.32V16.052a2.319,2.319,0,0,1,2.319-2.32H53.176a2.32,2.32,0,1,1,0,4.639H39.129V89.985H88.74V18.371H74.693a2.32,2.32,0,1,1,0-4.639H91.06a2.32,2.32,0,0,1,2.32,2.32V92.305a2.32,2.32,0,0,1-2.32,2.32" fill="#12263f"/>
        <path id="Trazado_114072" data-name="Trazado 114072" d="M125.549,58.157H107.876a2.32,2.32,0,1,1,0-4.639h17.673a2.32,2.32,0,1,1,0,4.639" fill="#12263f"/>
        <path id="Trazado_114073" data-name="Trazado 114073" d="M111.612,43.72a2.32,2.32,0,0,1-1.195-4.309l8.712-5.227a2.32,2.32,0,0,1,2.387,3.978L112.8,43.389a2.309,2.309,0,0,1-1.191.331" fill="#12263f"/>
        <path id="Trazado_114074" data-name="Trazado 114074" d="M120.32,77.822a2.305,2.305,0,0,1-1.192-.331l-8.712-5.227a2.32,2.32,0,0,1,2.387-3.978l8.713,5.227a2.32,2.32,0,0,1-1.2,4.309" fill="#12263f"/>
        <path id="Trazado_114075" data-name="Trazado 114075" d="M19.993,58.157H2.319a2.32,2.32,0,0,1,0-4.639H19.993a2.32,2.32,0,1,1,0,4.639" fill="#12263f"/>
        <path id="Trazado_114076" data-name="Trazado 114076" d="M16.257,43.72a2.309,2.309,0,0,1-1.191-.331L6.354,38.162a2.32,2.32,0,1,1,2.387-3.978l8.711,5.227a2.32,2.32,0,0,1-1.195,4.309" fill="#12263f"/>
        <path id="Trazado_114077" data-name="Trazado 114077" d="M7.55,77.822a2.32,2.32,0,0,1-1.2-4.309l8.712-5.227a2.32,2.32,0,1,1,2.388,3.978L8.742,77.491a2.305,2.305,0,0,1-1.192.331" fill="#12263f"/>
        <path id="Trazado_114078" data-name="Trazado 114078" d="M51.053,50.006h-.072a2.319,2.319,0,0,1-1.912-1.118l-4.481-7.406a2.319,2.319,0,0,1,3.969-2.4l2.627,4.342,6.494-9.378a2.32,2.32,0,1,1,3.815,2.641L52.96,49.007a2.319,2.319,0,0,1-1.907,1" fill="#12263f"/>
        <path id="Trazado_114079" data-name="Trazado 114079" d="M81.857,47.579H63.384a2.32,2.32,0,1,1,0-4.639H81.857a2.32,2.32,0,1,1,0,4.639" fill="#12263f"/>
        <path id="Trazado_114080" data-name="Trazado 114080" d="M81.857,39.986H67.8a2.32,2.32,0,0,1,0-4.639H81.857a2.32,2.32,0,1,1,0,4.639" fill="#12263f"/>
        <path id="Trazado_114081" data-name="Trazado 114081" d="M50.773,77.075H50.7a2.318,2.318,0,0,1-1.913-1.118L44.308,68.55a2.319,2.319,0,1,1,3.968-2.4L50.9,70.491,57.4,61.113a2.32,2.32,0,1,1,3.815,2.642L52.68,76.076a2.319,2.319,0,0,1-1.907,1" fill="#12263f"/>
        <path id="Trazado_114082" data-name="Trazado 114082" d="M81.568,74.648H63.1a2.32,2.32,0,1,1,0-4.639H81.568a2.32,2.32,0,1,1,0,4.639" fill="#12263f"/>
        <path id="Trazado_114083" data-name="Trazado 114083" d="M81.576,67.056H67.519a2.32,2.32,0,0,1,0-4.639H81.576a2.32,2.32,0,1,1,0,4.639" fill="#12263f"/>
      </g>
    </g>
  </g>
</svg>
