<svg xmlns="http://www.w3.org/2000/svg" xmlns:xlink="http://www.w3.org/1999/xlink" width="101.984" height="101.983" viewBox="0 0 101.984 101.983">
  <defs>
    <clipPath id="clip-path">
      <rect id="Rectángulo_5759" data-name="Rectángulo 5759" width="86" height="86" transform="translate(-0.358 -0.398)" fill="none"/>
    </clipPath>
  </defs>
  <g id="Grupo_56935" data-name="Grupo 56935" transform="translate(-435 -5258.008)">
    <g id="Grupo_56930" data-name="Grupo 56930" transform="translate(435 5258.008)">
      <g id="Grupo_56879" data-name="Grupo 56879">
        <g id="Grupo_20664" data-name="Grupo 20664" transform="translate(0 0)">
          <g id="Trazado_99078" data-name="Trazado 99078" fill="#fff">
            <path d="M 50.99175262451172 100.483512878418 C 44.30975341796875 100.483512878418 37.82842254638672 99.17516326904297 31.7277946472168 96.59482574462891 C 25.83452415466309 94.10218048095703 20.54152488708496 90.53342437744141 15.99579524993896 85.98770904541016 C 11.45008087158203 81.44199371337891 7.881324291229248 76.14897918701172 5.38869571685791 70.25572204589844 C 2.808338403701782 64.15509796142578 1.499995470046997 57.67375183105469 1.499995470046997 50.99175262451172 C 1.499995470046997 44.30975341796875 2.808338403701782 37.82842254638672 5.38869571685791 31.7277946472168 C 7.881324291229248 25.83452415466309 11.45008087158203 20.54152488708496 15.99579524993896 15.99579524993896 C 20.54152488708496 11.45008087158203 25.83452415466309 7.881324291229248 31.7277946472168 5.38869571685791 C 37.82842254638672 2.808338403701782 44.30975341796875 1.499995470046997 50.99175262451172 1.499995470046997 C 57.67375183105469 1.499995470046997 64.15509796142578 2.808338403701782 70.25572204589844 5.38869571685791 C 76.14897918701172 7.881324291229248 81.44199371337891 11.45008087158203 85.98770904541016 15.99579524993896 C 90.53342437744141 20.54152488708496 94.10218048095703 25.83452415466309 96.59482574462891 31.7277946472168 C 99.17516326904297 37.82842254638672 100.483512878418 44.30975341796875 100.483512878418 50.99175262451172 C 100.483512878418 57.67375183105469 99.17516326904297 64.15509796142578 96.59482574462891 70.25572204589844 C 94.10218048095703 76.14897918701172 90.53342437744141 81.44199371337891 85.98770904541016 85.98770904541016 C 81.44199371337891 90.53342437744141 76.14897918701172 94.10218048095703 70.25572204589844 96.59482574462891 C 64.15509796142578 99.17516326904297 57.67375183105469 100.483512878418 50.99175262451172 100.483512878418 Z" stroke="none"/>
            <path d="M 50.99175262451172 3 C 44.5115852355957 3 38.22684478759766 4.268478393554688 32.31211853027344 6.770195007324219 C 26.59764862060547 9.187217712402344 21.46490478515625 12.64801788330078 17.05645751953125 17.05645751953125 C 12.64801788330078 21.46490478515625 9.187217712402344 26.59764862060547 6.770195007324219 32.31211853027344 C 4.268478393554688 38.22684478759766 3 44.5115852355957 3 50.99175262451172 C 3 57.47192001342773 4.268478393554688 63.75666046142578 6.770195007324219 69.67138671875 C 9.187217712402344 75.3858642578125 12.64801788330078 80.51860046386719 17.05645751953125 84.92704772949219 C 21.46490478515625 89.33549499511719 26.59764862060547 92.79629516601562 32.31211853027344 95.21330261230469 C 38.22684478759766 97.71502685546875 44.5115852355957 98.98350524902344 50.99175262451172 98.98350524902344 C 57.47192001342773 98.98350524902344 63.75666046142578 97.71502685546875 69.67138671875 95.21330261230469 C 75.3858642578125 92.79629516601562 80.51860046386719 89.33549499511719 84.92704772949219 84.92704772949219 C 89.33549499511719 80.51860046386719 92.79629516601562 75.3858642578125 95.21330261230469 69.67138671875 C 97.71502685546875 63.75666046142578 98.98350524902344 57.47192001342773 98.98350524902344 50.99175262451172 C 98.98350524902344 44.5115852355957 97.71502685546875 38.22684478759766 95.21330261230469 32.31211853027344 C 92.79629516601562 26.59764862060547 89.33549499511719 21.46490478515625 84.92704772949219 17.05645751953125 C 80.51860046386719 12.64801788330078 75.3858642578125 9.187217712402344 69.67138671875 6.770195007324219 C 63.75666046142578 4.268478393554688 57.47192001342773 3 50.99175262451172 3 M 50.99175262451172 0 C 79.15372467041016 0 101.9835052490234 22.82978057861328 101.9835052490234 50.99175262451172 C 101.9835052490234 79.15372467041016 79.15372467041016 101.9835052490234 50.99175262451172 101.9835052490234 C 22.82978057861328 101.9835052490234 0 79.15372467041016 0 50.99175262451172 C 0 22.82978057861328 22.82978057861328 0 50.99175262451172 0 Z" stroke="none" fill="#adc46c"/>
          </g>
        </g>
      </g>
      <g id="Grupo_56880" data-name="Grupo 56880" transform="translate(8.399 8.399)">
        <g id="Grupo_56875" data-name="Grupo 56875" transform="translate(0 0)" clip-path="url(#clip-path)">
          <path id="Trazado_105222" data-name="Trazado 105222" d="M85.666,42.833A42.833,42.833,0,1,0,42.833,85.666,42.833,42.833,0,0,0,85.666,42.833" transform="translate(-0.24 -0.24)" fill="#feda13"/>
          <path id="Trazado_105223" data-name="Trazado 105223" d="M43.55,82.1A38.55,38.55,0,1,1,82.1,43.55,38.594,38.594,0,0,1,43.55,82.1" transform="translate(-0.957 -0.956)" fill="#2b2b2b"/>
          <path id="Trazado_105224" data-name="Trazado 105224" d="M44.123,79.246A35.123,35.123,0,1,1,79.246,44.123,35.163,35.163,0,0,1,44.123,79.246" transform="translate(-1.53 -1.53)" fill="#feda13"/>
          <path id="Trazado_105225" data-name="Trazado 105225" d="M44.713,23.783A4.009,4.009,0,0,1,49,19.5a4.009,4.009,0,0,1,4.283,4.283A4.009,4.009,0,0,1,49,28.067a4.009,4.009,0,0,1-4.283-4.283M49,70.043c4.228,0,6.39-3.105,5.938-6.908h.006l-3.4-28.606h-.008a2.569,2.569,0,0,0-5.078,0h-.009l-3.4,28.606h.006c-.451,3.792,1.694,6.908,5.938,6.908" transform="translate(-6.404 -3.035)" fill="#2b2b2b"/>
        </g>
      </g>
    </g>
  </g>
</svg>
