<svg id="Grupo_57664" data-name="Grupo 57664" xmlns="http://www.w3.org/2000/svg" xmlns:xlink="http://www.w3.org/1999/xlink" width="99.098" height="112.178" viewBox="0 0 99.098 112.178">
  <defs>
    <clipPath id="clip-path">
      <rect id="Rectángulo_6320" data-name="Rectángulo 6320" width="99.098" height="112.178" transform="translate(0 0)" fill="#12263f"/>
    </clipPath>
  </defs>
  <g id="Grupo_57663" data-name="Grupo 57663" clip-path="url(#clip-path)">
    <path id="Trazado_106360" data-name="Trazado 106360" d="M81.532,56.089a97.909,97.909,0,0,0,8.394-7.877c8.032-8.572,10.866-15.546,8.2-20.167S88,22.39,76.56,25.06a97.955,97.955,0,0,0-11.019,3.331q-.562-3.164-1.257-6.087A6.894,6.894,0,0,0,60.491,9.65c-.133,0-.262.012-.394.02C57.118,3.315,53.533,0,49.549,0,44.212,0,39.59,5.942,36.183,17.183a97.9,97.9,0,0,0-2.625,11.208,97.968,97.968,0,0,0-11.02-3.331C11.1,22.392,3.644,23.423.975,28.045c-1.8,3.112-1.088,7.293,2.011,12.307a6.885,6.885,0,0,0,8.749,10.467q2.684,2.622,5.831,5.27a97.914,97.914,0,0,0-8.394,7.878C1.141,72.538-1.694,79.512.975,84.134c1.7,2.945,5.346,4.433,10.73,4.433a48.642,48.642,0,0,0,10.833-1.449,97.969,97.969,0,0,0,11.02-3.331c.448,2.524.958,4.944,1.53,7.232a6.884,6.884,0,0,0,4.493,12.665c2.86,5.583,6.239,8.494,9.968,8.494,5.337,0,9.959-5.941,13.366-17.183a98.107,98.107,0,0,0,2.626-11.208A97.956,97.956,0,0,0,76.56,87.118a48.649,48.649,0,0,0,10.833,1.449c5.382,0,9.029-1.488,10.73-4.433,2.669-4.622-.166-11.6-8.2-20.167a97.913,97.913,0,0,0-8.394-7.878m5.923-28.877c3.889,0,6.524.891,7.535,2.642,1.713,2.968-1.167,8.906-7.7,15.884a95.948,95.948,0,0,1-8.607,8.021c-3.431-2.722-7.177-5.421-11.165-8.041-.275-4.765-.741-9.359-1.382-13.691,8.747-3.227,16.15-4.815,21.323-4.815M56.872,68.772q-3.723,2.149-7.323,4-3.6-1.858-7.322-4-3.667-2.118-7.13-4.343-.189-4.04-.193-8.34t.193-8.34q3.458-2.219,7.13-4.343,3.723-2.149,7.322-4,3.6,1.857,7.322,4,3.668,2.118,7.13,4.343.189,4.041.193,8.34T64,64.429q-3.458,2.218-7.129,4.343m6.859.106c-.258,3.5-.615,6.818-1.059,9.942-2.927-1.179-5.982-2.529-9.138-4.055q2.571-1.375,5.147-2.859t5.05-3.028M45.564,74.765c-3.156,1.525-6.211,2.876-9.138,4.054-.444-3.124-.8-6.445-1.058-9.941q2.477,1.539,5.049,3.028t5.147,2.859M31.383,61.976c-2.846-1.935-5.551-3.905-8.082-5.887,2.531-1.982,5.236-3.952,8.082-5.887q-.094,2.915-.1,5.887t.1,5.887M35.368,43.3c.257-3.5.615-6.818,1.058-9.943,2.925,1.178,5.981,2.534,9.134,4.057q-2.568,1.375-5.142,2.858T35.368,43.3m18.17-5.886c3.153-1.524,6.21-2.88,9.134-4.057.444,3.124.8,6.446,1.059,9.943q-2.478-1.539-5.05-3.028t-5.143-2.858M67.716,50.2c2.846,1.935,5.551,3.9,8.081,5.887-2.53,1.982-5.235,3.952-8.081,5.887q.093-2.915.1-5.887t-.1-5.887M58.123,14.291q.94,2.487,1.782,5.477a3.265,3.265,0,0,1-1.782-5.477m5.648,2.257a3.251,3.251,0,0,1-.528,1.771c-.109-.38-.215-.765-.328-1.136-.394-1.3-.807-2.524-1.233-3.683a3.281,3.281,0,0,1,2.089,3.048M49.549,3.619c2.391,0,4.875,2.568,7.1,7.2a6.9,6.9,0,0,0,3.838,12.626c.118,0,.232-.012.349-.017q.688,2.95,1.26,6.267c-4.074,1.61-8.286,3.505-12.551,5.649C45.285,33.2,41.072,31.306,37,29.7c2.766-16.1,7.84-26.077,12.551-26.077M11.349,45.23c-1.108-1.208-2.108-2.382-2.988-3.513a3.272,3.272,0,0,1,3.014,3.253c0,.088-.019.172-.026.26m-6.532-.26a3.247,3.247,0,0,1,.354-1.453q1.676,2.2,3.889,4.571a3.241,3.241,0,0,1-.964.161A3.283,3.283,0,0,1,4.817,44.97m9.385,3.2A6.894,6.894,0,0,0,6.027,38.39C3.757,34.7,3.041,31.7,4.108,29.854c1.012-1.751,3.645-2.642,7.536-2.642,5.173,0,12.575,1.588,21.323,4.815-.642,4.332-1.108,8.927-1.383,13.691-3.988,2.62-7.733,5.319-11.164,8.041-2.247-1.869-4.329-3.738-6.218-5.59M4.108,82.324c-1.713-2.968,1.167-8.906,7.7-15.883a95.671,95.671,0,0,1,8.607-8.022c3.431,2.722,7.176,5.422,11.164,8.042.276,4.765.741,9.361,1.383,13.695C17.639,85.811,6.465,86.4,4.108,82.324M41.346,98.852c-.627-1.563-1.227-3.3-1.792-5.192a3.279,3.279,0,0,1,2.5,3.176,3.242,3.242,0,0,1-.713,2.016M35.5,96.836a3.25,3.25,0,0,1,.653-1.944c.011.034.02.07.03.1.548,1.808,1.13,3.462,1.739,4.993A3.276,3.276,0,0,1,35.5,96.836m14.049,11.723c-2.217,0-4.513-2.216-6.613-6.231a6.89,6.89,0,0,0-4.157-12.39c-.078,0-.154.01-.233.012-.571-2.309-1.09-4.805-1.548-7.467,4.074-1.611,8.286-3.506,12.551-5.65,4.265,2.144,8.477,4.039,12.551,5.65-2.766,16.1-7.84,26.076-12.551,26.076M94.99,82.324c-2.356,4.08-13.53,3.488-28.859-2.168.642-4.334,1.108-8.93,1.383-13.695,3.988-2.62,7.734-5.32,11.165-8.042a95.807,95.807,0,0,1,8.607,8.022c6.537,6.977,9.417,12.915,7.7,15.883" fill="#12263f"/>
    <path id="Trazado_106361" data-name="Trazado 106361" d="M49.549,47a9.089,9.089,0,1,0,9.089,9.089A9.1,9.1,0,0,0,49.549,47m0,14.559a5.47,5.47,0,1,1,5.47-5.47,5.476,5.476,0,0,1-5.47,5.47" fill="#12263f"/>
  </g>
</svg>
