<svg xmlns="http://www.w3.org/2000/svg" xmlns:xlink="http://www.w3.org/1999/xlink" width="133" height="133" viewBox="0 0 133 133">
  <defs>
    <clipPath id="clip-path">
      <rect id="Rectángulo_6433" data-name="Rectángulo 6433" width="70.338" height="68.074" fill="none"/>
    </clipPath>
  </defs>
  <g id="Grupo_80467" data-name="Grupo 80467" transform="translate(-1085 -1263)">
    <circle id="Elipse_1347" data-name="Elipse 1347" cx="66.5" cy="66.5" r="66.5" transform="translate(1085 1263)" fill="#adc46c"/>
    <g id="Grupo_57823" data-name="Grupo 57823" transform="translate(1116 1295.001)">
      <g id="Grupo_57822" data-name="Grupo 57822" transform="translate(0 0)" clip-path="url(#clip-path)">
        <path id="Trazado_113552" data-name="Trazado 113552" d="M61.814,1H40.9a1.541,1.541,0,0,0-1.045.412L11.484,27.944a1.526,1.526,0,0,0-.088,2.143l3.059,3.377a1.51,1.51,0,0,0,1.068.5c.023,0,.043,0,.065,0a1.522,1.522,0,0,0,1.044-.412L43.27,8.651h12.5v22.1a1.529,1.529,0,0,0,1.53,1.528h4.519a1.528,1.528,0,0,0,1.53-1.528V2.533A1.529,1.529,0,0,0,61.814,1" transform="translate(6.994 0.639)" fill="#f15c00"/>
        <path id="Trazado_113553" data-name="Trazado 113553" d="M62.221,10.143H25.509a1.519,1.519,0,0,0-1.04.412L10.841,23.3a1.525,1.525,0,0,0-.483,1.116V60.1a1.527,1.527,0,0,0,1.526,1.528H62.221a1.528,1.528,0,0,0,1.53-1.528V11.673a1.528,1.528,0,0,0-1.53-1.53" transform="translate(6.587 6.451)" fill="#f15c00"/>
        <path id="Trazado_113554" data-name="Trazado 113554" d="M48.747,14.452V53.661a1.534,1.534,0,0,1-1.53,1.526H26.529V12.921H47.217a1.538,1.538,0,0,1,1.53,1.531" transform="translate(16.871 8.218)" fill="#d7b800"/>
        <path id="Trazado_113555" data-name="Trazado 113555" d="M26.095,16.128,11.854,4.021a1.524,1.524,0,0,0-2.019.036L4.32,9.074a1.531,1.531,0,0,0-.254,1.963L14.29,26.8a4.2,4.2,0,0,1,.226,1.734c0,.065.993-1.036,1.057-1.036a1.531,1.531,0,0,0,1.031-.4l9.528-8.679c.326-.294,1.525-1.539,1.122-1.714a4.009,4.009,0,0,1-1.158-.581" transform="translate(2.43 2.326)" fill="#f15c00"/>
        <path id="Trazado_113556" data-name="Trazado 113556" d="M13.631,5.606,12.545,1.165A1.53,1.53,0,0,0,10.03.4L.5,9.078A1.526,1.526,0,0,0,1.16,11.69l4.68,1.168a1.6,1.6,0,0,0,.371.044,1.529,1.529,0,0,0,1.029-.4L13.178,7.1a1.53,1.53,0,0,0,.453-1.494" transform="translate(0 0.001)" fill="#f15c00"/>
        <path id="Trazado_113557" data-name="Trazado 113557" d="M51.309,32.771A17.739,17.739,0,1,1,33.572,15.034,17.737,17.737,0,0,1,51.309,32.771" transform="translate(10.068 9.562)" fill="#fff"/>
        <path id="Trazado_113558" data-name="Trazado 113558" d="M30.267,17.484l-.653-1.1-.658,1.1c-.281.473-6.9,11.6-6.9,17.025,0,5.114,2.753,8.051,7.556,8.051s7.555-2.937,7.555-8.051c0-5.422-6.619-16.553-6.9-17.025" transform="translate(14.028 10.423)" fill="#81bd1f"/>
      </g>
    </g>
  </g>
</svg>
