<svg id="Grupo_57671" data-name="Grupo 57671" xmlns="http://www.w3.org/2000/svg" xmlns:xlink="http://www.w3.org/1999/xlink" width="104.776" height="112.178" viewBox="0 0 104.776 112.178">
  <defs>
    <clipPath id="clip-path">
      <rect id="Rectángulo_6314" data-name="Rectángulo 6314" width="104.776" height="112.178" transform="translate(0 0)" fill="#12263f"/>
    </clipPath>
  </defs>
  <g id="Grupo_57651" data-name="Grupo 57651" clip-path="url(#clip-path)">
    <path id="Trazado_106342" data-name="Trazado 106342" d="M104.554,99.634,82.349,58.924a1.809,1.809,0,0,0-1.588-.943H24.015a1.809,1.809,0,0,0-1.588.943L.221,99.634a1.809,1.809,0,0,0,1.588,2.676H8.018v8.059a1.809,1.809,0,0,0,1.81,1.809h85.12a1.808,1.808,0,0,0,1.809-1.809V102.31h6.209a1.809,1.809,0,0,0,1.588-2.676m-35.345-.943H35.567l3.01-12.419H66.2ZM39.454,82.654,41.867,72.7H62.909l2.412,9.951ZM19.033,72.7h19.11l-2.412,9.951H13.6Zm47.6,0h19.11l5.428,9.951H69.045Zm17.136-3.619H65.755L63.941,61.6H79.687ZM60.218,61.6l1.814,7.484H42.744L44.558,61.6Zm-35.129,0H40.835L39.02,69.084H21.007ZM11.631,86.272H34.853l-3.01,12.419H4.857ZM93.139,108.56h-81.5v-6.25h81.5Zm1.809-9.869H72.933L69.922,86.272H93.145l6.774,12.419Z" fill="#12263f"/>
    <path id="Trazado_106343" data-name="Trazado 106343" d="M30.8,25.208h4.455A17.142,17.142,0,0,0,39,34.224l-3.159,3.16A1.809,1.809,0,1,0,38.4,39.942l3.16-3.159a17.138,17.138,0,0,0,9.017,3.747v4.456a1.809,1.809,0,0,0,3.618,0V40.53a17.144,17.144,0,0,0,9.018-3.747l3.159,3.159a1.809,1.809,0,1,0,2.558-2.558l-3.159-3.16a17.142,17.142,0,0,0,3.748-9.016h4.455a1.809,1.809,0,1,0,0-3.619H69.521a17.145,17.145,0,0,0-3.748-9.018l3.159-3.159a1.809,1.809,0,1,0-2.558-2.559l-3.159,3.16A17.145,17.145,0,0,0,54.2,6.265V1.809a1.809,1.809,0,1,0-3.618,0V6.265a17.139,17.139,0,0,0-9.017,3.748L38.4,6.853a1.809,1.809,0,0,0-2.558,2.559L39,12.571a17.145,17.145,0,0,0-3.748,9.018H30.8a1.809,1.809,0,0,0,0,3.619M52.388,9.787A13.611,13.611,0,1,1,38.777,23.4,13.626,13.626,0,0,1,52.388,9.787" fill="#12263f"/>
  </g>
</svg>
