<svg id="Grupo_56826" data-name="Grupo 56826" xmlns="http://www.w3.org/2000/svg" xmlns:xlink="http://www.w3.org/1999/xlink" width="77.627" height="105" viewBox="0 0 77.627 105">
  <defs>
    <clipPath id="clip-path">
      <rect id="Rectángulo_5727" data-name="Rectángulo 5727" width="77.627" height="105" fill="#12263f"/>
    </clipPath>
  </defs>
  <g id="Grupo_56825" data-name="Grupo 56825" transform="translate(0 0)" clip-path="url(#clip-path)">
    <path id="Trazado_105145" data-name="Trazado 105145" d="M24.846,48.141l-.1,0a1.693,1.693,0,0,1-1.587-1.791c.362-6.064,5.039-8.877,8.387-9.806V21.632a1.691,1.691,0,0,1,3.381,0V37.911a1.688,1.688,0,0,1-1.47,1.676c-.262.037-6.564.988-6.923,6.965a1.692,1.692,0,0,1-1.687,1.589" transform="translate(19.865 17.108)" fill="#12263f"/>
    <path id="Trazado_105146" data-name="Trazado 105146" d="M44.857,71.3H14.9A1.693,1.693,0,0,1,13.2,69.608V63.627A40.15,40.15,0,0,0,11.4,51.716L9.684,46.194a1.671,1.671,0,0,1-.076-.5V41.436a1.691,1.691,0,0,1,3.381,0v4l1.639,5.277a43.541,43.541,0,0,1,1.958,12.913v4.29h26.58V57.279a1.691,1.691,0,0,1,.453-1.152l7.344-7.889a11.115,11.115,0,0,0,2.988-7.593V24.4a3.88,3.88,0,0,0-3.365-3.969,3.706,3.706,0,0,0-4.039,3.688,1.691,1.691,0,0,1-3.381,0,7.083,7.083,0,0,1,7.712-7.056A7.281,7.281,0,0,1,57.335,24.4V40.644a14.487,14.487,0,0,1-3.894,9.9l-6.893,7.4V69.608A1.691,1.691,0,0,1,44.857,71.3" transform="translate(8.243 14.616)" fill="#12263f"/>
    <path id="Trazado_105147" data-name="Trazado 105147" d="M46.135,56.5H12.152a1.691,1.691,0,0,1-1.691-1.693V46.115a1.691,1.691,0,0,1,1.691-1.693H46.135a1.691,1.691,0,0,1,1.691,1.693v8.693A1.691,1.691,0,0,1,46.135,56.5M13.842,53.117h30.6V47.805h-30.6Z" transform="translate(8.975 38.111)" fill="#12263f"/>
    <path id="Trazado_105148" data-name="Trazado 105148" d="M54.905,62.873H8.923a1.691,1.691,0,0,1-1.691-1.691V50.793A1.691,1.691,0,0,1,8.923,49.1H54.905A1.692,1.692,0,0,1,56.6,50.793v10.39a1.692,1.692,0,0,1-1.693,1.691M10.613,59.492h42.6V52.485h-42.6Z" transform="translate(6.205 42.127)" fill="#12263f"/>
    <path id="Trazado_105149" data-name="Trazado 105149" d="M75.936,57.743H63.885a1.691,1.691,0,0,1-1.691-1.691V38.738a3.7,3.7,0,1,0-7.4,0V56.052A1.69,1.69,0,0,1,53.1,57.743H1.691A1.69,1.69,0,0,1,0,56.052V1.691A1.69,1.69,0,0,1,1.691,0H75.936a1.69,1.69,0,0,1,1.691,1.691V7.1a1.691,1.691,0,1,1-3.381,0V3.381H3.381v50.98H51.409V38.738a7.083,7.083,0,1,1,14.167,0V54.362h8.669V16.207a1.691,1.691,0,1,1,3.381,0V56.052a1.69,1.69,0,0,1-1.691,1.691" transform="translate(0 0)" fill="#12263f"/>
    <path id="Trazado_105150" data-name="Trazado 105150" d="M34.315,8.182H17.531a1.691,1.691,0,0,1,0-3.381H34.315a1.691,1.691,0,0,1,0,3.381" transform="translate(13.59 4.119)" fill="#12263f"/>
    <path id="Trazado_105151" data-name="Trazado 105151" d="M60.39,12.3H7.931a1.691,1.691,0,1,1,0-3.381H60.39a1.691,1.691,0,1,1,0,3.381" transform="translate(5.354 7.649)" fill="#12263f"/>
    <path id="Trazado_105152" data-name="Trazado 105152" d="M60.39,16.411H7.931a1.691,1.691,0,1,1,0-3.381H60.39a1.691,1.691,0,1,1,0,3.381" transform="translate(5.354 11.179)" fill="#12263f"/>
    <path id="Trazado_105153" data-name="Trazado 105153" d="M50.545,20.525H7.932a1.691,1.691,0,1,1,0-3.381H50.545a1.691,1.691,0,0,1,0,3.381" transform="translate(5.353 14.708)" fill="#12263f"/>
    <path id="Trazado_105154" data-name="Trazado 105154" d="M47.747,24.64H7.931a1.691,1.691,0,1,1,0-3.381H47.747a1.691,1.691,0,1,1,0,3.381" transform="translate(5.354 18.239)" fill="#12263f"/>
    <path id="Trazado_105155" data-name="Trazado 105155" d="M74.321,58.075H1.776a1.691,1.691,0,1,1,0-3.381H74.321a1.691,1.691,0,1,1,0,3.381" transform="translate(0.071 46.924)" fill="#12263f"/>
  </g>
</svg>
