<svg id="Grupo_57672" data-name="Grupo 57672" xmlns="http://www.w3.org/2000/svg" xmlns:xlink="http://www.w3.org/1999/xlink" width="83.643" height="112.178" viewBox="0 0 83.643 112.178">
  <defs>
    <clipPath id="clip-path">
      <rect id="Rectángulo_6313" data-name="Rectángulo 6313" width="83.643" height="112.178" transform="translate(0 0)" fill="#12263f"/>
    </clipPath>
  </defs>
  <g id="Grupo_57649" data-name="Grupo 57649" clip-path="url(#clip-path)">
    <path id="Trazado_106338" data-name="Trazado 106338" d="M60.225,22.921A11.46,11.46,0,1,0,48.765,11.46a11.472,11.472,0,0,0,11.46,11.461m0-19.3a7.842,7.842,0,1,1-7.841,7.841,7.85,7.85,0,0,1,7.841-7.841" fill="#12263f"/>
    <path id="Trazado_106339" data-name="Trazado 106339" d="M68.186,24.042H48.844a6.146,6.146,0,0,0-4.377,1.812L21.922,48.4a6.184,6.184,0,0,0-.393,8.5,6.016,6.016,0,0,0,4.348,2.007,6.154,6.154,0,0,0,4.443-1.773l14.9-14.9V63.923a1.823,1.823,0,0,0-.043.394v40.44a7.046,7.046,0,0,0,7.734,7.013,7.222,7.222,0,0,0,6.36-7.238V72.051a.955.955,0,0,1,1.06-.949,1.07,1.07,0,0,1,.848,1.106v32.549a7.045,7.045,0,0,0,7.062,7.046q.334,0,.671-.032a7.223,7.223,0,0,0,6.361-7.238V63.467h.874a7.5,7.5,0,0,0,7.5-7.5V39.5A15.473,15.473,0,0,0,68.186,24.042M80.025,55.971a3.882,3.882,0,0,1-3.878,3.877h-.874V36.669a1.81,1.81,0,0,0-3.619,0v67.864a3.579,3.579,0,0,1-3.085,3.636,3.43,3.43,0,0,1-3.771-3.412V72.208A4.7,4.7,0,0,0,60.69,67.5c-.152-.015-.305-.022-.457-.022a4.571,4.571,0,0,0-4.581,4.572v32.481a3.578,3.578,0,0,1-3.085,3.636,3.43,3.43,0,0,1-3.772-3.411V64.711a1.768,1.768,0,0,0,.043-.394V37.871a1.809,1.809,0,0,0-3.088-1.279L27.762,54.58a2.38,2.38,0,0,1-1.79.714,2.424,2.424,0,0,1-1.754-.811,2.6,2.6,0,0,1,.262-3.525L47.026,28.413a2.555,2.555,0,0,1,1.818-.753H68.186A11.852,11.852,0,0,1,80.025,39.5Z" fill="#12263f"/>
    <path id="Trazado_106340" data-name="Trazado 106340" d="M16.978,69.732h6.01a1.81,1.81,0,0,0,1.81-1.81v-6.01a1.809,1.809,0,0,0-1.81-1.809h-6.01a1.808,1.808,0,0,0-1.809,1.809v6.01a1.809,1.809,0,0,0,1.809,1.81m1.809-6.011h2.392v2.392H18.787Z" fill="#12263f"/>
    <path id="Trazado_106341" data-name="Trazado 106341" d="M36.789,73.579H1.809a1.809,1.809,0,0,0,0,3.619h1.1l2.038,29.558a5.841,5.841,0,0,0,5.809,5.422H27.438a5.857,5.857,0,0,0,5.8-5.347L35.667,77.2h1.122a1.809,1.809,0,1,0,0-3.619m-7.155,32.956a2.216,2.216,0,0,1-2.2,2.024H10.757a2.21,2.21,0,0,1-2.2-2.051L6.537,77.2h25.5Z" fill="#12263f"/>
  </g>
</svg>
