<svg id="Grupo_57670" data-name="Grupo 57670" xmlns="http://www.w3.org/2000/svg" xmlns:xlink="http://www.w3.org/1999/xlink" width="112.178" height="111.067" viewBox="0 0 112.178 111.067">
  <defs>
    <clipPath id="clip-path">
      <rect id="Rectángulo_6315" data-name="Rectángulo 6315" width="112.178" height="111.067" fill="#12263f"/>
    </clipPath>
  </defs>
  <g id="Grupo_57653" data-name="Grupo 57653" clip-path="url(#clip-path)">
    <path id="Trazado_106344" data-name="Trazado 106344" d="M112.178,40.257a1.81,1.81,0,0,0-.764-1.476L57.135.333a1.809,1.809,0,0,0-2.092,0L.763,38.781A1.811,1.811,0,0,0,0,40.257V51.038a1.809,1.809,0,0,0,2.855,1.476L14.383,44.35v63.1H1.83a1.809,1.809,0,0,0,0,3.618H110.347a1.809,1.809,0,0,0,0-3.618H97.795V44.35l11.527,8.164a1.809,1.809,0,0,0,2.777-2,1.809,1.809,0,0,0,.079-.528Zm-18,1.529V107.4H18V41.786L56.089,14.807Zm14.383,5.753L57.135,11.114a1.806,1.806,0,0,0-2.092,0l-39.9,28.259h0L3.619,47.539V41.193L56.089,4.027l52.47,37.166Z" fill="#12263f"/>
    <path id="Trazado_106345" data-name="Trazado 106345" d="M34.794,85.941c6.429,6.423,16.343,7.444,22,7.444a38.106,38.106,0,0,0,4.331-.219c.013,0,.024-.01.038-.011a1.794,1.794,0,0,0,.5-.151c.03-.014.057-.03.087-.045a1.8,1.8,0,0,0,.431-.31l0,0a1.8,1.8,0,0,0,.307-.428c.016-.03.032-.057.046-.087a1.82,1.82,0,0,0,.149-.5c0-.015.01-.026.012-.04,0-.035.072-.612.131-1.572C67.7,89.533,73.81,88,78.125,83.682c8.1-8.094,6.417-22.462,6.342-23.07a1.808,1.808,0,0,0-1.573-1.573c-.611-.075-14.976-1.753-23.07,6.343a18.035,18.035,0,0,0-2.11,2.559,20.359,20.359,0,0,0-2.239-2.683c-9.229-9.218-25.642-7.309-26.333-7.225a1.809,1.809,0,0,0-1.573,1.574c-.086.694-2,17.1,7.225,26.334m27.589-18c5.477-5.477,14.979-5.6,18.6-5.419.183,3.624.073,13.109-5.421,18.6-3.463,3.463-8.511,4.788-12.683,5.252q-.031-1.552-.154-3.04L75.212,70.853a1.809,1.809,0,1,0-2.559-2.558L62.118,78.831a31.428,31.428,0,0,0-2.338-7.315,15.214,15.214,0,0,1,2.6-3.576M31.046,61.511c4.009-.22,15.359-.2,21.871,6.306a18.038,18.038,0,0,1,3.231,4.5,29.734,29.734,0,0,1,2.919,10.514c.144,1.394.2,2.862.207,4.353L40.711,68.617a1.809,1.809,0,0,0-2.558,2.559L53.827,86.851l1.414,1.414,1.482,1.481c-5.09-.018-13.917-.916-19.37-6.363-6.505-6.512-6.527-17.853-6.307-21.872" fill="#12263f"/>
  </g>
</svg>
