<svg id="Grupo_57891" data-name="Grupo 57891" xmlns="http://www.w3.org/2000/svg" xmlns:xlink="http://www.w3.org/1999/xlink" width="32.82" height="42.918" viewBox="0 0 32.82 42.918">
  <defs>
    <clipPath id="clip-path">
      <rect id="Rectángulo_6479" data-name="Rectángulo 6479" width="32.82" height="42.918" fill="none"/>
    </clipPath>
  </defs>
  <path id="Trazado_113644" data-name="Trazado 113644" d="M40.425,88.233l4.923-3.719,1.344,8.454Zm-7.945-3.807,5.039,3.807L31.1,93.081Zm.312-1.96.053-.331,6.128-4.63,5.979,4.519.084.531-6.063,4.582Zm7.633-6.059,3.243-2.451.886,5.571ZM34.16,73.868l3.36,2.539-4.277,3.232Zm8.9-3.734.3,1.862-4.384,3.313-4.5-3.4.282-1.773-1.73-.275L29.257,93.544l1.02.162-.666.5,1.056,1.4,8.305-6.275,8.305,6.275,1.056-1.4-.688-.52.912-.145L44.791,69.859Z" transform="translate(-22.14 -52.865)" fill="#517774"/>
  <path id="Trazado_113645" data-name="Trazado 113645" d="M75.5,86.7l-3.244,2.451,4.13,3.12-.089-.558-3.391-2.562,2.664-2.013Z" transform="translate(-54.68 -65.611)" fill="#446360"/>
  <path id="Trazado_113646" data-name="Trazado 113646" d="M35.9,130.179l-.579-.438L33.94,138.4l.738-.558Z" transform="translate(-25.684 -98.18)" fill="#446360"/>
  <path id="Trazado_113647" data-name="Trazado 113647" d="M47.385,110.674,41.53,106.25l.053-.331,5.8-4.385-.325-.245-6.128,4.63-.052.331,6.18,4.67Z" transform="translate(-30.936 -76.65)" fill="#446360"/>
  <path id="Trazado_113648" data-name="Trazado 113648" d="M42.727,92.111l.738-.558.759-4.775-.579-.438Z" transform="translate(-32.333 -65.337)" fill="#446360"/>
  <path id="Trazado_113649" data-name="Trazado 113649" d="M90.272,69.959l3.75,23.584-.912.145.689.52-.821,1.085.413.312,1.057-1.4-.688-.52.912-.145L90.9,69.858Z" transform="translate(-68.312 -52.865)" fill="#446360"/>
  <path id="Trazado_113650" data-name="Trazado 113650" d="M77.18,130.1l-4.923,3.719,6.267,4.735L78.436,138l-5.529-4.178,4.343-3.282Z" transform="translate(-54.68 -98.454)" fill="#446360"/>
  <path id="Trazado_113651" data-name="Trazado 113651" d="M33.841,155.869l.237.313,7.98-6.03-.325-.245Z" transform="translate(-25.609 -113.441)" fill="#446360"/>
  <path id="Trazado_113652" data-name="Trazado 113652" d="M45.528,70.134l-.282,1.773,4.5,3.4.325-.245L45.9,71.907l.282-1.773-1.731-.275-.016.1Z" transform="translate(-33.623 -52.865)" fill="#446360"/>
  <g id="Grupo_57890" data-name="Grupo 57890">
    <g id="Grupo_57889" data-name="Grupo 57889" clip-path="url(#clip-path)">
      <path id="Trazado_113653" data-name="Trazado 113653" d="M14.4,36.172a.336.336,0,0,0,.479-.449C13.171,32.83,8.942,27.2,3.092,29.746c-7.733,3.365,1,9.5,4.9,6.376,2.49-2,4.957-.961,6.413.05" transform="translate(0 -22.023)" fill="#2f4442"/>
      <path id="Trazado_113654" data-name="Trazado 113654" d="M74.06,36.172a.336.336,0,0,1-.479-.449c1.713-2.893,5.941-8.522,11.791-5.977,7.733,3.365-1,9.5-4.9,6.376-2.49-2-4.957-.961-6.412.05" transform="translate(-55.645 -22.023)" fill="#2f4442"/>
      <path id="Trazado_113655" data-name="Trazado 113655" d="M57.423,10.439S62.086,4.064,58.9,1.23,52.936.994,53,3.651s3.778,8.442,3.778,8.442Z" transform="translate(-40.103 0)" fill="#2f4442"/>
      <path id="Trazado_113656" data-name="Trazado 113656" d="M39.663,165.195H14.2a.759.759,0,0,1-.757-.757v-2.1a.759.759,0,0,1,.757-.757H39.663a.759.759,0,0,1,.757.757v2.1a.759.759,0,0,1-.757.757" transform="translate(-10.172 -122.277)" fill="#517774"/>
      <path id="Trazado_113657" data-name="Trazado 113657" d="M39.712,161.583H14.15a.71.71,0,0,0-.708.708v.177H38.236a.71.71,0,0,1,.708.708v2.018h.767a.71.71,0,0,0,.708-.708v-2.2a.71.71,0,0,0-.708-.708" transform="translate(-10.172 -122.277)" fill="#3c5654"/>
      <path id="Trazado_113658" data-name="Trazado 113658" d="M53.565,66.842H41.276a.76.76,0,0,1-.758-.757v-.378a.76.76,0,0,1,.758-.758h12.29a.76.76,0,0,1,.758.758v.378a.759.759,0,0,1-.758.757" transform="translate(-30.662 -49.15)" fill="#517774"/>
    </g>
  </g>
</svg>
