<svg id="Grupo_57871" data-name="Grupo 57871" xmlns="http://www.w3.org/2000/svg" xmlns:xlink="http://www.w3.org/1999/xlink" width="37.784" height="47.634" viewBox="0 0 37.784 47.634">
  <defs>
    <clipPath id="clip-path">
      <rect id="Rectángulo_6475" data-name="Rectángulo 6475" width="37.784" height="47.634" fill="none"/>
    </clipPath>
  </defs>
  <g id="Grupo_57870" data-name="Grupo 57870" clip-path="url(#clip-path)">
    <path id="Trazado_113627" data-name="Trazado 113627" d="M36.014,41.181V25.707c1.134-.583,1.77-1.233,1.77-1.919s-.636-1.337-1.77-1.919V6.421c1.1-.575,1.709-1.214,1.709-1.888C37.723,2.029,29.279,0,18.862,0S0,2.029,0,4.533c0,.623.521,1.215,1.465,1.755V22.068c-.9.531-1.4,1.111-1.4,1.719s.5,1.189,1.4,1.718V41.382c-.9.53-1.4,1.111-1.4,1.719,0,2.5,8.445,4.534,18.862,4.534S37.784,45.6,37.784,43.1c0-.686-.636-1.337-1.77-1.92" fill="#8fb7b3"/>
    <path id="Trazado_113628" data-name="Trazado 113628" d="M22.873,129.052c7.616,0,14.137-1.077,16.841-2.606-1.524,1.82-8.484,3.195-16.841,3.195s-15.317-1.375-16.841-3.195c2.7,1.529,9.225,2.606,16.841,2.606" transform="translate(-3.951 -84.362)" fill="#688e8a"/>
    <path id="Trazado_113629" data-name="Trazado 113629" d="M22.7,7.664c7.616,0,14.137,1.078,16.841,2.606C38.014,8.45,31.054,7.075,22.7,7.075S7.381,8.45,5.856,10.27c2.7-1.528,9.225-2.606,16.841-2.606" transform="translate(-3.835 -4.72)" fill="#688e8a"/>
    <path id="Trazado_113630" data-name="Trazado 113630" d="M47.214,49.04a3.713,3.713,0,0,1,1.407.275l2.57-6.007a7.843,7.843,0,0,0-7.954,0l2.57,6.007a3.715,3.715,0,0,1,1.407-.275" transform="translate(-28.319 -28.171)" fill="#587773"/>
    <path id="Trazado_113631" data-name="Trazado 113631" d="M32.155,75.723A3.383,3.383,0,0,1,31.7,74.41l-6.678.856A7.289,7.289,0,0,0,29,81.91l4.108-5.15a3.513,3.513,0,0,1-.951-1.038" transform="translate(-16.388 -49.645)" fill="#587773"/>
    <path id="Trazado_113632" data-name="Trazado 113632" d="M62.439,74.434a3.4,3.4,0,0,1-.456,1.313,3.515,3.515,0,0,1-.951,1.038l4.108,5.15a7.291,7.291,0,0,0,3.977-6.644Z" transform="translate(-39.974 -49.661)" fill="#587773"/>
    <path id="Trazado_113633" data-name="Trazado 113633" d="M50.792,67.086A2.019,2.019,0,1,0,52.884,69.1a2.056,2.056,0,0,0-2.092-2.018" transform="translate(-31.897 -44.758)" fill="#587773"/>
    <path id="Trazado_113634" data-name="Trazado 113634" d="M43.673,43.518a7.772,7.772,0,0,1,7.29-.33,7.812,7.812,0,0,0-7.725.12l2.57,6.007c.1-.04.2-.075.3-.106Z" transform="translate(-28.319 -28.171)" fill="#405b57"/>
    <path id="Trazado_113635" data-name="Trazado 113635" d="M25.456,75.477l6.288-.806c-.019-.088-.034-.173-.045-.261l-6.678.856A7.288,7.288,0,0,0,29,81.91l.028-.035a7.222,7.222,0,0,1-3.569-6.4" transform="translate(-16.388 -49.645)" fill="#405b57"/>
    <path id="Trazado_113636" data-name="Trazado 113636" d="M61.468,77a3.514,3.514,0,0,0,.95-1.038,3.383,3.383,0,0,0,.457-1.313l6.239.8c0-.051,0-.1,0-.154l-6.678-.856a3.392,3.392,0,0,1-.456,1.313,3.519,3.519,0,0,1-.95,1.038l4.108,5.15c.061-.035.122-.072.182-.107Z" transform="translate(-39.975 -49.661)" fill="#405b57"/>
    <path id="Trazado_113637" data-name="Trazado 113637" d="M49.136,69.314A2.056,2.056,0,0,1,51.227,67.3a2.142,2.142,0,0,1,.709.12,2.133,2.133,0,0,0-1.145-.33A2.056,2.056,0,0,0,48.7,69.1,2.024,2.024,0,0,0,50.083,71a2,2,0,0,1-.947-1.688" transform="translate(-31.897 -44.758)" fill="#405b57"/>
  </g>
</svg>
