<svg id="Grupo_57668" data-name="Grupo 57668" xmlns="http://www.w3.org/2000/svg" xmlns:xlink="http://www.w3.org/1999/xlink" width="112.181" height="101.322" viewBox="0 0 112.181 101.322">
  <defs>
    <clipPath id="clip-path">
      <rect id="Rectángulo_6317" data-name="Rectángulo 6317" width="112.181" height="101.322" transform="translate(0 0)" fill="#12263f"/>
    </clipPath>
  </defs>
  <g id="Grupo_57657" data-name="Grupo 57657" clip-path="url(#clip-path)">
    <path id="Trazado_106351" data-name="Trazado 106351" d="M111.352,66.761a7.515,7.515,0,0,0-9.9-3.312L75.912,75.814H69.361a8.035,8.035,0,0,0,1.282-5.22,8.256,8.256,0,0,0-8.27-7.2H37.826a1.823,1.823,0,0,0-.688.136L18.3,71.285a4.188,4.188,0,0,0-3.979-2.923H4.2A4.2,4.2,0,0,0,0,72.56V97.124a4.2,4.2,0,0,0,4.2,4.2H14.324a4.2,4.2,0,0,0,4.084-3.261H39.069a1.761,1.761,0,0,0,.339-.032l42.743-8.166a1.792,1.792,0,0,0,.477-.162l25.449-12.862a7.47,7.47,0,0,0,3.275-10.078M14.9,97.124a.58.58,0,0,1-.58.579H4.2a.58.58,0,0,1-.58-.579V72.56a.58.58,0,0,1,.58-.58H14.324a.58.58,0,0,1,.58.58V97.124ZM108.37,71.363a3.829,3.829,0,0,1-1.926,2.246L81.223,86.357,38.9,94.443H18.522V75.108l19.663-8.1H62.373a4.609,4.609,0,0,1,4.671,3.945,4.359,4.359,0,0,1-1.116,3.4,4.413,4.413,0,0,1-3.262,1.458H41.552a1.809,1.809,0,0,0,0,3.618H76.328a1.822,1.822,0,0,0,.788-.18l25.912-12.546a3.875,3.875,0,0,1,5.105,1.708,3.826,3.826,0,0,1,.237,2.949" fill="#12263f"/>
    <path id="Trazado_106352" data-name="Trazado 106352" d="M59.707,27.743h6.635V45.889c-8.368.47-14.475,4.178-14.475,8.994a1.808,1.808,0,0,0,1.809,1.809H82.625a1.809,1.809,0,0,0,1.81-1.809c0-4.816-6.107-8.524-14.475-8.994V32.568h6.634a17.511,17.511,0,0,0,17.491-17.49V6.635a1.81,1.81,0,0,0-1.81-1.81H83.832a17.484,17.484,0,0,0-14.567,7.83A17.511,17.511,0,0,0,52.47,0H44.027a1.809,1.809,0,0,0-1.81,1.809v8.444a17.51,17.51,0,0,0,17.49,17.49M56.331,53.074c1.792-1.938,6.269-3.619,11.82-3.619s10.028,1.681,11.82,3.619Zm27.5-44.63h6.634v6.634A13.887,13.887,0,0,1,76.594,28.95H72.519L83.9,17.563a1.809,1.809,0,0,0-2.559-2.558L69.96,26.391V22.315A13.887,13.887,0,0,1,83.832,8.444m-38-4.825H52.47A13.888,13.888,0,0,1,66.342,17.491v4.075L53.749,8.974a1.809,1.809,0,0,0-2.558,2.559L63.783,24.125H59.707A13.887,13.887,0,0,1,45.836,10.253Z" fill="#12263f"/>
  </g>
</svg>
