<svg xmlns="http://www.w3.org/2000/svg" xmlns:xlink="http://www.w3.org/1999/xlink" width="51.591" height="57.688" viewBox="0 0 51.591 57.688">
  <defs>
    <clipPath id="clip-path">
      <rect id="Rectángulo_5910" data-name="Rectángulo 5910" width="51.591" height="57.688" fill="#fff"/>
    </clipPath>
  </defs>
  <g id="Grupo_57265" data-name="Grupo 57265" transform="translate(0 0)">
    <g id="Grupo_57041" data-name="Grupo 57041" transform="translate(0 0.001)" clip-path="url(#clip-path)">
      <path id="Trazado_105811" data-name="Trazado 105811" d="M49.184,13.734a3.152,3.152,0,0,0,.747-2A3.775,3.775,0,0,0,46.94,8.314a4.13,4.13,0,0,0,.218-1.3c0-2.779-2.781-5.032-6.212-5.032a7.541,7.541,0,0,0-1.426.139A4.635,4.635,0,0,0,35.452,0,4.6,4.6,0,0,0,31.3,2.249a5.237,5.237,0,0,0-2.851-.813c-2.52,0-4.562,1.655-4.562,3.7,0,.1.009.189.018.283a6.329,6.329,0,0,0-3.6-1.078,5.633,5.633,0,0,0-5.171,2.881,4.418,4.418,0,0,0-.978-.12c-2.036,0-3.686,1.337-3.686,2.987a2.447,2.447,0,0,0,.063.51,12.417,12.417,0,0,0-4.354,2.727c-1.478,1.492-3.048,4.9-2.934,5.446H4.942a4.81,4.81,0,0,1,2.439-2,4.7,4.7,0,0,1,2.7.959,5.969,5.969,0,0,0,1.495,1.043l0,0h0a7.125,7.125,0,0,0,3.022.726,6.766,6.766,0,0,0-1.613,2.384,14.432,14.432,0,0,0-.8,7.32h1.98s-.64-6.092,2.971-6.354a32.327,32.327,0,0,1,4.947.276,6.935,6.935,0,0,0,.961.912,13.344,13.344,0,0,0-.191,5.165h1.98a11.255,11.255,0,0,1,.363-3.973,9.287,9.287,0,0,0,3.26.585,9.583,9.583,0,0,0,1.56-.127,7.954,7.954,0,0,0,.874.191c.787,2.435,3.512,4.234,6.765,4.234A7.566,7.566,0,0,0,43.4,27.672c3.269-.422,5.77-2.711,5.77-5.478a4.57,4.57,0,0,0-.032-.516A4.482,4.482,0,0,0,52.109,17.7a4.472,4.472,0,0,0-2.925-3.962" transform="translate(-0.519 0)" fill="#fff"/>
      <path id="Trazado_105812" data-name="Trazado 105812" d="M43.968,43.175,37.8,47.963V43.175l-6.773,5.258h-2.2l-1.7-14.6H19.749l-1.7,14.6h-.2l-1.7-14.6H8.775l-1.7,14.6h-.17L5.962,24.2H1.116L.169,48.432H0V61.563H50.137V43.175l-6.169,4.788Z" transform="translate(0 -3.875)" fill="#fff"/>
    </g>
  </g>
</svg>
