<svg id="Grupo_57869" data-name="Grupo 57869" xmlns="http://www.w3.org/2000/svg" xmlns:xlink="http://www.w3.org/1999/xlink" width="28.927" height="47.634" viewBox="0 0 28.927 47.634">
  <defs>
    <clipPath id="clip-path">
      <rect id="Rectángulo_6474" data-name="Rectángulo 6474" width="28.927" height="47.634" fill="none"/>
    </clipPath>
    <clipPath id="clip-path-3">
      <rect id="Rectángulo_6466" data-name="Rectángulo 6466" width="27.837" height="5.705" fill="none"/>
    </clipPath>
    <clipPath id="clip-path-5">
      <rect id="Rectángulo_6468" data-name="Rectángulo 6468" width="7.365" height="40.337" fill="none"/>
    </clipPath>
    <clipPath id="clip-path-6">
      <rect id="Rectángulo_6469" data-name="Rectángulo 6469" width="4.889" height="39.57" fill="none"/>
    </clipPath>
    <clipPath id="clip-path-7">
      <rect id="Rectángulo_6470" data-name="Rectángulo 6470" width="28.903" height="5.705" fill="none"/>
    </clipPath>
    <clipPath id="clip-path-8">
      <rect id="Rectángulo_6471" data-name="Rectángulo 6471" width="5.211" height="10.366" fill="none"/>
    </clipPath>
    <clipPath id="clip-path-9">
      <rect id="Rectángulo_6472" data-name="Rectángulo 6472" width="1.92" height="0.431" fill="none"/>
    </clipPath>
  </defs>
  <g id="Grupo_57868" data-name="Grupo 57868" clip-path="url(#clip-path)">
    <g id="Grupo_57867" data-name="Grupo 57867">
      <g id="Grupo_57866" data-name="Grupo 57866" clip-path="url(#clip-path)">
        <path id="Trazado_113600" data-name="Trazado 113600" d="M0,151.186v-1.865a29.115,29.115,0,0,1,28.9,0v1.865a29.1,29.1,0,0,0-28.9,0" transform="translate(0 -107.555)" fill="#383839"/>
        <path id="Trazado_113601" data-name="Trazado 113601" d="M29.929,19.474V56.815a30.57,30.57,0,0,1-27.887,0V18.937A37.613,37.613,0,0,0,16.356,21.9a37.6,37.6,0,0,0,13.573-2.425" transform="translate(-1.51 -14)" fill="#4f4e51"/>
        <g id="Grupo_57847" data-name="Grupo 57847" transform="translate(0.572 14.672)" opacity="0.21">
          <g id="Grupo_57846" data-name="Grupo 57846">
            <g id="Grupo_57845" data-name="Grupo 57845" clip-path="url(#clip-path-3)">
              <path id="Trazado_113602" data-name="Trazado 113602" d="M30.031,56.28v1.865a27.145,27.145,0,0,1-27.837,0V56.28a27.134,27.134,0,0,0,27.837,0" transform="translate(-2.194 -56.28)" fill="#fff"/>
            </g>
          </g>
        </g>
        <g id="Grupo_57850" data-name="Grupo 57850" transform="translate(0.572 30.357)" opacity="0.21">
          <g id="Grupo_57849" data-name="Grupo 57849">
            <g id="Grupo_57848" data-name="Grupo 57848" clip-path="url(#clip-path-3)">
              <path id="Trazado_113603" data-name="Trazado 113603" d="M30.031,116.449v1.864a27.144,27.144,0,0,1-27.837,0v-1.864a27.134,27.134,0,0,0,27.837,0" transform="translate(-2.194 -116.449)" fill="#fff"/>
            </g>
          </g>
        </g>
        <g id="Grupo_57853" data-name="Grupo 57853" transform="translate(0.532 6.226)" opacity="0.71">
          <g id="Grupo_57852" data-name="Grupo 57852">
            <g id="Grupo_57851" data-name="Grupo 57851" clip-path="url(#clip-path-5)">
              <path id="Trazado_113604" data-name="Trazado 113604" d="M2.043,23.883l.013,36.992,7.352,3.346V25.939Z" transform="translate(-2.043 -23.883)" fill="#323031"/>
            </g>
          </g>
        </g>
        <path id="Trazado_113605" data-name="Trazado 113605" d="M29.94,60.277v1.865a27.144,27.144,0,0,1-27.837,0V60.277a27.132,27.132,0,0,0,27.837,0" transform="translate(-1.555 -44.563)" fill="#282828"/>
        <path id="Trazado_113606" data-name="Trazado 113606" d="M29.94,120.446v1.864a27.142,27.142,0,0,1-27.837,0v-1.864a27.42,27.42,0,0,0,13.523,3.839,27.434,27.434,0,0,0,14.315-3.839" transform="translate(-1.555 -89.047)" fill="#282828"/>
        <path id="Trazado_113607" data-name="Trazado 113607" d="M30.031,57.543v1.864a27.145,27.145,0,0,1-27.837,0V57.543a27.135,27.135,0,0,0,27.837,0" transform="translate(-1.622 -42.542)" fill="#383839"/>
        <path id="Trazado_113608" data-name="Trazado 113608" d="M30.031,117.71v1.865a27.145,27.145,0,0,1-27.837,0V117.71a27.132,27.132,0,0,0,27.837,0" transform="translate(-1.622 -87.024)" fill="#383839"/>
        <g id="Grupo_57856" data-name="Grupo 57856" transform="translate(21.334 6.226)" opacity="0.21">
          <g id="Grupo_57855" data-name="Grupo 57855">
            <g id="Grupo_57854" data-name="Grupo 57854" clip-path="url(#clip-path-6)">
              <path id="Trazado_113609" data-name="Trazado 113609" d="M86.726,23.883V61.808l-4.889,1.645V25.7Z" transform="translate(-81.837 -23.883)" fill="#fff"/>
            </g>
          </g>
        </g>
        <path id="Trazado_113610" data-name="Trazado 113610" d="M2.1,6.762c0,1.757,6.237,3.181,13.93,3.181S29.964,8.519,29.964,6.762,23.727,3.581,16.033,3.581,2.1,5.005,2.1,6.762" transform="translate(-1.555 -2.647)" fill="#5e5f60"/>
        <path id="Trazado_113611" data-name="Trazado 113611" d="M28.9,4.388V3.32A33.107,33.107,0,0,0,0,3.32V4.5a31.508,31.508,0,0,1,28.9-.11" transform="translate(0 0)" fill="#424242"/>
        <path id="Trazado_113612" data-name="Trazado 113612" d="M29,160.837V162.7a29.11,29.11,0,0,1-28.9,0v-1.865a29.1,29.1,0,0,0,28.9,0" transform="translate(-0.069 -118.908)" fill="#383839"/>
        <g id="Grupo_57859" data-name="Grupo 57859" transform="translate(0 41.6)" opacity="0.21">
          <g id="Grupo_57858" data-name="Grupo 57858">
            <g id="Grupo_57857" data-name="Grupo 57857" clip-path="url(#clip-path-7)">
              <path id="Trazado_113613" data-name="Trazado 113613" d="M28.9,159.575v1.865a29.112,29.112,0,0,1-28.9,0v-1.865a29.1,29.1,0,0,0,28.9,0" transform="translate(0 -159.575)" fill="#fff"/>
            </g>
          </g>
        </g>
        <path id="Trazado_113614" data-name="Trazado 113614" d="M28.9,15.676v1.865A29.254,29.254,0,0,1,14.7,21.38,29.272,29.272,0,0,1,0,17.541V15.676a29.251,29.251,0,0,0,14.04,3.839A29.291,29.291,0,0,0,28.9,15.676" transform="translate(0 -11.589)" fill="#282828"/>
        <path id="Trazado_113615" data-name="Trazado 113615" d="M29,12.943v1.865a29.258,29.258,0,0,1-14.2,3.839,29.274,29.274,0,0,1-14.7-3.839V12.943a29.256,29.256,0,0,0,14.04,3.839A29.292,29.292,0,0,0,29,12.943" transform="translate(-0.069 -9.569)" fill="#383839"/>
        <path id="Trazado_113616" data-name="Trazado 113616" d="M69.845,13.193v-.987h4.936v.987a8.118,8.118,0,0,1-4.936,0" transform="translate(-51.637 -9.024)" fill="#464547"/>
        <path id="Trazado_113617" data-name="Trazado 113617" d="M69.845,10.988c0,.258,1.105.466,2.468.466s2.468-.208,2.468-.466-1.1-.466-2.468-.466-2.468.209-2.468.466" transform="translate(-51.637 -7.779)" fill="#383839"/>
        <path id="Trazado_113618" data-name="Trazado 113618" d="M28.9,160.837V162.7a29.11,29.11,0,0,1-28.9,0v-1.865a29.1,29.1,0,0,0,28.9,0" transform="translate(0 -118.908)" fill="#383839"/>
        <path id="Trazado_113619" data-name="Trazado 113619" d="M37.165,92.052a5.187,5.187,0,1,0,5.188-5.187,5.188,5.188,0,0,0-5.188,5.187" transform="translate(-27.476 -64.22)" fill="#ffe236"/>
        <path id="Trazado_113620" data-name="Trazado 113620" d="M40.088,94.212a4.425,4.425,0,1,1,4.426,4.426,4.43,4.43,0,0,1-4.426-4.426m.054,0a4.371,4.371,0,1,0,4.371-4.371,4.376,4.376,0,0,0-4.371,4.371" transform="translate(-29.637 -66.38)" fill="#282828"/>
        <g id="Grupo_57862" data-name="Grupo 57862" transform="translate(9.652 22.652)" opacity="0.19">
          <g id="Grupo_57861" data-name="Grupo 57861">
            <g id="Grupo_57860" data-name="Grupo 57860" clip-path="url(#clip-path-8)">
              <path id="Trazado_113621" data-name="Trazado 113621" d="M42.235,86.89a5.183,5.183,0,1,0,0,10.366Z" transform="translate(-37.024 -86.89)" fill="#323031"/>
            </g>
          </g>
        </g>
        <g id="Grupo_57865" data-name="Grupo 57865" transform="translate(20.402 2.913)" opacity="0.21">
          <g id="Grupo_57864" data-name="Grupo 57864">
            <g id="Grupo_57863" data-name="Grupo 57863" clip-path="url(#clip-path-9)">
              <path id="Trazado_113622" data-name="Trazado 113622" d="M80.07,11.553a.63.63,0,0,1-.494,0c-.679-.223-1.328-.255-1.316-.329.02-.125,1.906,0,1.919.22,0,.045-.077.091-.109.109" transform="translate(-78.259 -11.175)" fill="#fff"/>
            </g>
          </g>
        </g>
        <path id="Trazado_113623" data-name="Trazado 113623" d="M54.153,105.23a.827.827,0,1,0,.827-.827.827.827,0,0,0-.827.827" transform="translate(-40.036 -77.186)" fill="#282828"/>
        <path id="Trazado_113624" data-name="Trazado 113624" d="M54.126,96.883a.957.957,0,0,0-.923,0l-.829-2.036a2.671,2.671,0,0,1,2.581,0l-.828,2.036" transform="translate(-38.72 -69.875)" fill="#282828"/>
        <path id="Trazado_113625" data-name="Trazado 113625" d="M46.52,108.425a.959.959,0,0,0,.456.8l-1.361,1.726a2.671,2.671,0,0,1-1.275-2.243l2.179-.285" transform="translate(-32.782 -80.159)" fill="#282828"/>
        <path id="Trazado_113626" data-name="Trazado 113626" d="M59.625,109.17a.957.957,0,0,0,.477-.79l2.172.342a2.672,2.672,0,0,1-1.333,2.21l-1.316-1.762" transform="translate(-44.081 -80.126)" fill="#282828"/>
      </g>
    </g>
  </g>
</svg>
