<svg id="Grupo_57678" data-name="Grupo 57678" xmlns="http://www.w3.org/2000/svg" xmlns:xlink="http://www.w3.org/1999/xlink" width="104.935" height="105" viewBox="0 0 104.935 105">
  <defs>
    <clipPath id="clip-path">
      <rect id="Rectángulo_5728" data-name="Rectángulo 5728" width="104.935" height="105" fill="#12263f"/>
    </clipPath>
  </defs>
  <g id="Grupo_56827" data-name="Grupo 56827" transform="translate(0 0)" clip-path="url(#clip-path)">
    <path id="Trazado_105156" data-name="Trazado 105156" d="M22.53,38.61a1.792,1.792,0,0,1-1.792-1.792V29.252a1.792,1.792,0,1,1,3.584,0v7.566A1.792,1.792,0,0,1,22.53,38.61" transform="translate(20.101 26.614)" fill="#12263f"/>
    <path id="Trazado_105157" data-name="Trazado 105157" d="M25.561,41.687a1.792,1.792,0,0,1-1.792-1.792V26.076a1.792,1.792,0,0,1,3.584,0V39.894a1.792,1.792,0,0,1-1.792,1.792" transform="translate(23.039 23.537)" fill="#12263f"/>
    <path id="Trazado_105158" data-name="Trazado 105158" d="M28.591,41.616A1.791,1.791,0,0,1,26.8,39.824V26.078a1.792,1.792,0,1,1,3.584,0V39.824a1.791,1.791,0,0,1-1.792,1.792" transform="translate(25.976 23.537)" fill="#12263f"/>
    <path id="Trazado_105159" data-name="Trazado 105159" d="M31.621,45.852a1.791,1.791,0,0,1-1.792-1.792V32.481a1.792,1.792,0,1,1,3.584,0V44.06a1.791,1.791,0,0,1-1.792,1.792" transform="translate(28.913 29.744)" fill="#12263f"/>
    <path id="Trazado_105160" data-name="Trazado 105160" d="M43.372,75.7H22.058a1.791,1.791,0,0,1-1.792-1.792V69.657a27.968,27.968,0,0,0-1.258-8.3l-.327-1.05a21.715,21.715,0,0,1-.973-6.42V35.356a4.773,4.773,0,0,1,5.967-4.785V29.105a4.773,4.773,0,0,1,6.312-4.683,4.757,4.757,0,0,1,8.9-.014,4.85,4.85,0,0,1,2.633-.106,4.9,4.9,0,0,1,3.643,4.8v7.2a5.612,5.612,0,0,1,2.343-.37,5.886,5.886,0,0,1,5.329,5.837V53.31a10.885,10.885,0,0,1-2.928,7.44l-4.313,4.634a1.592,1.592,0,0,0-.431,1.095V73.91A1.792,1.792,0,0,1,43.372,75.7M23.85,72.118H41.58v-5.64a5.185,5.185,0,0,1,1.39-3.539l4.315-4.632a7.321,7.321,0,0,0,1.967-5V41.772a2.312,2.312,0,0,0-1.934-2.259,2.082,2.082,0,0,0-1.516.557,2.03,2.03,0,0,0-.638,1.485,1.792,1.792,0,1,1-3.584,0V29.105a1.311,1.311,0,0,0-.878-1.314,1.208,1.208,0,0,0-1.052.219,1.182,1.182,0,0,0-.455.935,1.792,1.792,0,0,1-3.584,0V26.1a1.186,1.186,0,0,0-.453-.935A1.2,1.2,0,0,0,34.1,24.95a1.314,1.314,0,0,0-.876,1.314v2.682a1.792,1.792,0,0,1-3.584,0,1.189,1.189,0,0,0-.453-.935,1.206,1.206,0,0,0-1.054-.219,1.31,1.31,0,0,0-.876,1.314V35.2a1.793,1.793,0,0,1-3.586,0,1.189,1.189,0,0,0-.453-.935,1.21,1.21,0,0,0-1.052-.219,1.317,1.317,0,0,0-.878,1.314V53.889a18.036,18.036,0,0,0,.813,5.356l.327,1.048a31.669,31.669,0,0,1,1.418,9.364Z" transform="translate(17.164 20.67)" fill="#12263f"/>
    <path id="Trazado_105161" data-name="Trazado 105161" d="M30.507,25.319a1.778,1.778,0,0,1-.894-.24l-5.319-3.072a1.792,1.792,0,1,1,1.792-3.1l5.319,3.072a1.792,1.792,0,0,1-.9,3.344" transform="translate(22.679 18.088)" fill="#12263f"/>
    <path id="Trazado_105162" data-name="Trazado 105162" d="M27.388,27.016a1.778,1.778,0,0,1-.894-.24L22.78,24.633a1.793,1.793,0,1,1,1.792-3.106l3.714,2.143a1.793,1.793,0,0,1-.9,3.346" transform="translate(21.21 20.632)" fill="#12263f"/>
    <path id="Trazado_105163" data-name="Trazado 105163" d="M23.591,31.823a1.778,1.778,0,0,1-.894-.24l-7.509-4.336a1.792,1.792,0,0,1,1.792-3.1l7.509,4.336a1.792,1.792,0,0,1-.9,3.344" transform="translate(13.853 23.166)" fill="#12263f"/>
    <path id="Trazado_105164" data-name="Trazado 105164" d="M31.64,54.325a1.806,1.806,0,0,1-.581-.1,5.615,5.615,0,0,1-1.016-.463L20.056,48a10.879,10.879,0,0,1-4.98-6.256l-1.855-6.052a1.6,1.6,0,0,0-.735-.92L6.051,31.058a1.794,1.794,0,0,1-.656-2.45L16.051,10.151a1.794,1.794,0,0,1,2.45-.656l3.685,2.127A27.9,27.9,0,0,0,30,14.682l1.073.242a21.7,21.7,0,0,1,6.046,2.365l11.217,6.479a1.792,1.792,0,0,1-1.792,3.1L35.326,20.395a18.121,18.121,0,0,0-5.045-1.975l-1.071-.24a31.48,31.48,0,0,1-8.818-3.454L18.26,13.5,9.4,28.849l4.884,2.82a5.18,5.18,0,0,1,2.369,2.974L18.5,40.7a7.3,7.3,0,0,0,3.346,4.2l9.99,5.768a2.181,2.181,0,0,0,.38.173,1.792,1.792,0,0,1-.581,3.488" transform="translate(4.997 8.969)" fill="#12263f"/>
    <path id="Trazado_105165" data-name="Trazado 105165" d="M31.841,34.242a1.793,1.793,0,0,1-.9-3.346l5.841-3.371a1.793,1.793,0,1,1,1.792,3.106L32.735,34a1.778,1.778,0,0,1-.894.24" transform="translate(29.124 26.446)" fill="#12263f"/>
    <path id="Trazado_105166" data-name="Trazado 105166" d="M31.841,29.9a1.793,1.793,0,0,1-.9-3.346L33.8,24.9a1.793,1.793,0,0,1,1.792,3.106l-2.859,1.648a1.778,1.778,0,0,1-.894.24" transform="translate(29.124 23.903)" fill="#12263f"/>
    <path id="Trazado_105167" data-name="Trazado 105167" d="M30.843,26.667a1.792,1.792,0,0,1-.9-3.344L31.723,22.3a1.791,1.791,0,1,1,1.792,3.1l-1.778,1.028a1.772,1.772,0,0,1-.894.24" transform="translate(28.157 21.377)" fill="#12263f"/>
    <path id="Trazado_105168" data-name="Trazado 105168" d="M29.73,26.153a1.793,1.793,0,0,1-.9-3.346l10.03-5.79a1.793,1.793,0,1,1,1.792,3.106l-10.03,5.79a1.778,1.778,0,0,1-.894.24" transform="translate(27.078 16.262)" fill="#12263f"/>
    <path id="Trazado_105169" data-name="Trazado 105169" d="M44.117,52.145a1.792,1.792,0,0,1-.9-3.344l11.036-6.373a18.008,18.008,0,0,0,4.232-3.383l.75-.807a31.488,31.488,0,0,1,7.395-5.91L68.762,31.1,59.9,15.745l-4.882,2.82a5.18,5.18,0,0,1-3.759.565l-6.172-1.422a7.317,7.317,0,0,0-5.309.8l-9.994,5.77a2.306,2.306,0,0,0-.989,2.8,2.042,2.042,0,0,0,2.84.849,1.793,1.793,0,1,1,1.8,3.1l-4.955,2.861a1.794,1.794,0,0,1-1.792-3.108l.408-.232A5.661,5.661,0,0,1,25.6,28.7a5.89,5.89,0,0,1,2.393-7.534L37.982,15.4a10.876,10.876,0,0,1,7.907-1.184l6.17,1.42a1.613,1.613,0,0,0,1.164-.177l6.438-3.716a1.8,1.8,0,0,1,2.448.658L72.766,30.859a1.794,1.794,0,0,1-.658,2.448l-3.685,2.127a27.982,27.982,0,0,0-6.556,5.238l-.75.807a21.525,21.525,0,0,1-5.069,4.053L45.011,51.9a1.778,1.778,0,0,1-.894.24" transform="translate(24.273 11.149)" fill="#12263f"/>
    <path id="Trazado_105170" data-name="Trazado 105170" d="M55.683,37.292a1.7,1.7,0,0,1-.465-.061,1.793,1.793,0,0,1-1.089-.835L42.042,15.461a1.793,1.793,0,0,1,.658-2.448l6.676-3.854a1.789,1.789,0,0,1,2.253.378A52.538,52.538,0,0,1,63.023,31.861a1.789,1.789,0,0,1-.849,1.959l-5.595,3.232a1.788,1.788,0,0,1-.9.24m-9.64-22.072L56.337,33.052l2.877-1.662a49.007,49.007,0,0,0-9.348-18.375Z" transform="translate(40.518 8.643)" fill="#12263f"/>
    <path id="Trazado_105171" data-name="Trazado 105171" d="M9.876,34.732a1.8,1.8,0,0,1-.894-.238l-6.69-3.862a1.792,1.792,0,0,1-.8-2.143A52.762,52.762,0,0,1,15.147,7.472a1.8,1.8,0,0,1,2.125-.246l5.589,3.228a1.792,1.792,0,0,1,.656,2.448L11.429,33.836a1.789,1.789,0,0,1-1.554.9M5.388,28.279l3.834,2.213,10.293-17.83L16.65,11.007A49.177,49.177,0,0,0,5.388,28.279" transform="translate(1.351 6.772)" fill="#12263f"/>
    <path id="Trazado_105172" data-name="Trazado 105172" d="M34.717,59.33A52.451,52.451,0,0,1,19.555,57.1a1.793,1.793,0,0,1-1.274-1.715V48.911a1.793,1.793,0,0,1,1.792-1.794H44.246a1.793,1.793,0,0,1,1.792,1.794v7.72a1.793,1.793,0,0,1-1.457,1.761,52.929,52.929,0,0,1-9.864.939m-12.852-5.3a48.914,48.914,0,0,0,20.589,1.093V50.7H21.865Z" transform="translate(17.719 45.669)" fill="#12263f"/>
    <path id="Trazado_105173" data-name="Trazado 105173" d="M52.434,78.775A52.439,52.439,0,0,1,0,28.939a1.791,1.791,0,0,1,1.7-1.881,1.768,1.768,0,0,1,1.879,1.7A48.861,48.861,0,0,0,52.434,75.191,48.483,48.483,0,0,0,82,65.252a1.791,1.791,0,1,1,2.166,2.853,52.018,52.018,0,0,1-31.727,10.67" transform="translate(0 26.224)" fill="#12263f"/>
    <path id="Trazado_105174" data-name="Trazado 105174" d="M2.141,41.164a1.606,1.606,0,0,1-.307-.028,1.789,1.789,0,0,1-1.461-2.07,52.8,52.8,0,0,1,21.9-34.193,1.792,1.792,0,0,1,2.038,2.948A49.208,49.208,0,0,0,3.9,39.677a1.792,1.792,0,0,1-1.763,1.487" transform="translate(0.335 4.416)" fill="#12263f"/>
    <path id="Trazado_105175" data-name="Trazado 105175" d="M22.436,4.322A1.793,1.793,0,0,1,22.087.772q1.45-.289,2.928-.5a1.792,1.792,0,0,1,.5,3.549q-1.377.195-2.729.465a1.764,1.764,0,0,1-.351.035" transform="translate(20.01 0.246)" fill="#12263f"/>
    <path id="Trazado_105176" data-name="Trazado 105176" d="M17.3,6.326a1.793,1.793,0,0,1-.715-3.438C17.707,2.4,18.855,1.952,20,1.55a1.793,1.793,0,0,1,1.187,3.383c-1.065.372-2.133.792-3.178,1.245a1.791,1.791,0,0,1-.711.148" transform="translate(15.027 1.405)" fill="#12263f"/>
    <path id="Trazado_105177" data-name="Trazado 105177" d="M12.881,8.912a1.792,1.792,0,0,1-1.02-3.267q1.22-.845,2.487-1.619a1.792,1.792,0,1,1,1.869,3.058q-1.182.724-2.318,1.51a1.8,1.8,0,0,1-1.018.317" transform="translate(10.747 3.646)" fill="#12263f"/>
    <path id="Trazado_105178" data-name="Trazado 105178" d="M81.741,54.293A1.791,1.791,0,0,1,79.949,52.5,48.972,48.972,0,0,0,31.032,3.584a49.559,49.559,0,0,0-6.908.484,1.792,1.792,0,1,1-.5-3.549A53.147,53.147,0,0,1,31.032,0a52.559,52.559,0,0,1,52.5,52.5,1.791,1.791,0,0,1-1.792,1.792" transform="translate(21.402 -0.001)" fill="#12263f"/>
    <path id="Trazado_105179" data-name="Trazado 105179" d="M43.071,50.737a1.793,1.793,0,0,1-1.085-3.22q1.1-.839,2.154-1.733a1.792,1.792,0,0,1,2.326,2.727q-1.128.963-2.312,1.859a1.788,1.788,0,0,1-1.083.366" transform="translate(40.009 43.959)" fill="#12263f"/>
    <path id="Trazado_105180" data-name="Trazado 105180" d="M47.8,54.159a1.774,1.774,0,0,1-1.1-.382,1.793,1.793,0,0,1-.307-2.517,48.961,48.961,0,0,0,2.846-4.037,1.792,1.792,0,0,1,3.031,1.912,52.8,52.8,0,0,1-3.052,4.336,1.793,1.793,0,0,1-1.414.687m7.511-13.346a1.825,1.825,0,0,1-.632-.114,1.8,1.8,0,0,1-1.046-2.312,48.766,48.766,0,0,0,1.507-4.7A1.792,1.792,0,1,1,58.6,34.6c-.453,1.707-1,3.407-1.615,5.051a1.8,1.8,0,0,1-1.678,1.16" transform="translate(44.593 31.356)" fill="#12263f"/>
    <path id="Trazado_105181" data-name="Trazado 105181" d="M53.219,32.2l-.1,0a1.794,1.794,0,0,1-1.69-1.891q.08-1.374.079-2.767a1.792,1.792,0,1,1,3.584,0q0,1.495-.083,2.968A1.793,1.793,0,0,1,53.219,32.2" transform="translate(49.845 24.958)" fill="#12263f"/>
  </g>
</svg>
