<svg xmlns="http://www.w3.org/2000/svg" xmlns:xlink="http://www.w3.org/1999/xlink" width="133" height="133" viewBox="0 0 133 133">
  <defs>
    <clipPath id="clip-path">
      <rect id="Rect치ngulo_6438" data-name="Rect치ngulo 6438" width="97" height="42.555" fill="none"/>
    </clipPath>
  </defs>
  <g id="Grupo_80469" data-name="Grupo 80469" transform="translate(-5890 10461)">
    <circle id="Elipse_1350" data-name="Elipse 1350" cx="66.5" cy="66.5" r="66.5" transform="translate(5890 -10461)" fill="#adc46c"/>
    <g id="Grupo_57831" data-name="Grupo 57831" transform="translate(5908 -10416)">
      <g id="Grupo_57830" data-name="Grupo 57830" transform="translate(0 0)" clip-path="url(#clip-path)">
        <path id="Trazado_113561" data-name="Trazado 113561" d="M1.177,11.539a3.4,3.4,0,0,1-.125-.573,3.19,3.19,0,0,1,2.2-3.681A2.235,2.235,0,0,1,4.71,7.5C4.336,4.677,5.926,2.022,8.267,1.566a4.156,4.156,0,0,1,4.519,2.774,3.538,3.538,0,0,1,1.537-.732c1.945-.381,3.781,1.049,4.345,3.258,2.874-.237,5.476,2.2,5.945,5.7a7.342,7.342,0,0,1-2.734,6.963,6.235,6.235,0,0,1-.067.866,3.115,3.115,0,0,1,1.744,2.516,3.19,3.19,0,0,1-2.2,3.679,2.635,2.635,0,0,1-2.91-2.031c-.059.015-.115.034-.174.044-2.158.422-4.2-1.171-4.8-3.635a5.208,5.208,0,0,1-2.437,1.226A5.192,5.192,0,0,1,5.84,19.936a3.483,3.483,0,0,1-.854.278c-2.344.459-4.55-1.461-4.929-4.286a5.892,5.892,0,0,1,1.121-4.389" transform="translate(0 1.043)" fill="#f6f6f6"/>
        <path id="Trazado_113562" data-name="Trazado 113562" d="M69.988,3.189A3.073,3.073,0,0,0,67.218,0H33.435c-1.256,0-9.592,9.1-14.448,14.529l-.178.2v.292c0,.465,0,1.429,6.884,5.576,1.817,1.1,6.756,3.938,7.742,3.938H74.149a3.1,3.1,0,0,0,2.772-3.347Z" transform="translate(7.621 0.001)" fill="#f15c00"/>
        <path id="Trazado_113563" data-name="Trazado 113563" d="M67.212,4.478a2.793,2.793,0,0,0-2.517-2.9H33.987c-1.142,0-8.72,8.273-13.135,13.208l-.16.181v.263c0,.424,0,1.3,6.257,5.071,1.652.993,6.141,3.579,7.038,3.579H70.995a2.821,2.821,0,0,0,2.521-3.043Z" transform="translate(8.383 1.099)" fill="#2390ad"/>
        <path id="Trazado_113564" data-name="Trazado 113564" d="M86.779,7.96H21.153a3.1,3.1,0,0,0-2.772,3.347v13.6a3.105,3.105,0,0,0,2.772,3.347H86.779a3.105,3.105,0,0,0,2.774-3.347v-13.6A3.1,3.1,0,0,0,86.779,7.96" transform="translate(7.447 5.536)" fill="#f15c00"/>
        <path id="Trazado_113565" data-name="Trazado 113565" d="M40.717,23.42c0,5.161-3.465,9.346-7.744,9.346s-7.744-4.186-7.744-9.346,3.468-9.343,7.744-9.343,7.744,4.186,7.744,9.343" transform="translate(10.222 9.789)" fill="#8e8781"/>
        <path id="Trazado_113566" data-name="Trazado 113566" d="M34.182,21.1a2.987,2.987,0,0,1-2.671,3.226A2.987,2.987,0,0,1,28.84,21.1a2.985,2.985,0,0,1,2.671-3.219A2.985,2.985,0,0,1,34.182,21.1" transform="translate(11.685 12.433)" fill="#dbd5b3"/>
        <path id="Trazado_113567" data-name="Trazado 113567" d="M49.264,30.048H47.046V17.134H29.788L30.017.381l2.217.044-.193,14.036H49.264Z" transform="translate(12.069 0.266)" fill="#f15c00"/>
        <path id="Trazado_113568" data-name="Trazado 113568" d="M70.325,23.42c0,5.161-3.467,9.346-7.742,9.346s-7.744-4.186-7.744-9.346,3.467-9.343,7.744-9.343,7.742,4.186,7.742,9.343" transform="translate(22.219 9.789)" fill="#8e8781"/>
        <path id="Trazado_113569" data-name="Trazado 113569" d="M63.79,21.1a2.719,2.719,0,1,1-5.342,0,2.718,2.718,0,1,1,5.342,0" transform="translate(23.681 12.433)" fill="#dbd5b3"/>
        <path id="Trazado_113570" data-name="Trazado 113570" d="M52.679,12.389a2.065,2.065,0,0,1-1.846,2.228H46.961a2.065,2.065,0,0,1-1.846-2.228,2.061,2.061,0,0,1,1.846-2.224h3.871a2.061,2.061,0,0,1,1.846,2.224" transform="translate(18.279 7.069)" fill="#2390ad"/>
        <path id="Trazado_113571" data-name="Trazado 113571" d="M43.416,12.347a2.063,2.063,0,0,1-1.846,2.228H37.7a2.063,2.063,0,0,1-1.846-2.228A2.062,2.062,0,0,1,37.7,10.121H41.57a2.062,2.062,0,0,1,1.846,2.226" transform="translate(14.526 7.038)" fill="#2390ad"/>
        <rect id="Rect치ngulo_6437" data-name="Rect치ngulo 6437" width="2.217" height="16.919" transform="translate(59.115 2.541)" fill="#f15c00"/>
      </g>
    </g>
  </g>
</svg>
