<svg xmlns="http://www.w3.org/2000/svg" xmlns:xlink="http://www.w3.org/1999/xlink" width="216.423" height="176.689" viewBox="0 0 216.423 176.689">
  <defs>
    <clipPath id="clip-path">
      <rect id="Rectángulo_6578" data-name="Rectángulo 6578" width="144.054" height="143.968" fill="none"/>
    </clipPath>
    <clipPath id="clip-path-3">
      <rect id="Rectángulo_6575" data-name="Rectángulo 6575" width="105.295" height="136.152" fill="none"/>
    </clipPath>
    <clipPath id="clip-path-4">
      <rect id="Rectángulo_6576" data-name="Rectángulo 6576" width="104.522" height="135.85" fill="none"/>
    </clipPath>
    <clipPath id="clip-path-5">
      <rect id="Rectángulo_6584" data-name="Rectángulo 6584" width="198.886" height="176.689" fill="none"/>
    </clipPath>
    <clipPath id="clip-path-6">
      <path id="Trazado_113702" data-name="Trazado 113702" d="M116.563,15.783c-.337.071-.1.407-.426.549v.016c.241.243.084.377-.2.5-.383.139-.164.412-.528.087-.318-.283.169-.309.169-.486a2.5,2.5,0,0,0-1.123.731c-.159.143-.382.206-.079.244a.862.862,0,0,0,.138,0c.152,0,.343-.007.359.113.044.349.446.545-.029.635-.29.057-.195.3-.3.325a2.167,2.167,0,0,0-.311.039c-.28.115-.226-.118-.35-.214-.2-.154.119-.44.224-.583.2-.274-.288-.116-.441-.087a4.825,4.825,0,0,0-1.179.178c-.04.017-.565.166-.373.189a.6.6,0,0,0,.135,0c.1-.007.144-.015.218.138a4.84,4.84,0,0,0,.029.714c.034.235-.09.313-.13.506a1.271,1.271,0,0,1-.111.36l-.229.421c-.1.182-.158.5-.308.637a4.565,4.565,0,0,1-2.285,1.319,1.185,1.185,0,0,1-.191.01.648.648,0,0,0-.357.065c-.169.11-.267.353-.515.22-.041-.02-.668.256-.784.285a1.729,1.729,0,0,1-.592.185,1.632,1.632,0,0,0-.5.313,6.311,6.311,0,0,0-.843.809,8.829,8.829,0,0,1-1.634,1.015,2.445,2.445,0,0,0-.285.363c-.05.095.046.15.02.253-.083.322-.21.152-.441-.02-.037.111.024.264.012.391s-.293-.02-.335-.075-.532.5-.658.6a5.48,5.48,0,0,1-.773.367,1.338,1.338,0,0,1-.631.083,1.856,1.856,0,0,0-.587.051,4.584,4.584,0,0,1-1.008-.039,5.732,5.732,0,0,0-.875.1,4.543,4.543,0,0,1-1.556-.119c-.247-.056-.43-.234-.675-.3-.464-.124-1.154-.761-1.642-.312-.127.116-.248.035-.391.008-.241-.045-.287.034-.287.261l-.009.008a.428.428,0,0,1-.173-.025.348.348,0,0,0-.224-.011l-.2.459c-.038.083-.323.29-.263.37.092.126-.008.2-.073.332a.934.934,0,0,0,.119.691c.137.17.165.2.087.391a1.271,1.271,0,0,1-.662.643c-1.043.4-1.864.044-2.889-.07-.237-.026-.843.023-.879-.268-.042-.357-1.034-.217-1.119-.475l-.177-.1c-.131-.076-.083.173-.083.241,0,.23-.143.213-.312.2a.612.612,0,0,0-.3.02c-.264.113-.25.246-.367.471-.1.193-.478.269-.674.292-.109.013-.251.182-.082.224.114.031.034.165-.036.222-.108.121-.12.234-.284.312l-.335.157c-.2.1-.248.328-.445.384-.13.037-.241,0-.367.074s-.274.321-.394.317-.139-.05-.24.008c-.077.045-.031.206-.079.292-.106.193.249.339.1.462a2.443,2.443,0,0,1-.875.15c-.187.093-.45.118-.575.292-.1.14-.258.285-.343.427-.075.126-.073.227-.186.339-.153.154-.24.164-.24.4s-.118.286.052.524c.117.166-.7.447-.576.573a1.5,1.5,0,0,1,.307.39c.131.459.246.907-.4.885-.673-.023-.239.292-.5.672-.163.243-.446.4-.617.632-.023.031-.157.125-.143.146.491,0,.952-.726,1.317-.98.24-.166.216-.079.216.158,0,.115.051.22.051.34a.031.031,0,0,0-.015.024c-.091.026-.264,0-.221.13a.276.276,0,0,1-.051.323c-.24.236-.076.35-.159.637l.009.406c0,.107-.071.2-.071.312,0,.2-.178.379-.161.534a.579.579,0,0,1-.1.391c-.2.265-.038.218-.083.5a3.114,3.114,0,0,1-.252.688c-.089.134-.453.573-.608.612a.538.538,0,0,0,.27-.005.49.49,0,0,1,.333.017c.262.139.355-.008.45.335S80.7,43.2,80.45,43.5a1.45,1.45,0,0,0-.433.961c0,.127-.27.021-.359,0l-.6-.147c-.341,0-.3.463-.6.32-.191-.09-.412-.1-.607-.2a3.712,3.712,0,0,1-.465-.241c-.047-.03-.4.481-.509.569a3.729,3.729,0,0,1-1.012.4c-.067.1-.247.232-.252.352,0,.085.043.142.043.222,0,.167-.4.349-.536.4-.224.075-.017.995-.363,1.22a1.052,1.052,0,0,0-.587.8c-.094.377-.161.313-.449.569a4.185,4.185,0,0,1-.671.584c-.181.092-.162.186-.282.332-.16.192-.458.223-.659.359-.332.225-.271.544-.757.629-.155.114-.62.166-.658.355-.043.218.028.4-.22.5a7.448,7.448,0,0,1-1.809.419c-.419.064-.236.183-.453.473-.061.082-.316.16-.316.225a3.94,3.94,0,0,1,.717.313c.2.182.644.359.694.663.08.08.1.229.158.324.013.17.1.367.122.544a3.659,3.659,0,0,1,0,.534,2.905,2.905,0,0,0,.11.995c0,.179.129.388.083.572s-.147.284.016.423c.332.286-.06.423-.043.711a1.893,1.893,0,0,1-.087.493l-.051.341c-.014.09-.29.089-.531.087a1.339,1.339,0,0,0-.34.019c-.276.048-.725-.018-.725-.359a5.743,5.743,0,0,0,.071-.716c-.029-.184.113-.217.287-.232.113-.011.137.092.205.157s.283.122.2-.023c-.027-.046-.209-.216-.172-.221a1.28,1.28,0,0,1,.2,0c-.018-.072-.176-.1-.217-.155-.069-.1.181-.136.2-.162.057-.068-.1-.067-.111-.071-.039-.012.032-.1.035-.106.029-.113.3-.247.225-.276s-.214.011-.3.016c-.255.013-.336.5-.587.37a1.169,1.169,0,0,1-.226-.339c-.083-.348.235-.307.3-.49s-.01-.058-.207-.037c-.226.024-.574-.061-.271-.475.045-.061.24-.119.1-.155a1.549,1.549,0,0,0-.512.027c-.265.039-.365-.2-.489-.394a6.044,6.044,0,0,1-.505-.865c-.049-.043-.094-.212-.153-.281a.647.647,0,0,0-.244-.153,4.409,4.409,0,0,1-.576-.21,1.348,1.348,0,0,1-.52-.881c-.042-.2-.257-.311-.311-.485-.046-.148-.151-.128-.244-.241-.07-.094-.006-.328-.2-.328-.044.044-.052.162-.125.183a.4.4,0,0,1-.12,0c-.072-.007-.143-.012-.168.046-.06.145.267.322.15.4-.049.032-.235-.014-.213.064.051.178-.018.219-.2.209-.147-.008.014.354-.107.473-.247.249-.014.423.284.371.144-.025.131.08.181.194a1.45,1.45,0,0,0,.245.419c.167.163.042.309.11.394s.108.123.086.246c-.038.223-.119.417.088.576.11.085.354.142.354-.055h.007c.016.057.086.116.1.205a1.609,1.609,0,0,0,.076.238c.047.128.085.313.208.379.081.042.1.159.107.244.009.2,0,.151.161.252.089.057-.066.091-.035.162s.115.136.118.234a2.649,2.649,0,0,0,.008.387.969.969,0,0,0,.22.6c.182.238.115.1.126.376.005.134.139.157.217.236-.025.1-.3.092-.382.063a.39.39,0,0,0-.255.016.507.507,0,0,1-.2.028c-.45-.054-.657.126-.773.553-.061.218-.327.187-.237.414.145.366.274.355-.13.45-.173.094-.177.06-.212.265-.029.163-.137.1-.185.189-.039.073.027.151,0,.2-.057.109-.186.026-.186.214,0,.279-.237.08-.307.261-.03.076.057.179-.005.257-.128.161-.173.529-.378.52-.135,0-.232.129-.319.263-.115.178-.213.355-.362.207a2.72,2.72,0,0,1-.549-1.049c-.139-.379-1.057-1.047-.913-.222.037.112-.1.358-.048.422.124.147.086.136.106.329.026.231.4.484.221.667-.157.157.169.253,0,.411-.057.052-.2.168-.217.228-.132-.1-.291-.194-.42-.3-.228-.185-.191.085-.387.155l-.688,2.125a5.852,5.852,0,0,1,1.111,1.019,1.913,1.913,0,0,0,.531.477c.246.168-.055.265,0,.4.038.093.238.186.319.238.155.1.232.07.2.264-.033.218-.312.1-.393.328a1.091,1.091,0,0,0,.071.818c0,.009.065.138.074.11h.012a2.217,2.217,0,0,1,.1-.407c.1-.056.266.171.378.21.15.052.19.137.323.22.1.215.249.344.351.581l.224.521c.1.227-.176.63.284.564.021-.143,0-.412.181-.462.132-.035.473-.173.564-.023.11.182.054.076.173.076.034.14.161.252.052.386-.126.153.016.23.125.311s.02.141.064.23c.06.125.228.066.315.214.125.208.441.013.166.45-.055.085-.335.377-.273.474.1.149-.008.124-.008.239,0,.236-.2.128.008.352.239.259-.5.139-.528.139,0,.174.379.136.375.3a2.7,2.7,0,0,1-.067.715c-.046.145-.142.245-.146.407-.007.244-.1.088-.217-.056-.078-.1-.3-.316-.426-.316a1.762,1.762,0,0,0-.019.379.968.968,0,0,0,.067.963c.241.315.67.587.859.9.093.157.141.559.3.288a5.331,5.331,0,0,1,.142.738c.011.274.32.652.438.909a1.469,1.469,0,0,1,.157.691c0,.558-.407.794-.717,1.2-.239.31-.308.237-.435.165a.418.418,0,0,0-.314-.054c-.222.043-.236.342-.519.229-.171-.067-.263-.223-.273.178-.154.273.067.529-.267.786-.023.017-.142.065-.123.1a1.666,1.666,0,0,0,.579.07.411.411,0,0,1,.45,0c.234.216-.159.4.28.4,0,.091-.125.132-.1.229a2.364,2.364,0,0,1,.048.336c.029.241-.052.545.236.56.08,0,.117.332.012.278-.037-.021-.093-.11-.134-.1a3.793,3.793,0,0,0,.048.51c.025.332-.212.492.024.77.1.119.038.434.168.612,0,.006,0,0,0,.012-.225,0-.108.066-.1.206l.023.576c.015.343.153.631.19.959a1.293,1.293,0,0,0,.122.758c.059.2-.049.444.213.493.074.015.3.076.153.194-.032.027-.149,0-.149.044a1.708,1.708,0,0,1,0,.249c-.024.184.147.42-.031.5-.119.056-.043.877-.04,1.015a3.684,3.684,0,0,1-.177,1.228,1.326,1.326,0,0,1-.6.726c-.171.134-.149.516-.306.605l-.343.193c-.119.067-.027-.257-.056-.324a.155.155,0,0,0-.031,0c-.241.192-.218.336-.312.6,0,.378-.14.9.229,1.129a3.8,3.8,0,0,1,.567.7c.1.226.244.235.367.415.07.1.078.219.178.319.05.052.3.349.307.269a1.251,1.251,0,0,1,.087-.379c.111-.15.2-.381.3-.549.149-.252.179-.231.323-.209a1.052,1.052,0,0,0,.179.012c.075,0,.292-.125.3-.02s-.149.219-.219.114c-.181.182-.441.122-.214.426.06.079-.467.085-.371.356.067.184-.147.268-.137.411.009.122.283-.032.26.269-.077.244.392.5.587.532a1.055,1.055,0,0,0,.182.006c.165,0,.366,0,.381.07.024.124-.065.259,0,.356.036.052.1.093.024.121s-.244.082-.244.182.034.82.224.564c0,.113.1.337-.035.308-.246-.052-.161.066-.221.249a1.506,1.506,0,0,1-.212.324c-.316.218-.7-.051-.883.371-.078.18-.537.454-.529.648s.422.212.335.356c-.023.039-.14.192-.193.192l-.078-.24c-.233.058-.254.734-.541.734-.347,0-.75.8-.985,1.007-.028.026-.222.307-.133.288l.259-.055c.153-.032.15.061.1.153s-.159.2-.193.148c-.1-.139-.148-.22-.212.012l-.084.295c-.078.279-.473.817-.775.861a.618.618,0,0,1-.1,0,.318.318,0,0,0-.128,0c-.061.048-.074.4-.141.513a1.434,1.434,0,0,0-.2.482,1.829,1.829,0,0,1,.28-.178c.135.067-.057.272.129.372s-.042.1-.106.109a1.168,1.168,0,0,0-.209.482c.019.059.324.34.087.293-.066-.013-.257-.086-.279.012-.049.2-.158.264-.32.4-.042.035-.227.093-.166.139a1.621,1.621,0,0,0,.272.071c-.061.041-.112.154-.185.186a.307.307,0,0,1-.15.013.367.367,0,0,0-.2.025c-.17.057.027.66.027.849a1.76,1.76,0,0,1-.358-.232c-.121-.1-.283.035-.425.055-.053.007-.32.008-.323.071-.012.256.139.292-.155.407-.392.155-.3-.255-.52-.265a.924.924,0,0,0-.4.22c-.191.141-.381.281-.453.191-.1-.121-.156-.225-.332-.206-.149.018-.358.082-.366-.17-.011-.308-.016-.23-.323-.133s-.338.183-.2.509c.007.015.058.078.031.09-.185.091-.338-.374-.512-.39a1.074,1.074,0,0,0-.319.071c-.067.1.053.283-.043.364-.35.288-.332-.181-.539-.222-.16-.031-.315.179-.384.293s-.38.046-.555.252c-.219.256-.651.606-.748.928-.092.3-.2.082-.311.248a2.642,2.642,0,0,0-.328.562c-.135.214-.069.428-.224.624a.87.87,0,0,0-.264.5c-.026.111-.12.168-.182.256-.093.134-.081.232-.213.337,0,.182-.067.366-.067.545,0,.226.123.285.154.485s.245.418.229.608a3.48,3.48,0,0,0-.076.486.383.383,0,0,0,.4-.2c.148-.336.176,0,.311.135s.043.171,0,.3a1.522,1.522,0,0,0,0,.486c.061.174.185.153.29.131s.186-.042.182.114a1.954,1.954,0,0,0,.073.442c.019.126-.146.248-.174.391-.042.2.058.38-.217.139-.159-.14-.154-.249-.383-.223a2.784,2.784,0,0,1-.792.1.118.118,0,0,0-.149.053c-.024.032-.042.063-.063.062-.046,0-.036-.225-.064-.277a.3.3,0,0,1-.015-.276.04.04,0,0,1-.008-.016c-.178,0-.473.339-.473.016,0-.266-.4-.037-.563.063a3.261,3.261,0,0,0-.777.817,1.411,1.411,0,0,1-.65.605c-.124.055.11.316.11.407,0,.232.058.228.133.223a.18.18,0,0,1,.151.045,1.5,1.5,0,0,0,.279.245c.115.061.292.2.427.137.151-.067.107.1.07.183-.1.216.006.534.265.534.134,0,.269-.029.393-.029-.034.174-.423.2-.118.359a.222.222,0,0,1,.111.1l.244.271a2.013,2.013,0,0,0,.295.107,1.193,1.193,0,0,1,.477.41c.044.142.3.1.4.332.075.171.093.408.294.482a.517.517,0,0,0,.284-.016c.124-.03.243-.06.316.02l.421.473a1.6,1.6,0,0,0,.445.226c.046.02.113-.012.174-.043s.14-.078.155-.025c.02.091-.053.219-.033.317.012.059.112.046.212.033a.615.615,0,0,1,.155-.009c.09.012.208-.275.441-.3.1-.009.249-.133.319-.075.173.141.114.244.177.414.031.084.1.264.185.305.193.1.376.2.084.307-.319.123.008.352.137.463.134.075.442.209.5.355s-.075.246-.04.356a2.427,2.427,0,0,0,.312.241c.094.078.175.029.254-.02s.18-.111.282.024c.128.172.027.277.335.307a1.154,1.154,0,0,1,.795.5,2.248,2.248,0,0,0,1.206.379c.449-.038.667-.478,1.1-.478a1.225,1.225,0,0,1,.642.232c.135.08-.277.605-.2.738.088.155.257.045.257.3,0,.116.379.2.476.242.2.1.258.226.41.355.088.075.355-.027.449-.055.341-.105.375-.165.375.178a1.321,1.321,0,0,1-.091.509c-.055.1-.181.155-.225.26a1.071,1.071,0,0,0,.008.478c0,.08-.066.119-.079.2a1.03,1.03,0,0,0,.04.339c-.043.151-.192.528.1.332.108-.072.326-.268.465-.209.162.067.376.4.525.4a2.366,2.366,0,0,0,.3-.078.507.507,0,0,1,.291.023l.159.079a.353.353,0,0,0,.4.147.415.415,0,0,1,.314.043c.165.106.271.009.378-.088a.354.354,0,0,1,.276-.133c.04,0,.075.111.111.126a.3.3,0,0,0,.183-.021c.084-.026.167-.053.2.005s.205.315.221.34c0,.005.009,0,.015,0s.013,0,.015,0c.032.074.079.076.079.189a1.559,1.559,0,0,0-.023.237c0,.013.023.006.031.024.042.1.142-.011.182-.024.1-.031.171.055.206.11.08.138.229-.064.282-.071a1.2,1.2,0,0,1,.682.084c.2.157.135.263.422.253a.607.607,0,0,1,.235.067c.1.044.2.087.257.059.158-.074.057-.2.312-.19.215.012.487.288.5-.062.012-.319.311-.031.347-.029.053,0,.1,0,.144,0a1.224,1.224,0,0,1,.247.016c.279.05.154.219.429.107.087-.035.137.053.193.142s.129.186.26.134c.154-.06.206-.237.395-.229.081,0,.212.115.3.146.213.073.372-.083.564-.117a.358.358,0,0,1,.143.029.312.312,0,0,0,.172.025l-.016-1.306c.1-.04.277-.131.37-.056.446.353.2-.379.616-.379.067.271.216-.032.323-.032.09.266.038.106.252.237.015.01.04.2.064.245s.151-.008.205-.008c.113.341.363-.127.44-.127.006-.021.194.1.229.15a.739.739,0,0,1,.212.505c.031.153.139.077.254,0,.079-.053.163-.106.228-.084a2.5,2.5,0,0,1,.621.537c.037.349.016.169.371.307.242.094.034.285.134.387.075.075.2.143.284.221.183.165-.143.377.276.443.216.033.48-.047.536.237l.038.334a.94.94,0,0,0,.246.218c.521.262,1.023.037,1.635.233.33.107.226.256.446.4a.227.227,0,0,0,.191,0,.277.277,0,0,1,.3.054,7.492,7.492,0,0,0,.922.584.481.481,0,0,0,.351.031.784.784,0,0,1,.39.017c.311.121.524.226.717.156a.669.669,0,0,0,.323-.306c.374-.585.556-.113,1.021-.024a1.151,1.151,0,0,1,.752.458c.124.128.539.207.575.285a1.4,1.4,0,0,0,.636.668c.432.251.541-.258.941-.321.482-.074.576.73.714,1.04.047.106-.033.4.169.4.165,0,.177-.248.3-.24.092.006-.088.536.267.419.153-.052.37-.362.37-.044,0,.18.088.2.226.261.109.052.119.1.192.189.116.138.219.079.292.288.066.193.135.189.2.185a.107.107,0,0,1,.113.044c.069.1.108.2.2.1.063-.072.134-.02.181.04.129.159.362,0,.39.257.013.113,0,.448.143.47.029,0,.052-.025.071-.056s.05-.091.062-.016a1.21,1.21,0,0,0,.17.454c.122.228,0,.2.02.467.017.2.358.161.228.441-.058.126-.309.184-.256.336a.676.676,0,0,0,.228.249c.035.017.1-.006.165-.028.11-.039.221-.078.186.08-.012.058-.046.2.048.2.072,0,.112-.187.184-.138s-.1.53.1.418c.242-.135.174.014.127.182a1.327,1.327,0,0,0-.048.343c0,.057-.11.036-.222.016-.142-.026-.293-.052-.251.08.078.243.5.03.469.307a.677.677,0,0,0,.217.664c.086.109.219.106.361.1a.68.68,0,0,1,.367.062,3.788,3.788,0,0,0,.674.376c.252.082.328-.08.434-.257.323-.536.278.353.3.483.071.423.21.3.422.137.136-.108.086.042.064.191s-.015.315.271.172c.306-.152.341.476.515.684.248.292.328.2.6.363.145.085.4.268.437,0,.014-.1.157-.629.221-.272.057.317.188.294.351.273a.428.428,0,0,1,.445.144.184.184,0,0,0,.171.051c.061,0,.12-.007.156.049.09.144,0,.539.275.53.242-.009.143.186.162.358.014.13.125.206.189.312.037.062-.305.383-.114.364.21-.022.362-.017.394.256.018.151.239.144.3.336a1.341,1.341,0,0,1,.07.387c0,.048-.064.313-.023.319a.252.252,0,0,0,.086-.027c.071-.029.156-.059.126.043-.057.2-.273.261-.39.431-.073.107-.056.236-.161.359-.178.208-.14.35.051.541s.684.133.714.355c.016.132.12.321.267.241.363-.2.535.1.812.3.058.041.17.2.205.039.061-.27-.148-.524.355-.445.129.019.093.439.248.272.1-.109-.081-.475.1-.475.164,0,.2.194.261.317a.2.2,0,0,0,.221.1c.109,0,.208-.007.208.27s.073.411.343.451c.22.032.111.547.058.7a1.206,1.206,0,0,0-.133.417c0,.2.119.232.181.392.086.224-.116.161-.078.343.027.135.639.015.315.355-.205.215-.328.054-.375.423-.042.327-.3.138-.445.288-.088.089,0,.354.031.454a.528.528,0,0,0,.3.343c.211.115,0,.713.331.47.277-.2.246,0,.319.206.093.267.15.112.205-.042s.106-.307.19-.049c.027.088.154.389.275.2.139-.217.166.046.205.141.015.04.113.105.134.144.058.1.126.123.126.314,0,.313.106.469.375.23a.346.346,0,0,1,.275-.072.426.426,0,0,0,.24-.042c.239-.142.711-.8.8-.215.069.443.341-.224.5-.232s.083.379.13.47c.19.366.435-.441.453-.556.078-.492.464.143.591.2.182.081.411.087.6.17a1.7,1.7,0,0,0,.52.182c.218.021.251-.074.406-.179.092-.063.32.327.335.415.018.108.069.492.279.3a.411.411,0,0,1,.406-.142c.188.032.305-.241.43-.327a.323.323,0,0,1,.347-.037.337.337,0,0,0,.239.02c.089-.027.179.05.263.126s.175.164.247.119c.048-.03.155-.435.209-.529.078-.14.672-.9.815-.652.164.291.272.23.386.169a.236.236,0,0,1,.248-.026c.031.017.35.366.375.134.033-.308-.446-.569.13-.5.393.047.355-.57.508-.818.067-.108.112-.3.233-.362.077-.037.146.066.208.094s.176-.122.295-.275c.141-.184.3-.368.446-.238s-.236.7.075.766a.41.41,0,0,0,.305-.105.4.4,0,0,1,.321-.1c.3.077.47.347.836.347.408,0,.257.132.295.47.034.3.585.979.387.257-.134-.486.059-.6.4-.225.142.157.537.417.456.616-.173.427.013.439.3.242a.375.375,0,0,1,.244-.085c.065,0,.112,0,.224-.153.035-.046.284-.323.293-.1,0,.059-.157.426.039.363.242-.076.286-.8.551-.315.094.168.379.375.442.078.022-.1-.011-.317.166-.256.338.116.1-.194.111-.356.009-.288.575-.241.756-.268.326-.05.265.3.473.3.487.018-.618-.758.138-.829.263-.025.219.121.35.3.2.265.281.016.359-.1.117-.173.56-.114.611.091.1.425.208.378.59.378.262,0,.2.254.351.388.193.171.944-.017.749.478-.112.286.014.253.142.222.1-.026.2-.051.2.073-.018.323.081.959.594.594.209-.149-.15-.368-.176-.462s.149-.065.2-.052c.138.039.126.1.214.185.189.175.332.438.547.178.133-.16.185.056.285.272.087.191.212.382.464.313.186-.051.163-.324.39-.324.1,0,.623.137.619.253-.006.155-.443.159-.465.324a.273.273,0,0,0,.316.308c.21-.044.388-.517.625-.288a.835.835,0,0,1,.233.632c.01.119.058.351.2.374.057.01.079-.058.1-.128s.049-.154.127-.12c.231.1-.012.557.343.691.185.068.244-.094.294-.256.046-.146.085-.294.2-.27.15.033.131.746.269.968l-6.18,9.722c.037,0,.075,0,.115,0a.373.373,0,0,1,.325.093c.068.081.164.224.261.265l.176.185a1.026,1.026,0,0,1,.395-.039c.479.073.688.5,1.253.178.635-.361.941-.784,1.529-.1.391.456,1.035.453,1.127,1.109.067.47.676.681.91.992a7.42,7.42,0,0,1,1,1.2.792.792,0,0,1,.045.12l.207-.464,4.391-24.959.03-.373,0-.021,0-.019.086-.422.328-.438c.162-.5-.157-.89-.157-1.328,0-.253.22-.427.22-.663,0-.261-.133-.3-.182-.5a.112.112,0,0,1-.047-.047c-.022-.006-.03-.041-.03-.063-.06-.039-.025-.236-.025-.307-.012,0-.007,0-.007-.016-.229-.079.083-.292-.111-.427a.714.714,0,0,1-.355-.545.366.366,0,0,0-.086-.024.82.82,0,0,0-.4-.237c-.022-.09.059-.241.008-.292-.1-.1-.219-.158-.324-.253.024.012-.117-.1-.1-.126s.225-.129.15-.213c-.182-.206-.744-.644-.45-.94.149-.148.423-.373.435-.6.01-.209-.544-.268-.356-.609.037-.441.1-.441-.26-.679-.2-.132-.374-.1-.543-.307-.278-.334-.259-.39-.639-.625-.2-.121-.343-.315-.583-.315-.246-.5-.109-.4-.622-.356-.273.021-.663-.671-.859-.869-.167-.166-.148-.391-.419-.474-.217-.067-.537-.254-.331-.529l.159-.221-.025-6.263a.253.253,0,0,1,.166-.055c.086.351.186-.036.339-.087.124-.041.255.067.34.142.164.148.275-.061.353-.181.066-.1.2-.074.345-.049a.685.685,0,0,0,.373-.007.213.213,0,0,1,.228.055c.064.049.117.1.182.047a1.57,1.57,0,0,0,.3-.386c.023-.038.055-.017.1.006a.126.126,0,0,0,.117.018c.224-.1.522-.577.8-.522.023.092.37.467.449.458.111-.011.1-.235.133-.3.05-.113.306-.221.324-.276.165.041.274-.1.4-.232a.509.509,0,0,1,.522-.226c0,.191.246.152.332.291a4.467,4.467,0,0,0,.323.5c.1.061.152.126.244.189.118.082.184-.034.292-.079s.234-.128.33-.158c.114-.035.04.255.04.292,0,.195.31.122.426.165l.418-.048c-.1-.23-.165-.541.172-.456s.771.261.474-.269c-.1-.18-.415-.22-.426-.395-.025-.406.333-.35.157-.7s.239-.533.182-.608c-.11-.141-.46-.224-.513-.363-.1-.271.259-.385-.086-.537-.389-.172.022-.345-.386-.647-.162-.121-.5-.121-.607-.214-.221-.2-.085-.337-.512-.221-.172.047-.574.217-.686-.064a.082.082,0,0,0-.134,0c-.094.191-1.035.138-1.213.025a.586.586,0,0,0-.3-.1c-.107,0-.094.121-.2.143l-.511.11c-.071.016-.142-.11-.227-.236-.131-.2-.3-.391-.546-.056-.224.3-.416.268-.537.232-.062-.019-.106-.037-.125-.011l.054-5.907c.209.069.4.255.6.118.361-.251.4-.346.842-.229.536.142.894-.395,1.4-.395.316,0,.486.166.8.166.294,0,.34.1.575.221h11.35c.007-.177-.17-.062-.261-.146-.056-.051.116-.172.094-.28-.042-.213-.292-.035-.449-.035-.232,0-.033-.295-.012-.4l0,0a1.021,1.021,0,0,1-.308,0,.29.29,0,0,1-.174-.181c-.064-.138.107-.231.209-.3.155-.1.146-.275.146-.441.075-.261.322-.366.371-.6l.1-.49c.008,0,.013-.006.02-.007l0,0a1.716,1.716,0,0,0,.134.517c.053.155.127.133.205.111a.176.176,0,0,1,.149,0,1.8,1.8,0,0,1,.26.379c.134.206.145.172.371.224.123.03.241.395.276.507.1.321.042.4.283.162.1-.1.048.1.122.106l.461.027c.1.007.467.108.355-.117-.141-.285-.157-.117.021-.292.074-.077-.155-.231-.056-.305a.176.176,0,0,1,.137-.022c.087.01.177.019.261-.222s.346-.041.433-.238a1.459,1.459,0,0,1,.319-.488c.267-.27-.035-.336.457-.258.118.078.766.284.817.138.036-.107-.02-.194.137-.217.311-.046.273-.057.446-.308s.025-.382.055-.671c.02-.2.092-.22.268-.143.23.1.323-.019.56-.089.1-.036.179-.046.217-.147.057-.159.206-.183.255-.3a.119.119,0,0,1,.111-.06.233.233,0,0,0,.159-.057.232.232,0,0,1,.183-.057c.137.023.358.26.256.4-.114.157-.157.25.068.332.35.127-.062.3.054.568.055.123,0,.18-.019.3-.033.194.1.206.177.344a.614.614,0,0,0-.048.3c.025.091.116.1.151.195s.084.451.217.4c.072-.029.1-.124.2-.1s.035.269.238.1c.263-.218.331.1.331.309,0,.237.176.321.361.41.152.072,0,.184.039.312.021.061.076.057.133.054a.2.2,0,0,1,.112.013c.05.031.178.219.141.28a1.291,1.291,0,0,0-.1.194c-.034.087.057.112.062.181,0,.132-.02.288.068.376s0,.2-.019.324c-.02.1.064.184.03.28-.028.08-.138.136-.114.233.016.063.28.053.335.272.033.131.165.217.13.368-.059.254-.092.207.063.442a.45.45,0,0,1,.017.572c-.087.273.289.544-.068.783a.231.231,0,0,1-.268-.013c-.091-.049-.172-.1-.265.04-.124.187.107.277.2.43.058.09-.013.308.126.308.22,0,.138.274.258.423.094.12,0,.331,0,.473a4.858,4.858,0,0,0,.9-.264l1-.272.29-.056a2.094,2.094,0,0,1-.29-.419.191.191,0,0,1,.071-.291c.285-.123.2-.6.142-.775-.005-.016,0-.019-.016-.023-.549-.127-.384-.728-.465-1.169a1.091,1.091,0,0,0-.354-.584c-.133-.134-.04-.388-.118-.552-.157-.336-.315-.67-.473-1.005a1.527,1.527,0,0,1-.237-.813,2.2,2.2,0,0,0-.338-.9c-.092-.206-.256-.23-.346-.379a.678.678,0,0,1-.048-.4c.015-.32.246-.615.1-.941-.168-.38-.367-.045-.623-.348a1.6,1.6,0,0,1-.181-1.792c.215-.533-.774-.723-.954-.915a3.593,3.593,0,0,0-.37-.688c-.177-.193-.325-.2-.473-.506-.084-.174-.4-.286-.449-.331s-.512-.416-.607-.514-.079-.1-.221-.023c-.073.04-.295.255-.307.07a2.577,2.577,0,0,0-.032-.465,6.244,6.244,0,0,0-.259-.687c-.121-.316-.331-.264-.58-.212a.726.726,0,0,1-.807-.208c-.223-.251-.768.116-.924.308a.517.517,0,0,1-.192.137l.02-.752,3.956-3.618.464.017v-.42a1.152,1.152,0,0,0,.4-.339c.042-.068.076-.246.127-.269.355-.159-.174-.676-.174-.947a2.19,2.19,0,0,1-.559-.166c0-.024-.021-.038.015-.047a.968.968,0,0,0-.236-.8c-.083-.083-.223-.218-.174-.332.092-.207.015-.242-.047-.426a.214.214,0,0,0,.056-.173c-.383-.1-.22-.816-.466-.878,0-.16-.265.013-.306.032-.541.243-1.2-.069-1.057-.75.059-.285-.251-.52-.362-.758a2.153,2.153,0,0,1-.173-.988l-.1-.3a1.13,1.13,0,0,0-.03-.159c-.2-.843-.923-1.1-.726-2.077a4.946,4.946,0,0,0,.2-.49c-.068-.179-.062-.547-.118-.647-.19-.348.011-.614-.425-.767-.4-.137-.262-.306-.213-.64a4.533,4.533,0,0,1,.15-.946,3.693,3.693,0,0,0-.016-2.229c-.106-.612.369-1.275.252-1.855a2.023,2.023,0,0,1-.11-.522c.015-.235.166-.4.047-.608-.279-.5-.419-.709.087-1.113.406-.324.984-.512,1.371-.845.936-.8.1-1.529.277-2.567a3.139,3.139,0,0,1,.937-1.737c.387-.312,1.287-.66.891-1.2a1.646,1.646,0,0,1-.5-1.12.784.784,0,0,1,.259-.447,3.9,3.9,0,0,1-.33-.375.748.748,0,0,0-.347-.268.922.922,0,0,0-.316-.12c-.6-.041-.953-.325-1.552-.1a.355.355,0,0,1-.437-.125.393.393,0,0,0-.541-.088,5.889,5.889,0,0,1-2.167.814l-1.2.11c-.521.049-1.04.9-1.521.316-.216-.262-1.084-.121-1.355,0-.176.079-.227.4-.466.269-.184-.1-.316-.28-.48.031-.143.273-.411.149-.669.027a.784.784,0,0,0-.466-.13c-.434.124-.452.217-.742-.125-.173-.207-.4-.125-.632-.043a.71.71,0,0,1-.51.058c-.184-.082-.279-.268-.488-.245-.48.055-.082.152-.584-.039-.667-.256-1.267,1.063-1.828,1.271-.464.172-.6-.37-.836-.562s-.558.006-.84.2l-6.332-8.146a1.235,1.235,0,0,0-1.1.152c-.45.214-.868.428-1.2-.081a.329.329,0,0,0-.35-.132c-.084.006-.157.013-.194-.042a.312.312,0,0,0-.415-.156.429.429,0,0,1-.333-.017c-.239-.12-.47-.509-.623-.68-.106-.118-.2-.029-.3.058-.077.068-.158.135-.254.109-.274-.074-.388-.348-.6-.34-.523.019-1.787.168-1.955.655-.051.148-.2.13-.339.113a.566.566,0,0,0-.205,0c-.257.074-.255.207-.425.379-.2.2-1.074-.447-1.246-.45a1.68,1.68,0,0,0-.672.041,2.53,2.53,0,0,1-.392.062c-.238-.239-.424-.158-.635-.077a.822.822,0,0,1-.468.069c-.247-.048-.3-.482-.6-.1-.156.2-.207-.1-.292-.119l-.007-.016c-.016,0-.018.013-.032.016,0,.314-1.1.172-1.183-.142a1.237,1.237,0,0,0-.478.075c-.272.072-.564.145-.7-.012-.471-.557-.754.11-1.025.237a3.675,3.675,0,0,1-1.159.04,1.051,1.051,0,0,1-1.119-.616,9.176,9.176,0,0,1-.9-1.746c0-.423.364-.518,0-.884-.282-.351-.372-.3-.538-.244a.668.668,0,0,1-.338.03,1.232,1.232,0,0,0-.345,0,.531.531,0,0,1-.482-.118c-.07-.055-.171-.031-.278-.007-.131.03-.271.058-.376-.056-.14-.151-.118-.766-.379-.766-.115-.345.127-.443.127-.719,0-.3-.11-.563-.11-.877a4.832,4.832,0,0,1,.244-1.809c.127-.332-.326-.656-.347-.9-.013-.171.462-.274.583-.41.07-.159-.016-.427.182-.427.221,0,.408.257.489.237,0-.1-.06-.131-.016-.26s.081-.139.047-.261c-.049-.176-.295-.319-.253-.49.051-.2.093-.217.024-.441a2.145,2.145,0,0,1-.118-.539c0-.225-.175-.461-.1-.678a.68.68,0,0,0-.323-.861l-1.727-1.935-.417-.166-.923-4.264a.734.734,0,0,0-.221-.443,1.614,1.614,0,0,1-.164-.095c-.053-.035-.094-.119-.158-.1-.17.043-.237.157-.417.071-.129-.061-.165-.042-.277.055l-.008.158-.449.054c-.205.026-.115-.118-.157-.252-.033-.1-.143-.1-.206-.165-.129-.13.616-.589-.03-.814-.322-.112.126-.426-.175-.506-.56-.148-.539.377-.953.5-.3.086-.356.063-.576.323a.3.3,0,0,1-.345.1.232.232,0,0,0-.277.066c-.187.236-.5.11-.8.055-.336-.06-.4-.235-.174-.466a1.691,1.691,0,0,0,.464-.892c.01-.182.072-.178.13-.174.042,0,.082.005.1-.063.1-.021.032-.218.032-.285.213-.071.1-.349.229-.371.09-.014.434-.285.441-.371.011-.121-.1-.241-.071-.316a.545.545,0,0,0,.213-.047.527.527,0,0,0-.04-.19,1,1,0,0,1,.552-.465c.311-.1.331-.005.331-.4,0-.246.105-.243.15-.4a4.772,4.772,0,0,1,.875-1.6c.041-.051.323-.313.221-.348,0-.04-.056-.036-.11-.03s-.08.007-.1-.008c-.052-.053-.02-.138-.088-.2-.225-.2.039-.16-.03-.364a1.189,1.189,0,0,1,.126-.806c.236-.209.147-.385.18-.646l.372-.4c-.026-.072-.019-.044-.08-.2-.037-.048.071-.38.047-.5-.043-.215.151-.247.135-.4-.015-.126-.128-.186-.128-.339s.193-.325.135-.5a.645.645,0,0,1,0-.537c.115-.263-.058-.625.079-.734a1.877,1.877,0,0,0,.379-.356,2.267,2.267,0,0,0,.18-.584,2.8,2.8,0,0,1,.324-.6c.215-.265.371-.045.481-.459a2.766,2.766,0,0,1,.205-.418c.118-.331-.068-.656.37-.656.062-.252.072-1.03.393-1.05.544-.033.683-.621.947-1.026.13-.2.378-.473.473-.64.059-.106-.164-.336-.055-.4.086-.053.356-.214.378-.3h.015c0,.347.815-.152.915-.229l.938.165,2.576-4.8,2.7-.735,2.778-.861c-.133-.05.135-.194.154-.209.278-.225.556-.32.556-.707a3.3,3.3,0,0,0,.508-.217,2.684,2.684,0,0,1,.859-.592c.261-.1.464-.206.464-.518,0-.574-.47-.9-.657-1.389-.124-.223-.481-.58-.382-.858.039-.113-.464-.468-.568-.557s-.215-.2-.382-.122c-.078.035-.172-.055-.229-.1-.309-.207-.692-.05-.933-.291a1.58,1.58,0,0,0-1.029-.431,1.9,1.9,0,0,1-.752-.091.418.418,0,0,0-.17-.038c-.15,0-.259.093-.425.129" fill="none"/>
    </clipPath>
  </defs>
  <g id="Grupo_80473" data-name="Grupo 80473" transform="translate(-6028 3593.513)">
    <g id="Grupo_58040" data-name="Grupo 58040" transform="translate(6100.369 -3568.906)">
      <g id="Grupo_57975" data-name="Grupo 57975" clip-path="url(#clip-path)">
        <g id="Grupo_57974" data-name="Grupo 57974">
          <g id="Grupo_57973" data-name="Grupo 57973" clip-path="url(#clip-path)">
            <path id="Trazado_113667" data-name="Trazado 113667" d="M.031,71.981A71.945,71.945,0,1,0,71.975.036,71.944,71.944,0,0,0,.031,71.981" transform="translate(-0.003 -0.003)" fill="#2494e0"/>
            <path id="Trazado_113668" data-name="Trazado 113668" d="M78.282,115.645c1.97,2.97,6.122,3.907,5.767,5.191-.15.536-.907.467-1.154,1.152-.387,1.075,1.167,2.111,2.306,4.037,1.609,2.718.48,3.97,1.731,5.48,1.672,2.018,6.076,2.651,8.65.867,3.341-2.321,1.757-7.433,5.768-9.806,1.048-.621,1.257-.329,2.6-1.154,1.758-1.081,4.711-3.618,4.324-6.055-.307-1.934-2.456-2.178-2.595-4.039-.091-1.222.769-2.072,2.306-3.747,4.424-4.817,6.634-7.264,6.634-9.229,0-2.065-1.48-2.773-.865-4.613a3.765,3.765,0,0,1,2.883-2.6c1.241-.082,1.963.98,2.595.578.485-.31.188-1.013.865-2.306.355-.678.532-1.015.866-1.153,1.151-.48,2.18,2.132,4.614,2.595,1.963.373,2.638-1.071,4.614-.578,1.914.478,2.164,2.055,3.171,2.02,2.327-.084,3.775-8.587,4.327-11.822,1.39-8.171,2.085-12.255.287-15-2-3.041-5.06-3.4-6.344-7.5-.5-1.588-.286-2.332-1.152-4.039-1.006-1.974-3.124-4.587-5.191-4.323-.982.124-1.043.783-2.017.865-1.675.14-2.451-1.719-4.328-2.884-2.858-1.775-7.27-1.309-8.073.288-.878,1.746,2.6,4.726,1.73,5.768-.446.534-1.377-.223-3.172,0-2.795.351-3.463,2.559-5.19,2.307s-1.574-2.536-3.46-3.173c-2.086-.7-3.241,1.763-6.921,2.6-4.183.945-6.428-1.392-7.787,0-1.555,1.589,1.295,4.753-.576,8.072-.986,1.751-2.117,1.475-2.883,3.461s0,3.221-1.153,4.614c-.787.949-1.427.723-2.019,1.729-.733,1.251.021,1.994-.576,3.173-.653,1.288-1.852.984-3.461,2.308C73.484,80.31,74.125,81.6,72.8,82.484c-2.635,1.748-6.81-2.319-8.651-.866-1.269,1-.661,4.018,0,5.766,1.761,4.665,5.507,4.594,9.515,10.092a19.691,19.691,0,0,1,3.461,6.922c1.459,5.658-.948,8.078,1.154,11.246" transform="translate(-5.876 -4.305)" fill="#a2e362"/>
            <path id="Trazado_113669" data-name="Trazado 113669" d="M72.637,132.1a2.554,2.554,0,0,0,2.6-.865c.377-.67-.123-1.27-.578-2.885-.877-3.123,0-4.434-1.152-5.478-.724-.656-1.148-.209-2.307-.865-2.195-1.248-2.4-3.834-2.884-3.749-.56.1-.763,3.678.289,7.5.559,2.032,1.613,5.856,4.037,6.344" transform="translate(-6.287 -10.959)" fill="#a2e362"/>
            <path id="Trazado_113670" data-name="Trazado 113670" d="M88.4,54.323c-.144.619-5.482-1.729-9.229.577-3.36,2.069-1.623,5.541-5.621,10.524-3.11,3.876-5.967,4.038-6.344,6.919-.423,3.235,2.82,5.873,2.307,6.346-.487.448-2.9-2.393-6.921-4.616-6.07-3.356-9.516-1.837-11.823-5.189-1.14-1.656-1.905-4.362-.865-5.766.874-1.18,2.675-.976,3.461-2.6.485-1,.183-1.887.576-2.02.64-.213,1.26,2.195,2.885,2.6.451.112,1.328.155,4.9-2.883,2.907-2.475,4.356-3.73,4.037-4.614-.307-.849-2.089-1.337-3.461-.866-2.306.792-2.05,3.81-4.036,4.325-1.789.463-2.931-1.738-4.615-1.153-1.509.524-1.022,2.435-2.595,3.459-2.335,1.521-4.994-1.657-7.787-.287-2.235,1.1-2.613,4.157-4.324,4.037-.83-.058-1.247-.815-1.73-.576-.8.39.11,2.574-.866,3.459-.825.747-2.052-.288-3.171,0-3.778.971-2.032,15.911-4.614,16.437-.965.2-2.149-1.695-2.6-2.6-1.553-3.128.328-5.258-.288-8.651-.768-4.232-4.989-8.062-7.5-7.5-1.887.425-3.443,3.48-4.9,6.342-.769,1.512-1.317,2.936-2.018,2.885-.93-.065-1.248-2.649-1.729-2.6C8.946,70.391,9.505,74.2,7.8,78.4c-.587,1.45-1.716,3.616-2.306,3.461C4.549,81.61,6.732,75.848,4.92,68.6c-.733-2.931-1.37-3.111-1.73-5.767a18.465,18.465,0,0,1,1.152-9.514c2.746-6.45,9.011-8.944,8.074-11.247-.358-.886-1.376-.754-2.017-2.019-.762-1.5-.177-3.377.576-4.9A71.522,71.522,0,0,1,33.468,12.077a47,47,0,0,0,6.055,0,20.235,20.235,0,0,0,4.613-.576c3.315-1.036,3.926-2.985,6.345-2.883.826.034.706.261,2.595.865,4.192,1.343,5.919.592,6.632,1.729,1.009,1.608-1.739,4.223-.865,5.193.835.922,4.085-.638,5.767-1.444,3.52-1.687,3.249-2.456,4.615-2.594,3.638-.37,5.038,5.154,9.8,5.479,2.358.16,4.629-1.014,4.614-1.73-.019-.86-3.316-.953-3.461-2.02-.15-1.1,3.139-2.9,6.344-3.459,7.934-1.375,17.354,4.54,17.013,8.651a4.121,4.121,0,0,1-3.749,3.459c-2.819-.1-3.263-5.421-6.631-6.055-2.65-.5-5.994,2.111-5.768,3.749.216,1.565,3.608,1.616,12.4,4.324,9.679,2.982,11.539,4.761,12.111,6.633.618,2.014-.413,3.622.866,4.9,1.113,1.115,2.379.388,5.191,1.444,1.023.385,4,1.5,4.037,3.172.024,1.172-1.339,2.579-2.883,2.883-2.991.588-6.5-2.989-9.084-5.624-1.821-1.855-2.782-3.253-4.325-3.172a5.855,5.855,0,0,0-3.172,1.729c-1.322,1.231-1.689,2.409-2.019,2.306-.611-.185.539-4.269-.289-4.612-.5-.207-1.444,1.057-2.595,2.595-1.973,2.639-3.011,4.068-2.595,5.479.328,1.114,1.309,1.364,1.154,2.018-.221.93-2.486,1.652-3.46.867-1.159-.934.434-3.235-.867-4.9-1.068-1.373-3.523-1.591-4.037-.868-.529.746,1.317,2.041.865,3.462C88.2,44.613,85.3,45.426,82.921,45.1c-2.752-.384-4.026-2.195-4.614-1.729-.688.541.24,3.645,2.306,6.055,3.213,3.743,7.917,4.342,7.786,4.9" transform="translate(-0.279 -0.798)" fill="#a2e362"/>
            <path id="Trazado_113671" data-name="Trazado 113671" d="M89.539,105.514a3.319,3.319,0,0,0-.288-4.613c-1.187-.851-2.834-.146-3.173,0-1.01.431-2.415,1.506-2.306,2.594.171,1.731,4.18,3.458,5.767,2.019" transform="translate(-7.762 -9.312)" fill="#2294e0"/>
            <path id="Trazado_113672" data-name="Trazado 113672" d="M88.344,41.134c2.623.049,4,1.235,5.192.287A2.714,2.714,0,0,0,94.4,39.4c.074-2.161-2.237-4.079-3.461-3.748-.612.168-.552.794-1.729,1.729-.314.25-1.5,1.2-2.019.867-.468-.3.175-1.3-.289-2.308-.675-1.463-3.212-1.872-3.46-1.441-.229.4,1.622,1.276,1.442,2.306-.252,1.432-4.068,1.119-4.614,2.883a2.549,2.549,0,0,0,1.153,2.6c1.677,1.059,3.22-1.222,6.92-1.155" transform="translate(-7.432 -3.182)" fill="#2294e0"/>
            <path id="Trazado_113673" data-name="Trazado 113673" d="M64.7,46.912c-.586-1.389,2.567-3.293,2.018-4.9-.229-.669-.9-.7-.866-1.153.08-1.07,3.87-1.139,4.038-2.306.12-.841-1.78-1.3-1.73-2.306.047-.976,1.9-2.081,3.46-1.729a3.639,3.639,0,0,1,2.595,3.749c-.293,2.3-3.63,2.687-3.748,4.9-.083,1.539,1.49,2.046,1.153,3.173-.488,1.635-4.385,2.514-6.343,1.153a1.363,1.363,0,0,1-.576-.577" transform="translate(-5.988 -3.192)" fill="#2294e0"/>
            <path id="Trazado_113674" data-name="Trazado 113674" d="M29.567,27.751c-1,.671-1.826,1.228-1.731,1.73.132.684,2.007,1.384,3.173.577s1.166-2.815.575-3.172c-.384-.234-1.053.215-2.017.865" transform="translate(-2.579 -2.486)" fill="#2294e0"/>
            <path id="Trazado_113675" data-name="Trazado 113675" d="M129.906,18.846A25.186,25.186,0,0,1,121.4,16.4c-.664-.336-2.92-1.513-3.171-1.155-.211.3,1.187,1.39.866,2.019-.277.54-1.731.578-1.731.578s-2.653-2.036-2.306-2.887c.208-.509,1.378-.28,1.443-.573.106-.5-3.417-1.355-5.769-2.6-2-1.058-4.634-3.175-6.775-7.929a72.343,72.343,0,0,1,25.952,14.995" transform="translate(-9.633 -0.357)" fill="#a2e362"/>
            <path id="Trazado_113676" data-name="Trazado 113676" d="M4.168,93.626c1.624-.529,4.035,3.143,5.191,4.9,1.587,2.419,3.447,5.248,2.306,7.211-.76,1.309-2.737,2.021-3.461,1.441-1.22-.98,1.843-5.07.289-6.919-1.213-1.449-3.892.084-5.19-1.443-1.226-1.443-.482-4.754.866-5.192" transform="translate(-0.248 -8.671)" fill="#a2e362"/>
            <path id="Trazado_113677" data-name="Trazado 113677" d="M14.649,125.253a20.791,20.791,0,0,1,9.517,4.9A21,21,0,0,1,30.509,141.4a67.461,67.461,0,0,1-15.86-16.15" transform="translate(-1.357 -11.607)" fill="#a2e362"/>
            <g id="Grupo_57969" data-name="Grupo 57969" transform="translate(0 7.816)" opacity="0.2">
              <g id="Grupo_57968" data-name="Grupo 57968">
                <g id="Grupo_57967" data-name="Grupo 57967" clip-path="url(#clip-path-3)">
                  <path id="Trazado_113678" data-name="Trazado 113678" d="M39.4,8.615A73.14,73.14,0,0,0,6.371,42.933c-11.418,25-4.361,47.84-2.595,53.056A72.7,72.7,0,0,0,32.034,132.9a72.037,72.037,0,0,0,37.2,11.821,72.958,72.958,0,0,0,36.061-8.168A74.984,74.984,0,0,1,39.4,8.615" transform="translate(0 -8.614)" fill="#020202"/>
                </g>
              </g>
            </g>
            <g id="Grupo_57972" data-name="Grupo 57972" transform="translate(39.532)" opacity="0.2">
              <g id="Grupo_57971" data-name="Grupo 57971">
                <g id="Grupo_57970" data-name="Grupo 57970" clip-path="url(#clip-path-4)">
                  <path id="Trazado_113679" data-name="Trazado 113679" d="M43.57,7.819A72.72,72.72,0,0,1,78.462.033,71.8,71.8,0,0,1,112.2,9.549a74.564,74.564,0,0,1,27.97,29.7,71.683,71.683,0,0,1,5.768,14.995c5.9,23.034-2.03,42.473-3.461,45.849a73.041,73.041,0,0,1-33.161,35.754A72.847,72.847,0,0,0,43.57,7.819" transform="translate(-43.57 0)" fill="#fff"/>
                </g>
              </g>
            </g>
          </g>
        </g>
      </g>
    </g>
    <g id="Grupo_58028" data-name="Grupo 58028" transform="translate(6028 -3593.513)">
      <g id="Grupo_58025" data-name="Grupo 58025">
        <g id="Grupo_58024" data-name="Grupo 58024" clip-path="url(#clip-path-5)">
          <path id="Trazado_113701" data-name="Trazado 113701" d="M83.465,133.376a.677.677,0,0,0,.323-.307c.374-.585.556-.112,1.021-.023a1.149,1.149,0,0,1,.753.458c.123.128.539.207.575.284a1.385,1.385,0,0,0,.635.668c.432.251.541-.258.941-.32.482-.074.576.729.714,1.039.047.106-.032.4.169.4.165,0,.178-.249.3-.24.092.006-.087.536.267.418.154-.051.37-.361.37-.043,0,.18.088.2.226.261.109.052.119.1.192.189.116.138.219.078.292.288.109.316.225.1.312.229.068.1.107.2.2.1.063-.072.134-.019.182.041.129.159.361,0,.389.256.013.114,0,.449.143.47.073.011.113-.2.134-.071a1.2,1.2,0,0,0,.169.454c.122.227,0,.2.02.466.018.2.359.161.228.442-.058.125-.309.184-.256.336a.673.673,0,0,0,.228.248c.1.045.407-.2.351.052-.013.058-.046.2.048.2.072,0,.112-.186.185-.138s-.1.531.1.418c.242-.134.174.015.127.183a1.372,1.372,0,0,0-.048.343c-.008.128-.548-.141-.472.1s.5.031.468.308a.676.676,0,0,0,.217.663c.162.2.48.019.729.166a3.775,3.775,0,0,0,.673.375c.252.083.328-.079.434-.257.323-.536.278.354.3.483.071.424.211.305.422.137.279-.222-.222.642.335.364.305-.153.34.475.515.683.248.293.328.205.6.364.145.085.4.267.437,0,.015-.1.157-.63.221-.273.106.582.462.021.8.418.095.113.255-.015.327.1.09.143,0,.538.276.529.242-.009.142.187.162.358.013.131.125.206.188.313.037.061-.305.383-.114.363.211-.021.362-.016.394.257.018.15.239.144.3.335a1.383,1.383,0,0,1,.07.388c0,.048-.064.312-.023.319s.258-.139.213.016c-.058.2-.274.26-.391.43-.073.108-.055.237-.161.36-.178.208-.14.349.051.541s.684.133.714.355c.016.131.121.32.267.241.363-.2.535.1.812.3.059.041.17.2.205.039.061-.269-.148-.523.354-.445.13.02.094.439.25.273.1-.11-.082-.475.1-.475.164,0,.2.193.261.316.132.259.429-.106.429.375,0,.27.073.41.343.45.22.033.111.548.059.7a1.192,1.192,0,0,0-.134.418c0,.2.119.231.182.391.086.224-.116.161-.079.343.027.136.639.016.315.356-.205.214-.327.053-.375.422-.042.328-.3.138-.445.288-.088.089,0,.354.032.455a.531.531,0,0,0,.295.343c.212.115,0,.713.331.47.277-.2.247,0,.319.206.186.53.228-.61.395-.092.027.088.154.39.275.2.14-.216.166.046.205.142.016.039.113.105.134.143.058.1.126.124.126.315,0,.313.106.469.375.23.162-.145.344-.013.516-.115.238-.141.711-.8.8-.214.069.443.341-.224.5-.232s.082.379.129.47c.19.365.436-.442.453-.557.078-.492.464.144.591.2.182.082.411.087.6.17a1.7,1.7,0,0,0,.52.182c.218.021.252-.073.406-.178.093-.063.32.326.335.415.017.108.069.492.279.3a.411.411,0,0,1,.406-.143c.188.033.305-.241.43-.327.264-.182.364.055.587-.016.183-.058.37.331.509.245a5.678,5.678,0,0,0,.209-.529c.078-.14.673-.9.815-.652.271.476.386.006.634.143.031.016.349.365.375.134.033-.309-.446-.57.13-.5.393.046.355-.571.509-.818.067-.108.112-.305.232-.363.078-.037.146.066.208.1.156.072.477-.753.741-.513.14.127-.236.7.075.766.224.049.393-.269.626-.209.3.076.47.347.836.347.409,0,.257.131.295.47.034.3.585.978.387.257-.134-.487.059-.6.4-.226.142.157.538.418.457.616-.173.427.012.439.3.242s.264.043.469-.238c.034-.046.283-.323.292-.094,0,.058-.156.425.039.363.242-.077.286-.8.552-.316.093.168.379.375.441.079.022-.1-.011-.318.166-.256.338.116.105-.194.111-.356.009-.288.575-.241.755-.268.328-.051.266.3.474.3.487.019-.618-.757.138-.829.263-.024.219.121.35.3.2.266.282.017.359-.1.117-.173.56-.114.611.09.1.426.208.379.591.379.262,0,.2.254.35.388.193.171.944-.018.749.478s.354.01.339.295c-.017.323.08.958.595.593.208-.148-.15-.368-.177-.462s.15-.064.2-.051c.137.039.126.1.212.185.19.174.332.438.548.178.252-.3.213.729.749.585.186-.051.163-.324.39-.324.1,0,.623.136.619.252-.006.156-.443.16-.465.325a.273.273,0,0,0,.316.307c.211-.044.388-.516.626-.288a.832.832,0,0,1,.232.632c.011.12.059.352.2.375s.081-.314.229-.249c.23.1-.013.558.343.691s.248-.578.5-.525c.15.032.132.745.269.968l-6.18,9.722c.148.011.331-.038.44.094.068.081.164.225.261.265l.177.185a1.063,1.063,0,0,1,.394-.039c.48.074.689.5,1.253.178.635-.36.94-.784,1.529-.1.391.457,1.035.454,1.127,1.11.067.469.676.68.91.991a7.421,7.421,0,0,1,1,1.2.8.8,0,0,1,.045.121l.207-.464,4.392-24.959.029-.374,0-.02,0-.02.087-.421.327-.439c.162-.5-.157-.89-.157-1.327,0-.253.22-.428.22-.663,0-.262-.133-.305-.181-.5a.107.107,0,0,1-.047-.047c-.023-.006-.031-.041-.031-.064-.06-.039-.025-.236-.025-.307-.011,0-.007,0-.007-.016-.229-.078.083-.292-.111-.427a.709.709,0,0,1-.354-.544.388.388,0,0,0-.087-.024.808.808,0,0,0-.4-.237c-.022-.091.059-.241.008-.292-.1-.1-.219-.159-.323-.253.023.012-.117-.1-.1-.126s.225-.129.151-.214c-.183-.206-.745-.644-.45-.939.148-.149.422-.373.434-.6.01-.208-.544-.267-.355-.608.037-.442.1-.441-.26-.679-.2-.133-.375-.106-.544-.308a1.9,1.9,0,0,0-.639-.624c-.2-.122-.343-.316-.583-.316-.246-.5-.109-.395-.622-.356-.273.021-.663-.671-.859-.869-.166-.166-.149-.39-.418-.473-.218-.068-.537-.254-.331-.53l.158-.22-.024-6.263a.249.249,0,0,1,.166-.056c.086.351.185-.036.338-.087.124-.041.255.068.339.143.165.147.276-.062.355-.182.119-.18.456.051.717-.055.2-.082.284.2.41.1a1.57,1.57,0,0,0,.3-.387c.044-.072.117.067.212.024.224-.1.522-.576.8-.522.024.093.371.467.45.458.112-.01.1-.235.133-.3.05-.114.306-.222.324-.277.338.085.443-.575.922-.458,0,.191.246.153.331.292a4.605,4.605,0,0,0,.323.5c.1.062.152.126.244.19.119.082.184-.035.292-.079s.234-.128.331-.159c.113-.035.039.255.039.292,0,.2.31.122.426.166l.419-.048c-.1-.23-.166-.541.172-.457s.77.261.473-.268c-.1-.18-.415-.221-.425-.4-.026-.4.332-.349.157-.7s.238-.534.181-.608c-.109-.142-.46-.225-.512-.363-.1-.271.258-.385-.087-.538-.389-.171.022-.344-.386-.647-.162-.12-.5-.12-.606-.214-.222-.2-.086-.337-.513-.221-.172.047-.574.217-.686-.063a.081.081,0,0,0-.133,0c-.095.19-1.036.138-1.214.024a.591.591,0,0,0-.3-.1c-.108,0-.1.121-.2.142l-.512.111c-.18.039-.363-.845-.773-.292-.338.457-.6.141-.662.221l.055-5.908c.208.07.4.255.6.118.361-.251.4-.345.842-.228.537.142.894-.4,1.4-.4.316,0,.486.166.8.166.294,0,.34.1.575.222h11.35c.007-.178-.17-.062-.261-.146-.056-.051.116-.173.1-.281-.043-.213-.293-.035-.45-.035-.232,0-.033-.294-.011-.4l0,0a1.053,1.053,0,0,1-.308,0,.294.294,0,0,1-.174-.182c-.063-.137.108-.23.209-.3.155-.1.146-.275.146-.442.075-.26.322-.365.371-.6l.1-.489c.008,0,.013-.007.02-.008l0,0a1.722,1.722,0,0,0,.134.518c.088.252.229.034.354.114a1.837,1.837,0,0,1,.261.379c.134.205.144.172.37.224.123.03.241.394.276.506.1.322.042.4.284.162.1-.1.047.1.122.107l.461.027c.1.006.466.108.354-.118-.142-.284-.156-.116.021-.292.075-.076-.155-.23-.056-.305.127-.094.269.126.4-.244.082-.24.346-.04.434-.237a1.436,1.436,0,0,1,.318-.489c.268-.27-.035-.335.457-.257.118.077.766.283.817.138.037-.108-.02-.194.137-.217.311-.046.273-.057.446-.308s.025-.383.054-.671c.022-.2.093-.22.269-.143.23.1.323-.02.56-.09.1-.035.179-.045.216-.147.058-.159.206-.182.256-.3a.12.12,0,0,1,.111-.06c.139.013.19-.142.342-.114s.358.261.256.4c-.114.156-.157.25.068.331.35.128-.062.305.054.569.055.123,0,.179-.019.3-.033.195.1.206.177.344a.606.606,0,0,0-.047.3c.024.091.115.1.15.194s.084.451.217.4c.072-.03.1-.124.2-.1s.035.269.237.1c.264-.218.331.1.331.308,0,.237.177.321.363.41.151.073,0,.184.039.312.035.1.168.021.244.067.051.032.179.219.142.281a1.1,1.1,0,0,0-.106.194c-.034.087.057.111.063.181,0,.131-.021.288.067.376s0,.2-.02.323c-.019.1.066.184.032.28-.029.08-.139.137-.115.233.016.064.28.053.335.273.034.131.165.217.13.367-.059.255-.093.207.064.442a.449.449,0,0,1,.015.573c-.086.273.29.544-.067.782-.232.155-.36-.229-.532.027-.125.188.106.278.205.431.057.09-.014.308.126.308.22,0,.138.274.257.422.094.121,0,.331,0,.474a4.778,4.778,0,0,0,.9-.265l1-.272.29-.056a2.087,2.087,0,0,1-.29-.418.193.193,0,0,1,.072-.292c.284-.122.2-.6.141-.774-.005-.017,0-.02-.016-.024-.549-.126-.383-.727-.464-1.168a1.092,1.092,0,0,0-.355-.584c-.133-.134-.04-.388-.118-.553q-.235-.5-.473-1a1.533,1.533,0,0,1-.236-.814,2.206,2.206,0,0,0-.339-.9c-.092-.206-.256-.229-.347-.379a.685.685,0,0,1-.047-.4c.015-.32.247-.614.1-.941-.168-.38-.367-.045-.623-.347a1.608,1.608,0,0,1-.181-1.792c.215-.534-.774-.723-.954-.916a3.567,3.567,0,0,0-.37-.688c-.178-.192-.325-.2-.472-.506-.085-.174-.4-.286-.45-.33s-.511-.416-.607-.513-.079-.1-.221-.025c-.072.04-.295.256-.306.07a2.636,2.636,0,0,0-.033-.463,6.2,6.2,0,0,0-.259-.689c-.24-.632-.837.206-1.387-.419-.223-.25-.768.116-.923.308a.545.545,0,0,1-.193.137l.02-.751,3.956-3.619.465.016v-.419a1.149,1.149,0,0,0,.4-.339c.042-.068.077-.246.127-.269.356-.16-.173-.675-.173-.948a2.21,2.21,0,0,1-.56-.166c0-.023-.022-.038.016-.047a.966.966,0,0,0-.237-.8c-.083-.083-.223-.218-.174-.332.092-.206.015-.243-.046-.427a.215.215,0,0,0,.055-.173c-.384-.1-.219-.814-.466-.877,0-.159-.264.013-.306.031-.541.243-1.2-.069-1.057-.75.059-.285-.251-.519-.362-.758a2.151,2.151,0,0,1-.173-.987l-.1-.3a1.148,1.148,0,0,0-.03-.158c-.195-.844-.923-1.1-.725-2.078.02-.1.216-.439.2-.489-.068-.179-.063-.547-.118-.648-.191-.347.01-.614-.426-.766-.4-.138-.262-.307-.213-.64a4.553,4.553,0,0,1,.15-.947,3.69,3.69,0,0,0-.015-2.228c-.107-.612.369-1.274.252-1.855a2.059,2.059,0,0,1-.111-.522c.015-.235.166-.4.047-.608-.279-.5-.419-.71.087-1.113.406-.325.984-.513,1.371-.846.936-.8.1-1.528.277-2.566a3.136,3.136,0,0,1,.937-1.737c.387-.312,1.287-.66.891-1.2a1.651,1.651,0,0,1-.5-1.121.779.779,0,0,1,.259-.446,4.043,4.043,0,0,1-.33-.375.756.756,0,0,0-.347-.269.941.941,0,0,0-.316-.119c-.594-.042-.953-.325-1.552-.1-.482.18-.4-.489-.978-.211a5.928,5.928,0,0,1-2.167.812l-1.2.11c-.521.05-1.04.9-1.521.317-.215-.263-1.085-.121-1.355,0-.176.079-.227.4-.466.268-.183-.1-.316-.28-.48.032-.239.454-.823-.192-1.135-.1-.434.123-.451.217-.741-.126-.307-.365-.786.172-1.143.016-.184-.082-.278-.269-.488-.244-.48.053-.082.151-.583-.04-.668-.256-1.268,1.063-1.829,1.271-.464.173-.6-.369-.835-.562s-.559,0-.841.2l-6.331-8.146c-.841-.423-1.709.98-2.3.07-.169-.259-.454-.043-.544-.173-.267-.388-.428-.013-.748-.173-.239-.12-.47-.509-.623-.68-.187-.209-.33.226-.552.166-.274-.073-.387-.348-.6-.34-.523.02-1.786.168-1.955.656-.078.226-.382.064-.543.11-.258.075-.255.208-.426.38-.2.2-1.074-.447-1.246-.45-.162-.094-1.038.128-1.064.1-.393-.394-.64.081-1.1-.008-.246-.048-.3-.482-.6-.1-.155.2-.207-.1-.292-.119l-.008-.016c-.014,0-.016.013-.031.016,0,.313-1.1.172-1.182-.142-.265-.065-.951.328-1.174.063-.471-.557-.754.11-1.025.237a3.7,3.7,0,0,1-1.159.039,1.051,1.051,0,0,1-1.119-.615,9.213,9.213,0,0,1-.9-1.746c0-.423.366-.519,0-.884-.421-.528-.413-.144-.875-.214-.394-.06-.518.126-.827-.118-.155-.123-.461.144-.654-.064-.14-.15-.117-.765-.378-.765-.115-.346.126-.443.126-.719,0-.3-.11-.564-.11-.877a4.812,4.812,0,0,1,.244-1.809c.128-.333-.326-.656-.347-.9-.013-.172.462-.274.583-.41.071-.159-.015-.427.182-.427.221,0,.408.257.489.236,0-.1-.059-.13-.016-.259s.082-.139.047-.261c-.049-.177-.294-.319-.253-.49.051-.2.093-.218.024-.442a2.147,2.147,0,0,1-.118-.538c0-.225-.174-.462-.1-.679a.679.679,0,0,0-.323-.861l-1.727-1.934-.417-.166-.923-4.265a.742.742,0,0,0-.22-.443,1.505,1.505,0,0,1-.165-.093c-.053-.035-.094-.119-.157-.1-.17.043-.238.158-.418.072-.129-.061-.165-.041-.277.054l-.008.159-.449.054c-.205.026-.115-.117-.157-.252-.032-.1-.143-.1-.205-.166-.13-.13.615-.589-.031-.813-.322-.112.126-.426-.174-.506-.561-.149-.539.377-.953.5-.3.088-.357.064-.577.323-.237.282-.439-.063-.622.166s-.5.11-.8.056c-.336-.061-.4-.235-.174-.466a1.7,1.7,0,0,0,.465-.892c.017-.314.188-.075.228-.237.1-.021.033-.218.033-.285.211-.071.1-.349.228-.37.09-.015.434-.285.441-.371.011-.121-.1-.243-.071-.317a.537.537,0,0,0,.213-.047.547.547,0,0,0-.039-.19.986.986,0,0,1,.552-.465c.31-.1.331-.005.331-.4,0-.247.1-.245.149-.4a4.758,4.758,0,0,1,.875-1.6c.041-.051.322-.314.221-.349,0-.071-.169,0-.205-.039-.052-.053-.02-.137-.087-.2-.226-.2.038-.161-.031-.366a1.184,1.184,0,0,1,.126-.8c.236-.209.147-.386.18-.648l.371-.4c-.024-.072-.018-.044-.079-.2-.037-.049.072-.381.047-.5-.043-.215.151-.247.135-.394-.015-.127-.127-.187-.127-.341s.192-.323.135-.5a.642.642,0,0,1,0-.537c.115-.263-.059-.625.078-.733a1.941,1.941,0,0,0,.379-.357,2.262,2.262,0,0,0,.18-.585,2.775,2.775,0,0,1,.324-.6c.215-.265.372-.045.481-.459a2.814,2.814,0,0,1,.205-.418c.118-.33-.068-.657.37-.657.063-.252.073-1.03.394-1.048.543-.034.681-.622.946-1.028.13-.2.378-.472.473-.638.059-.107-.164-.336-.055-.4.086-.053.357-.213.378-.3h.016c0,.347.814-.153.914-.229l.938.166,2.576-4.8,2.7-.733,2.777-.862c-.133-.05.135-.194.154-.209.278-.225.556-.321.556-.707a3.485,3.485,0,0,0,.508-.216,2.682,2.682,0,0,1,.859-.593c.261-.1.465-.206.465-.519,0-.573-.471-.9-.658-1.388-.123-.222-.481-.58-.382-.858.04-.112-.464-.469-.567-.556s-.216-.2-.383-.123c-.077.035-.172-.055-.229-.1-.308-.207-.692-.051-.933-.291a1.575,1.575,0,0,0-1.029-.431,1.887,1.887,0,0,1-.753-.092c-.252-.108-.372.043-.594.092-.337.071-.1.406-.426.548v.017c.241.242.085.377-.2.5-.382.138-.163.411-.528.086-.318-.284.169-.308.169-.487a2.506,2.506,0,0,0-1.123.731c-.159.144-.382.206-.079.245.133.017.476-.049.5.114.044.35.446.546-.028.636-.29.058-.2.3-.3.324a2.115,2.115,0,0,0-.311.04c-.281.115-.227-.118-.351-.213-.2-.155.119-.44.224-.584.2-.274-.288-.116-.441-.088a4.874,4.874,0,0,0-1.179.179c-.04.017-.565.165-.374.189s.252-.075.355.138a4.829,4.829,0,0,0,.028.714c.034.235-.09.314-.131.506a1.229,1.229,0,0,1-.11.36l-.229.422c-.1.181-.158.5-.307.636a4.557,4.557,0,0,1-2.285,1.319c-.173.028-.391-.026-.548.075s-.268.352-.516.22c-.041-.021-.668.255-.784.285a1.751,1.751,0,0,1-.592.185,1.579,1.579,0,0,0-.5.313,6.2,6.2,0,0,0-.844.81,9.048,9.048,0,0,1-1.634,1.015,2.452,2.452,0,0,0-.285.362c-.049.095.046.149.02.254-.082.32-.21.151-.44-.021-.038.112.024.265.011.392s-.293-.021-.335-.075-.532.5-.658.6a5.645,5.645,0,0,1-.772.368c-.288.164-.863.011-1.218.134a4.53,4.53,0,0,1-1.009-.039,5.746,5.746,0,0,0-.875.1,4.574,4.574,0,0,1-1.557-.119c-.246-.056-.428-.234-.673-.305-.464-.123-1.155-.761-1.643-.311-.127.115-.247.035-.391.007-.241-.044-.287.036-.287.261l-.008.008c-.125.019-.276-.09-.4-.035l-.2.458c-.037.084-.322.291-.264.372.093.125-.007.2-.071.33a.93.93,0,0,0,.118.692c.137.17.165.2.087.392a1.265,1.265,0,0,1-.662.642c-1.043.4-1.863.044-2.889-.071-.237-.026-.843.024-.879-.267-.043-.358-1.034-.218-1.119-.474l-.177-.1c-.131-.077-.082.173-.082.242,0,.364-.36.108-.611.217s-.25.244-.367.47c-.1.194-.478.268-.674.291-.109.013-.251.183-.082.226.114.029.034.164-.036.222-.108.121-.12.233-.283.311l-.335.157c-.2.095-.249.328-.446.384-.129.036-.241,0-.367.075s-.274.321-.393.317-.14-.052-.24.007c-.078.045-.032.206-.08.293-.106.192.249.338.1.461a2.465,2.465,0,0,1-.875.151c-.186.092-.449.116-.575.291-.1.14-.258.284-.343.428-.075.125-.073.225-.185.337-.154.155-.241.164-.241.4s-.118.286.052.524c.117.165-.7.446-.576.573a1.491,1.491,0,0,1,.308.39c.13.459.245.907-.4.886-.673-.024-.239.291-.5.672-.164.242-.447.4-.618.632-.024.03-.157.125-.143.144.492,0,.952-.726,1.317-.979.24-.165.216-.079.216.158,0,.116.051.22.051.34-.01.007-.011.011-.015.024-.091.026-.264,0-.221.13a.274.274,0,0,1-.051.323c-.239.235-.076.349-.158.636l.009.407c0,.107-.072.2-.072.312,0,.2-.177.38-.161.533a.578.578,0,0,1-.1.392c-.2.265-.038.217-.083.5a3.141,3.141,0,0,1-.252.689c-.089.134-.452.572-.608.61.193.065.4-.094.6.013.262.14.354-.008.449.335s.325,1.114.074,1.415a1.444,1.444,0,0,0-.432.959c0,.128-.271.022-.36,0l-.6-.146c-.341,0-.295.463-.6.321-.191-.091-.412-.106-.607-.2a3.707,3.707,0,0,1-.465-.24c-.047-.03-.4.481-.509.569a3.744,3.744,0,0,1-1.013.4c-.066.1-.246.231-.252.352,0,.084.044.142.044.22,0,.167-.4.349-.536.4-.223.075-.016,1-.363,1.22a1.054,1.054,0,0,0-.587.8c-.094.377-.161.313-.449.569a4.179,4.179,0,0,1-.67.584c-.183.091-.163.185-.283.332-.159.192-.458.222-.658.359-.332.225-.272.544-.757.628-.155.114-.62.167-.658.355-.043.218.027.4-.221.5a7.356,7.356,0,0,1-1.809.419c-.419.065-.236.183-.453.474-.061.082-.315.159-.315.225a3.9,3.9,0,0,1,.717.312c.2.182.643.359.694.663.08.08.1.23.157.324.014.17.1.368.122.545a3.525,3.525,0,0,1,0,.534,2.884,2.884,0,0,0,.111.995c0,.178.129.387.083.572s-.147.283.015.423c.332.286-.059.423-.043.711a1.852,1.852,0,0,1-.087.493l-.051.34c-.022.147-.738.05-.871.106-.276.049-.725-.017-.725-.359a5.746,5.746,0,0,0,.071-.715c-.028-.185.113-.217.287-.232.113-.011.137.091.205.157s.284.122.2-.024c-.028-.046-.21-.216-.173-.22a1.165,1.165,0,0,1,.2,0c-.018-.072-.176-.1-.217-.154-.069-.1.181-.137.2-.162.058-.068-.1-.067-.11-.071-.039-.013.032-.1.035-.107.029-.113.3-.246.225-.276s-.214.012-.3.017c-.255.013-.335.5-.587.37a1.2,1.2,0,0,1-.226-.339c-.084-.349.236-.308.3-.49s-.008-.058-.207-.038c-.225.025-.573-.061-.269-.475.044-.061.239-.118.1-.154a1.527,1.527,0,0,0-.513.027c-.265.038-.364-.2-.488-.395a5.9,5.9,0,0,1-.505-.865c-.05-.043-.095-.211-.154-.28a.635.635,0,0,0-.244-.153,4.449,4.449,0,0,1-.575-.21,1.342,1.342,0,0,1-.52-.881c-.042-.2-.258-.312-.312-.486-.046-.148-.151-.128-.244-.241-.07-.094,0-.327-.2-.327-.044.044-.053.162-.125.183-.093.026-.25-.042-.288.049-.061.145.266.323.149.4-.049.031-.235-.015-.213.063.052.179-.017.219-.2.209-.147-.007.014.354-.107.474-.248.248-.013.423.285.371.143-.025.13.08.18.193a1.437,1.437,0,0,0,.245.419c.166.163.042.309.11.4s.108.123.087.245c-.039.224-.12.418.087.576.111.085.354.143.354-.054h.008c.015.056.085.116.1.205a1.56,1.56,0,0,0,.076.237c.047.129.086.313.209.379a.291.291,0,0,1,.106.245c.009.2,0,.15.161.252.089.057-.066.091-.035.162s.115.135.118.233a2.793,2.793,0,0,0,.008.387.967.967,0,0,0,.221.6c.181.237.115.1.126.375,0,.135.138.158.217.237-.026.1-.3.092-.382.063-.159-.059-.3.062-.453.044-.45-.054-.657.126-.773.552-.06.218-.327.188-.237.414.145.367.274.355-.129.451-.174.093-.178.06-.213.264-.028.164-.137.1-.186.19-.038.073.028.15,0,.2-.056.108-.185.026-.185.214,0,.279-.237.079-.307.26-.03.077.057.18-.005.257-.128.161-.173.53-.378.521-.314-.012-.42.729-.681.469a2.7,2.7,0,0,1-.548-1.049c-.14-.378-1.058-1.046-.914-.221.037.111-.1.357-.048.422.125.146.086.136.106.328.026.231.4.484.221.667-.156.157.169.254,0,.411-.056.053-.2.169-.217.229-.132-.1-.291-.195-.421-.3-.227-.185-.19.085-.386.154l-.688,2.126a5.82,5.82,0,0,1,1.111,1.019,1.928,1.928,0,0,0,.531.477c.247.167-.055.265,0,.4.038.092.238.186.319.237.155.1.232.07.2.265-.033.217-.311.1-.393.328a1.093,1.093,0,0,0,.071.817c0,.01.066.138.074.11h.012a2.324,2.324,0,0,1,.1-.407c.1-.055.266.171.378.21.15.052.19.138.323.221.1.215.249.344.35.581l.225.52c.1.228-.176.63.284.566.021-.145,0-.413.181-.463.133-.035.473-.173.563-.023.112.181.055.075.174.075.034.14.161.252.052.386-.125.153.016.232.125.312s.021.141.064.229c.06.125.228.067.315.214.125.208.44.014.166.451-.055.084-.335.376-.272.473.1.151-.008.125-.008.24,0,.236-.2.127.008.352.238.258-.5.139-.529.139,0,.173.379.135.375.3a2.7,2.7,0,0,1-.067.714c-.046.147-.142.245-.146.408-.007.244-.1.087-.217-.056-.078-.1-.3-.316-.425-.316a1.634,1.634,0,0,0-.02.378.969.969,0,0,0,.068.964c.241.314.668.588.858.9.094.156.142.558.3.288a5.5,5.5,0,0,1,.141.738c.011.273.32.651.438.908a1.472,1.472,0,0,1,.157.693c0,.557-.406.793-.717,1.2-.374.486-.332.03-.749.111-.223.043-.235.342-.519.229-.171-.068-.263-.223-.273.177-.154.274.068.53-.267.788-.023.015-.141.064-.122.093a1.684,1.684,0,0,0,.579.071.405.405,0,0,1,.449,0c.234.215-.159.4.28.4,0,.091-.125.132-.1.228a2.247,2.247,0,0,1,.048.336c.03.242-.051.546.237.561.079,0,.116.332.011.277-.037-.02-.092-.109-.133-.1a3.962,3.962,0,0,0,.046.508c.026.333-.21.493.025.771.1.118.038.433.169.611-.005.007,0,0,0,.013-.225,0-.108.065-.1.205l.024.576c.014.344.152.632.189.96a1.3,1.3,0,0,0,.122.759c.06.2-.048.442.213.492.074.015.305.075.154.194-.033.026-.15,0-.15.043a1.713,1.713,0,0,1,0,.249c-.023.185.148.421-.031.5-.118.056-.043.878-.039,1.017a3.676,3.676,0,0,1-.178,1.226,1.332,1.332,0,0,1-.6.727c-.17.134-.149.516-.306.6l-.343.194c-.118.066-.026-.258-.056-.324a.1.1,0,0,0-.031,0c-.241.192-.218.336-.311.6,0,.378-.141.9.228,1.129a3.813,3.813,0,0,1,.568.7c.1.226.243.235.367.414.07.1.077.22.177.32.05.051.295.348.307.268a1.265,1.265,0,0,1,.087-.379c.111-.149.2-.381.3-.549.2-.332.184-.19.5-.2.075,0,.293-.125.3-.019s-.15.219-.22.115c-.181.181-.442.121-.213.425.059.079-.468.085-.371.356.066.184-.148.268-.138.41.009.122.283-.031.26.269-.076.244.392.5.587.533.124.022.542-.032.563.076.025.125-.064.259,0,.355.036.052.1.093.024.122s-.244.082-.244.181.034.821.224.565c0,.112.1.337-.035.307-.246-.051-.16.067-.221.25a1.5,1.5,0,0,1-.213.324c-.315.217-.7-.051-.882.371-.077.18-.536.453-.529.647s.422.212.335.356c-.023.04-.14.193-.193.193l-.078-.239c-.233.056-.254.733-.54.733-.348,0-.751.8-.986,1.007-.028.025-.222.307-.133.288l.259-.055c.315-.067-.028.392-.093.3-.1-.137-.149-.218-.213.012l-.083.3c-.078.278-.474.815-.777.861a1.323,1.323,0,0,0-.224,0c-.062.049-.075.406-.142.513a1.481,1.481,0,0,0-.2.482,1.86,1.86,0,0,1,.279-.177c.137.067-.056.271.13.371s-.042.1-.106.11a1.146,1.146,0,0,0-.208.483c.018.058.323.338.086.293-.066-.014-.257-.086-.28.01-.047.2-.157.264-.319.4-.042.036-.227.093-.165.138a1.62,1.62,0,0,0,.272.072c-.062.041-.113.154-.186.186-.107.044-.213-.026-.347.038-.17.058.028.659.028.85a1.788,1.788,0,0,1-.359-.233c-.121-.1-.283.035-.425.054-.052.008-.32.009-.323.071-.013.257.139.292-.154.408-.393.154-.305-.255-.521-.265s-.728.573-.858.411c-.1-.122-.156-.224-.331-.206-.149.017-.358.082-.366-.169-.011-.308-.017-.231-.324-.135s-.337.183-.2.51c.007.015.059.077.031.09-.185.091-.337-.374-.511-.391a1.05,1.05,0,0,0-.32.072c-.067.1.053.284-.044.363-.348.288-.332-.181-.539-.222-.159-.031-.313.18-.382.294s-.38.046-.556.252c-.219.256-.65.606-.748.929-.092.3-.2.081-.312.247a2.724,2.724,0,0,0-.327.562c-.135.213-.068.428-.224.624a.863.863,0,0,0-.264.5c-.025.11-.119.168-.182.255-.093.134-.081.232-.213.336,0,.182-.067.368-.067.545,0,.227.123.285.154.486s.245.418.229.608a3.329,3.329,0,0,0-.075.485.382.382,0,0,0,.394-.2c.149-.337.176,0,.311.134s.044.171.005.305a1.488,1.488,0,0,0,0,.485c.122.343.482-.072.473.245a1.961,1.961,0,0,0,.071.443c.021.126-.145.248-.173.39-.041.2.058.38-.217.139-.159-.14-.154-.248-.382-.222a2.831,2.831,0,0,1-.793.1c-.133-.053-.163.118-.212.114s-.036-.225-.063-.276a.3.3,0,0,1-.016-.277.037.037,0,0,1-.008-.015c-.179,0-.473.339-.473.015,0-.266-.4-.037-.563.064a3.24,3.24,0,0,0-.776.817,1.418,1.418,0,0,1-.651.605c-.124.054.111.315.111.406,0,.373.149.136.283.268a1.52,1.52,0,0,0,.28.246c.114.06.291.2.426.137.151-.067.107.1.07.183-.1.216.006.533.265.533.135,0,.269-.028.393-.028-.034.174-.422.2-.118.359a.221.221,0,0,1,.112.1l.243.27a1.883,1.883,0,0,0,.3.108,1.182,1.182,0,0,1,.476.41c.044.141.3.1.4.332.075.17.092.408.295.481s.471-.138.6,0l.421.474a1.577,1.577,0,0,0,.445.225c.1.043.3-.165.328-.067s-.052.219-.032.316.256.008.366.024c.091.013.209-.275.442-.3.1-.009.249-.133.319-.074.173.141.114.244.178.414.03.084.1.264.184.3.194.1.377.2.084.308-.319.122.008.352.137.462.135.075.443.209.5.356s-.075.246-.04.355a2.341,2.341,0,0,0,.312.241c.2.166.347-.25.536,0,.128.172.027.278.335.308a1.158,1.158,0,0,1,.8.5,2.242,2.242,0,0,0,1.206.379c.448-.037.667-.478,1.1-.478a1.226,1.226,0,0,1,.642.233c.135.08-.277.6-.2.738.088.154.256.045.256.3,0,.115.379.2.476.241.2.1.258.226.41.355.088.076.355-.026.45-.054.34-.106.374-.165.374.177a1.321,1.321,0,0,1-.091.509c-.055.105-.181.155-.225.261a1.066,1.066,0,0,0,.008.477c0,.081-.066.12-.078.2a.981.981,0,0,0,.039.339c-.043.151-.191.527.1.332.108-.072.326-.268.465-.209.162.067.376.4.525.4a2.33,2.33,0,0,0,.3-.079.506.506,0,0,1,.291.023l.159.079c.248.325.456.023.716.191.291.186.4-.258.655-.222.039.006.074.112.11.126.109.047.322-.119.386-.015.026.043.206.314.221.339s.027,0,.031.008c.031.074.079.076.079.19a1.547,1.547,0,0,0-.023.237c0,.013.023.006.031.023.041.1.141-.01.181-.023.1-.031.171.055.206.11.081.138.229-.064.283-.071a1.2,1.2,0,0,1,.681.083c.2.157.135.264.422.253.155-.006.386.176.492.126.159-.073.058-.2.312-.19.216.012.487.289.5-.062.012-.318.31-.03.347-.028a2.73,2.73,0,0,1,.39.019c.279.051.154.22.429.108.181-.075.2.377.453.276.154-.061.206-.237.395-.23.081,0,.212.116.3.147.213.073.372-.084.564-.118.075-.014.237.084.315.054l-.015-1.306c.094-.039.276-.13.37-.056.445.353.2-.379.615-.379.067.272.216-.031.323-.031.09.266.038.1.252.236.016.01.04.2.064.245s.151-.007.205-.007c.114.34.363-.127.44-.127.007-.021.193.1.229.15a.742.742,0,0,1,.213.505c.052.258.323-.141.481-.086a2.543,2.543,0,0,1,.622.537c.036.35.015.17.37.308.242.094.033.285.135.386.074.076.195.143.283.222.183.164-.143.377.277.443.215.033.479-.047.535.236l.039.334a.929.929,0,0,0,.245.219c.521.261,1.023.037,1.636.233.329.106.225.256.445.4.134.09.3-.12.488.059a7.692,7.692,0,0,0,.922.584c.176.127.474-.056.741.048.312.121.524.225.717.156" fill="#fcd116" fill-rule="evenodd"/>
        </g>
      </g>
      <g id="Grupo_58027" data-name="Grupo 58027">
        <g id="Grupo_58026" data-name="Grupo 58026" clip-path="url(#clip-path-6)">
          <rect id="Rectángulo_6585" data-name="Rectángulo 6585" width="198.886" height="176.689" fill="#ce1126"/>
          <rect id="Rectángulo_6586" data-name="Rectángulo 6586" width="198.886" height="99.442" transform="translate(0 22.05)" fill="#003893"/>
          <rect id="Rectángulo_6587" data-name="Rectángulo 6587" width="198.886" height="78.705" transform="translate(0 9.639)" fill="#fcd116"/>
        </g>
      </g>
    </g>
  </g>
</svg>
