<svg id="Grupo_57045" data-name="Grupo 57045" xmlns="http://www.w3.org/2000/svg" xmlns:xlink="http://www.w3.org/1999/xlink" width="400" height="338.983" viewBox="0 0 400 338.983">
  <defs>
    <clipPath id="clip-path">
      <rect id="Rectángulo_5948" data-name="Rectángulo 5948" width="400" height="338.983" fill="none"/>
    </clipPath>
  </defs>
  <g id="Grupo_57044" data-name="Grupo 57044" clip-path="url(#clip-path)">
    <path id="Trazado_105813" data-name="Trazado 105813" d="M173.7,131.09a11.021,11.021,0,0,0-2.944.4c-.467-7.182-8.036-12.892-17.3-12.892-9.181,0-16.691,5.606-17.282,12.693-3.132.53-5.481,2.713-5.481,5.33a4.41,4.41,0,0,0,.44,1.9h51.4c.013-.158.031-.315.031-.474,0-3.842-3.97-6.956-8.865-6.956" transform="translate(105.793 49.803)" fill="#c8c7c7"/>
    <rect id="Rectángulo_5912" data-name="Rectángulo 5912" width="97.055" height="92.342" transform="translate(40 196.343)" fill="#615654"/>
    <rect id="Rectángulo_5913" data-name="Rectángulo 5913" width="97.055" height="4.687" transform="translate(40 229.558)" fill="#d9cbca"/>
    <rect id="Rectángulo_5914" data-name="Rectángulo 5914" width="97.055" height="16.068" transform="translate(40 246.855)" fill="#d9cbca"/>
    <path id="Trazado_105814" data-name="Trazado 105814" d="M60.553,190.562H72.514V173.389H60.553ZM61.7,174.288h9.661v15.375H61.7Z" transform="translate(49.016 72.81)" fill="#615654"/>
    <path id="Trazado_105815" data-name="Trazado 105815" d="M48.607,190.562H60.566V173.389H48.607Zm1.149-16.274h9.657v15.375H49.756Z" transform="translate(39.346 72.81)" fill="#615654"/>
    <path id="Trazado_105816" data-name="Trazado 105816" d="M72.5,190.562h6.444V173.389H72.5Zm1.151-16.274h4.142v15.375H73.651Z" transform="translate(58.687 72.81)" fill="#615654"/>
    <path id="Trazado_105817" data-name="Trazado 105817" d="M66.527,190.562H78.486V173.389H66.527Zm1.151-16.274h9.657v15.375H67.678Z" transform="translate(53.852 72.81)" fill="#615654"/>
    <path id="Trazado_105818" data-name="Trazado 105818" d="M54.58,190.562H66.539V173.389H54.58Zm1.149-16.274h9.657v15.375H55.729Z" transform="translate(44.181 72.81)" fill="#615654"/>
    <path id="Trazado_105819" data-name="Trazado 105819" d="M21.788,190.562h6.444V173.389H21.788Zm1.151-16.274h4.142v15.375H22.939Z" transform="translate(17.637 72.81)" fill="#615654"/>
    <path id="Trazado_105820" data-name="Trazado 105820" d="M24.713,190.562H36.672V173.389H24.713Zm1.151-16.274h9.657v15.375H25.864Z" transform="translate(20.005 72.81)" fill="#615654"/>
    <path id="Trazado_105821" data-name="Trazado 105821" d="M30.686,190.562H42.645V173.389H30.686Zm1.151-16.274h9.657v15.375H31.837Z" transform="translate(24.84 72.81)" fill="#615654"/>
    <path id="Trazado_105822" data-name="Trazado 105822" d="M42.632,190.562H54.593V173.389H42.632Zm1.151-16.274h9.659v15.375H43.783Z" transform="translate(34.51 72.81)" fill="#615654"/>
    <path id="Trazado_105823" data-name="Trazado 105823" d="M36.659,190.562H48.618V173.389H36.659Zm1.151-16.274h9.657v15.375H37.81Z" transform="translate(29.675 72.81)" fill="#615654"/>
    <path id="Trazado_105824" data-name="Trazado 105824" d="M46.15,101.563,37.9,245.752l30.528.284-3.9-144.3Z" transform="translate(30.681 42.649)" fill="#a3a1a1"/>
    <path id="Trazado_105825" data-name="Trazado 105825" d="M37.9,245.852l15.263.142,2.177-144.246-9.192-.085Z" transform="translate(30.681 42.691)" fill="#757474"/>
    <path id="Trazado_105826" data-name="Trazado 105826" d="M52.179,126.16l-10.538-.1-.48,8.37,10.891.1,10.891.1-.226-8.378Z" transform="translate(33.319 52.937)" fill="#edecec"/>
    <path id="Trazado_105827" data-name="Trazado 105827" d="M52.493,139.952l-11.385-.105-.7,12.238,11.9.111,11.9.111-.331-12.25Z" transform="translate(32.709 58.725)" fill="#edecec"/>
    <path id="Trazado_105828" data-name="Trazado 105828" d="M56.665,53.377a14.406,14.406,0,0,0-6.359,1.443l-.007-.028.007,0c-1.194-6.011-7.8-10.615-15.793-10.615a19.506,19.506,0,0,0-7.578,1.5C22.079,37.575,12.055,31.771.2,30.854V66.42H44.7c.232-.152.469-.3.689-.46.071.156.154.307.235.46H67.732a7.687,7.687,0,0,0,.926-3.632c0-5.2-5.369-9.411-11.993-9.411" transform="translate(0.159 12.956)" fill="#95969c"/>
    <rect id="Rectángulo_5915" data-name="Rectángulo 5915" width="109.589" height="79.783" transform="translate(211.212 208.728)" fill="#747176"/>
    <rect id="Rectángulo_5916" data-name="Rectángulo 5916" width="27.245" height="79.783" transform="translate(293.624 208.902)" fill="#a3a1a1"/>
    <path id="Trazado_105829" data-name="Trazado 105829" d="M230.606,145.8H116.357a1.75,1.75,0,1,0,0,3.4H230.606a1.75,1.75,0,1,0,0-3.4" transform="translate(92.435 61.226)" fill="#525151"/>
    <rect id="Rectángulo_5917" data-name="Rectángulo 5917" width="6.853" height="7.99" transform="translate(306.452 224.169)" fill="#edecec"/>
    <rect id="Rectángulo_5918" data-name="Rectángulo 5918" width="6.854" height="7.99" transform="translate(293.937 224.169)" fill="#edecec"/>
    <rect id="Rectángulo_5919" data-name="Rectángulo 5919" width="6.853" height="7.99" transform="translate(281.421 224.169)" fill="#edecec"/>
    <rect id="Rectángulo_5920" data-name="Rectángulo 5920" width="6.854" height="7.99" transform="translate(268.907 224.169)" fill="#edecec"/>
    <rect id="Rectángulo_5921" data-name="Rectángulo 5921" width="6.853" height="7.99" transform="translate(256.391 224.169)" fill="#edecec"/>
    <rect id="Rectángulo_5922" data-name="Rectángulo 5922" width="6.854" height="7.99" transform="translate(243.876 224.169)" fill="#edecec"/>
    <rect id="Rectángulo_5923" data-name="Rectángulo 5923" width="6.854" height="7.99" transform="translate(231.36 224.169)" fill="#edecec"/>
    <rect id="Rectángulo_5924" data-name="Rectángulo 5924" width="6.854" height="7.99" transform="translate(218.846 224.169)" fill="#edecec"/>
    <rect id="Rectángulo_5925" data-name="Rectángulo 5925" width="6.853" height="7.99" transform="translate(306.452 239.526)" fill="#edecec"/>
    <rect id="Rectángulo_5926" data-name="Rectángulo 5926" width="6.854" height="7.99" transform="translate(293.937 239.526)" fill="#edecec"/>
    <rect id="Rectángulo_5927" data-name="Rectángulo 5927" width="6.853" height="7.99" transform="translate(281.421 239.526)" fill="#edecec"/>
    <rect id="Rectángulo_5928" data-name="Rectángulo 5928" width="6.854" height="7.99" transform="translate(268.907 239.526)" fill="#edecec"/>
    <rect id="Rectángulo_5929" data-name="Rectángulo 5929" width="6.853" height="7.99" transform="translate(256.391 239.526)" fill="#edecec"/>
    <rect id="Rectángulo_5930" data-name="Rectángulo 5930" width="6.854" height="7.99" transform="translate(243.876 239.526)" fill="#edecec"/>
    <rect id="Rectángulo_5931" data-name="Rectángulo 5931" width="6.854" height="7.99" transform="translate(231.36 239.526)" fill="#edecec"/>
    <rect id="Rectángulo_5932" data-name="Rectángulo 5932" width="6.854" height="7.99" transform="translate(218.846 239.526)" fill="#edecec"/>
    <rect id="Rectángulo_5933" data-name="Rectángulo 5933" width="6.853" height="7.99" transform="translate(306.452 254.884)" fill="#edecec"/>
    <rect id="Rectángulo_5934" data-name="Rectángulo 5934" width="6.854" height="7.99" transform="translate(293.937 254.884)" fill="#edecec"/>
    <rect id="Rectángulo_5935" data-name="Rectángulo 5935" width="6.853" height="7.99" transform="translate(281.421 254.884)" fill="#edecec"/>
    <rect id="Rectángulo_5936" data-name="Rectángulo 5936" width="6.854" height="7.99" transform="translate(268.907 254.884)" fill="#edecec"/>
    <rect id="Rectángulo_5937" data-name="Rectángulo 5937" width="6.853" height="7.99" transform="translate(256.391 254.884)" fill="#edecec"/>
    <rect id="Rectángulo_5938" data-name="Rectángulo 5938" width="6.854" height="7.99" transform="translate(243.876 254.884)" fill="#edecec"/>
    <rect id="Rectángulo_5939" data-name="Rectángulo 5939" width="6.854" height="7.99" transform="translate(231.36 254.884)" fill="#edecec"/>
    <rect id="Rectángulo_5940" data-name="Rectángulo 5940" width="6.854" height="7.99" transform="translate(218.846 254.884)" fill="#edecec"/>
    <rect id="Rectángulo_5941" data-name="Rectángulo 5941" width="109.66" height="5.159" transform="translate(211.087 282.676)" fill="#525151"/>
    <path id="Trazado_105830" data-name="Trazado 105830" d="M93.29,129.719S87.6,222.579,75.2,234.211h90.961s-18.605-31.627-21.707-104.492Z" transform="translate(60.874 54.472)" fill="#7d6660"/>
    <path id="Trazado_105831" data-name="Trazado 105831" d="M100.335,129.719V234.211h45.481s-18.607-31.627-21.707-104.492Z" transform="translate(81.219 54.472)" fill="#97776c"/>
    <path id="Trazado_105832" data-name="Trazado 105832" d="M84.118,150.072l-.507,5.272h56.863l-.626-5.272Z" transform="translate(67.682 63.019)" fill="#624800"/>
    <path id="Trazado_105833" data-name="Trazado 105833" d="M82.957,164.639l-.675,5.3h62.53l-.964-5.3Z" transform="translate(66.606 69.136)" fill="#624800"/>
    <path id="Trazado_105834" data-name="Trazado 105834" d="M85.689,129.719l-.4,5.85,51.29.084-.291-5.934Z" transform="translate(69.04 54.472)" fill="#624800"/>
    <path id="Trazado_105835" data-name="Trazado 105835" d="M30.244,127.449C16.723,115.539.147,95.944.147,95.944L0,248.4H51.51s-.724-86.455-2.047-92.261-5.7-16.775-19.22-28.685" transform="translate(0 40.289)" fill="#8f534a"/>
    <path id="Trazado_105836" data-name="Trazado 105836" d="M30.178,127.449C16.658,115.539.081,95.944.081,95.944l18.538,32.63c.785,1.383,14.3,22.695,14.454,45.266L33.96,248.4H51.445s-.724-86.455-2.047-92.261-5.7-16.775-19.22-28.685" transform="translate(0.066 40.289)" fill="#a5756e"/>
    <rect id="Rectángulo_5942" data-name="Rectángulo 5942" width="49.962" height="7.227" transform="translate(0.101 199.167)" fill="#bfa8a6"/>
    <rect id="Rectángulo_5943" data-name="Rectángulo 5943" width="50.7" height="1.734" transform="translate(0 219.657)" fill="#bfa8a6"/>
    <rect id="Rectángulo_5944" data-name="Rectángulo 5944" width="50.7" height="1.734" transform="translate(0 223.642)" fill="#bfa8a6"/>
    <rect id="Rectángulo_5945" data-name="Rectángulo 5945" width="50.7" height="1.734" transform="translate(0 227.628)" fill="#bfa8a6"/>
    <rect id="Rectángulo_5946" data-name="Rectángulo 5946" width="50.7" height="1.734" transform="translate(0 231.613)" fill="#bfa8a6"/>
    <rect id="Rectángulo_5947" data-name="Rectángulo 5947" width="50.7" height="1.734" transform="translate(0 235.598)" fill="#bfa8a6"/>
    <path id="Trazado_105837" data-name="Trazado 105837" d="M96.678,90.923c-5.638,0-10.211,3.587-10.211,8.013s4.573,8.011,10.211,8.011,10.211-3.587,10.211-8.011-4.571-8.013-10.211-8.013" transform="translate(69.993 38.181)" fill="#aaabb0"/>
    <path id="Trazado_105838" data-name="Trazado 105838" d="M46.808,90.374c-3.586,0-6.494,2.282-6.494,5.1s2.908,5.095,6.494,5.095S53.3,98.284,53.3,95.47s-2.908-5.1-6.494-5.1" transform="translate(32.633 37.95)" fill="#aaabb0"/>
    <path id="Trazado_105839" data-name="Trazado 105839" d="M57.785,76.818c-6.934,0-12.554,4.41-12.554,9.851s5.62,9.85,12.554,9.85,12.552-4.41,12.552-9.85-5.62-9.851-12.552-9.851" transform="translate(36.614 32.258)" fill="#c8c7c7"/>
    <path id="Trazado_105840" data-name="Trazado 105840" d="M85.5,102.876c-2.372.016-4.278,1.538-4.258,3.4s1.96,3.357,4.332,3.341,4.278-1.538,4.258-3.4-1.96-3.357-4.332-3.341" transform="translate(65.76 43.2)" fill="#aaabb0"/>
    <path id="Trazado_105841" data-name="Trazado 105841" d="M200.73,87.749l-.872.013c-.141-5.822-6.272-10.452-13.691-10.34a16.87,16.87,0,0,0-2.832.283c-2.186-4.894-8.172-8.365-15.14-8.261-7.736.116-14.047,4.6-15.22,10.392a15.868,15.868,0,0,0-1.632-.07c-6.663.1-11.972,4.349-12.029,9.545-7.681,1.795-13.649,6.738-15.482,12.877l95.716-1.4c-2.654-7.572-8.38-13.2-18.819-13.042" transform="translate(100.24 29.16)" fill="#95969c"/>
    <path id="Trazado_105842" data-name="Trazado 105842" d="M200.852,87.819l-.872.009c-.09-5.823-6.179-10.486-13.6-10.415a16.937,16.937,0,0,0-2.834.267c-2.142-4.906-8.1-8.409-15.066-8.342-7.737.074-14.087,4.522-15.312,10.31a15.437,15.437,0,0,0-1.632-.08c-6.663.064-12.008,4.284-12.111,9.479-7.7,1.752-13.709,6.664-15.6,12.792l96.539-.88c-2.589-7.587-9.076-13.239-19.515-13.14" transform="translate(100.236 29.116)" fill="#95969c"/>
    <path id="Trazado_105843" data-name="Trazado 105843" d="M139.194,76.5s8.374,2.134,7.954,8.26c-.463,6.76-7.954,8.261-7.954,8.261,5.814,0,10.526-3.7,10.526-8.261s-4.712-8.26-10.526-8.26" transform="translate(112.675 32.125)" fill="#a3a1a1"/>
    <path id="Trazado_105844" data-name="Trazado 105844" d="M174.985,82.314c-8.581-.1-15.639,5.276-15.768,12.008,0,0,4.165-10.246,15.679-9.624,12.7.684,15.391,9.989,15.391,9.989.128-6.733-6.722-12.272-15.3-12.373" transform="translate(128.883 34.565)" fill="#a3a1a1"/>
    <path id="Trazado_105845" data-name="Trazado 105845" d="M86.084,60.492H64.708c-6.5,0-11.823,4.175-11.823,9.278s5.32,9.279,11.823,9.279H86.084c6.5,0,11.823-4.176,11.823-9.279s-5.32-9.278-11.823-9.278" transform="translate(42.809 25.402)" fill="#aaabb0"/>
    <path id="Trazado_105846" data-name="Trazado 105846" d="M77.682,0H56.306C49.8,0,44.483,4.176,44.483,9.279s5.322,9.278,11.823,9.278H77.682c6.5,0,11.823-4.176,11.823-9.278S84.185,0,77.682,0" transform="translate(36.008)" fill="#c8c7c7"/>
    <path id="Trazado_105847" data-name="Trazado 105847" d="M11.136,77.222H.8l0,18.557H11.136c6.5,0,11.823-4.176,11.823-9.279s-5.32-9.278-11.823-9.278" transform="translate(0.649 32.427)" fill="#aaabb0"/>
    <path id="Trazado_105848" data-name="Trazado 105848" d="M125.326,38.386h-34.2c-10.406,0-18.92,6.681-18.92,14.847s8.514,14.847,18.92,14.847h34.2c10.406,0,18.92-6.681,18.92-14.847s-8.514-14.847-18.92-14.847" transform="translate(58.447 16.119)" fill="#c8c7c7"/>
    <path id="Trazado_105849" data-name="Trazado 105849" d="M161.234,52.141H100.678c-6.632,0-12.057,4.257-12.057,9.461s5.425,9.461,12.057,9.461h60.556c6.63,0,12.057-4.258,12.057-9.461s-5.427-9.461-12.057-9.461" transform="translate(71.737 21.895)" fill="#c8c7c7"/>
    <path id="Trazado_105850" data-name="Trazado 105850" d="M354.694,202.4H.081v18.191H354.694c19.593,0,17.606-18.191,0-18.191" transform="translate(0.066 84.993)" fill="#cf9e50"/>
    <path id="Trazado_105851" data-name="Trazado 105851" d="M304.62,228.027H.081v15.2H303.489c11.063,0,10.763-13.917,1.131-15.2" transform="translate(0.066 95.754)" fill="#84888a"/>
    <path id="Trazado_105852" data-name="Trazado 105852" d="M390,215.386a20.193,20.193,0,0,0-2.437-.173H.081v18.044H302.458a16.9,16.9,0,0,1,2.061.133c.034,0,.067.013.1.017h84.163c14.275,0,15.024-16.329,1.214-18.022" transform="translate(0.066 90.373)" fill="#ab6e37"/>
    <path id="Trazado_105853" data-name="Trazado 105853" d="M302.456,227.921H.081v.151H304.618c-.034,0-.065-.013-.1-.017a16.929,16.929,0,0,0-2.063-.133" transform="translate(0.066 95.71)" fill="#ab6e37"/>
    <path id="Trazado_105854" data-name="Trazado 105854" d="M75.347,114.168,68.122,240.495l26.744.249L91.453,114.317Z" transform="translate(55.143 47.942)" fill="#a3a1a1"/>
    <path id="Trazado_105855" data-name="Trazado 105855" d="M68.121,240.494l13.372.124L83.4,114.243l-8.054-.075Z" transform="translate(55.143 47.942)" fill="#757474"/>
    <path id="Trazado_105856" data-name="Trazado 105856" d="M80.629,135.718l-9.234-.085-.42,7.334,9.543.088,9.541.089-.2-7.341Z" transform="translate(57.453 56.956)" fill="#edecec"/>
    <path id="Trazado_105857" data-name="Trazado 105857" d="M80.9,147.8l-9.976-.092-.613,10.722,10.428.1,10.426.1-.29-10.732Z" transform="translate(56.919 62.027)" fill="#edecec"/>
  </g>
</svg>
