<svg id="Grupo_80386" data-name="Grupo 80386" xmlns="http://www.w3.org/2000/svg" xmlns:xlink="http://www.w3.org/1999/xlink" width="252" height="287.971" viewBox="0 0 252 287.971">
  <defs>
    <clipPath id="clip-path">
      <rect id="Rectángulo_34008" data-name="Rectángulo 34008" width="252" height="287.97" fill="none"/>
    </clipPath>
    <clipPath id="clip-path-3">
      <rect id="Rectángulo_33817" data-name="Rectángulo 33817" width="19.286" height="34.871" fill="none"/>
    </clipPath>
    <clipPath id="clip-path-4">
      <rect id="Rectángulo_33818" data-name="Rectángulo 33818" width="45.752" height="64.887" fill="none"/>
    </clipPath>
    <clipPath id="clip-path-5">
      <rect id="Rectángulo_33819" data-name="Rectángulo 33819" width="66.49" height="35.08" fill="none"/>
    </clipPath>
    <clipPath id="clip-path-6">
      <rect id="Rectángulo_33820" data-name="Rectángulo 33820" width="48.471" height="49.343" fill="none"/>
    </clipPath>
    <clipPath id="clip-path-7">
      <rect id="Rectángulo_33823" data-name="Rectángulo 33823" width="38.782" height="109.4" fill="none"/>
    </clipPath>
    <clipPath id="clip-path-8">
      <rect id="Rectángulo_33828" data-name="Rectángulo 33828" width="15.648" height="7.756" fill="none"/>
    </clipPath>
    <clipPath id="clip-path-9">
      <rect id="Rectángulo_33830" data-name="Rectángulo 33830" width="14.288" height="6.191" fill="none"/>
    </clipPath>
    <clipPath id="clip-path-10">
      <rect id="Rectángulo_33842" data-name="Rectángulo 33842" width="34.154" height="6.396" fill="none"/>
    </clipPath>
    <clipPath id="clip-path-11">
      <rect id="Rectángulo_33847" data-name="Rectángulo 33847" width="34.154" height="6.395" fill="none"/>
    </clipPath>
    <clipPath id="clip-path-18">
      <rect id="Rectángulo_33883" data-name="Rectángulo 33883" width="32.725" height="5.239" fill="none"/>
    </clipPath>
    <clipPath id="clip-path-19">
      <rect id="Rectángulo_33888" data-name="Rectángulo 33888" width="32.725" height="5.238" fill="none"/>
    </clipPath>
    <clipPath id="clip-path-26">
      <rect id="Rectángulo_33933" data-name="Rectángulo 33933" width="39.544" height="86.229" fill="none"/>
    </clipPath>
    <clipPath id="clip-path-27">
      <rect id="Rectángulo_33944" data-name="Rectángulo 33944" width="48.142" height="79.214" fill="none"/>
    </clipPath>
    <clipPath id="clip-path-28">
      <rect id="Rectángulo_33945" data-name="Rectángulo 33945" width="48.14" height="86.229" fill="none"/>
    </clipPath>
    <clipPath id="clip-path-29">
      <rect id="Rectángulo_33946" data-name="Rectángulo 33946" width="13.99" height="7.973" fill="none"/>
    </clipPath>
    <clipPath id="clip-path-30">
      <rect id="Rectángulo_33953" data-name="Rectángulo 33953" width="16.211" height="16.244" fill="none"/>
    </clipPath>
    <clipPath id="clip-path-32">
      <rect id="Rectángulo_33955" data-name="Rectángulo 33955" width="8.477" height="16.244" fill="none"/>
    </clipPath>
    <clipPath id="clip-path-33">
      <rect id="Rectángulo_33959" data-name="Rectángulo 33959" width="38.778" height="103.324" fill="none"/>
    </clipPath>
    <clipPath id="clip-path-34">
      <rect id="Rectángulo_33966" data-name="Rectángulo 33966" width="32.054" height="19.369" fill="none"/>
    </clipPath>
    <clipPath id="clip-path-38">
      <rect id="Rectángulo_33998" data-name="Rectángulo 33998" width="180.339" height="138.088" fill="none"/>
    </clipPath>
    <clipPath id="clip-path-39">
      <rect id="Rectángulo_33999" data-name="Rectángulo 33999" width="166.154" height="105.461" fill="none"/>
    </clipPath>
    <clipPath id="clip-path-40">
      <rect id="Rectángulo_34000" data-name="Rectángulo 34000" width="67.497" height="61.69" fill="none"/>
    </clipPath>
    <clipPath id="clip-path-41">
      <rect id="Rectángulo_34001" data-name="Rectángulo 34001" width="143.325" height="47.882" fill="none"/>
    </clipPath>
    <clipPath id="clip-path-42">
      <rect id="Rectángulo_34002" data-name="Rectángulo 34002" width="79.6" height="25.767" fill="none"/>
    </clipPath>
    <clipPath id="clip-path-43">
      <rect id="Rectángulo_34003" data-name="Rectángulo 34003" width="38.152" height="16.293" fill="none"/>
    </clipPath>
    <clipPath id="clip-path-44">
      <rect id="Rectángulo_34004" data-name="Rectángulo 34004" width="53.756" height="51.952" fill="none"/>
    </clipPath>
    <clipPath id="clip-path-45">
      <rect id="Rectángulo_34005" data-name="Rectángulo 34005" width="15.258" height="23.96" fill="none"/>
    </clipPath>
    <clipPath id="clip-path-46">
      <rect id="Rectángulo_34006" data-name="Rectángulo 34006" width="32.83" height="12.088" fill="none"/>
    </clipPath>
  </defs>
  <g id="Grupo_80385" data-name="Grupo 80385" clip-path="url(#clip-path)">
    <g id="Grupo_80384" data-name="Grupo 80384">
      <g id="Grupo_80383" data-name="Grupo 80383" clip-path="url(#clip-path)">
        <path id="Trazado_113817" data-name="Trazado 113817" d="M259.193,391.465a90.2,90.2,0,0,1-15.107,50.118q-.846,1.273-1.734,2.516a91.118,91.118,0,0,1-22.711,22.243,90.248,90.248,0,0,1-42.905,15.393q-4.034.359-8.172.362a90.657,90.657,0,0,1-89.231-74.668c-.2-1.142-.384-2.288-.542-3.444q-.607-4.4-.789-8.924-.072-1.79-.07-3.6,0-1.7.063-3.393a90.631,90.631,0,0,1,181.2,3.393" transform="translate(-50.349 -194.355)" fill="#9cd1e6"/>
        <g id="Grupo_80253" data-name="Grupo 80253" transform="translate(90.766 187.936)" opacity="0.42">
          <g id="Grupo_80252" data-name="Grupo 80252">
            <g id="Grupo_80251" data-name="Grupo 80251" clip-path="url(#clip-path-3)">
              <path id="Trazado_113818" data-name="Trazado 113818" d="M263.315,548.426c-6.361,4.86-8.5,8.756-5.612,12.235s3.925,5.878,9.53,4.991,1.53-2.361-2.251-3.374,1.815-1.66-.151-6.781,4.861-4.062,6.59-6.331,5.056-1.422,4.149-7.29-9.529-2.255-8.772-7.919-2.571-2.357-2.118,2.267,2.874,2.655,1.966,6.286.692,2.842-3.33,5.916" transform="translate(-256.437 -530.967)" fill="#67a4c3"/>
            </g>
          </g>
        </g>
        <g id="Grupo_80256" data-name="Grupo 80256" transform="translate(105.597 187.81)" opacity="0.42">
          <g id="Grupo_80255" data-name="Grupo 80255">
            <g id="Grupo_80254" data-name="Grupo 80254" clip-path="url(#clip-path-4)">
              <path id="Trazado_113819" data-name="Trazado 113819" d="M308.038,530.762c6.088,1.494,14.483,3.808,16.381,8.094s8.9,2.236,10.239,9.05,7.37,3.865,9.289,11.888-16.108,11.82-15.541,21.879-18.832,11.142-23.457,12.907-9.66.844-4.3-1.571S305.619,584.33,311.6,583s10.98-3.32,13.606-10.866,9.459-8.557,8.51-16.118-5.46-8.469-12.5-10.957-.935-4.809-7.027-8.014-10.192-7.277-6.149-6.285" transform="translate(-298.338 -530.61)" fill="#67a4c3"/>
            </g>
          </g>
        </g>
        <path id="Trazado_113820" data-name="Trazado 113820" d="M345.4,380.178c2.677.422,3.824.443,5.412,5s6.378,4.675,6.992,6.64-.737.368-5.281,0-3.554-1.105-4.909-3.684-1.344-2.255-5.341-3.952-6-4.119-2.483-4.873,3.483.538,5.609.873" transform="translate(-218.349 -244.899)" fill="#489da2"/>
        <path id="Trazado_113821" data-name="Trazado 113821" d="M304.291,332.02c-2.835,7.509,14.277,8.079,22.792,9.637s.919,9.211,14.542,9.211S361.4,339.379,361.4,339.379l-19.773-16.144Z" transform="translate(-196.385 -208.826)" fill="#489da2"/>
        <path id="Trazado_113822" data-name="Trazado 113822" d="M178.02,484.374a6.423,6.423,0,0,1-1.282,2.178q-4.034.359-8.172.361a90.658,90.658,0,0,1-89.231-74.667c-.2-1.143-.383-2.288-.542-3.445q-.608-4.4-.789-8.924-.071-1.791-.069-3.6,0-1.7.062-3.393a90.168,90.168,0,0,1,17.068-49.641,91.139,91.139,0,0,1,23.386-22.49,90.17,90.17,0,0,1,28.319-12.465s4.723,9.056-2.645,20.356-10.073,10.564-8.843,18.912,7.612,11.3,7.612,20.632-3.684,10.316-11.053,13.264-10.806,9.337-14.49,12.037c-3.622,2.654-18.15,5.784-20.979,17.309-.055.206-.1.413-.143.623-.082.391-.159.771-.233,1.135-2.232,10.839-2.232,9.981,4.9,11.882.637.17,1.208.346,1.724.527a13.11,13.11,0,0,1,3.312,1.669c2.093,1.481,2.6,2.881,6.016,3.209,5.159.491,5.653-3.441,12.527-1.23s8.6,5.4,8.6,10.316,7.121,13.264,10.069,19.9.984,6.879,9.58,9.826,15.474,6.632,18.422,7.615,8.353,3.438,6.879,8.106" transform="translate(-50.35 -199.171)" fill="#489da2"/>
        <g id="Grupo_80259" data-name="Grupo 80259" transform="translate(75.426 106.482)" opacity="0.15" style="mix-blend-mode: multiply;isolation: isolate">
          <g id="Grupo_80258" data-name="Grupo 80258">
            <g id="Grupo_80257" data-name="Grupo 80257" clip-path="url(#clip-path-5)">
              <path id="Trazado_113823" data-name="Trazado 113823" d="M279.588,303.968c-38.446,11.407-47.066,31.949-47.066,31.949l-11.806-8.49L213.1,311.555a90.947,90.947,0,0,1,66.49-7.587" transform="translate(-213.098 -300.837)" fill="#557387"/>
            </g>
          </g>
        </g>
        <path id="Trazado_113824" data-name="Trazado 113824" d="M488.16,453.146a90.213,90.213,0,0,1-16.841,52.635c-3.441-2.053-9.045-5.666-10.051-8.017-1.474-3.441-4.911-9.09-5.158-15.969s3.684-12.769,0-19.649,2.7-11.3-10.316-20.385-13.192-14.833-13.448-27.995a22.274,22.274,0,0,1,1.8-7.849,10.751,10.751,0,0,1,7.65-6.581c3.9-1.093,8.255-.808,11.116-.808s8.99-1.046,15.205-2.218a90.145,90.145,0,0,1,19.734,49.342v0q.3,3.705.3,7.491" transform="translate(-279.316 -256.036)" fill="#489da2"/>
        <g id="Grupo_80262" data-name="Grupo 80262" transform="translate(160.068 140.275)" opacity="0.12" style="mix-blend-mode: multiply;isolation: isolate">
          <g id="Grupo_80261" data-name="Grupo 80261">
            <g id="Grupo_80260" data-name="Grupo 80260" clip-path="url(#clip-path-6)">
              <path id="Trazado_113825" data-name="Trazado 113825" d="M500.7,445.654c-5.4-13.115-8.192-16.162-22.559-17.511-14.634-1.374-15.808-2.513-21.294-8.587s-5.522-12.334-3.02-18.554a10.583,10.583,0,0,1,.817-1.666c3.9-1.093,8.255-.807,11.116-.807s8.99-1.046,15.205-2.218A90.146,90.146,0,0,1,500.7,445.654" transform="translate(-452.233 -396.312)" fill="#557387"/>
            </g>
          </g>
        </g>
        <path id="Trazado_113826" data-name="Trazado 113826" d="M445.281,747.719a90.071,90.071,0,0,1-9.329,5.585c-3.316-2.962-7.733-5.39-7.649-9.2s-2.539-7.737,0-7.737-.085,4.422,5.32,6.632,6.632,1.721,8.6,2.211a8.687,8.687,0,0,1,3.062,2.505" transform="translate(-275.988 -475.732)" fill="#489da2"/>
        <path id="Trazado_113827" data-name="Trazado 113827" d="M212.284,549.438c-3,.257-.8,3.5-5.1,7.921s.307,5.4,5.649,4.114,6.141,1.9,10.93-3.623,1.179-6.325-1.437-8.167.516-3.061-3.169-3.4-2.579,2.789-6.878,3.158" transform="translate(-132.758 -352.907)" fill="#489da2"/>
        <rect id="Rectángulo_33821" data-name="Rectángulo 33821" width="47.897" height="109.4" transform="translate(99.47 17.709)" fill="#5f6386"/>
        <rect id="Rectángulo_33822" data-name="Rectángulo 33822" width="38.782" height="109.4" transform="translate(99.47 17.709)" fill="#8a8fad"/>
        <g id="Grupo_80265" data-name="Grupo 80265" transform="translate(99.47 17.71)" opacity="0.23">
          <g id="Grupo_80264" data-name="Grupo 80264">
            <g id="Grupo_80263" data-name="Grupo 80263" clip-path="url(#clip-path-7)">
              <path id="Trazado_113828" data-name="Trazado 113828" d="M319.81,149.073v10.361h-9.94l-1.555-4.008-3.04-7.852-2.03-5.235-3.04-7.848-2.034-5.236-3.039-7.847-2.026-5.236-3.044-7.848-2.026-5.235-3.047-7.848-2.023-5.236-1.938-4.992V50.034h.394l.28.722,2.03,5.232,3.043,7.851,2.03,5.232,3.039,7.851,2.03,5.232,3.043,7.851,2.03,5.236,3.04,7.848,2.03,5.235,3.039,7.848,2.026,5.236,3.047,7.847,2.023,5.236,3.047,7.848,2.026,5.235Z" transform="translate(-281.028 -50.034)" fill="#fff"/>
              <path id="Trazado_113829" data-name="Trazado 113829" d="M332,118.471v14.395l-1.4-3.611-3.039-7.848-2.03-5.235-3.039-7.848-2.034-5.236-3.04-7.847-2.03-5.236-3.039-7.851-2.03-5.232-3.043-7.851-2.03-5.232-3.04-7.851-2.026-5.232-.28-.722h5.578l.28.722,2.033,5.232,3.04,7.851,2.03,5.232,3.039,7.851,2.03,5.232,3.043,7.851L323,95.241l3.047,7.847,2.026,5.236,3.04,7.848Z" transform="translate(-293.22 -50.034)" fill="#fff"/>
              <path id="Trazado_113830" data-name="Trazado 113830" d="M302.191,259.433h-5.578l-1.555-4.008-3.04-7.851-2.03-5.236-3.039-7.848-2.034-5.235-3.04-7.848-.847-2.185v-14.4l1.356,3.5,3.047,7.847,2.023,5.236,3.043,7.848,2.03,5.235,3.039,7.848,2.03,5.236,3.039,7.851Z" transform="translate(-281.028 -150.033)" fill="#fff"/>
            </g>
          </g>
        </g>
        <rect id="Rectángulo_33824" data-name="Rectángulo 33824" width="27.486" height="14.696" transform="translate(106.274 3.012)" fill="#5f6386"/>
        <rect id="Rectángulo_33825" data-name="Rectángulo 33825" width="22.043" height="14.696" transform="translate(106.274 3.012)" fill="#8a8fad"/>
        <rect id="Rectángulo_33826" data-name="Rectángulo 33826" width="27.486" height="0.748" transform="translate(106.274 16.96)" fill="#5f6386"/>
        <g id="Grupo_80268" data-name="Grupo 80268" transform="translate(109.267 6.414)" opacity="0.55">
          <g id="Grupo_80267" data-name="Grupo 80267">
            <g id="Grupo_80266" data-name="Grupo 80266" clip-path="url(#clip-path-8)">
              <rect id="Rectángulo_33827" data-name="Rectángulo 33827" width="15.648" height="7.756" transform="translate(0 0)" fill="#5f6386"/>
            </g>
          </g>
        </g>
        <g id="Grupo_80271" data-name="Grupo 80271" transform="translate(110.628 6.414)" opacity="0.6">
          <g id="Grupo_80270" data-name="Grupo 80270">
            <g id="Grupo_80269" data-name="Grupo 80269" clip-path="url(#clip-path-9)">
              <rect id="Rectángulo_33829" data-name="Rectángulo 33829" width="14.287" height="6.191" transform="translate(0)" fill="#5f6386"/>
            </g>
          </g>
        </g>
        <rect id="Rectángulo_33831" data-name="Rectángulo 33831" width="47.897" height="0.998" transform="translate(99.47 126.169)" fill="#5f6386"/>
        <rect id="Rectángulo_33832" data-name="Rectángulo 33832" width="38.78" height="0.998" transform="translate(99.47 112.277)" fill="#5f6386"/>
        <rect id="Rectángulo_33833" data-name="Rectángulo 33833" width="38.78" height="0.998" transform="translate(99.47 98.67)" fill="#5f6386"/>
        <rect id="Rectángulo_33834" data-name="Rectángulo 33834" width="38.782" height="0.998" transform="translate(99.47 85.063)" fill="#5f6386"/>
        <rect id="Rectángulo_33835" data-name="Rectángulo 33835" width="38.782" height="0.998" transform="translate(99.47 71.456)" fill="#5f6386"/>
        <rect id="Rectángulo_33836" data-name="Rectángulo 33836" width="38.782" height="0.998" transform="translate(99.47 57.849)" fill="#5f6386"/>
        <rect id="Rectángulo_33837" data-name="Rectángulo 33837" width="38.782" height="0.998" transform="translate(99.47 44.242)" fill="#5f6386"/>
        <g id="Grupo_80274" data-name="Grupo 80274" transform="translate(101.511 117.04)" opacity="0.43">
          <g id="Grupo_80273" data-name="Grupo 80273">
            <g id="Grupo_80272" data-name="Grupo 80272" clip-path="url(#clip-path-10)">
              <rect id="Rectángulo_33838" data-name="Rectángulo 33838" width="6.395" height="6.395" transform="translate(27.759 0)" fill="#5f6386"/>
              <rect id="Rectángulo_33839" data-name="Rectángulo 33839" width="6.395" height="6.395" transform="translate(18.506 0)" fill="#5f6386"/>
              <rect id="Rectángulo_33840" data-name="Rectángulo 33840" width="6.395" height="6.395" transform="translate(9.253 0)" fill="#5f6386"/>
              <rect id="Rectángulo_33841" data-name="Rectángulo 33841" width="6.395" height="6.395" transform="translate(0 0)" fill="#5f6386"/>
            </g>
          </g>
        </g>
        <g id="Grupo_80277" data-name="Grupo 80277" transform="translate(101.511 103.433)" opacity="0.43">
          <g id="Grupo_80276" data-name="Grupo 80276">
            <g id="Grupo_80275" data-name="Grupo 80275" clip-path="url(#clip-path-11)">
              <rect id="Rectángulo_33843" data-name="Rectángulo 33843" width="6.395" height="6.395" transform="translate(27.759)" fill="#5f6386"/>
              <rect id="Rectángulo_33844" data-name="Rectángulo 33844" width="6.395" height="6.395" transform="translate(18.506)" fill="#5f6386"/>
              <rect id="Rectángulo_33845" data-name="Rectángulo 33845" width="6.395" height="6.395" transform="translate(9.253)" fill="#5f6386"/>
              <rect id="Rectángulo_33846" data-name="Rectángulo 33846" width="6.395" height="6.395" fill="#5f6386"/>
            </g>
          </g>
        </g>
        <g id="Grupo_80280" data-name="Grupo 80280" transform="translate(101.511 89.826)" opacity="0.43">
          <g id="Grupo_80279" data-name="Grupo 80279">
            <g id="Grupo_80278" data-name="Grupo 80278" clip-path="url(#clip-path-11)">
              <rect id="Rectángulo_33848" data-name="Rectángulo 33848" width="6.395" height="6.395" transform="translate(27.759)" fill="#5f6386"/>
              <rect id="Rectángulo_33849" data-name="Rectángulo 33849" width="6.395" height="6.395" transform="translate(18.506)" fill="#5f6386"/>
              <rect id="Rectángulo_33850" data-name="Rectángulo 33850" width="6.395" height="6.395" transform="translate(9.253)" fill="#5f6386"/>
              <rect id="Rectángulo_33851" data-name="Rectángulo 33851" width="6.395" height="6.395" fill="#5f6386"/>
            </g>
          </g>
        </g>
        <g id="Grupo_80283" data-name="Grupo 80283" transform="translate(101.511 76.218)" opacity="0.43">
          <g id="Grupo_80282" data-name="Grupo 80282">
            <g id="Grupo_80281" data-name="Grupo 80281" clip-path="url(#clip-path-10)">
              <rect id="Rectángulo_33853" data-name="Rectángulo 33853" width="6.395" height="6.395" transform="translate(27.759 0)" fill="#5f6386"/>
              <rect id="Rectángulo_33854" data-name="Rectángulo 33854" width="6.395" height="6.395" transform="translate(18.506 0)" fill="#5f6386"/>
              <rect id="Rectángulo_33855" data-name="Rectángulo 33855" width="6.395" height="6.395" transform="translate(9.253 0)" fill="#5f6386"/>
              <rect id="Rectángulo_33856" data-name="Rectángulo 33856" width="6.395" height="6.395" transform="translate(0 0)" fill="#5f6386"/>
            </g>
          </g>
        </g>
        <g id="Grupo_80286" data-name="Grupo 80286" transform="translate(101.511 62.611)" opacity="0.43">
          <g id="Grupo_80285" data-name="Grupo 80285">
            <g id="Grupo_80284" data-name="Grupo 80284" clip-path="url(#clip-path-11)">
              <rect id="Rectángulo_33858" data-name="Rectángulo 33858" width="6.395" height="6.395" transform="translate(27.759)" fill="#5f6386"/>
              <rect id="Rectángulo_33859" data-name="Rectángulo 33859" width="6.395" height="6.395" transform="translate(18.506)" fill="#5f6386"/>
              <rect id="Rectángulo_33860" data-name="Rectángulo 33860" width="6.395" height="6.395" transform="translate(9.253)" fill="#5f6386"/>
              <rect id="Rectángulo_33861" data-name="Rectángulo 33861" width="6.395" height="6.395" fill="#5f6386"/>
            </g>
          </g>
        </g>
        <g id="Grupo_80289" data-name="Grupo 80289" transform="translate(101.511 49.004)" opacity="0.43">
          <g id="Grupo_80288" data-name="Grupo 80288">
            <g id="Grupo_80287" data-name="Grupo 80287" clip-path="url(#clip-path-10)">
              <rect id="Rectángulo_33863" data-name="Rectángulo 33863" width="6.395" height="6.395" transform="translate(27.759 0)" fill="#5f6386"/>
              <rect id="Rectángulo_33864" data-name="Rectángulo 33864" width="6.395" height="6.395" transform="translate(18.506 0)" fill="#5f6386"/>
              <rect id="Rectángulo_33865" data-name="Rectángulo 33865" width="6.395" height="6.395" transform="translate(9.253 0)" fill="#5f6386"/>
              <rect id="Rectángulo_33866" data-name="Rectángulo 33866" width="6.395" height="6.395" transform="translate(0 0)" fill="#5f6386"/>
            </g>
          </g>
        </g>
        <g id="Grupo_80292" data-name="Grupo 80292" transform="translate(101.511 35.397)" opacity="0.43">
          <g id="Grupo_80291" data-name="Grupo 80291">
            <g id="Grupo_80290" data-name="Grupo 80290" clip-path="url(#clip-path-10)">
              <rect id="Rectángulo_33868" data-name="Rectángulo 33868" width="6.395" height="6.395" transform="translate(27.759 0)" fill="#5f6386"/>
              <rect id="Rectángulo_33869" data-name="Rectángulo 33869" width="6.395" height="6.395" transform="translate(18.506 0)" fill="#5f6386"/>
              <rect id="Rectángulo_33870" data-name="Rectángulo 33870" width="6.395" height="6.395" transform="translate(9.253 0)" fill="#5f6386"/>
              <rect id="Rectángulo_33871" data-name="Rectángulo 33871" width="6.395" height="6.395" transform="translate(0 0)" fill="#5f6386"/>
            </g>
          </g>
        </g>
        <g id="Grupo_80295" data-name="Grupo 80295" transform="translate(101.511 21.79)" opacity="0.43">
          <g id="Grupo_80294" data-name="Grupo 80294">
            <g id="Grupo_80293" data-name="Grupo 80293" clip-path="url(#clip-path-11)">
              <rect id="Rectángulo_33873" data-name="Rectángulo 33873" width="6.395" height="6.395" transform="translate(27.759 0)" fill="#5f6386"/>
              <rect id="Rectángulo_33874" data-name="Rectángulo 33874" width="6.395" height="6.395" transform="translate(18.506 0)" fill="#5f6386"/>
              <rect id="Rectángulo_33875" data-name="Rectángulo 33875" width="6.395" height="6.395" transform="translate(9.253 0)" fill="#5f6386"/>
              <rect id="Rectángulo_33876" data-name="Rectángulo 33876" width="6.395" height="6.395" transform="translate(0 0)" fill="#5f6386"/>
            </g>
          </g>
        </g>
        <rect id="Rectángulo_33878" data-name="Rectángulo 33878" width="38.782" height="0.998" transform="translate(99.47 30.635)" fill="#5f6386"/>
        <g id="Grupo_80298" data-name="Grupo 80298" transform="translate(102.94 117.04)" opacity="0.43">
          <g id="Grupo_80297" data-name="Grupo 80297">
            <g id="Grupo_80296" data-name="Grupo 80296" clip-path="url(#clip-path-18)">
              <rect id="Rectángulo_33879" data-name="Rectángulo 33879" width="4.967" height="5.239" transform="translate(27.758)" fill="#5f6386"/>
              <rect id="Rectángulo_33880" data-name="Rectángulo 33880" width="4.967" height="5.239" transform="translate(18.505)" fill="#5f6386"/>
              <rect id="Rectángulo_33881" data-name="Rectángulo 33881" width="4.967" height="5.239" transform="translate(9.253)" fill="#5f6386"/>
              <rect id="Rectángulo_33882" data-name="Rectángulo 33882" width="4.967" height="5.239" transform="translate(0)" fill="#5f6386"/>
            </g>
          </g>
        </g>
        <g id="Grupo_80301" data-name="Grupo 80301" transform="translate(102.94 103.433)" opacity="0.43">
          <g id="Grupo_80300" data-name="Grupo 80300">
            <g id="Grupo_80299" data-name="Grupo 80299" clip-path="url(#clip-path-19)">
              <rect id="Rectángulo_33884" data-name="Rectángulo 33884" width="4.967" height="5.239" transform="translate(27.758 0)" fill="#5f6386"/>
              <rect id="Rectángulo_33885" data-name="Rectángulo 33885" width="4.967" height="5.239" transform="translate(18.505 0)" fill="#5f6386"/>
              <rect id="Rectángulo_33886" data-name="Rectángulo 33886" width="4.967" height="5.239" transform="translate(9.253 0)" fill="#5f6386"/>
              <rect id="Rectángulo_33887" data-name="Rectángulo 33887" width="4.967" height="5.239" transform="translate(0 0)" fill="#5f6386"/>
            </g>
          </g>
        </g>
        <g id="Grupo_80304" data-name="Grupo 80304" transform="translate(102.94 89.826)" opacity="0.43">
          <g id="Grupo_80303" data-name="Grupo 80303">
            <g id="Grupo_80302" data-name="Grupo 80302" clip-path="url(#clip-path-19)">
              <rect id="Rectángulo_33889" data-name="Rectángulo 33889" width="4.967" height="5.239" transform="translate(27.758 0)" fill="#5f6386"/>
              <rect id="Rectángulo_33890" data-name="Rectángulo 33890" width="4.967" height="5.239" transform="translate(18.505 0)" fill="#5f6386"/>
              <rect id="Rectángulo_33891" data-name="Rectángulo 33891" width="4.967" height="5.239" transform="translate(9.253 0)" fill="#5f6386"/>
              <rect id="Rectángulo_33892" data-name="Rectángulo 33892" width="4.967" height="5.239" transform="translate(0 0)" fill="#5f6386"/>
            </g>
          </g>
        </g>
        <g id="Grupo_80307" data-name="Grupo 80307" transform="translate(102.94 76.218)" opacity="0.43">
          <g id="Grupo_80306" data-name="Grupo 80306">
            <g id="Grupo_80305" data-name="Grupo 80305" clip-path="url(#clip-path-18)">
              <rect id="Rectángulo_33894" data-name="Rectángulo 33894" width="4.967" height="5.239" transform="translate(27.758)" fill="#5f6386"/>
              <rect id="Rectángulo_33895" data-name="Rectángulo 33895" width="4.967" height="5.239" transform="translate(18.505)" fill="#5f6386"/>
              <rect id="Rectángulo_33896" data-name="Rectángulo 33896" width="4.967" height="5.239" transform="translate(9.253)" fill="#5f6386"/>
              <rect id="Rectángulo_33897" data-name="Rectángulo 33897" width="4.967" height="5.239" transform="translate(0)" fill="#5f6386"/>
            </g>
          </g>
        </g>
        <g id="Grupo_80310" data-name="Grupo 80310" transform="translate(102.94 62.611)" opacity="0.43">
          <g id="Grupo_80309" data-name="Grupo 80309">
            <g id="Grupo_80308" data-name="Grupo 80308" clip-path="url(#clip-path-18)">
              <rect id="Rectángulo_33899" data-name="Rectángulo 33899" width="4.967" height="5.239" transform="translate(27.758)" fill="#5f6386"/>
              <rect id="Rectángulo_33900" data-name="Rectángulo 33900" width="4.967" height="5.239" transform="translate(18.505)" fill="#5f6386"/>
              <rect id="Rectángulo_33901" data-name="Rectángulo 33901" width="4.967" height="5.239" transform="translate(9.253)" fill="#5f6386"/>
              <rect id="Rectángulo_33902" data-name="Rectángulo 33902" width="4.967" height="5.239" transform="translate(0)" fill="#5f6386"/>
            </g>
          </g>
        </g>
        <g id="Grupo_80313" data-name="Grupo 80313" transform="translate(102.94 49.004)" opacity="0.43">
          <g id="Grupo_80312" data-name="Grupo 80312">
            <g id="Grupo_80311" data-name="Grupo 80311" clip-path="url(#clip-path-18)">
              <rect id="Rectángulo_33904" data-name="Rectángulo 33904" width="4.967" height="5.239" transform="translate(27.758 0)" fill="#5f6386"/>
              <rect id="Rectángulo_33905" data-name="Rectángulo 33905" width="4.967" height="5.239" transform="translate(18.505 0)" fill="#5f6386"/>
              <rect id="Rectángulo_33906" data-name="Rectángulo 33906" width="4.967" height="5.239" transform="translate(9.253 0)" fill="#5f6386"/>
              <rect id="Rectángulo_33907" data-name="Rectángulo 33907" width="4.967" height="5.239" transform="translate(0 0)" fill="#5f6386"/>
            </g>
          </g>
        </g>
        <g id="Grupo_80316" data-name="Grupo 80316" transform="translate(102.94 35.397)" opacity="0.43">
          <g id="Grupo_80315" data-name="Grupo 80315">
            <g id="Grupo_80314" data-name="Grupo 80314" clip-path="url(#clip-path-18)">
              <rect id="Rectángulo_33909" data-name="Rectángulo 33909" width="4.967" height="5.239" transform="translate(27.758 0)" fill="#5f6386"/>
              <rect id="Rectángulo_33910" data-name="Rectángulo 33910" width="4.967" height="5.239" transform="translate(18.505 0)" fill="#5f6386"/>
              <rect id="Rectángulo_33911" data-name="Rectángulo 33911" width="4.967" height="5.239" transform="translate(9.253 0)" fill="#5f6386"/>
              <rect id="Rectángulo_33912" data-name="Rectángulo 33912" width="4.967" height="5.239" transform="translate(0 0)" fill="#5f6386"/>
            </g>
          </g>
        </g>
        <g id="Grupo_80319" data-name="Grupo 80319" transform="translate(102.94 21.79)" opacity="0.43">
          <g id="Grupo_80318" data-name="Grupo 80318">
            <g id="Grupo_80317" data-name="Grupo 80317" clip-path="url(#clip-path-19)">
              <rect id="Rectángulo_33914" data-name="Rectángulo 33914" width="4.967" height="5.239" transform="translate(27.758 0)" fill="#5f6386"/>
              <rect id="Rectángulo_33915" data-name="Rectángulo 33915" width="4.967" height="5.239" transform="translate(18.505 0)" fill="#5f6386"/>
              <rect id="Rectángulo_33916" data-name="Rectángulo 33916" width="4.967" height="5.239" transform="translate(9.253 0)" fill="#5f6386"/>
              <rect id="Rectángulo_33917" data-name="Rectángulo 33917" width="4.967" height="5.239" transform="translate(0 0)" fill="#5f6386"/>
            </g>
          </g>
        </g>
        <rect id="Rectángulo_33919" data-name="Rectángulo 33919" width="48.14" height="87.762" transform="translate(145.242 58.739)" fill="#5f6386"/>
        <rect id="Rectángulo_33920" data-name="Rectángulo 33920" width="2.118" height="8.809" transform="translate(150.245 51.463)" fill="#557387"/>
        <rect id="Rectángulo_33921" data-name="Rectángulo 33921" width="2.118" height="8.809" transform="translate(152.364 51.463)" fill="#455d6e"/>
        <rect id="Rectángulo_33922" data-name="Rectángulo 33922" width="2.118" height="8.809" transform="translate(177.234 51.463)" fill="#557387"/>
        <rect id="Rectángulo_33923" data-name="Rectángulo 33923" width="2.118" height="8.809" transform="translate(179.352 51.463)" fill="#455d6e"/>
        <rect id="Rectángulo_33924" data-name="Rectángulo 33924" width="2.118" height="8.809" transform="translate(186.33 51.463)" fill="#557387"/>
        <rect id="Rectángulo_33925" data-name="Rectángulo 33925" width="2.118" height="8.809" transform="translate(188.449 51.463)" fill="#455d6e"/>
        <rect id="Rectángulo_33926" data-name="Rectángulo 33926" width="48.14" height="7.973" transform="translate(145.242 47.476)" fill="#455d6e"/>
        <rect id="Rectángulo_33927" data-name="Rectángulo 33927" width="48.14" height="1.533" transform="translate(145.242 58.739)" fill="#557387"/>
        <rect id="Rectángulo_33928" data-name="Rectángulo 33928" width="48.14" height="7.973" transform="translate(145.242 46.448)" fill="#557387"/>
        <rect id="Rectángulo_33929" data-name="Rectángulo 33929" width="39.544" height="1.533" transform="translate(145.242 58.739)" fill="#6b91ab"/>
        <rect id="Rectángulo_33930" data-name="Rectángulo 33930" width="39.544" height="7.973" transform="translate(145.242 46.448)" fill="#6b91ab"/>
        <rect id="Rectángulo_33931" data-name="Rectángulo 33931" width="34.202" height="3.53" transform="translate(147.913 48.67)" fill="#6b91ab"/>
        <g id="Grupo_80322" data-name="Grupo 80322" transform="translate(153.838 60.272)" opacity="0.53">
          <g id="Grupo_80321" data-name="Grupo 80321">
            <g id="Grupo_80320" data-name="Grupo 80320" clip-path="url(#clip-path-26)">
              <rect id="Rectángulo_33932" data-name="Rectángulo 33932" width="39.544" height="86.229" transform="translate(0)" fill="#cfe2eb"/>
            </g>
          </g>
        </g>
        <rect id="Rectángulo_33934" data-name="Rectángulo 33934" width="39.544" height="86.229" transform="translate(145.242 60.272)" fill="#cfe2eb"/>
        <g id="Grupo_80325" data-name="Grupo 80325" transform="translate(145.241 63.068)" opacity="0.33">
          <g id="Grupo_80324" data-name="Grupo 80324">
            <g id="Grupo_80323" data-name="Grupo 80323" clip-path="url(#clip-path-27)">
              <rect id="Rectángulo_33935" data-name="Rectángulo 33935" width="48.143" height="5.527" transform="translate(0 73.687)" fill="#1c5276"/>
              <rect id="Rectángulo_33936" data-name="Rectángulo 33936" width="48.143" height="5.527" transform="translate(0 64.476)" fill="#1c5276"/>
              <rect id="Rectángulo_33937" data-name="Rectángulo 33937" width="48.143" height="5.527" transform="translate(0 55.266)" fill="#1c5276"/>
              <rect id="Rectángulo_33938" data-name="Rectángulo 33938" width="48.143" height="5.527" transform="translate(0 46.055)" fill="#1c5276"/>
              <rect id="Rectángulo_33939" data-name="Rectángulo 33939" width="48.143" height="5.527" transform="translate(0 36.843)" fill="#1c5276"/>
              <rect id="Rectángulo_33940" data-name="Rectángulo 33940" width="48.143" height="5.527" transform="translate(0 27.633)" fill="#1c5276"/>
              <rect id="Rectángulo_33941" data-name="Rectángulo 33941" width="48.143" height="5.527" transform="translate(0 18.422)" fill="#1c5276"/>
              <rect id="Rectángulo_33942" data-name="Rectángulo 33942" width="48.143" height="5.527" transform="translate(0 9.211)" fill="#1c5276"/>
              <rect id="Rectángulo_33943" data-name="Rectángulo 33943" width="48.143" height="5.527" transform="translate(0)" fill="#1c5276"/>
            </g>
          </g>
        </g>
        <g id="Grupo_80328" data-name="Grupo 80328" transform="translate(145.242 60.272)" opacity="0.23">
          <g id="Grupo_80327" data-name="Grupo 80327">
            <g id="Grupo_80326" data-name="Grupo 80326" clip-path="url(#clip-path-28)">
              <path id="Trazado_113831" data-name="Trazado 113831" d="M451.433,256.512h-9.823l-1.636-4.219-2.14-5.526-1.43-3.685-2.141-5.527-1.43-3.684-2.141-5.527-1.426-3.684-2.144-5.527L425.7,215.45l-2.144-5.527-1.426-3.685-2.144-5.526-1.043-2.694-.383-.991-2.141-5.527-1.429-3.684-2.141-5.527-1.43-3.684-1.072-2.767v-5.556h7.671l.925,2.388.158.409,2.141,5.527,1.43,3.684,2.141,5.527,1.43,3.684,2.14,5.527,1.43,3.685,2.141,5.526,1.43,3.685,2.141,5.527,1.429,3.684,2.141,5.527,1.426,3.684,2.144,5.527,1.426,3.684,2.144,5.527,1.426,3.685,2.144,5.526.089.232Z" transform="translate(-410.345 -170.283)" fill="#fff"/>
              <path id="Trazado_113832" data-name="Trazado 113832" d="M480.557,253.16v3.353H477.93l-1.636-4.218-2.14-5.527-1.43-3.684-.763-1.968-1.378-3.559-1.43-3.684-2.14-5.527-1.43-3.685-2.141-5.527-1.43-3.684-2.141-5.527-1.43-3.684-2.14-5.527-1.43-3.684-2.141-5.527-1.43-3.684-2.14-5.527-1.426-3.685-2.144-5.527-1.083-2.8h3.931l1.083,2.8,2.14,5.527,1.43,3.685,2.141,5.527,1.43,3.684,2.141,5.527,1.429,3.684,2.141,5.527,1.426,3.684,2.144,5.527,1.426,3.684,2.141,5.527,1.43,3.685,1.02,2.634,1.12,2.893,1.429,3.684,2.141,5.527,1.43,3.684,2.141,5.527Z" transform="translate(-432.416 -170.283)" fill="#fff"/>
              <path id="Trazado_113833" data-name="Trazado 113833" d="M436.206,292.107l-1.636-4.219-2.14-5.527L431,278.678l-2.141-5.527-1.43-3.684-2.141-5.527-1.426-3.684-2.144-5.527-1.426-3.684-1.352-3.486-.792-2.041-1.426-3.685-2.144-5.526-1.426-3.685-2.141-5.527-.667-1.717v10.143l.306.785,2.141,5.526,1.43,3.685,2.141,5.527,1.43,3.684,1.149,2.97.991,2.557,1.43,3.684,2.141,5.527,1.43,3.684,2.141,5.527,1.429,3.684,2.141,5.527,1.636,4.219Z" transform="translate(-410.345 -205.878)" fill="#fff"/>
            </g>
          </g>
        </g>
        <g id="Grupo_80331" data-name="Grupo 80331" transform="translate(145.242 46.448)" opacity="0.23">
          <g id="Grupo_80330" data-name="Grupo 80330">
            <g id="Grupo_80329" data-name="Grupo 80329" clip-path="url(#clip-path-29)">
              <path id="Trazado_113834" data-name="Trazado 113834" d="M415.986,139.2h-5.641v-7.973h2.55l.025.07,2.145,5.527Z" transform="translate(-410.345 -131.228)" fill="#fff"/>
              <path id="Trazado_113835" data-name="Trazado 113835" d="M437.065,139.2h-3.927l-.921-2.376-2.141-5.527-.025-.07h3.927l.026.07,1.02,2.634,1.12,2.892Z" transform="translate(-423.076 -131.228)" fill="#fff"/>
            </g>
          </g>
        </g>
        <rect id="Rectángulo_33947" data-name="Rectángulo 33947" width="2.118" height="8.809" transform="translate(50.959 32.634)" fill="#557387"/>
        <rect id="Rectángulo_33948" data-name="Rectángulo 33948" width="2.118" height="8.809" transform="translate(53.078 32.634)" fill="#455d6e"/>
        <rect id="Rectángulo_33949" data-name="Rectángulo 33949" width="2.118" height="8.809" transform="translate(77.947 32.634)" fill="#557387"/>
        <rect id="Rectángulo_33950" data-name="Rectángulo 33950" width="2.118" height="8.809" transform="translate(80.066 32.634)" fill="#455d6e"/>
        <rect id="Rectángulo_33951" data-name="Rectángulo 33951" width="2.118" height="8.809" transform="translate(87.044 32.634)" fill="#557387"/>
        <rect id="Rectángulo_33952" data-name="Rectángulo 33952" width="2.118" height="8.809" transform="translate(89.162 32.634)" fill="#455d6e"/>
        <path id="Trazado_113836" data-name="Trazado 113836" d="M194.9,14.738h-1.568L193.837,0h.551Z" transform="translate(-124.9 0)" fill="#557387"/>
        <path id="Trazado_113837" data-name="Trazado 113837" d="M182.232,51.056H149.743c0-.512.022-1.017.07-1.514.015-.148.029-.295.048-.439.011-.1.022-.191.037-.287s.022-.162.037-.247.029-.2.048-.3a15.975,15.975,0,0,1,.549-2.229c.04-.125.081-.247.125-.368.008-.018.011-.037.019-.052.059-.166.121-.335.188-.5.074-.191.151-.379.236-.567.063-.151.133-.3.2-.446a16.072,16.072,0,0,1,1.662-2.759c.077-.107.155-.21.236-.31.055-.074.114-.147.173-.217l.148-.181c.092-.11.181-.214.276-.321.184-.21.376-.416.571-.615.085-.088.173-.177.262-.262.11-.11.225-.217.343-.324.092-.085.184-.17.28-.254.328-.291.67-.567,1.024-.829.221-.166.45-.328.681-.483a15.3,15.3,0,0,1,1.415-.847q.16-.089.32-.166c.133-.07.269-.132.4-.2s.269-.125.405-.184c.11-.048.225-.1.339-.14a13.346,13.346,0,0,1,1.334-.479c.1-.033.2-.063.3-.088.309-.092.619-.173.936-.243.114-.03.228-.052.343-.074.14-.029.284-.055.427-.081s.287-.048.431-.07c.229-.033.457-.063.689-.085.132-.015.269-.025.4-.037.28-.022.556-.037.836-.044.129,0,.258-.007.387-.007h.066c.28,0,.556.007.833.022h0a16.243,16.243,0,0,1,15.338,14.708c.048.5.07,1,.07,1.514" transform="translate(-96.741 -22.49)" fill="#a7c3d1"/>
        <g id="Grupo_80334" data-name="Grupo 80334" transform="translate(53.002 12.321)" opacity="0.36">
          <g id="Grupo_80333" data-name="Grupo 80333">
            <g id="Grupo_80332" data-name="Grupo 80332" clip-path="url(#clip-path-30)">
              <path id="Trazado_113838" data-name="Trazado 113838" d="M165.954,34.811l-.07.037a16.248,16.248,0,0,0-8.367,14.693q.022.757.114,1.514h-7.888c0-.512.022-1.017.07-1.514.015-.147.029-.294.048-.438.011-.1.022-.192.037-.287s.022-.162.037-.247.03-.2.048-.3a15.986,15.986,0,0,1,.549-2.229c.04-.125.081-.247.125-.368.007-.018.011-.037.018-.052.059-.166.121-.335.188-.5.074-.191.151-.379.236-.567.063-.151.132-.3.2-.446a16.082,16.082,0,0,1,1.662-2.76c.077-.107.155-.21.236-.309.055-.074.114-.148.173-.218l.148-.181c.092-.11.181-.213.276-.32.184-.21.376-.416.571-.616.085-.088.173-.177.262-.262.11-.11.225-.217.343-.324.092-.085.184-.169.28-.254.328-.291.671-.567,1.024-.829.221-.166.45-.328.681-.482a15.275,15.275,0,0,1,1.415-.848q.16-.088.32-.166c.133-.07.269-.133.4-.2s.269-.125.405-.184c.11-.048.225-.1.339-.14a13.362,13.362,0,0,1,1.334-.479q.149-.05.3-.088c.309-.092.619-.173.936-.243.114-.029.228-.051.343-.074.14-.029.284-.055.427-.081s.287-.048.431-.07c.229-.033.457-.063.689-.085.132-.015.269-.026.4-.037.28-.022.556-.037.836-.044.129,0,.258-.007.387-.007Z" transform="translate(-149.743 -34.811)" fill="#fff"/>
            </g>
          </g>
        </g>
        <g id="Grupo_80337" data-name="Grupo 80337" transform="translate(69.246 12.321)" opacity="0.45">
          <g id="Grupo_80336" data-name="Grupo 80336">
            <g id="Grupo_80335" data-name="Grupo 80335" clip-path="url(#clip-path-30)">
              <path id="Trazado_113839" data-name="Trazado 113839" d="M211.849,51.056h-7.888c.063-.5.1-1.009.114-1.514a16.249,16.249,0,0,0-8.367-14.693c-.018-.011-.044-.022-.063-.033s0,0-.007,0c.28,0,.556.007.833.022h0a16.248,16.248,0,0,1,15.3,14.708c.048.5.07,1,.07,1.514" transform="translate(-195.638 -34.812)" fill="#557387"/>
            </g>
          </g>
        </g>
        <g id="Grupo_80340" data-name="Grupo 80340" transform="translate(69.246 12.325)" opacity="0.16">
          <g id="Grupo_80339" data-name="Grupo 80339">
            <g id="Grupo_80338" data-name="Grupo 80338" clip-path="url(#clip-path-32)">
              <path id="Trazado_113840" data-name="Trazado 113840" d="M204.108,49.547c-.015.5-.052,1.009-.114,1.514v0h-8.356V34.821h.033l.07.037a16.243,16.243,0,0,1,8.367,14.69" transform="translate(-195.638 -34.821)" fill="#557387"/>
            </g>
          </g>
        </g>
        <path id="Trazado_113841" data-name="Trazado 113841" d="M182.232,77.942h-7.889v0h-8.356v0H149.743c0-.512.022-1.017.07-1.514h32.349c.048.5.07,1,.07,1.514" transform="translate(-96.741 -49.376)" fill="#557387"/>
        <rect id="Rectángulo_33956" data-name="Rectángulo 33956" width="47.897" height="6.797" transform="translate(46.954 28.938)" fill="#557387"/>
        <rect id="Rectángulo_33957" data-name="Rectángulo 33957" width="47.897" height="103.323" transform="translate(46.954 38.238)" fill="#9bb5c2"/>
        <rect id="Rectángulo_33958" data-name="Rectángulo 33958" width="38.778" height="103.325" transform="translate(46.954 38.237)" fill="#cfe2eb"/>
        <g id="Grupo_80343" data-name="Grupo 80343" transform="translate(46.954 38.237)" opacity="0.38">
          <g id="Grupo_80342" data-name="Grupo 80342">
            <g id="Grupo_80341" data-name="Grupo 80341" clip-path="url(#clip-path-33)">
              <path id="Trazado_113842" data-name="Trazado 113842" d="M171.435,206.449v4.9H160.482l-1.161-3-2.8-7.229-1.871-4.823-2.8-7.229-1.872-4.823-2.8-7.229-1.864-4.819-2.8-7.232-1.868-4.819-2.8-7.233L135.97,148.1l-2.8-7.229-.509-1.315V108.029h.634l1.518,3.924,1.872,4.819,2.8,7.229,1.872,4.823,2.8,7.229,1.868,4.823,2.8,7.229,1.872,4.819,2.8,7.233,1.872,4.819,2.8,7.232,1.864,4.819,2.808,7.229,1.864,4.823,2.8,7.229,1.868,4.823Z" transform="translate(-132.658 -108.029)" fill="#fff"/>
              <path id="Trazado_113843" data-name="Trazado 113843" d="M183.15,178.26l-.479-1.234-1.868-4.819-2.8-7.233-1.864-4.819-2.8-7.233-1.868-4.819-2.8-7.229-1.868-4.823-2.8-7.229L162.123,124l-2.8-7.229-1.872-4.819-1.518-3.924H150.79l1.522,3.924,1.868,4.819,2.8,7.229,1.872,4.823,2.8,7.229,1.868,4.823,2.8,7.229,1.872,4.819,2.8,7.233,1.872,4.819,2.8,7.233,1.872,4.819,2.8,7.229,1.868,4.823.947,2.443Z" transform="translate(-144.372 -108.029)" fill="#fff"/>
              <path id="Trazado_113844" data-name="Trazado 113844" d="M153.412,302.193h-5.14l-1.161-3-2.8-7.229-1.872-4.823-2.8-7.229-1.872-4.823-2.8-7.229-1.868-4.819-.442-1.142V248.637l.914,2.358,1.864,4.819,2.808,7.232,1.864,4.819,2.8,7.229,1.872,4.823,2.8,7.229,1.872,4.823,2.8,7.229Z" transform="translate(-132.658 -198.869)" fill="#fff"/>
            </g>
          </g>
        </g>
        <rect id="Rectángulo_33960" data-name="Rectángulo 33960" width="47.897" height="6.384" transform="translate(46.954 28.078)" fill="#9bb5c2"/>
        <rect id="Rectángulo_33961" data-name="Rectángulo 33961" width="38.78" height="6.384" transform="translate(46.954 28.078)" fill="#a7c3d1"/>
        <g id="Grupo_80346" data-name="Grupo 80346" transform="translate(50.119 116.15)" opacity="0.67">
          <g id="Grupo_80345" data-name="Grupo 80345">
            <g id="Grupo_80344" data-name="Grupo 80344" clip-path="url(#clip-path-34)">
              <rect id="Rectángulo_33962" data-name="Rectángulo 33962" width="5.527" height="19.369" transform="translate(26.528 0)" fill="#557387"/>
              <rect id="Rectángulo_33963" data-name="Rectángulo 33963" width="5.527" height="19.369" transform="translate(17.685 0)" fill="#557387"/>
              <rect id="Rectángulo_33964" data-name="Rectángulo 33964" width="5.527" height="19.369" transform="translate(8.842 0)" fill="#557387"/>
              <rect id="Rectángulo_33965" data-name="Rectángulo 33965" width="5.527" height="19.369" transform="translate(0 0)" fill="#557387"/>
            </g>
          </g>
        </g>
        <rect id="Rectángulo_33967" data-name="Rectángulo 33967" width="4.421" height="18.495" transform="translate(77.752 116.15)" fill="#9bb5c2"/>
        <rect id="Rectángulo_33968" data-name="Rectángulo 33968" width="4.421" height="18.495" transform="translate(68.91 116.15)" fill="#9bb5c2"/>
        <rect id="Rectángulo_33969" data-name="Rectángulo 33969" width="4.421" height="18.495" transform="translate(60.067 116.15)" fill="#9bb5c2"/>
        <rect id="Rectángulo_33970" data-name="Rectángulo 33970" width="4.421" height="18.495" transform="translate(51.224 116.15)" fill="#9bb5c2"/>
        <g id="Grupo_80349" data-name="Grupo 80349" transform="translate(50.119 91.465)" opacity="0.67">
          <g id="Grupo_80348" data-name="Grupo 80348">
            <g id="Grupo_80347" data-name="Grupo 80347" clip-path="url(#clip-path-34)">
              <rect id="Rectángulo_33971" data-name="Rectángulo 33971" width="5.527" height="19.369" transform="translate(26.528)" fill="#557387"/>
              <rect id="Rectángulo_33972" data-name="Rectángulo 33972" width="5.527" height="19.369" transform="translate(17.685)" fill="#557387"/>
              <rect id="Rectángulo_33973" data-name="Rectángulo 33973" width="5.527" height="19.369" transform="translate(8.842)" fill="#557387"/>
              <rect id="Rectángulo_33974" data-name="Rectángulo 33974" width="5.527" height="19.369" fill="#557387"/>
            </g>
          </g>
        </g>
        <rect id="Rectángulo_33976" data-name="Rectángulo 33976" width="4.421" height="18.495" transform="translate(77.752 91.465)" fill="#9bb5c2"/>
        <rect id="Rectángulo_33977" data-name="Rectángulo 33977" width="4.421" height="18.495" transform="translate(68.91 91.465)" fill="#9bb5c2"/>
        <rect id="Rectángulo_33978" data-name="Rectángulo 33978" width="4.421" height="18.495" transform="translate(60.067 91.465)" fill="#9bb5c2"/>
        <rect id="Rectángulo_33979" data-name="Rectángulo 33979" width="4.421" height="18.495" transform="translate(51.224 91.465)" fill="#9bb5c2"/>
        <g id="Grupo_80352" data-name="Grupo 80352" transform="translate(50.119 66.78)" opacity="0.67">
          <g id="Grupo_80351" data-name="Grupo 80351">
            <g id="Grupo_80350" data-name="Grupo 80350" clip-path="url(#clip-path-34)">
              <rect id="Rectángulo_33980" data-name="Rectángulo 33980" width="5.527" height="19.369" transform="translate(26.528 0)" fill="#557387"/>
              <rect id="Rectángulo_33981" data-name="Rectángulo 33981" width="5.527" height="19.369" transform="translate(17.685 0)" fill="#557387"/>
              <rect id="Rectángulo_33982" data-name="Rectángulo 33982" width="5.527" height="19.369" transform="translate(8.842 0)" fill="#557387"/>
              <rect id="Rectángulo_33983" data-name="Rectángulo 33983" width="5.527" height="19.369" transform="translate(0 0)" fill="#557387"/>
            </g>
          </g>
        </g>
        <rect id="Rectángulo_33985" data-name="Rectángulo 33985" width="4.421" height="18.496" transform="translate(77.752 66.78)" fill="#9bb5c2"/>
        <rect id="Rectángulo_33986" data-name="Rectángulo 33986" width="4.421" height="18.496" transform="translate(68.91 66.78)" fill="#9bb5c2"/>
        <rect id="Rectángulo_33987" data-name="Rectángulo 33987" width="4.421" height="18.496" transform="translate(60.067 66.78)" fill="#9bb5c2"/>
        <rect id="Rectángulo_33988" data-name="Rectángulo 33988" width="4.421" height="18.496" transform="translate(51.224 66.78)" fill="#9bb5c2"/>
        <g id="Grupo_80355" data-name="Grupo 80355" transform="translate(50.119 42.094)" opacity="0.67">
          <g id="Grupo_80354" data-name="Grupo 80354">
            <g id="Grupo_80353" data-name="Grupo 80353" clip-path="url(#clip-path-34)">
              <rect id="Rectángulo_33989" data-name="Rectángulo 33989" width="5.527" height="19.369" transform="translate(26.528)" fill="#557387"/>
              <rect id="Rectángulo_33990" data-name="Rectángulo 33990" width="5.527" height="19.369" transform="translate(17.685)" fill="#557387"/>
              <rect id="Rectángulo_33991" data-name="Rectángulo 33991" width="5.527" height="19.369" transform="translate(8.842)" fill="#557387"/>
              <rect id="Rectángulo_33992" data-name="Rectángulo 33992" width="5.527" height="19.369" fill="#557387"/>
            </g>
          </g>
        </g>
        <rect id="Rectángulo_33994" data-name="Rectángulo 33994" width="4.421" height="18.496" transform="translate(77.752 42.094)" fill="#9bb5c2"/>
        <rect id="Rectángulo_33995" data-name="Rectángulo 33995" width="4.421" height="18.496" transform="translate(68.91 42.094)" fill="#9bb5c2"/>
        <rect id="Rectángulo_33996" data-name="Rectángulo 33996" width="4.421" height="18.496" transform="translate(60.067 42.094)" fill="#9bb5c2"/>
        <rect id="Rectángulo_33997" data-name="Rectángulo 33997" width="4.421" height="18.496" transform="translate(51.224 42.094)" fill="#9bb5c2"/>
        <path id="Trazado_113845" data-name="Trazado 113845" d="M490.741,656.269c.289,2.566,1.351,6.141.5,7.369s.72,3.685-.5,5.281,1.351,5.4.5,7.246-3.187-.983-3.924-3.193,1.1-4.441.86-6.458a22.958,22.958,0,0,1-.369-6.192c.246-3.07-3.07-2.333-3.193-5.281s-.737-5.158,0-6.632,2.887.684,3.286,3.474,2.663,2.778,2.844,4.387" transform="translate(-312.852 -418.595)" fill="#489da2"/>
        <path id="Trazado_113846" data-name="Trazado 113846" d="M510.009,697.881c-.458,1.208.881,2.456.758,3.807s2.347,3.562,3.753,1.228.673-2.825-.619-4.3-3.054-2.948-3.892-.737" transform="translate(-329.429 -450.137)" fill="#489da2"/>
        <path id="Trazado_113847" data-name="Trazado 113847" d="M510.069,723.938c-.374,1.085,1,2.333,1.986.491s-1.394-2.211-1.986-.491" transform="translate(-329.489 -466.983)" fill="#489da2"/>
        <path id="Trazado_113848" data-name="Trazado 113848" d="M164.709,603.516c-4.33,1.591-5.024-1.277-8.345-1.147s-6.012.785-8.29-.709-2.278,3.664,1.161,5.014,5.035-2.579,8.842,1.965,9.96,1.72,13.208,3.07,4.108-3.2,8.407-5.159,4.176-5.638,0-4.354-3.181,2.951-7.3,1.319-5.1-.948-7.682,0" transform="translate(-94.638 -388.528)" fill="#489da2"/>
        <path id="Trazado_113849" data-name="Trazado 113849" d="M233.1,623.718c-2.605.888-1.907,3.193-4.24,4.053s1.235,2.456,4.24.614,2.521-5.527,0-4.667" transform="translate(-147.37 -402.87)" fill="#489da2"/>
        <path id="Trazado_113850" data-name="Trazado 113850" d="M239.956,501.938c-3.085.856-4.015,1.875-5.938,2.98s-3.238-.86-1.229-3.562,3.114-2.579,6.553-3.93,4.3-7.369,7.123-8.351-.983,3.561-1.351,6.141-.614,5.461-5.158,6.722" transform="translate(-149.745 -315.878)" fill="#489da2"/>
        <path id="Trazado_113851" data-name="Trazado 113851" d="M296.764,748.808c-.491,1.105,2.825,2.81,4.053,3.677s3.684-.368,2.948-1.838-2.456-.487-4.3-1.839-2.7,0-2.7,0" transform="translate(-191.692 -483.379)" fill="#489da2"/>
        <path id="Trazado_113852" data-name="Trazado 113852" d="M326.324,759.035c-1.381,1.008-.123,1.6,1.842,3.078s2.456,3.07,6.509,3.07,4.913,4.01,7.737,4.707,1.965-1.882,0-4.215-2.989-2.456-7.451-4.176-5.936-4.436-8.637-2.464" transform="translate(-210.445 -489.928)" fill="#489da2"/>
        <g id="Grupo_80358" data-name="Grupo 80358" transform="translate(27.349 149.882)" opacity="0.12" style="mix-blend-mode: multiply;isolation: isolate">
          <g id="Grupo_80357" data-name="Grupo 80357">
            <g id="Grupo_80356" data-name="Grupo 80356" clip-path="url(#clip-path-38)">
              <path id="Trazado_113853" data-name="Trazado 113853" d="M257.606,483.883a90.133,90.133,0,0,1-15.92,39.662,91.111,91.111,0,0,1-22.711,22.243,90.243,90.243,0,0,1-42.9,15.393q-4.034.359-8.172.362a90.657,90.657,0,0,1-89.231-74.668c-.2-1.142-.384-2.288-.542-3.444q-.607-4.4-.789-8.924-.071-1.79-.07-3.6,0-1.7.063-3.393a90.135,90.135,0,0,1,13.342-44.063,91.237,91.237,0,0,0-.858,9.574q-.059,1.692-.062,3.394,0,1.807.07,3.6c.118,3.014.782,5.963.789,8.923.014,7.024,5.177,15.006,5.728,21.972,2.089,26.378,16.354,42.385,60.348,55.964,12.864,3.971,24.506-.44,31.868-.184a66.438,66.438,0,0,0,33.456-7.452,36.1,36.1,0,0,0,9.448-7.941c10.287-12.255,16.51-13.562,22.711-22.243q1.8-2.524,3.437-5.174" transform="translate(-77.267 -423.454)" fill="#557387"/>
            </g>
          </g>
        </g>
        <g id="Grupo_80361" data-name="Grupo 80361" transform="translate(28.011 182.51)" opacity="0.15" style="mix-blend-mode: multiply;isolation: isolate">
          <g id="Grupo_80360" data-name="Grupo 80360">
            <g id="Grupo_80359" data-name="Grupo 80359" clip-path="url(#clip-path-39)">
              <path id="Trazado_113854" data-name="Trazado 113854" d="M245.293,580.582q-.846,1.273-1.735,2.516a91.112,91.112,0,0,1-22.711,22.243,90.242,90.242,0,0,1-42.9,15.393q-4.034.359-8.172.362a90.658,90.658,0,0,1-89.232-74.668c-.2-1.143-.384-2.288-.542-3.445q-.607-4.4-.789-8.924-.072-1.79-.07-3.6,0-1.7.063-3.393a90.766,90.766,0,0,1,1.146-11.436q-.008.579-.008,1.162,0,1.89.073,3.762.184,4.729.825,9.334c.165,1.211.354,2.409.566,3.6,2.63,14.8,8.891,28.536,18.387,38.042,9.391,9.4,15.123,18.941,25.245,26.464,12.884,9.576,26.259,9.193,42.605,10.714,7.486.7,14.326,3.04,21.291,1.822,18.637-3.262,18.225-5.415,28.9-10.969,3.376-1.755,9.579-3.971,12.7-6.105,6.126-4.187,9.382-7.411,14.359-12.882" transform="translate(-79.139 -515.635)" fill="#557387"/>
            </g>
          </g>
        </g>
        <path id="Trazado_113855" data-name="Trazado 113855" d="M530.87,526.272a10.844,10.844,0,0,1-2.117,2.176,44.682,44.682,0,0,1-10.5,6.173c-10.305,4.612-11.827,5.18-11.827,5.18s-2.875,2.807-10.3,6.9-14.739,7.74-21.595,8.865-16.475,3.009-21.045,4.126-9.168,2.068-9.784,1.908a.212.212,0,0,1-.151-.114.674.674,0,0,1,.093-.531,5.82,5.82,0,0,1,1.55-1.782c.988-.743,1.091-1.181,1.091-1.181l-10.81-7.9-1.567-1.144-1.629.139a.58.58,0,0,1-.375-1.058l6.539-4.432a3.706,3.706,0,0,1,3.4-.395c4.2,1.6,14.415,5.433,15.538,5.324,1.418-.139,6.652-1.907,7.366-1.105l.285-.131,0,0,46.088-21.15s7.389-3.745,12.888-1.532c0,0,6.071-.16,6.856,1.668" transform="translate(-278.87 -338.468)" fill="#ffab40"/>
        <path id="Trazado_113856" data-name="Trazado 113856" d="M661.022,538.857h0a.936.936,0,0,1-1.266-.356l-.38-.829a1.016,1.016,0,0,1,1.822-.835l.38.829a.936.936,0,0,1-.557,1.191" transform="translate(-425.946 -346.525)" fill="#d17c1a"/>
        <path id="Trazado_113857" data-name="Trazado 113857" d="M651.46,543.24h0a.936.936,0,0,1-1.266-.356l-.38-.829a1.016,1.016,0,0,1,1.823-.836l.38.829a.936.936,0,0,1-.557,1.191" transform="translate(-419.769 -349.357)" fill="#d17c1a"/>
        <path id="Trazado_113858" data-name="Trazado 113858" d="M641.9,547.623h0a.936.936,0,0,1-1.266-.356l-.38-.829a1.016,1.016,0,0,1,1.823-.835l.38.829a.936.936,0,0,1-.557,1.191" transform="translate(-413.591 -352.188)" fill="#d17c1a"/>
        <path id="Trazado_113859" data-name="Trazado 113859" d="M632.336,552.006h0a.936.936,0,0,1-1.266-.356l-.38-.829a1.016,1.016,0,0,1,1.823-.835l.38.829a.936.936,0,0,1-.557,1.191" transform="translate(-407.414 -355.02)" fill="#d17c1a"/>
        <path id="Trazado_113860" data-name="Trazado 113860" d="M622.774,556.388h0a.936.936,0,0,1-1.266-.356l-.38-.829a1.016,1.016,0,0,1,1.823-.835l.38.829a.936.936,0,0,1-.557,1.191" transform="translate(-401.236 -357.851)" fill="#d17c1a"/>
        <path id="Trazado_113861" data-name="Trazado 113861" d="M613.213,560.771h0a.936.936,0,0,1-1.266-.356l-.38-.829a1.016,1.016,0,0,1,1.823-.835l.38.829a.936.936,0,0,1-.557,1.191" transform="translate(-395.059 -360.683)" fill="#e6881d"/>
        <path id="Trazado_113862" data-name="Trazado 113862" d="M603.651,565.154h0a.936.936,0,0,1-1.266-.356l-.38-.829a1.016,1.016,0,0,1,1.822-.835l.38.829a.936.936,0,0,1-.557,1.191" transform="translate(-388.882 -363.514)" fill="#e6881d"/>
        <path id="Trazado_113863" data-name="Trazado 113863" d="M594.089,569.537h0a.936.936,0,0,1-1.266-.356l-.38-.829a1.016,1.016,0,0,1,1.823-.835l.38.829a.936.936,0,0,1-.557,1.191" transform="translate(-382.704 -366.346)" fill="#e6881d"/>
        <path id="Trazado_113864" data-name="Trazado 113864" d="M584.527,573.919h0a.936.936,0,0,1-1.266-.356l-.38-.829a1.016,1.016,0,0,1,1.823-.835l.38.829a.936.936,0,0,1-.557,1.191" transform="translate(-376.527 -369.177)" fill="#e6881d"/>
        <path id="Trazado_113865" data-name="Trazado 113865" d="M574.965,578.3h0a.936.936,0,0,1-1.266-.356l-.38-.829a1.016,1.016,0,0,1,1.823-.835l.38.829a.936.936,0,0,1-.557,1.191" transform="translate(-370.349 -372.009)" fill="#e6881d"/>
        <path id="Trazado_113866" data-name="Trazado 113866" d="M613.213,560.771h0a.936.936,0,0,1-1.266-.356l-.38-.829a1.016,1.016,0,0,1,1.823-.835l.38.829a.936.936,0,0,1-.557,1.191" transform="translate(-395.059 -360.683)" fill="#d17c1a"/>
        <path id="Trazado_113867" data-name="Trazado 113867" d="M603.651,565.154h0a.936.936,0,0,1-1.266-.356l-.38-.829a1.016,1.016,0,0,1,1.822-.835l.38.829a.936.936,0,0,1-.557,1.191" transform="translate(-388.882 -363.514)" fill="#d17c1a"/>
        <path id="Trazado_113868" data-name="Trazado 113868" d="M594.089,569.537h0a.936.936,0,0,1-1.266-.356l-.38-.829a1.016,1.016,0,0,1,1.823-.835l.38.829a.936.936,0,0,1-.557,1.191" transform="translate(-382.704 -366.346)" fill="#d17c1a"/>
        <path id="Trazado_113869" data-name="Trazado 113869" d="M584.527,573.919h0a.936.936,0,0,1-1.266-.356l-.38-.829a1.016,1.016,0,0,1,1.823-.835l.38.829a.936.936,0,0,1-.557,1.191" transform="translate(-376.527 -369.177)" fill="#d17c1a"/>
        <path id="Trazado_113870" data-name="Trazado 113870" d="M574.965,578.3h0a.936.936,0,0,1-1.266-.356l-.38-.829a1.016,1.016,0,0,1,1.823-.835l.38.829a.936.936,0,0,1-.557,1.191" transform="translate(-370.349 -372.009)" fill="#d17c1a"/>
        <path id="Trazado_113871" data-name="Trazado 113871" d="M565.4,582.685h0a.936.936,0,0,1-1.266-.356l-.38-.829a1.016,1.016,0,0,1,1.823-.835l.38.829a.936.936,0,0,1-.557,1.191" transform="translate(-364.172 -374.84)" fill="#d17c1a"/>
        <path id="Trazado_113872" data-name="Trazado 113872" d="M555.842,587.068h0a.936.936,0,0,1-1.266-.356l-.38-.829a1.016,1.016,0,0,1,1.823-.835l.38.829a.936.936,0,0,1-.557,1.191" transform="translate(-357.995 -377.672)" fill="#d17c1a"/>
        <path id="Trazado_113873" data-name="Trazado 113873" d="M546.28,591.451h0a.936.936,0,0,1-1.266-.356l-.38-.829a1.016,1.016,0,0,1,1.822-.835l.38.829a.936.936,0,0,1-.557,1.191" transform="translate(-351.817 -380.503)" fill="#d17c1a"/>
        <path id="Trazado_113874" data-name="Trazado 113874" d="M536.718,595.833h0a.936.936,0,0,1-1.266-.356l-.38-.829a1.016,1.016,0,0,1,1.822-.835l.38.829a.936.936,0,0,1-.557,1.191" transform="translate(-345.64 -383.334)" fill="#e6881d"/>
        <path id="Trazado_113875" data-name="Trazado 113875" d="M527.156,600.216h0a.936.936,0,0,1-1.266-.356l-.38-.829a1.016,1.016,0,0,1,1.823-.835l.38.829a.936.936,0,0,1-.557,1.191" transform="translate(-339.462 -386.166)" fill="#e6881d"/>
        <path id="Trazado_113876" data-name="Trazado 113876" d="M465.033,582.065c-11.782,6.72-24.922,4.074-29.553,2.8l-1.567-1.144-1.628.139a.58.58,0,0,1-.375-1.058l6.538-4.432a3.707,3.707,0,0,1,3.4-.4c4.2,1.6,14.415,5.433,15.538,5.324,1.418-.139,6.652-1.908,7.366-1.105Z" transform="translate(-278.869 -373.245)" fill="#fb6"/>
        <path id="Trazado_113877" data-name="Trazado 113877" d="M550.476,536.738h0a44.69,44.69,0,0,1-10.5,6.172c-10.305,4.612-11.827,5.18-11.827,5.18s-2.875,2.807-10.3,6.9-14.739,7.741-21.594,8.865-16.475,3.008-21.045,4.126-9.168,2.068-9.784,1.908a.214.214,0,0,1-.151-.114l.093-.531L499.337,557.5s7.881-3.291,25.57-11.817,25.569-8.948,25.569-8.948" transform="translate(-300.593 -346.759)" fill="#d17c1a"/>
        <path id="Trazado_113878" data-name="Trazado 113878" d="M597.382,568.314c-1.257,1.758-8.181,5.7-8.181,5.7-7.53,2.616-11.044,2.734-12.32,2.633a1.453,1.453,0,0,1-.94-.452l-.169-.178-3.164-3.334a.614.614,0,0,1,.722-.971l5.616,2.843a1.474,1.474,0,0,0,.645.16h0a1.475,1.475,0,0,0,.9-.276,51.537,51.537,0,0,1,8.493-4.847c5.43-2.432,8.4-1.275,8.4-1.275" transform="translate(-369.824 -366.981)" fill="#ffab40"/>
        <path id="Trazado_113879" data-name="Trazado 113879" d="M684.561,524.757s-1.5.952-3.178,1.826l-1.223-1.259,1.929-1.182a6.389,6.389,0,0,1,2.471.615" transform="translate(-439.417 -338.621)" fill="#d17c1a"/>
        <path id="Trazado_113880" data-name="Trazado 113880" d="M443.725,583.573l-4.252,3.336a18.5,18.5,0,0,1-5.156,2.132.607.607,0,0,1-.728-.617l.074-2.158s6.923-2.953,9.924-3.421c.19-.03.29.608.139.727" transform="translate(-280.119 -376.547)" fill="#d17c1a"/>
        <path id="Trazado_113881" data-name="Trazado 113881" d="M443.53,583.006l-4.252,3.336a18.505,18.505,0,0,1-5.156,2.132.607.607,0,0,1-.728-.617l.074-2.158s6.919-2.558,9.92-3.026a.187.187,0,0,1,.143.332" transform="translate(-279.993 -376.434)" fill="#ffaa3f"/>
        <path id="Trazado_113882" data-name="Trazado 113882" d="M520.431,588.566a3.851,3.851,0,0,1-2.038,4l-12.323,4.491-.5-.974-1.068-2.064-.429-.828,10.785-7.465a3.853,3.853,0,0,1,4.506.711,3.812,3.812,0,0,1,.682.939,3.687,3.687,0,0,1,.235.557,3.735,3.735,0,0,1,.153.635" transform="translate(-325.653 -378.128)" fill="#ffaa3f"/>
        <path id="Trazado_113883" data-name="Trazado 113883" d="M523.162,593.382a3.851,3.851,0,0,1-2.038,4L508.8,601.87l-.5-.974c9.673-3.582,13.6-5.956,14.712-8.149a3.726,3.726,0,0,1,.153.635" transform="translate(-328.385 -382.944)" fill="#f5911f"/>
        <path id="Trazado_113884" data-name="Trazado 113884" d="M519.361,586.435c-2.137-1.672-5.313,1.595-14.862,7.581l-.429-.828,10.785-7.465a3.854,3.854,0,0,1,4.506.711" transform="translate(-325.653 -378.128)" fill="#fb6"/>
        <path id="Trazado_113885" data-name="Trazado 113885" d="M505.674,611.421c-.385.2-1.14-.5-1.687-1.553s-.679-2.076-.293-2.275,1.14.5,1.687,1.554.678,2.075.293,2.274" transform="translate(-325.268 -392.513)" fill="#966a36"/>
        <path id="Trazado_113886" data-name="Trazado 113886" d="M579.591,581.291l-3.82,1.3-3.164-3.334a.614.614,0,0,1,.723-.971l5.616,2.843a1.475,1.475,0,0,0,.645.16" transform="translate(-369.824 -373.56)" fill="#fb6"/>
        <path id="Trazado_113887" data-name="Trazado 113887" d="M517.038,379.761a9.6,9.6,0,0,1-3.906,6.163c-2.926,1.792-.977,3.759-2.548,6.494a18.971,18.971,0,0,1-6.575,7.029c-3.378,1.9-5.11,1.739-7.039,3.729-1.7,1.759-2.635,2.906-5.3,3.2-2.846.321-5.344,2.923-7.641,4.779-2.812,2.271-4.17,2.953-7.8,3.244-4.147.334-4.347,1.435-6.6,2.86-3.508,2.21-5.979,1.816-8.9,3.036-2.542,1.064-5.274,1.779-7.257,2.525a42.343,42.343,0,0,1-6.153,1.886,1.978,1.978,0,0,1-.542.037c-.762-.07-.8-.756.268-1.3,13.43-6.943,25.784-10.534,32.76-15.858,4.642-3.545,9.564-4.893,13.019-8.518,3.622-3.8,8.5-4.6,10.631-8.33,2.344-4.1,5.839-7.08,5.715-10.1-.174-4.294,1.087-6.093-.01-8.337a13.888,13.888,0,0,0-10.832-8.086.587.587,0,0,1-.007-1.161,21.589,21.589,0,0,1,4.19-.231c5.347.321,16.661,5.632,14.527,16.935" transform="translate(-288.281 -234.387)" fill="#bdced6"/>
        <g id="Grupo_80364" data-name="Grupo 80364" transform="translate(157.94 128.67)" opacity="0.45">
          <g id="Grupo_80363" data-name="Grupo 80363">
            <g id="Grupo_80362" data-name="Grupo 80362" clip-path="url(#clip-path-40)">
              <path id="Trazado_113888" data-name="Trazado 113888" d="M512.132,382.731c-3.789,5.247-3.063,11.487-11.842,15.28s-9,7.023-14.133,9.029-13.35,5.127-15.26,7.357-7.7,2.819-14.055,5.979c-5.655,2.813-8.444,2.963-10.066,4.839-.763-.07-.8-.756.268-1.3,13.43-6.943,25.784-10.534,32.76-15.858,4.642-3.545,9.564-4.893,13.019-8.518,3.622-3.8,8.5-4.6,10.631-8.33,2.344-4.1,5.839-7.08,5.715-10.1-.174-4.294,1.087-6.093-.01-8.337a13.888,13.888,0,0,0-10.832-8.086.587.587,0,0,1-.007-1.161c5.341,1.6,9.24.619,11.47,5.735s6.13,8.227,2.341,13.47" transform="translate(-446.221 -363.525)" fill="#fff"/>
            </g>
          </g>
        </g>
        <path id="Trazado_113889" data-name="Trazado 113889" d="M144.334,610.4a70.809,70.809,0,0,1-9.889,3.973c-3.331,1.1-7.591,3.023-11.972,4.3-5.026,1.461-7.8,4.545-14.617,5.34-4.391.515-5.792-.692-11.481,3.194-4.969,3.394-7.431,3.93-13.417,3.93-4.889,0-10.815-.749-14.808,1.8-3.752,2.395-6.147,1.886-10.17,1.395-4.551-.559-6.618,1.455-12.942,2.518-5.354.9-11.267-.461-15.781-2.21-4.872-1.889-4.407-6.448-10.039-5.712-4.381.575-8.919-1.726-11.444-3.876-8.959-7.615-8.939-17.627-6.07-25.576a29.686,29.686,0,0,1,7.157-11.347,35.76,35.76,0,0,1,5.638-4.067.973.973,0,0,1,1.2,1.505c-3.655,3.919-7.962,11.069-5.538,21.684.923,4.033,4.421,5.036,8.662,10.748,2.98,4.016,10.584,4.214,17.868,7.053,6.632,2.588,13.745-1.455,22.356-.328,8.223,1.073,15.965-2.314,25.63-2.582,14.524-.4,34.174-8.628,58.694-13.661a4.068,4.068,0,0,1,1.067-.09c1.364.1,1.424,1.2-.1,2.01" transform="translate(0 -377.244)" fill="#bdced6"/>
        <g id="Grupo_80367" data-name="Grupo 80367" transform="translate(1.11 206.681)" opacity="0.45">
          <g id="Grupo_80366" data-name="Grupo 80366">
            <g id="Grupo_80365" data-name="Grupo 80365" clip-path="url(#clip-path-41)">
              <path id="Trazado_113890" data-name="Trazado 113890" d="M146.461,608.394c-3.348,2.04-8.183,3.97-15.172,5.244-22,4.013-11.22,9.808-31.884,10.223s-24.372,6.274-35.479,5.381-25.86,7.36-33.482-1.789S10.767,625.81,5.7,616.088a24.937,24.937,0,0,1-1.966-16.611,29.679,29.679,0,0,1,7.156-11.347,35.732,35.732,0,0,1,5.638-4.067.973.973,0,0,1,1.2,1.5c-3.655,3.92-7.962,11.069-5.538,21.684.923,4.033,4.421,5.036,8.661,10.748,2.98,4.016,10.585,4.213,17.868,7.053,6.631,2.589,13.745-1.455,22.356-.328,8.223,1.074,15.965-2.314,25.63-2.582,14.524-.4,34.174-8.628,58.694-13.661a4.085,4.085,0,0,1,1.067-.09" transform="translate(-3.136 -583.925)" fill="#fff"/>
            </g>
          </g>
        </g>
        <path id="Trazado_113891" data-name="Trazado 113891" d="M138.681,386.739c-.02.211-.214.465-.592.7a39.811,39.811,0,0,1-5.451,2.6c-1.843.736-4.183,1.973-6.618,2.846-2.789,1-4.25,2.843-8.073,3.535-2.468.441-3.3-.19-6.381,2.207-2.692,2.09-4.063,2.481-7.447,2.689-2.766.171-6.14-.044-8.31,1.535-2.037,1.485-3.408,1.281-5.7,1.144-2.6-.157-3.692,1.057-7.23,1.879a17.768,17.768,0,0,1-9-.7c-2.819-.9-2.716-3.491-5.876-2.876a9.012,9.012,0,0,1-6.6-1.792c-8.635-6.465-4.17-17.306-.676-20.911a20.31,20.31,0,0,1,3.043-2.5.508.508,0,0,1,.455-.07.55.55,0,0,1,.274.88,13.036,13.036,0,0,0-2.371,12.454c.662,2.247,2.675,2.692,5.274,5.772,1.822,2.167,6.13,2.013,10.347,3.364,3.839,1.227,7.719-1.3,12.628-.97,4.685.318,8.946-1.866,14.4-2.354,8.2-.736,19.019-6.076,32.7-9.778.816-.224,1.251,0,1.2.354" transform="translate(-36.443 -243.555)" fill="#bdced6"/>
        <g id="Grupo_80370" data-name="Grupo 80370" transform="translate(22.641 133.462)" opacity="0.45">
          <g id="Grupo_80369" data-name="Grupo 80369">
            <g id="Grupo_80368" data-name="Grupo 80368" clip-path="url(#clip-path-42)">
              <path id="Trazado_113892" data-name="Trazado 113892" d="M143.564,386.786c-6.889,3.334-17.955,5.367-20.443,6.872-2.756,1.669-13.638,4.515-20.691,6.187s-17.36,4.18-19.7,2.341-9.364-1-11.872-2.843-3.01-4.682-5.853-7.865c-2.672-2.993.214-10.832,4.1-14.414a.55.55,0,0,1,.274.88A13.036,13.036,0,0,0,67.009,390.4c.662,2.247,2.675,2.692,5.274,5.772,1.822,2.167,6.13,2.013,10.347,3.364,3.839,1.227,7.719-1.3,12.628-.97,4.685.318,8.946-1.866,14.4-2.354,8.2-.736,19.019-6.076,32.7-9.778.816-.224,1.251,0,1.2.354" transform="translate(-63.967 -377.064)" fill="#fff"/>
            </g>
          </g>
        </g>
        <path id="Trazado_113893" data-name="Trazado 113893" d="M478.3,394.4l-32.83.494-4.8.072s3.727-6.775,8.394-6.9c1.416-.037,2.267.039,2.861.048,1.365.026,1.376-.3,3.771-3.118,3.439-4.053,10.769-1.871,12.389,1.6,1.507,3.224,8.416-1.628,10.211,7.806" transform="translate(-284.698 -247.31)" fill="#489da2"/>
        <path id="Trazado_113894" data-name="Trazado 113894" d="M342.434,338.329l-32.83.495c-1.2.232-3,.558-3.827-.627-2.5-3.607,4.644-6.126,7.426-6.2,1.416-.037,2.267.039,2.861.048,1.365.026,1.376-.3,3.771-3.118,3.439-4.053,10.769-1.871,12.389,1.6,1.507,3.224,8.416-1.628,10.211,7.806" transform="translate(-197.209 -211.088)" fill="#489da2"/>
        <path id="Trazado_113895" data-name="Trazado 113895" d="M170.258,378.72l-8.093,3.371-9.524-.988-9.651-1-8.169-.847-3.309-.343s4.709-6.489,9.376-6.611,3.193.982,6.633-3.071,10.768-1.87,12.389,1.6c1.163,2.49,7.568.12,9.755,3.335.645.946.922,2.377.6,4.558" transform="translate(-84.963 -237.125)" fill="#489da2"/>
        <g id="Grupo_80373" data-name="Grupo 80373" transform="translate(46.549 129.819)" opacity="0.12" style="mix-blend-mode: multiply;isolation: isolate">
          <g id="Grupo_80372" data-name="Grupo 80372">
            <g id="Grupo_80371" data-name="Grupo 80371" clip-path="url(#clip-path-43)">
              <path id="Trazado_113896" data-name="Trazado 113896" d="M169.663,373.895c-.465,1.148-1.511,2.05-3.512,2.483-5.315,1.149-9.016-1.909-11.636,2.042a18.236,18.236,0,0,1-1.875,2.416c-2.343,2.489-5.23,3.494-8.716-.2a5.884,5.884,0,0,0-.935-.8,9.367,9.367,0,0,0-6.743-1.122A12.953,12.953,0,0,1,133,378.8l-1.489-.154s4.709-6.489,9.376-6.611,3.193.982,6.633-3.071,10.768-1.87,12.389,1.6c1.164,2.49,7.568.12,9.755,3.335" transform="translate(-131.511 -366.772)" fill="#557387"/>
            </g>
          </g>
        </g>
        <g id="Grupo_80376" data-name="Grupo 80376" transform="translate(95.582 148.031)" opacity="0.42">
          <g id="Grupo_80375" data-name="Grupo 80375">
            <g id="Grupo_80374" data-name="Grupo 80374" clip-path="url(#clip-path-44)">
              <path id="Trazado_113897" data-name="Trazado 113897" d="M273.273,418.271c-5.351,1.126-3.561,12.082,1.769,17.207s1.159,6.643,12.45,7.4,5.217,8.541,14.518,12.907,17.083-1.046,18.221,9.916,2.637-.627,3.5-9.068-7.018-2.747-13.8-5.214.194-9.243-3-14.083c-3.662-5.543-7.318-6.263-15.308-6.833s-7.108,3.132-13.694-1.131c-4.861-3.146-1.127-11.845-4.653-11.1" transform="translate(-270.042 -418.227)" fill="#67a4c3"/>
            </g>
          </g>
        </g>
        <g id="Grupo_80379" data-name="Grupo 80379" transform="translate(134.605 148.146)" opacity="0.42">
          <g id="Grupo_80378" data-name="Grupo 80378">
            <g id="Grupo_80377" data-name="Grupo 80377" clip-path="url(#clip-path-45)">
              <path id="Trazado_113898" data-name="Trazado 113898" d="M383.939,422.458c-4.923,1.664-4.6,4.815-.611,7.461s3.416,6.347,2.562,9.052,2.939,2.135,7.164,3.274,2.516-1.708-.9-2.562,1.139-1.851.142-5.552-2.7-2.448-5.409-4.5,1.97-7.1,5.125-10.591c1.444-1.6-.914,1-8.073,3.416" transform="translate(-380.292 -418.549)" fill="#67a4c3"/>
            </g>
          </g>
        </g>
        <g id="Grupo_80382" data-name="Grupo 80382" transform="translate(160.773 135.493)" opacity="0.12" style="mix-blend-mode: multiply;isolation: isolate">
          <g id="Grupo_80381" data-name="Grupo 80381">
            <g id="Grupo_80380" data-name="Grupo 80380" clip-path="url(#clip-path-46)">
              <path id="Trazado_113899" data-name="Trazado 113899" d="M487.054,394.4l-32.83.494a24.981,24.981,0,0,1,.894-2.616c1.94-4.82,3.464-4.221,5.565-4.163,1.364.026,1.376-.3,3.771-3.118,3.439-4.053,10.769-1.871,12.389,1.6,1.507,3.224,8.416-1.628,10.211,7.806" transform="translate(-454.224 -382.803)" fill="#557387"/>
            </g>
          </g>
        </g>
      </g>
    </g>
  </g>
</svg>
