<svg xmlns="http://www.w3.org/2000/svg" xmlns:xlink="http://www.w3.org/1999/xlink" width="610" height="474" viewBox="0 0 610 474">
  <defs>
    <clipPath id="clip-path">
      <rect id="Rect치ngulo_34052" data-name="Rect치ngulo 34052" width="610" height="474" transform="translate(180 1732)" fill="#0540b7" stroke="#707070" stroke-width="1" opacity="0.1"/>
    </clipPath>
    <filter id="Elipse_4706" x="77" y="16" width="457" height="458" filterUnits="userSpaceOnUse">
      <feOffset dy="8" input="SourceAlpha"/>
      <feGaussianBlur stdDeviation="4" result="blur"/>
      <feFlood flood-opacity="0.161"/>
      <feComposite operator="in" in2="blur"/>
      <feComposite in="SourceGraphic"/>
    </filter>
    <filter id="Elipse_4707" x="12" y="-49" width="587" height="588" filterUnits="userSpaceOnUse">
      <feOffset dy="8" input="SourceAlpha"/>
      <feGaussianBlur stdDeviation="4" result="blur-2"/>
      <feFlood flood-opacity="0.161"/>
      <feComposite operator="in" in2="blur-2"/>
      <feComposite in="SourceGraphic"/>
    </filter>
    <filter id="Elipse_218" x="137" y="104" width="329" height="330" filterUnits="userSpaceOnUse">
      <feOffset dy="8" input="SourceAlpha"/>
      <feGaussianBlur stdDeviation="4" result="blur-3"/>
      <feFlood flood-opacity="0.161"/>
      <feComposite operator="in" in2="blur-3"/>
      <feComposite in="SourceGraphic"/>
    </filter>
    <filter id="Elipse_219" x="96" y="286" width="152" height="151" filterUnits="userSpaceOnUse">
      <feOffset dy="7" input="SourceAlpha"/>
      <feGaussianBlur stdDeviation="3" result="blur-4"/>
      <feFlood flood-opacity="0.161"/>
      <feComposite operator="in" in2="blur-4"/>
      <feComposite in="SourceGraphic"/>
    </filter>
    <filter id="Elipse_221" x="229" y="51" width="151" height="152" filterUnits="userSpaceOnUse">
      <feOffset dy="7" input="SourceAlpha"/>
      <feGaussianBlur stdDeviation="3" result="blur-5"/>
      <feFlood flood-opacity="0.161"/>
      <feComposite operator="in" in2="blur-5"/>
      <feComposite in="SourceGraphic"/>
    </filter>
    <filter id="Elipse_220" x="362" y="285" width="152" height="152" filterUnits="userSpaceOnUse">
      <feOffset dy="7" input="SourceAlpha"/>
      <feGaussianBlur stdDeviation="3" result="blur-6"/>
      <feFlood flood-opacity="0.161"/>
      <feComposite operator="in" in2="blur-6"/>
      <feComposite in="SourceGraphic"/>
    </filter>
  </defs>
  <g id="Grupo_80466" data-name="Grupo 80466" transform="translate(-180 -1825)">
    <g id="Enmascarar_grupo_47" data-name="Enmascarar grupo 47" transform="translate(0 93)" clip-path="url(#clip-path)">
      <g id="Grupo_80437" data-name="Grupo 80437" transform="translate(0 -2)">
        <g id="Rect치ngulo_34051" data-name="Rect치ngulo 34051" transform="translate(180 1734)" fill="#0540b7" stroke="#707070" stroke-width="1" opacity="0.1">
          <rect width="610" height="474" stroke="none"/>
          <rect x="0.5" y="0.5" width="609" height="473" fill="none"/>
        </g>
        <g transform="matrix(1, 0, 0, 1, 180, 1734)" filter="url(#Elipse_4706)">
          <g id="Elipse_4706-2" data-name="Elipse 4706" transform="translate(89 20)" fill="#0540b7" stroke="#0540b7" stroke-width="11" opacity="0.1">
            <ellipse cx="216.5" cy="217" rx="216.5" ry="217" stroke="none"/>
            <ellipse cx="216.5" cy="217" rx="211" ry="211.5" fill="none"/>
          </g>
        </g>
        <g transform="matrix(1, 0, 0, 1, 180, 1734)" filter="url(#Elipse_4707)">
          <g id="Elipse_4707-2" data-name="Elipse 4707" transform="translate(24 -45)" fill="#0540b7" stroke="#0540b7" stroke-width="11" opacity="0.1">
            <ellipse cx="281.5" cy="282" rx="281.5" ry="282" stroke="none"/>
            <ellipse cx="281.5" cy="282" rx="276" ry="276.5" fill="none"/>
          </g>
        </g>
      </g>
      <g id="Grupo_80436" data-name="Grupo 80436" transform="translate(0 -4)">
        <g transform="matrix(1, 0, 0, 1, 180, 1736)" filter="url(#Elipse_218)">
          <g id="Elipse_218-2" data-name="Elipse 218" transform="translate(149 108)" fill="#adc46c" stroke="#0540b7" stroke-width="11">
            <ellipse cx="152.5" cy="153" rx="152.5" ry="153" stroke="none"/>
            <ellipse cx="152.5" cy="153" rx="147" ry="147.5" fill="none"/>
          </g>
        </g>
        <g transform="matrix(1, 0, 0, 1, 180, 1736)" filter="url(#Elipse_219)">
          <ellipse id="Elipse_219-2" data-name="Elipse 219" cx="67" cy="66.5" rx="67" ry="66.5" transform="translate(105 288)" fill="#0540b7"/>
        </g>
        <g transform="matrix(1, 0, 0, 1, 180, 1736)" filter="url(#Elipse_221)">
          <ellipse id="Elipse_221-2" data-name="Elipse 221" cx="66.5" cy="67" rx="66.5" ry="67" transform="translate(238 53)" fill="#0540b7"/>
        </g>
        <g transform="matrix(1, 0, 0, 1, 180, 1736)" filter="url(#Elipse_220)">
          <circle id="Elipse_220-2" data-name="Elipse 220" cx="67" cy="67" r="67" transform="translate(371 287)" fill="#0540b7"/>
        </g>
        <path id="Trazado_114086" data-name="Trazado 114086" d="M25.925,13.9H20.95V19H17.865V6.2h8.561V8.585H20.95v2.944h4.975ZM37.746,6.2v8.376a4.814,4.814,0,0,1-.606,2.465,3.929,3.929,0,0,1-1.74,1.586,6.131,6.131,0,0,1-2.681.545,5.3,5.3,0,0,1-3.683-1.213,4.326,4.326,0,0,1-1.371-3.322V6.2h3.1v8.5q.053,2.1,1.951,2.1a1.889,1.889,0,0,0,1.45-.527,2.465,2.465,0,0,0,.492-1.714V6.2Zm9.861,7.365H42.756v3.059h5.73V19H39.671V6.2H48.5V8.585H42.756v2.7h4.852ZM60.431,19H57.363l-4.535-7.963V19H49.743V6.2h3.085l4.526,7.963V6.2h3.076Zm12-10.415H68.587V19H65.5V8.585H61.731V6.2h10.7Zm9.237,4.983H76.813v3.059h5.73V19H73.729V6.2h8.833V8.585H76.813v2.7h4.852ZM90.4,15.6a1.268,1.268,0,0,0-.479-1.055,5.954,5.954,0,0,0-1.683-.782,16.147,16.147,0,0,1-1.969-.782q-2.487-1.222-2.487-3.357a3.011,3.011,0,0,1,.62-1.876A4.008,4.008,0,0,1,86.156,6.48a6.823,6.823,0,0,1,2.549-.453,5.969,5.969,0,0,1,2.474.492,3.917,3.917,0,0,1,1.7,1.4A3.661,3.661,0,0,1,93.486,10H90.41a1.547,1.547,0,0,0-.479-1.213,1.867,1.867,0,0,0-1.3-.431,2.106,2.106,0,0,0-1.305.365,1.074,1.074,0,0,0,.048,1.819,6.65,6.65,0,0,0,1.854.826,11.36,11.36,0,0,1,2.18.918,3.663,3.663,0,0,1,2.074,3.3,3.125,3.125,0,0,1-1.266,2.637,5.629,5.629,0,0,1-3.472.958,6.888,6.888,0,0,1-2.817-.558,4.247,4.247,0,0,1-1.9-1.529,3.985,3.985,0,0,1-.637-2.237H86.49a1.963,1.963,0,0,0,.532,1.516,2.513,2.513,0,0,0,1.727.488,1.985,1.985,0,0,0,1.208-.33A1.088,1.088,0,0,0,90.4,15.6ZM40.066,38.9H35.092V44H32.007V31.2h8.561v2.382H35.092v2.944h4.975ZM45.138,44H42.062V31.2h3.076ZM52.38,31.2h3.076v8.78a4.2,4.2,0,0,1-.567,2.18,3.87,3.87,0,0,1-1.582,1.485,4.835,4.835,0,0,1-2.263.527,4.661,4.661,0,0,1-3.252-1.055,3.833,3.833,0,0,1-1.16-2.988h3.094a2.113,2.113,0,0,0,.3,1.274,1.2,1.2,0,0,0,1.015.4,1.148,1.148,0,0,0,.989-.479,2.251,2.251,0,0,0,.347-1.34ZM64.667,41.609H60.439L59.7,44h-3.3L61.1,31.2H64L68.728,44H65.414Zm-3.489-2.382h2.751l-1.38-4.438ZM76.26,40.6a1.268,1.268,0,0,0-.479-1.055,5.954,5.954,0,0,0-1.683-.782,16.147,16.147,0,0,1-1.969-.782q-2.487-1.222-2.487-3.357a3.011,3.011,0,0,1,.62-1.876,4.008,4.008,0,0,1,1.753-1.266,6.823,6.823,0,0,1,2.549-.453,5.969,5.969,0,0,1,2.474.492,3.917,3.917,0,0,1,1.7,1.4A3.661,3.661,0,0,1,79.345,35H76.269a1.547,1.547,0,0,0-.479-1.213,1.867,1.867,0,0,0-1.3-.431,2.106,2.106,0,0,0-1.305.365,1.074,1.074,0,0,0,.048,1.819,6.65,6.65,0,0,0,1.854.826,11.36,11.36,0,0,1,2.18.918,3.663,3.663,0,0,1,2.074,3.3,3.125,3.125,0,0,1-1.266,2.637,5.629,5.629,0,0,1-3.472.958,6.888,6.888,0,0,1-2.817-.558,4.247,4.247,0,0,1-1.9-1.529,3.985,3.985,0,0,1-.637-2.237h3.094a1.963,1.963,0,0,0,.532,1.516,2.513,2.513,0,0,0,1.727.488,1.985,1.985,0,0,0,1.208-.33A1.088,1.088,0,0,0,76.26,40.6Z" transform="translate(297 2070)" fill="#fff"/>
        <path id="Trazado_114087" data-name="Trazado 114087" d="M25.925,13.9H20.95V19H17.865V6.2h8.561V8.585H20.95v2.944h4.975ZM37.746,6.2v8.376a4.814,4.814,0,0,1-.606,2.465,3.929,3.929,0,0,1-1.74,1.586,6.131,6.131,0,0,1-2.681.545,5.3,5.3,0,0,1-3.683-1.213,4.326,4.326,0,0,1-1.371-3.322V6.2h3.1v8.5q.053,2.1,1.951,2.1a1.889,1.889,0,0,0,1.45-.527,2.465,2.465,0,0,0,.492-1.714V6.2Zm9.861,7.365H42.756v3.059h5.73V19H39.671V6.2H48.5V8.585H42.756v2.7h4.852ZM60.431,19H57.363l-4.535-7.963V19H49.743V6.2h3.085l4.526,7.963V6.2h3.076Zm12-10.415H68.587V19H65.5V8.585H61.731V6.2h10.7Zm9.237,4.983H76.813v3.059h5.73V19H73.729V6.2h8.833V8.585H76.813v2.7h4.852ZM90.4,15.6a1.268,1.268,0,0,0-.479-1.055,5.954,5.954,0,0,0-1.683-.782,16.147,16.147,0,0,1-1.969-.782q-2.487-1.222-2.487-3.357a3.011,3.011,0,0,1,.62-1.876A4.008,4.008,0,0,1,86.156,6.48a6.823,6.823,0,0,1,2.549-.453,5.969,5.969,0,0,1,2.474.492,3.917,3.917,0,0,1,1.7,1.4A3.661,3.661,0,0,1,93.486,10H90.41a1.547,1.547,0,0,0-.479-1.213,1.867,1.867,0,0,0-1.3-.431,2.106,2.106,0,0,0-1.305.365,1.074,1.074,0,0,0,.048,1.819,6.65,6.65,0,0,0,1.854.826,11.36,11.36,0,0,1,2.18.918,3.663,3.663,0,0,1,2.074,3.3,3.125,3.125,0,0,1-1.266,2.637,5.629,5.629,0,0,1-3.472.958,6.888,6.888,0,0,1-2.817-.558,4.247,4.247,0,0,1-1.9-1.529,3.985,3.985,0,0,1-.637-2.237H86.49a1.963,1.963,0,0,0,.532,1.516,2.513,2.513,0,0,0,1.727.488,1.985,1.985,0,0,0,1.208-.33A1.088,1.088,0,0,0,90.4,15.6ZM22.3,31.2l2.856,8.9,2.848-8.9h4.061V44H28.975V41.012l.3-6.117L26.18,44H24.141l-3.1-9.114.3,6.126V44H18.252V31.2Zm22.562,6.662a7.546,7.546,0,0,1-.694,3.313A5.132,5.132,0,0,1,42.2,43.4a5.494,5.494,0,0,1-2.914.778,5.572,5.572,0,0,1-2.9-.751,5.123,5.123,0,0,1-1.973-2.149,7.329,7.329,0,0,1-.743-3.208v-.721a7.58,7.58,0,0,1,.69-3.318,5.119,5.119,0,0,1,1.978-2.219,5.854,5.854,0,0,1,5.832-.009A5.211,5.211,0,0,1,44.149,34a7.362,7.362,0,0,1,.716,3.274Zm-3.138-.536a5.381,5.381,0,0,0-.637-2.9,2.044,2.044,0,0,0-1.824-.989q-2.32,0-2.452,3.48l-.009.94a5.535,5.535,0,0,0,.624,2.892,2.041,2.041,0,0,0,1.854,1.011,2.016,2.016,0,0,0,1.8-.993,5.383,5.383,0,0,0,.642-2.856Zm9.5,3.19L53.777,31.2h3.445L52.916,44H49.541L45.27,31.2h3.419ZM61.441,44H58.365V31.2h3.076Zm5.229-2.373h5.37V44H63.586V31.2h3.085Zm14.607-3.059H76.427v3.059h5.73V44H73.342V31.2h8.833v2.382H76.427v2.7h4.852Zm8.736,2.03a1.268,1.268,0,0,0-.479-1.055,5.954,5.954,0,0,0-1.683-.782,16.147,16.147,0,0,1-1.969-.782Q83.4,36.758,83.4,34.622a3.011,3.011,0,0,1,.62-1.876A4.008,4.008,0,0,1,85.77,31.48a6.823,6.823,0,0,1,2.549-.453,5.969,5.969,0,0,1,2.474.492,3.917,3.917,0,0,1,1.7,1.4A3.661,3.661,0,0,1,93.1,35H90.023a1.547,1.547,0,0,0-.479-1.213,1.867,1.867,0,0,0-1.3-.431,2.106,2.106,0,0,0-1.305.365,1.074,1.074,0,0,0,.048,1.819,6.65,6.65,0,0,0,1.854.826,11.36,11.36,0,0,1,2.18.918,3.663,3.663,0,0,1,2.074,3.3,3.125,3.125,0,0,1-1.266,2.637,5.629,5.629,0,0,1-3.472.958,6.888,6.888,0,0,1-2.817-.558,4.247,4.247,0,0,1-1.9-1.529,3.985,3.985,0,0,1-.637-2.237H86.1a1.963,1.963,0,0,0,.532,1.516,2.513,2.513,0,0,0,1.727.488,1.985,1.985,0,0,0,1.208-.33A1.088,1.088,0,0,0,90.015,40.6Z" transform="translate(563 2065)" fill="#fff"/>
        <path id="Trazado_114084" data-name="Trazado 114084" d="M18.923,14.667a4.673,4.673,0,0,1-.721,2.36,4.35,4.35,0,0,1-1.85,1.586,6.3,6.3,0,0,1-2.72.563,5.025,5.025,0,0,1-3.973-1.644,6.786,6.786,0,0,1-1.45-4.641v-.633a7.746,7.746,0,0,1,.655-3.292,4.961,4.961,0,0,1,1.885-2.18A5.26,5.26,0,0,1,13.6,6.019a5.516,5.516,0,0,1,3.744,1.226,4.844,4.844,0,0,1,1.608,3.379H15.873a2.292,2.292,0,0,0-.589-1.679,2.422,2.422,0,0,0-1.687-.51,1.843,1.843,0,0,0-1.687.861,5.536,5.536,0,0,0-.562,2.751v.905a6.126,6.126,0,0,0,.514,2.927,1.882,1.882,0,0,0,1.771.879,2.369,2.369,0,0,0,1.626-.5,2.126,2.126,0,0,0,.6-1.591Zm8.728,1.942H23.423L22.685,19h-3.3L24.082,6.2h2.9L31.711,19H28.4Zm-3.489-2.382h2.751l-1.38-4.438Zm11.566,2.4H41.1V19H32.643V6.2h3.085ZM45.686,19H42.609V6.2h3.076Zm2.145,0V6.2h4.122A6.064,6.064,0,0,1,55,6.972a5.406,5.406,0,0,1,2.114,2.171,6.554,6.554,0,0,1,.769,3.142v.589a6.592,6.592,0,0,1-.743,3.151A5.429,5.429,0,0,1,55.05,18.2a5.93,5.93,0,0,1-3.01.8ZM50.915,8.585v8.042h1.072a2.4,2.4,0,0,0,2.039-.945,4.63,4.63,0,0,0,.712-2.808V12.32a4.592,4.592,0,0,0-.712-2.795,2.442,2.442,0,0,0-2.074-.94Zm15.82,8.024H62.508L61.77,19h-3.3L63.167,6.2h2.9L70.8,19H67.482Zm-3.489-2.382H66l-1.38-4.438ZM71.728,19V6.2H75.85a6.064,6.064,0,0,1,3.05.769,5.406,5.406,0,0,1,2.114,2.171,6.554,6.554,0,0,1,.769,3.142v.589a6.592,6.592,0,0,1-.743,3.151,5.429,5.429,0,0,1-2.092,2.18,5.93,5.93,0,0,1-3.01.8ZM74.813,8.585v8.042h1.072a2.4,2.4,0,0,0,2.039-.945,4.63,4.63,0,0,0,.712-2.808V12.32a4.592,4.592,0,0,0-.712-2.795,2.442,2.442,0,0,0-2.074-.94ZM13.118,44V31.2H17.24a6.064,6.064,0,0,1,3.05.769A5.406,5.406,0,0,1,22.4,34.143a6.554,6.554,0,0,1,.769,3.142v.589a6.592,6.592,0,0,1-.743,3.151,5.429,5.429,0,0,1-2.092,2.18,5.93,5.93,0,0,1-3.01.8ZM16.2,33.585v8.042h1.072a2.4,2.4,0,0,0,2.039-.945,4.63,4.63,0,0,0,.712-2.808V37.32a4.592,4.592,0,0,0-.712-2.795,2.442,2.442,0,0,0-2.074-.94Zm16.488,4.983H27.839v3.059h5.73V44H24.754V31.2h8.833v2.382H27.839v2.7h4.852Zm13.887,3.041H42.35L41.612,44h-3.3l4.693-12.8h2.9L50.638,44H47.325Zm-3.489-2.382h2.751l-1.38-4.438ZM54.857,44H51.781V31.2h3.076Zm6.9-4.526h-1.67V44H57V31.2h5.036a5.621,5.621,0,0,1,3.56,1.01,3.421,3.421,0,0,1,1.283,2.853,4.155,4.155,0,0,1-.541,2.213A3.837,3.837,0,0,1,64.648,38.7l2.672,5.167V44h-3.3ZM60.086,37.1h1.951a1.751,1.751,0,0,0,1.323-.463,1.788,1.788,0,0,0,.444-1.291,1.809,1.809,0,0,0-.448-1.3,1.735,1.735,0,0,0-1.318-.471H60.086ZM76.68,38.568H71.829v3.059h5.73V44H68.744V31.2h8.833v2.382H71.829v2.7H76.68Z" transform="translate(440 1830)" fill="#fff"/>
        <path id="Trazado_114085" data-name="Trazado 114085" d="M38.4,14.667a4.673,4.673,0,0,1-.721,2.36,4.35,4.35,0,0,1-1.85,1.586,6.3,6.3,0,0,1-2.72.563,5.025,5.025,0,0,1-3.973-1.644,6.786,6.786,0,0,1-1.45-4.641v-.633a7.746,7.746,0,0,1,.655-3.292,4.961,4.961,0,0,1,1.885-2.18,5.26,5.26,0,0,1,2.848-.769,5.516,5.516,0,0,1,3.744,1.226,4.844,4.844,0,0,1,1.608,3.379H35.346a2.292,2.292,0,0,0-.589-1.679,2.422,2.422,0,0,0-1.687-.51,1.843,1.843,0,0,0-1.687.861,5.536,5.536,0,0,0-.562,2.751v.905a6.126,6.126,0,0,0,.514,2.927,1.882,1.882,0,0,0,1.771.879,2.369,2.369,0,0,0,1.626-.5,2.126,2.126,0,0,0,.6-1.591Zm12.3-1.8A7.546,7.546,0,0,1,50,16.179,5.132,5.132,0,0,1,48.024,18.4a5.494,5.494,0,0,1-2.914.778,5.572,5.572,0,0,1-2.9-.751,5.123,5.123,0,0,1-1.973-2.149,7.329,7.329,0,0,1-.743-3.208v-.721a7.58,7.58,0,0,1,.69-3.318A5.119,5.119,0,0,1,42.162,6.81,5.854,5.854,0,0,1,47.993,6.8,5.211,5.211,0,0,1,49.975,9a7.362,7.362,0,0,1,.716,3.274Zm-3.138-.536a5.381,5.381,0,0,0-.637-2.9,2.044,2.044,0,0,0-1.824-.989q-2.32,0-2.452,3.48l-.009.94a5.535,5.535,0,0,0,.624,2.892,2.041,2.041,0,0,0,1.854,1.011,2.016,2.016,0,0,0,1.8-.993,5.383,5.383,0,0,0,.642-2.856ZM62.97,19H59.9l-4.535-7.963V19H52.282V6.2h3.085l4.526,7.963V6.2H62.97Zm12-10.415H71.126V19H68.041V8.585H64.271V6.2h10.7Zm7.515,8.024H78.254L77.516,19h-3.3L78.913,6.2h2.9L86.542,19H83.229Zm-3.489-2.382h2.751l-1.38-4.438ZM91.525,6.2l2.856,8.9,2.848-8.9h4.061V19H98.2V16.012l.3-6.117L95.4,19H93.362l-3.1-9.114.3,6.126V19H87.474V6.2ZM106.537,19h-3.076V6.2h3.076Zm12.832,0H116.3l-4.535-7.963V19h-3.085V6.2h3.085l4.526,7.963V6.2h3.076Zm9.22-2.391h-4.228L123.623,19h-3.3l4.693-12.8h2.9L132.649,19h-3.313ZM125.1,14.228h2.751l-1.38-4.438Zm18.835.439a4.673,4.673,0,0,1-.721,2.36,4.35,4.35,0,0,1-1.85,1.586,6.3,6.3,0,0,1-2.72.563,5.025,5.025,0,0,1-3.973-1.644,6.786,6.786,0,0,1-1.45-4.641v-.633a7.746,7.746,0,0,1,.655-3.292,4.961,4.961,0,0,1,1.885-2.18,5.26,5.26,0,0,1,2.848-.769,5.516,5.516,0,0,1,3.744,1.226,4.844,4.844,0,0,1,1.608,3.379h-3.076a2.292,2.292,0,0,0-.589-1.679,2.422,2.422,0,0,0-1.687-.51,1.843,1.843,0,0,0-1.687.861,5.536,5.536,0,0,0-.562,2.751v.905a6.126,6.126,0,0,0,.514,2.927,1.882,1.882,0,0,0,1.771.879,2.369,2.369,0,0,0,1.626-.5,2.126,2.126,0,0,0,.6-1.591ZM148.681,19H145.6V6.2h3.076Zm12.981-6.135a7.546,7.546,0,0,1-.694,3.313,5.132,5.132,0,0,1-1.973,2.219,5.494,5.494,0,0,1-2.914.778,5.572,5.572,0,0,1-2.9-.751,5.123,5.123,0,0,1-1.973-2.149,7.329,7.329,0,0,1-.743-3.208v-.721a7.58,7.58,0,0,1,.69-3.318,5.119,5.119,0,0,1,1.978-2.219,5.854,5.854,0,0,1,5.832-.009A5.211,5.211,0,0,1,160.946,9a7.362,7.362,0,0,1,.716,3.274Zm-3.138-.536a5.381,5.381,0,0,0-.637-2.9,2.044,2.044,0,0,0-1.824-.989q-2.32,0-2.452,3.48l-.009.94a5.535,5.535,0,0,0,.624,2.892,2.041,2.041,0,0,0,1.854,1.011,2.016,2.016,0,0,0,1.8-.993,5.383,5.383,0,0,0,.642-2.856Zm-2.1-9.554h3.129l-2.443,2.76-2.417,0ZM173.94,19h-3.067l-4.535-7.963V19h-3.085V6.2h3.085l4.526,7.963V6.2h3.076ZM47.642,41.609H43.414L42.676,44h-3.3l4.693-12.8h2.9L51.7,44H48.389Zm-3.489-2.382H46.9l-1.38-4.438Zm17.473-5.643H57.784V44H54.7V33.585H50.929V31.2h10.7ZM66.978,31.2l2.856,8.9,2.848-8.9h4.061V44H73.648V41.012l.3-6.117L70.854,44H68.814l-3.1-9.114.3,6.126V44H62.926V31.2Zm22.562,6.662a7.546,7.546,0,0,1-.694,3.313A5.132,5.132,0,0,1,86.872,43.4a5.494,5.494,0,0,1-2.914.778,5.572,5.572,0,0,1-2.9-.751,5.123,5.123,0,0,1-1.973-2.149,7.329,7.329,0,0,1-.743-3.208v-.721a7.58,7.58,0,0,1,.69-3.318,5.119,5.119,0,0,1,1.978-2.219,5.854,5.854,0,0,1,5.832-.009A5.211,5.211,0,0,1,88.823,34a7.362,7.362,0,0,1,.716,3.274ZM86.4,37.329a5.381,5.381,0,0,0-.637-2.9,2.044,2.044,0,0,0-1.824-.989q-2.32,0-2.452,3.48l-.009.94a5.535,5.535,0,0,0,.624,2.892,2.041,2.041,0,0,0,1.854,1.011,2.016,2.016,0,0,0,1.8-.993,5.383,5.383,0,0,0,.642-2.856ZM97.73,40.6a1.268,1.268,0,0,0-.479-1.055,5.954,5.954,0,0,0-1.683-.782,16.147,16.147,0,0,1-1.969-.782q-2.487-1.222-2.487-3.357a3.011,3.011,0,0,1,.62-1.876,4.008,4.008,0,0,1,1.753-1.266,6.823,6.823,0,0,1,2.549-.453,5.969,5.969,0,0,1,2.474.492,3.917,3.917,0,0,1,1.7,1.4A3.661,3.661,0,0,1,100.815,35H97.739a1.547,1.547,0,0,0-.479-1.213,1.867,1.867,0,0,0-1.3-.431,2.106,2.106,0,0,0-1.305.365,1.074,1.074,0,0,0,.048,1.819,6.65,6.65,0,0,0,1.854.826,11.36,11.36,0,0,1,2.18.918,3.663,3.663,0,0,1,2.074,3.3,3.125,3.125,0,0,1-1.266,2.637,5.629,5.629,0,0,1-3.472.958,6.888,6.888,0,0,1-2.817-.558,4.247,4.247,0,0,1-1.9-1.529,3.985,3.985,0,0,1-.637-2.237h3.094a1.963,1.963,0,0,0,.532,1.516,2.513,2.513,0,0,0,1.727.488,1.985,1.985,0,0,0,1.208-.33A1.088,1.088,0,0,0,97.73,40.6Zm12.727-1.7h-4.975V44H102.4V31.2h8.561v2.382h-5.476v2.944h4.975Zm9.721-.334h-4.852v3.059h5.73V44h-8.815V31.2h8.833v2.382h-5.748v2.7h4.852Zm6.891.905H125.4V44h-3.085V31.2h5.036a5.621,5.621,0,0,1,3.56,1.01,3.421,3.421,0,0,1,1.283,2.853,4.155,4.155,0,0,1-.541,2.213A3.837,3.837,0,0,1,129.96,38.7l2.672,5.167V44h-3.3ZM125.4,37.1h1.951a1.751,1.751,0,0,0,1.323-.463,1.788,1.788,0,0,0,.444-1.291,1.809,1.809,0,0,0-.448-1.3,1.735,1.735,0,0,0-1.318-.471H125.4ZM137.343,44h-3.076V31.2h3.076Zm12.5-4.333a4.673,4.673,0,0,1-.721,2.36,4.35,4.35,0,0,1-1.85,1.586,6.3,6.3,0,0,1-2.72.563,5.025,5.025,0,0,1-3.973-1.644,6.786,6.786,0,0,1-1.45-4.641v-.633a7.746,7.746,0,0,1,.655-3.292,4.961,4.961,0,0,1,1.885-2.18,5.26,5.26,0,0,1,2.848-.769,5.516,5.516,0,0,1,3.744,1.226,4.844,4.844,0,0,1,1.608,3.379h-3.076a2.292,2.292,0,0,0-.589-1.679,2.422,2.422,0,0,0-1.687-.51,1.843,1.843,0,0,0-1.687.861,5.536,5.536,0,0,0-.562,2.751v.905a6.126,6.126,0,0,0,.514,2.927,1.882,1.882,0,0,0,1.771.879,2.369,2.369,0,0,0,1.626-.5,2.126,2.126,0,0,0,.6-1.591Zm8.728,1.942h-4.228L153.6,44h-3.3L155,31.2h2.9L162.629,44h-3.313Zm-3.489-2.382h2.751l-1.38-4.438Z" transform="translate(380 1971)" fill="#12263f"/>
      </g>
    </g>
  </g>
</svg>
