<svg xmlns="http://www.w3.org/2000/svg" xmlns:xlink="http://www.w3.org/1999/xlink" width="505" height="385.393" viewBox="0 0 505 385.393">
  <defs>
    <clipPath id="clip-path">
      <rect id="Rectángulo_5640" data-name="Rectángulo 5640" width="505" height="385.393" fill="none"/>
    </clipPath>
    <clipPath id="clip-path-2">
      <rect id="Rectángulo_5601" data-name="Rectángulo 5601" width="129.559" height="89.921" fill="none"/>
    </clipPath>
    <clipPath id="clip-path-4">
      <rect id="Rectángulo_5603" data-name="Rectángulo 5603" width="179.017" height="124.257" fill="none"/>
    </clipPath>
  </defs>
  <g id="Grupo_80460" data-name="Grupo 80460" transform="translate(-915 -381.606)">
    <g id="Grupo_56800" data-name="Grupo 56800" transform="translate(915 381.606)">
      <g id="Grupo_56799" data-name="Grupo 56799" clip-path="url(#clip-path)">
        <path id="Trazado_104954" data-name="Trazado 104954" d="M220.563,344.394c.658.007,1.314.026,1.973.026a173.458,173.458,0,0,0,128.927-57.2h-130.9Z" transform="translate(31.464 40.973)" fill="#aaabb0"/>
        <path id="Trazado_104955" data-name="Trazado 104955" d="M236.412,344.394V287.221H109.461a173.443,173.443,0,0,0,126.951,57.173" transform="translate(15.615 40.973)" fill="#83b7be"/>
        <path id="Trazado_104956" data-name="Trazado 104956" d="M221.007,296.956h130a173.628,173.628,0,0,0,38.291-68.8h-168.3Z" transform="translate(31.527 32.546)" fill="#c8c7c7"/>
        <path id="Trazado_104957" data-name="Trazado 104957" d="M113.9,296.956H241.749v-68.8H75.612a173.611,173.611,0,0,0,38.29,68.8" transform="translate(10.786 32.546)" fill="#c5e2f2"/>
        <path id="Trazado_104958" data-name="Trazado 104958" d="M60.641,157.244l-.569-.008a8.756,8.756,0,0,0-10.488-8.724,10.254,10.254,0,0,0-19.855,1.1,8.111,8.111,0,0,0-1.062-.095,8,8,0,0,0-8.113,7.664A14.732,14.732,0,0,0,10.1,167.534l62.446.963c-1.517-6.35-5.091-11.151-11.9-11.253" transform="translate(1.44 20.158)" fill="#b8e3ff"/>
        <path id="Trazado_104959" data-name="Trazado 104959" d="M37.666,141.209a10.258,10.258,0,0,0-10.275,8.226,8,8,0,0,1,6.749,7.322l13.113-8.282a10.26,10.26,0,0,0-9.587-7.266" transform="translate(3.907 20.144)" fill="#b8e3ff"/>
        <path id="Trazado_104960" data-name="Trazado 104960" d="M19.317,155.926l9.227-7.5a8.127,8.127,0,0,0-1.062-.1,8,8,0,0,0-8.165,7.607" transform="translate(2.756 21.158)" fill="#b8e3ff"/>
        <path id="Trazado_104961" data-name="Trazado 104961" d="M27.391,148.408l6.749,7.321a8,8,0,0,0-6.749-7.321" transform="translate(3.907 21.171)" fill="#b8e3ff"/>
        <path id="Trazado_104962" data-name="Trazado 104962" d="M46.777,147.428a8.794,8.794,0,0,0-1.855.159l-1.191,8.542,11.617.254a8.765,8.765,0,0,0-8.572-8.955" transform="translate(6.238 21.031)" fill="#b8e3ff"/>
        <path id="Trazado_104963" data-name="Trazado 104963" d="M60.716,155.319l-.569-.013L20.615,155.2c0-.075.013-.149.016-.224A14.733,14.733,0,0,0,10.1,165.259l62.968,1.41c-1.473-6.361-5.543-11.2-12.352-11.35" transform="translate(1.441 22.108)" fill="#b8e3ff"/>
        <path id="Trazado_104964" data-name="Trazado 104964" d="M32.593,158.93a7.961,7.961,0,0,0,.826-3.356c.006-.256,0-.507-.022-.759Z" transform="translate(4.649 22.085)" fill="#b8e3ff"/>
        <path id="Trazado_104965" data-name="Trazado 104965" d="M32.593,158.93a7.961,7.961,0,0,0,.826-3.356c.006-.256,0-.507-.022-.759Z" transform="translate(4.649 22.085)" fill="#b8e3ff"/>
        <path id="Trazado_104966" data-name="Trazado 104966" d="M27.39,148.661s5.463,1.773,5.19,6.867a7.351,7.351,0,0,1-5.19,6.866,6.867,6.867,0,1,0,0-13.734" transform="translate(3.907 21.207)" fill="#c6e9ff"/>
        <path id="Trazado_104967" data-name="Trazado 104967" d="M57.329,155.7a10.137,10.137,0,0,0-10.286,9.983s2.717-8.518,10.228-8c8.288.569,10.042,8.3,10.042,8.3A10.136,10.136,0,0,0,57.329,155.7" transform="translate(6.711 22.211)" fill="#c6e9ff"/>
        <path id="Trazado_104968" data-name="Trazado 104968" d="M178.751,101.574a10.024,10.024,0,0,0-11.572-9.547,12.934,12.934,0,0,0-25.044-1.385,11.046,11.046,0,0,0-13.23,11l-.718.01c-8.589.128-13.1,6.184-15.01,14.194l78.764-1.215a18.581,18.581,0,0,0-13.192-13.062" transform="translate(16.145 11.635)" fill="#b8e3ff"/>
        <path id="Trazado_104969" data-name="Trazado 104969" d="M161.378,90.83a8.661,8.661,0,0,0,0,17.323,9.27,9.27,0,0,1-6.545-8.661c-.345-6.424,6.545-8.661,6.545-8.661" transform="translate(21.785 12.957)" fill="#c6e9ff"/>
        <path id="Trazado_104970" data-name="Trazado 104970" d="M125.726,99.706a12.784,12.784,0,0,0-12.592,12.975s2.212-9.757,12.665-10.476c9.474-.65,12.9,10.093,12.9,10.093a12.786,12.786,0,0,0-12.975-12.592" transform="translate(16.139 14.223)" fill="#c6e9ff"/>
        <path id="Trazado_104971" data-name="Trazado 104971" d="M219.512,256.256l-.055-.059-.055.061c-1.529,1.711-4.7,4.585-8.757,4.6h-.04a11.611,11.611,0,0,1-8.792-4.64l-.056-.07-.058.066c-1.538,1.752-4.723,4.684-8.8,4.684h-.04a11.523,11.523,0,0,1-8.716-4.68l-.055-.07-.058.066a12.885,12.885,0,0,1-7.153,4.531l.029.146a12.977,12.977,0,0,0,7.177-4.511,11.652,11.652,0,0,0,8.776,4.667h.041c4.084,0,7.275-2.891,8.852-4.668a11.737,11.737,0,0,0,8.852,4.628h.041c3.029-.015,6.155-1.644,8.812-4.592a13.366,13.366,0,0,0,7.42,4.474l.024-.146c-2.532-.417-5.02-1.928-7.391-4.488" transform="translate(25.232 36.541)" fill="#0076ce"/>
        <path id="Trazado_104972" data-name="Trazado 104972" d="M219.512,256.256l-.055-.059-.055.061c-1.529,1.711-4.7,4.585-8.757,4.6h-.04a11.611,11.611,0,0,1-8.792-4.64l-.056-.07-.058.066c-1.538,1.752-4.723,4.684-8.8,4.684h-.04a11.523,11.523,0,0,1-8.716-4.68l-.055-.07-.058.066a12.885,12.885,0,0,1-7.153,4.531l.029.146a12.977,12.977,0,0,0,7.177-4.511,11.652,11.652,0,0,0,8.776,4.667h.041c4.084,0,7.275-2.891,8.852-4.668a11.737,11.737,0,0,0,8.852,4.628h.041c3.029-.015,6.155-1.644,8.812-4.592a13.366,13.366,0,0,0,7.42,4.474l.024-.146C224.37,260.327,221.883,258.817,219.512,256.256Z" transform="translate(25.232 36.541)" fill="none" stroke="#0065c4" stroke-miterlimit="10" stroke-width="0.283"/>
        <path id="Trazado_104973" data-name="Trazado 104973" d="M219.512,258.317l-.055-.059-.055.061c-1.529,1.711-4.7,4.585-8.757,4.6h-.04a11.611,11.611,0,0,1-8.792-4.64l-.056-.07-.058.066c-1.538,1.752-4.723,4.684-8.8,4.684h-.04a11.523,11.523,0,0,1-8.716-4.68l-.055-.07-.058.066a12.885,12.885,0,0,1-7.153,4.531l.029.146a12.977,12.977,0,0,0,7.177-4.511,11.652,11.652,0,0,0,8.776,4.667h.041c4.084,0,7.275-2.891,8.852-4.668a11.737,11.737,0,0,0,8.852,4.628h.041c3.029-.014,6.155-1.644,8.812-4.592a13.366,13.366,0,0,0,7.42,4.473l.024-.146c-2.532-.417-5.02-1.928-7.391-4.488" transform="translate(25.232 36.835)" fill="#0076ce"/>
        <path id="Trazado_104974" data-name="Trazado 104974" d="M219.512,258.317l-.055-.059-.055.061c-1.529,1.711-4.7,4.585-8.757,4.6h-.04a11.611,11.611,0,0,1-8.792-4.64l-.056-.07-.058.066c-1.538,1.752-4.723,4.684-8.8,4.684h-.04a11.523,11.523,0,0,1-8.716-4.68l-.055-.07-.058.066a12.885,12.885,0,0,1-7.153,4.531l.029.146a12.977,12.977,0,0,0,7.177-4.511,11.652,11.652,0,0,0,8.776,4.667h.041c4.084,0,7.275-2.891,8.852-4.668a11.737,11.737,0,0,0,8.852,4.628h.041c3.029-.014,6.155-1.644,8.812-4.592a13.366,13.366,0,0,0,7.42,4.473l.024-.146C224.37,262.388,221.883,260.878,219.512,258.317Z" transform="translate(25.232 36.835)" fill="none" stroke="#0065c4" stroke-miterlimit="10" stroke-width="0.283"/>
        <path id="Trazado_104975" data-name="Trazado 104975" d="M219.512,260.377l-.055-.058-.055.061c-1.529,1.709-4.7,4.584-8.757,4.6h-.04a11.612,11.612,0,0,1-8.792-4.641l-.056-.07-.058.066c-1.538,1.752-4.723,4.684-8.8,4.684h-.04a11.523,11.523,0,0,1-8.716-4.68l-.055-.07-.058.066a12.894,12.894,0,0,1-7.153,4.532l.029.146a12.98,12.98,0,0,0,7.177-4.512,11.65,11.65,0,0,0,8.776,4.668h.041c4.084,0,7.275-2.892,8.852-4.669a11.737,11.737,0,0,0,8.852,4.628h.041c3.029-.014,6.155-1.644,8.812-4.591,2.5,2.683,5.137,4.207,7.827,4.528l.018-.147c-2.675-.319-5.3-1.849-7.792-4.543" transform="translate(25.232 37.129)" fill="#0076ce"/>
        <path id="Trazado_104976" data-name="Trazado 104976" d="M219.512,260.377l-.055-.058-.055.061c-1.529,1.709-4.7,4.584-8.757,4.6h-.04a11.612,11.612,0,0,1-8.792-4.641l-.056-.07-.058.066c-1.538,1.752-4.723,4.684-8.8,4.684h-.04a11.523,11.523,0,0,1-8.716-4.68l-.055-.07-.058.066a12.894,12.894,0,0,1-7.153,4.532l.029.146a12.98,12.98,0,0,0,7.177-4.512,11.65,11.65,0,0,0,8.776,4.668h.041c4.084,0,7.275-2.892,8.852-4.669a11.737,11.737,0,0,0,8.852,4.628h.041c3.029-.014,6.155-1.644,8.812-4.591,2.5,2.683,5.137,4.207,7.827,4.528l.018-.147C224.628,264.6,222.007,263.072,219.512,260.377Z" transform="translate(25.232 37.129)" fill="none" stroke="#0065c4" stroke-miterlimit="10" stroke-width="0.283"/>
        <path id="Trazado_104977" data-name="Trazado 104977" d="M263.641,256.256l-.055-.059-.055.061c-1.529,1.711-4.7,4.585-8.757,4.6h-.04a11.614,11.614,0,0,1-8.793-4.64l-.055-.07-.058.066c-1.538,1.752-4.723,4.684-8.8,4.684h-.04a11.523,11.523,0,0,1-8.716-4.68l-.055-.07-.059.066a12.879,12.879,0,0,1-7.152,4.531l.027.146a12.976,12.976,0,0,0,7.178-4.511,11.65,11.65,0,0,0,8.776,4.667h.041c4.084,0,7.275-2.891,8.852-4.668a11.735,11.735,0,0,0,8.852,4.628h.041c3.029-.015,6.155-1.644,8.812-4.592a13.366,13.366,0,0,0,7.42,4.474l.024-.146c-2.533-.417-5.02-1.928-7.391-4.488" transform="translate(31.527 36.541)" fill="#424445"/>
        <path id="Trazado_104978" data-name="Trazado 104978" d="M263.641,256.256l-.055-.059-.055.061c-1.529,1.711-4.7,4.585-8.757,4.6h-.04a11.614,11.614,0,0,1-8.793-4.64l-.055-.07-.058.066c-1.538,1.752-4.723,4.684-8.8,4.684h-.04a11.523,11.523,0,0,1-8.716-4.68l-.055-.07-.059.066a12.879,12.879,0,0,1-7.152,4.531l.027.146a12.976,12.976,0,0,0,7.178-4.511,11.65,11.65,0,0,0,8.776,4.667h.041c4.084,0,7.275-2.891,8.852-4.668a11.735,11.735,0,0,0,8.852,4.628h.041c3.029-.015,6.155-1.644,8.812-4.592a13.366,13.366,0,0,0,7.42,4.474l.024-.146C268.5,260.327,266.012,258.817,263.641,256.256Z" transform="translate(31.527 36.541)" fill="none" stroke="#424445" stroke-miterlimit="10" stroke-width="0.283"/>
        <path id="Trazado_104979" data-name="Trazado 104979" d="M263.641,258.317l-.055-.059-.055.061c-1.529,1.711-4.7,4.585-8.757,4.6h-.04a11.614,11.614,0,0,1-8.793-4.64l-.055-.07-.058.066c-1.538,1.752-4.723,4.684-8.8,4.684h-.04a11.523,11.523,0,0,1-8.716-4.68l-.055-.07-.059.066a12.879,12.879,0,0,1-7.152,4.531l.027.146a12.976,12.976,0,0,0,7.178-4.511,11.65,11.65,0,0,0,8.776,4.667h.041c4.084,0,7.275-2.891,8.852-4.668a11.735,11.735,0,0,0,8.852,4.628h.041c3.029-.014,6.155-1.644,8.812-4.592a13.366,13.366,0,0,0,7.42,4.473l.024-.146c-2.533-.417-5.02-1.928-7.391-4.488" transform="translate(31.527 36.835)" fill="#424445"/>
        <path id="Trazado_104980" data-name="Trazado 104980" d="M263.641,258.317l-.055-.059-.055.061c-1.529,1.711-4.7,4.585-8.757,4.6h-.04a11.614,11.614,0,0,1-8.793-4.64l-.055-.07-.058.066c-1.538,1.752-4.723,4.684-8.8,4.684h-.04a11.523,11.523,0,0,1-8.716-4.68l-.055-.07-.059.066a12.879,12.879,0,0,1-7.152,4.531l.027.146a12.976,12.976,0,0,0,7.178-4.511,11.65,11.65,0,0,0,8.776,4.667h.041c4.084,0,7.275-2.891,8.852-4.668a11.735,11.735,0,0,0,8.852,4.628h.041c3.029-.014,6.155-1.644,8.812-4.592a13.366,13.366,0,0,0,7.42,4.473l.024-.146C268.5,262.388,266.012,260.878,263.641,258.317Z" transform="translate(31.527 36.835)" fill="none" stroke="#424445" stroke-miterlimit="10" stroke-width="0.283"/>
        <path id="Trazado_104981" data-name="Trazado 104981" d="M263.641,260.377l-.055-.058-.055.061c-1.529,1.709-4.7,4.584-8.757,4.6h-.04a11.616,11.616,0,0,1-8.793-4.641l-.055-.07-.058.066c-1.538,1.752-4.723,4.684-8.8,4.684h-.04a11.523,11.523,0,0,1-8.716-4.68l-.055-.07-.059.066a12.887,12.887,0,0,1-7.152,4.532l.027.146a12.978,12.978,0,0,0,7.178-4.512,11.648,11.648,0,0,0,8.776,4.668h.041c4.084,0,7.275-2.892,8.852-4.669a11.735,11.735,0,0,0,8.852,4.628h.041c3.029-.014,6.155-1.644,8.812-4.591,2.5,2.683,5.136,4.207,7.827,4.528l.018-.147c-2.675-.319-5.3-1.849-7.792-4.543" transform="translate(31.527 37.129)" fill="#424445"/>
        <path id="Trazado_104982" data-name="Trazado 104982" d="M263.641,260.377l-.055-.058-.055.061c-1.529,1.709-4.7,4.584-8.757,4.6h-.04a11.616,11.616,0,0,1-8.793-4.641l-.055-.07-.058.066c-1.538,1.752-4.723,4.684-8.8,4.684h-.04a11.523,11.523,0,0,1-8.716-4.68l-.055-.07-.059.066a12.887,12.887,0,0,1-7.152,4.532l.027.146a12.978,12.978,0,0,0,7.178-4.512,11.648,11.648,0,0,0,8.776,4.668h.041c4.084,0,7.275-2.892,8.852-4.669a11.735,11.735,0,0,0,8.852,4.628h.041c3.029-.014,6.155-1.644,8.812-4.591,2.5,2.683,5.136,4.207,7.827,4.528l.018-.147C268.757,264.6,266.136,263.072,263.641,260.377Z" transform="translate(31.527 37.129)" fill="none" stroke="#424445" stroke-miterlimit="10" stroke-width="0.283"/>
        <path id="Trazado_104983" data-name="Trazado 104983" d="M333.637,278.983H333.6a9.928,9.928,0,0,1-7.516-3.967l-.047-.059-.05.057c-1.314,1.5-4.037,4-7.52,4h-.035a9.85,9.85,0,0,1-7.45-4l-.047-.061-.05.057a11.005,11.005,0,0,1-6.114,3.872l.024.126a11.09,11.09,0,0,0,6.135-3.856,9.96,9.96,0,0,0,7.5,3.989h.035c3.49,0,6.218-2.47,7.565-3.99a10.035,10.035,0,0,0,7.568,3.956h.035a7.344,7.344,0,0,0,.849-.059l-.024-.126a7.014,7.014,0,0,1-.826.058" transform="translate(43.477 39.223)" fill="#424445"/>
        <path id="Trazado_104984" data-name="Trazado 104984" d="M333.637,278.983H333.6a9.928,9.928,0,0,1-7.516-3.967l-.047-.059-.05.057c-1.314,1.5-4.037,4-7.52,4h-.035a9.85,9.85,0,0,1-7.45-4l-.047-.061-.05.057a11.005,11.005,0,0,1-6.114,3.872l.024.126a11.09,11.09,0,0,0,6.135-3.856,9.96,9.96,0,0,0,7.5,3.989h.035c3.49,0,6.218-2.47,7.565-3.99a10.035,10.035,0,0,0,7.568,3.956h.035a7.344,7.344,0,0,0,.849-.059l-.024-.126A7.014,7.014,0,0,1,333.637,278.983Z" transform="translate(43.477 39.223)" fill="none" stroke="#424445" stroke-miterlimit="10" stroke-width="0.283"/>
        <path id="Trazado_104985" data-name="Trazado 104985" d="M333.637,280.744H333.6a9.928,9.928,0,0,1-7.516-3.967l-.047-.059-.05.057c-1.314,1.5-4.037,4-7.52,4h-.035a9.849,9.849,0,0,1-7.45-4l-.047-.061-.05.057a11.005,11.005,0,0,1-6.114,3.872l.024.126a11.09,11.09,0,0,0,6.135-3.856,9.959,9.959,0,0,0,7.5,3.989h.035c3.49,0,6.218-2.47,7.565-3.99a10.035,10.035,0,0,0,7.568,3.956h.035a7.128,7.128,0,0,0,.906-.066c0-.042,0-.085,0-.128a6.928,6.928,0,0,1-.906.067" transform="translate(43.477 39.474)" fill="#424445"/>
        <path id="Trazado_104986" data-name="Trazado 104986" d="M333.637,280.744H333.6a9.928,9.928,0,0,1-7.516-3.967l-.047-.059-.05.057c-1.314,1.5-4.037,4-7.52,4h-.035a9.849,9.849,0,0,1-7.45-4l-.047-.061-.05.057a11.005,11.005,0,0,1-6.114,3.872l.024.126a11.09,11.09,0,0,0,6.135-3.856,9.959,9.959,0,0,0,7.5,3.989h.035c3.49,0,6.218-2.47,7.565-3.99a10.035,10.035,0,0,0,7.568,3.956h.035a7.128,7.128,0,0,0,.906-.066c0-.042,0-.085,0-.128A6.928,6.928,0,0,1,333.637,280.744Z" transform="translate(43.477 39.474)" fill="none" stroke="#424445" stroke-miterlimit="10" stroke-width="0.283"/>
        <path id="Trazado_104987" data-name="Trazado 104987" d="M333.6,282.5a9.928,9.928,0,0,1-7.516-3.967l-.047-.059-.05.057c-1.314,1.5-4.037,4-7.521,4h-.034a9.849,9.849,0,0,1-7.45-4l-.047-.061-.05.057a11.009,11.009,0,0,1-6.114,3.872l.024.126a11.094,11.094,0,0,0,6.135-3.856,9.959,9.959,0,0,0,7.5,3.989h.035c3.491,0,6.219-2.47,7.567-3.99a10.035,10.035,0,0,0,7.568,3.956h.035a7.231,7.231,0,0,0,.9-.066c0-.043,0-.086,0-.128a7.062,7.062,0,0,1-.9.067Z" transform="translate(43.477 39.726)" fill="#424445"/>
        <path id="Trazado_104988" data-name="Trazado 104988" d="M333.6,282.5a9.928,9.928,0,0,1-7.516-3.967l-.047-.059-.05.057c-1.314,1.5-4.037,4-7.521,4h-.034a9.849,9.849,0,0,1-7.45-4l-.047-.061-.05.057a11.009,11.009,0,0,1-6.114,3.872l.024.126a11.094,11.094,0,0,0,6.135-3.856,9.959,9.959,0,0,0,7.5,3.989h.035c3.491,0,6.219-2.47,7.567-3.99a10.035,10.035,0,0,0,7.568,3.956h.035a7.231,7.231,0,0,0,.9-.066c0-.043,0-.086,0-.128a7.062,7.062,0,0,1-.9.067Z" transform="translate(43.477 39.726)" fill="none" stroke="#424445" stroke-miterlimit="10" stroke-width="0.283"/>
        <path id="Trazado_104989" data-name="Trazado 104989" d="M143.542,55.855a6.349,6.349,0,0,0-3.39.98,8.526,8.526,0,0,0-12.463-6.2,17.686,17.686,0,0,0-32.369.8A10.867,10.867,0,0,0,83.388,64.717h53.771c.123-.1.25-.2.368-.312.038.106.082.209.126.312h11.79a6.4,6.4,0,0,0-5.9-8.862" transform="translate(11.854 5.773)" fill="#c6e9ff"/>
        <path id="Trazado_104990" data-name="Trazado 104990" d="M110.155,40.456A17.686,17.686,0,0,0,93.794,51.424a10.9,10.9,0,0,1,9.574,10.811l22.795-11.612a17.684,17.684,0,0,0-16.009-10.167" transform="translate(13.38 5.771)" fill="#c6e9ff"/>
        <path id="Trazado_104991" data-name="Trazado 104991" d="M83.1,60.877,95.32,50.066A10.842,10.842,0,0,0,83.1,60.877" transform="translate(11.854 7.129)" fill="#c6e9ff"/>
        <path id="Trazado_104992" data-name="Trazado 104992" d="M93.794,50.055l9.575,10.811a10.9,10.9,0,0,0-9.575-10.811" transform="translate(13.38 7.14)" fill="#c6e9ff"/>
        <path id="Trazado_104993" data-name="Trazado 104993" d="M126.163,48.464a8.491,8.491,0,0,0-4.04,1.017l12.462,6.2a8.529,8.529,0,0,0-8.421-7.212" transform="translate(17.421 6.914)" fill="#c6e9ff"/>
        <path id="Trazado_104994" data-name="Trazado 104994" d="M183.779,7.005a5.976,5.976,0,0,0-.734.049,9.811,9.811,0,0,0-17.955-.444,4.729,4.729,0,0,0-6.913,3.437,3.545,3.545,0,0,0-5.153,4.372h6.539c.024-.057.049-.114.07-.173.066.061.136.115.2.173h29.824a6.029,6.029,0,0,0-5.884-7.414" transform="translate(21.79 0.139)" fill="#fff"/>
        <path id="Trazado_104995" data-name="Trazado 104995" d="M172.43.962a9.81,9.81,0,0,0-8.88,5.64l12.643,6.44a6.044,6.044,0,0,1,5.311-6A9.812,9.812,0,0,0,172.43.962" transform="translate(23.331 0.137)" fill="#fff"/>
        <path id="Trazado_104996" data-name="Trazado 104996" d="M180,6.244a5.976,5.976,0,0,0-.734.049l6.778,6A6.044,6.044,0,0,0,180,6.244" transform="translate(25.572 0.891)" fill="#fff"/>
        <path id="Trazado_104997" data-name="Trazado 104997" d="M174.615,12.283l5.311-6a6.044,6.044,0,0,0-5.311,6" transform="translate(24.909 0.897)" fill="#fff"/>
        <path id="Trazado_104998" data-name="Trazado 104998" d="M157.5,9.4l6.912-3.437A4.73,4.73,0,0,0,157.5,9.4" transform="translate(22.468 0.771)" fill="#fff"/>
        <path id="Trazado_104999" data-name="Trazado 104999" d="M71.162,96.293a7.691,7.691,0,0,0-2.57.447,15.119,15.119,0,0,0-30.185-.221,6.047,6.047,0,0,0-4.4,8.037H78.87c.013-.175.027-.35.027-.528a7.736,7.736,0,0,0-7.736-7.736" transform="translate(4.796 11.755)" fill="#fff"/>
        <path id="Trazado_105000" data-name="Trazado 105000" d="M378.748,128.651a5.571,5.571,0,0,0-1.859.323,10.939,10.939,0,0,0-21.84-.16,4.379,4.379,0,0,0-3.183,5.816h32.461c.008-.127.019-.254.019-.382a5.6,5.6,0,0,0-5.6-5.6" transform="translate(50.155 16.919)" fill="#c8c7c7"/>
        <path id="Trazado_105001" data-name="Trazado 105001" d="M106.664,54.41a20.466,20.466,0,0,0-40.859.3,10.451,10.451,0,0,0-13.951,9.869c0,.24.019.476.035.713h60.73a8.186,8.186,0,0,0-5.956-10.879" transform="translate(7.397 5.036)" fill="#b8e3ff"/>
        <g id="Grupo_56794" data-name="Grupo 56794" transform="translate(40.151 141.435)">
          <g id="Grupo_56793" data-name="Grupo 56793" clip-path="url(#clip-path-2)">
            <g id="Grupo_56792" data-name="Grupo 56792">
              <g id="Grupo_56791" data-name="Grupo 56791" clip-path="url(#clip-path-2)">
                <path id="Trazado_105002" data-name="Trazado 105002" d="M91.349,157.994a3.391,3.391,0,0,1-3.378-3.378V143.449a3.371,3.371,0,0,0-6.742,0v3.632A3.137,3.137,0,0,1,78.1,150.2H77.8a3.127,3.127,0,0,1-3.083-2.686L36.3,201.937c-2.66,3.774-.5,9.4,3.863,9.723.141.013.295.013.435.013H159.24c.154,0,.295,0,.435-.013,4.363-.32,6.525-5.961,3.851-9.723l-42.05-59.128v7.51a3.134,3.134,0,0,1-3.122,3.121h-.294a3.136,3.136,0,0,1-3.134-3.121v-8.968a3.371,3.371,0,0,0-6.742,0v11.986a3.363,3.363,0,0,1-6.717.269v-6.1a3.377,3.377,0,1,0-6.754,0v7.112a3.38,3.38,0,0,1-3.365,3.378" transform="translate(-35.138 -121.751)" fill="#fff"/>
                <path id="Trazado_105003" data-name="Trazado 105003" d="M82.385,156.643a3.371,3.371,0,1,0,6.742,0V149.53a3.377,3.377,0,0,1,6.754,0v6.1a3.363,3.363,0,0,0,6.717-.269V143.377a3.371,3.371,0,0,1,6.742,0v8.968a3.137,3.137,0,0,0,3.134,3.122h.295a3.133,3.133,0,0,0,3.121-3.122v-7.508l-10.873-15.288a13.271,13.271,0,0,0-10.8-5.77,13.568,13.568,0,0,0-11.078,5.936L74.3,142.239l1.92,1.356a3.372,3.372,0,0,1,6.166,1.88Z" transform="translate(-29.552 -123.778)" fill="#fff"/>
              </g>
            </g>
          </g>
        </g>
        <path id="Trazado_105004" data-name="Trazado 105004" d="M150.736,178.3H48.993L36.36,196.2c-2.654,3.759-.494,9.382,3.86,9.7.143.01.287.016.431.016H159.184c.145,0,.289-.006.431-.016,4.357-.322,6.512-5.956,3.844-9.709Z" transform="translate(5.021 25.435)" fill="#007980"/>
        <g id="Grupo_56798" data-name="Grupo 56798" transform="translate(115.882 107.642)">
          <g id="Grupo_56797" data-name="Grupo 56797" clip-path="url(#clip-path-4)">
            <g id="Grupo_56796" data-name="Grupo 56796">
              <g id="Grupo_56795" data-name="Grupo 56795" clip-path="url(#clip-path-4)">
                <path id="Trazado_105005" data-name="Trazado 105005" d="M204.848,123.072a5,5,0,0,0-10,0v10.554a5,5,0,1,1-10,0h.039V113.413a5,5,0,0,0-10,0v29.436a5,5,0,1,1-10,0V115.371l-61.853,87.617c-3.671,5.207-.679,12.973,5.346,13.419.192.014.4.026.588.026H272.905c.2,0,.4-.013.588-.026,6.038-.447,9.005-8.239,5.321-13.419l-63.951-89.959v26.6a5.008,5.008,0,0,1-10.016,0Z" transform="translate(-101.415 -92.177)" fill="#fff"/>
                <path id="Trazado_105006" data-name="Trazado 105006" d="M188.394,121.568a4.993,4.993,0,0,1,8.532,3.531v16.554a5.009,5.009,0,0,0,10.018,0v-26.6l-9.173-12.882a18.363,18.363,0,0,0-14.929-7.969,18.822,18.822,0,0,0-15.313,8.2L156.949,117.4v27.479a5,5,0,0,0,10,0V115.44a5,5,0,0,1,10,0v20.212h-.038a4.993,4.993,0,0,0,8.532,3.531,4.965,4.965,0,0,0,1.471-3.531V125.1a4.992,4.992,0,0,1,1.472-3.531" transform="translate(-93.493 -94.204)" fill="#83b7be"/>
              </g>
            </g>
          </g>
        </g>
        <path id="Trazado_105007" data-name="Trazado 105007" d="M261.221,169.517H120.5l-17.472,24.752c-3.671,5.2-.683,12.978,5.34,13.424.2.015.4.022.6.022H272.906c.2,0,.4-.007.6-.022,6.026-.446,9.006-8.239,5.317-13.428Z" transform="translate(14.468 24.182)" fill="#62898f"/>
        <rect id="Rectángulo_5604" data-name="Rectángulo 5604" width="61.288" height="74.31" transform="translate(277.667 158.001)" fill="#615654"/>
        <rect id="Rectángulo_5605" data-name="Rectángulo 5605" width="61.288" height="3.772" transform="translate(277.667 184.73)" fill="#d9cbca"/>
        <rect id="Rectángulo_5606" data-name="Rectángulo 5606" width="61.288" height="12.93" transform="translate(277.667 198.65)" fill="#d9cbca"/>
        <path id="Trazado_105008" data-name="Trazado 105008" d="M281.449,187.208H289V173.389h-7.553Zm.727-13.1h6.1v12.373h-6.1Z" transform="translate(40.149 24.734)" fill="#615654"/>
        <path id="Trazado_105009" data-name="Trazado 105009" d="M269.5,187.208h7.552V173.389H269.5Zm.727-13.1h6.1v12.373h-6.1Z" transform="translate(38.445 24.734)" fill="#615654"/>
        <path id="Trazado_105010" data-name="Trazado 105010" d="M293.4,187.208h4.069V173.389H293.4Zm.727-13.1h2.616v12.373h-2.616Z" transform="translate(41.854 24.734)" fill="#615654"/>
        <path id="Trazado_105011" data-name="Trazado 105011" d="M287.423,187.208h7.552V173.389h-7.552Zm.727-13.1h6.1v12.373h-6.1Z" transform="translate(41.002 24.734)" fill="#615654"/>
        <path id="Trazado_105012" data-name="Trazado 105012" d="M275.476,187.208h7.552V173.389h-7.552Zm.726-13.1h6.1v12.373h-6.1Z" transform="translate(39.297 24.734)" fill="#615654"/>
        <path id="Trazado_105013" data-name="Trazado 105013" d="M242.684,187.208h4.069V173.389h-4.069Zm.727-13.1h2.616v12.373h-2.616Z" transform="translate(34.62 24.734)" fill="#615654"/>
        <path id="Trazado_105014" data-name="Trazado 105014" d="M245.609,187.208h7.552V173.389h-7.552Zm.727-13.1h6.1v12.373h-6.1Z" transform="translate(35.037 24.734)" fill="#615654"/>
        <path id="Trazado_105015" data-name="Trazado 105015" d="M251.582,187.208h7.552V173.389h-7.552Zm.727-13.1h6.1v12.373h-6.1Z" transform="translate(35.889 24.734)" fill="#615654"/>
        <path id="Trazado_105016" data-name="Trazado 105016" d="M263.528,187.208h7.553V173.389h-7.553Zm.727-13.1h6.1v12.373h-6.1Z" transform="translate(37.593 24.734)" fill="#615654"/>
        <path id="Trazado_105017" data-name="Trazado 105017" d="M257.555,187.208h7.552V173.389h-7.552Zm.727-13.1h6.1v12.373h-6.1Z" transform="translate(36.741 24.734)" fill="#615654"/>
        <path id="Trazado_105018" data-name="Trazado 105018" d="M264.007,101.562,258.8,217.6l19.278.229L275.615,101.7Z" transform="translate(36.918 14.488)" fill="#a3a1a1"/>
        <path id="Trazado_105019" data-name="Trazado 105019" d="M258.8,217.7l9.638.114,1.373-116.079-5.8-.069Z" transform="translate(36.918 14.502)" fill="#757474"/>
        <path id="Trazado_105020" data-name="Trazado 105020" d="M269.015,126.14l-6.655-.079-.3,6.736,6.878.082,6.878.081-.143-6.742Z" transform="translate(37.383 17.983)" fill="#edecec"/>
        <path id="Trazado_105021" data-name="Trazado 105021" d="M268.935,139.931l-7.191-.085-.441,9.849,7.515.089,7.515.089-.209-9.857Z" transform="translate(37.276 19.949)" fill="#edecec"/>
        <path id="Trazado_105022" data-name="Trazado 105022" d="M204.691,43.789a12.705,12.705,0,0,0-14.329,12.673h0v.021a12.843,12.843,0,0,0,.341,2.893h35.222V31.043c-.676-.066-1.359-.113-2.053-.113a20.735,20.735,0,0,0-19.181,12.859" transform="translate(27.156 4.412)" fill="#b8e3ff"/>
        <path id="Trazado_105023" data-name="Trazado 105023" d="M256.752,48.978a7.525,7.525,0,0,0-4.015,1.161l0-.023,0,0a10.1,10.1,0,0,0-14.759-7.338,20.95,20.95,0,0,0-16.885-11.927V59.474h28.1c.146-.122.3-.24.435-.37.046.126.1.248.149.37H263.74a7.577,7.577,0,0,0-6.988-10.5" transform="translate(31.54 4.401)" fill="#95969c"/>
        <rect id="Rectángulo_5607" data-name="Rectángulo 5607" width="69.204" height="64.203" transform="translate(385.784 167.968)" fill="#747176"/>
        <rect id="Rectángulo_5608" data-name="Rectángulo 5608" width="17.205" height="64.203" transform="translate(437.826 168.108)" fill="#a3a1a1"/>
        <path id="Trazado_105024" data-name="Trazado 105024" d="M408.6,145.8H336.455a1.368,1.368,0,0,0,0,2.737H408.6a1.368,1.368,0,0,0,0-2.737" transform="translate(47.801 20.799)" fill="#525151"/>
        <rect id="Rectángulo_5609" data-name="Rectángulo 5609" width="4.327" height="6.43" transform="translate(445.926 180.394)" fill="#edecec"/>
        <rect id="Rectángulo_5610" data-name="Rectángulo 5610" width="4.328" height="6.43" transform="translate(438.023 180.394)" fill="#edecec"/>
        <rect id="Rectángulo_5611" data-name="Rectángulo 5611" width="4.328" height="6.43" transform="translate(430.12 180.394)" fill="#edecec"/>
        <rect id="Rectángulo_5612" data-name="Rectángulo 5612" width="4.328" height="6.43" transform="translate(422.217 180.394)" fill="#edecec"/>
        <rect id="Rectángulo_5613" data-name="Rectángulo 5613" width="4.327" height="6.43" transform="translate(414.313 180.394)" fill="#edecec"/>
        <rect id="Rectángulo_5614" data-name="Rectángulo 5614" width="4.328" height="6.43" transform="translate(406.411 180.394)" fill="#edecec"/>
        <rect id="Rectángulo_5615" data-name="Rectángulo 5615" width="4.328" height="6.43" transform="translate(398.507 180.394)" fill="#edecec"/>
        <rect id="Rectángulo_5616" data-name="Rectángulo 5616" width="4.328" height="6.43" transform="translate(390.604 180.394)" fill="#edecec"/>
        <rect id="Rectángulo_5617" data-name="Rectángulo 5617" width="4.327" height="6.43" transform="translate(445.926 192.753)" fill="#edecec"/>
        <rect id="Rectángulo_5618" data-name="Rectángulo 5618" width="4.328" height="6.43" transform="translate(438.023 192.753)" fill="#edecec"/>
        <rect id="Rectángulo_5619" data-name="Rectángulo 5619" width="4.328" height="6.43" transform="translate(430.12 192.753)" fill="#edecec"/>
        <rect id="Rectángulo_5620" data-name="Rectángulo 5620" width="4.328" height="6.43" transform="translate(422.217 192.753)" fill="#edecec"/>
        <rect id="Rectángulo_5621" data-name="Rectángulo 5621" width="4.327" height="6.43" transform="translate(414.313 192.753)" fill="#edecec"/>
        <rect id="Rectángulo_5622" data-name="Rectángulo 5622" width="4.328" height="6.43" transform="translate(406.411 192.753)" fill="#edecec"/>
        <rect id="Rectángulo_5623" data-name="Rectángulo 5623" width="4.328" height="6.43" transform="translate(398.507 192.753)" fill="#edecec"/>
        <rect id="Rectángulo_5624" data-name="Rectángulo 5624" width="4.328" height="6.43" transform="translate(390.604 192.753)" fill="#edecec"/>
        <rect id="Rectángulo_5625" data-name="Rectángulo 5625" width="4.327" height="6.43" transform="translate(445.926 205.111)" fill="#edecec"/>
        <rect id="Rectángulo_5626" data-name="Rectángulo 5626" width="4.328" height="6.43" transform="translate(438.023 205.111)" fill="#edecec"/>
        <rect id="Rectángulo_5627" data-name="Rectángulo 5627" width="4.328" height="6.43" transform="translate(430.12 205.111)" fill="#edecec"/>
        <rect id="Rectángulo_5628" data-name="Rectángulo 5628" width="4.328" height="6.43" transform="translate(422.217 205.111)" fill="#edecec"/>
        <rect id="Rectángulo_5629" data-name="Rectángulo 5629" width="4.327" height="6.43" transform="translate(414.313 205.111)" fill="#edecec"/>
        <rect id="Rectángulo_5630" data-name="Rectángulo 5630" width="4.328" height="6.43" transform="translate(406.411 205.111)" fill="#edecec"/>
        <rect id="Rectángulo_5631" data-name="Rectángulo 5631" width="4.328" height="6.43" transform="translate(398.507 205.111)" fill="#edecec"/>
        <rect id="Rectángulo_5632" data-name="Rectángulo 5632" width="4.328" height="6.43" transform="translate(390.604 205.111)" fill="#edecec"/>
        <rect id="Rectángulo_5633" data-name="Rectángulo 5633" width="69.248" height="4.151" transform="translate(385.705 227.476)" fill="#525151"/>
        <path id="Trazado_105025" data-name="Trazado 105025" d="M307.52,129.719s-3.59,74.727-11.423,84.088h57.44s-11.749-25.451-13.707-84.088Z" transform="translate(42.239 18.505)" fill="#7d6660"/>
        <path id="Trazado_105026" data-name="Trazado 105026" d="M321.231,129.719v84.088h28.721s-11.75-25.451-13.707-84.088Z" transform="translate(45.824 18.505)" fill="#97776c"/>
        <path id="Trazado_105027" data-name="Trazado 105027" d="M304.827,150.072l-.32,4.243h35.908l-.4-4.243Z" transform="translate(43.439 21.408)" fill="#624800"/>
        <path id="Trazado_105028" data-name="Trazado 105028" d="M303.6,164.638l-.426,4.264h39.487l-.609-4.264Z" transform="translate(43.249 23.486)" fill="#624800"/>
        <path id="Trazado_105029" data-name="Trazado 105029" d="M306.438,129.719l-.253,4.708,32.388.067-.184-4.775Z" transform="translate(43.678 18.505)" fill="#624800"/>
        <path id="Trazado_105030" data-name="Trazado 105030" d="M239.994,121.3c-8.538-9.585-19.006-25.353-19.006-25.353L220.9,218.625h32.528s-.457-69.572-1.292-74.244-3.6-13.5-12.137-23.084" transform="translate(31.511 13.687)" fill="#8f534a"/>
        <path id="Trazado_105031" data-name="Trazado 105031" d="M239.983,121.3c-8.538-9.585-19.006-25.353-19.006-25.353L232.683,122.2c.5,1.113,9.028,18.263,9.128,36.427l.56,60h11.041s-.457-69.572-1.292-74.244-3.6-13.5-12.137-23.084" transform="translate(31.523 13.687)" fill="#a5756e"/>
        <rect id="Rectángulo_5634" data-name="Rectángulo 5634" width="31.55" height="5.816" transform="translate(252.471 160.275)" fill="#bfa8a6"/>
        <rect id="Rectángulo_5635" data-name="Rectángulo 5635" width="32.016" height="1.395" transform="translate(252.407 176.763)" fill="#bfa8a6"/>
        <rect id="Rectángulo_5636" data-name="Rectángulo 5636" width="32.016" height="1.395" transform="translate(252.407 179.97)" fill="#bfa8a6"/>
        <rect id="Rectángulo_5637" data-name="Rectángulo 5637" width="32.016" height="1.395" transform="translate(252.407 183.178)" fill="#bfa8a6"/>
        <rect id="Rectángulo_5638" data-name="Rectángulo 5638" width="32.016" height="1.395" transform="translate(252.407 186.385)" fill="#bfa8a6"/>
        <rect id="Rectángulo_5639" data-name="Rectángulo 5639" width="32.016" height="1.395" transform="translate(252.407 189.592)" fill="#bfa8a6"/>
        <path id="Trazado_105032" data-name="Trazado 105032" d="M134.9,188.15c-19.337,0-35.68,7.058-41.043,16.759h82.086c-5.361-9.7-21.706-16.759-41.043-16.759" transform="translate(13.389 26.84)" fill="#93b033"/>
        <path id="Trazado_105033" data-name="Trazado 105033" d="M190.7,183.062c-18.959,0-34.983,9.605-40.241,22.805h80.482c-5.257-13.2-21.282-22.805-40.241-22.805" transform="translate(21.464 26.114)" fill="#789c00"/>
        <path id="Trazado_105034" data-name="Trazado 105034" d="M170.021,188.176c-3.781,1.107-6.053,3.9-5.26,5.623s3.939,1.917,7.19.964,5.77-2.81,5.508-4.687-3.656-3.007-7.438-1.9" transform="translate(23.481 26.781)" fill="#93b033"/>
        <path id="Trazado_105035" data-name="Trazado 105035" d="M181.514,188.709c-2.012.015-3.562.994-3.474,2.011s1.65,1.7,3.5,1.685,3.414-.718,3.487-1.736-1.5-1.976-3.515-1.961" transform="translate(25.397 26.92)" fill="#93b033"/>
        <path id="Trazado_105036" data-name="Trazado 105036" d="M96.8,182.334a6.28,6.28,0,1,0-12.56,0,6.457,6.457,0,0,0,.069.884,7.973,7.973,0,1,0,12.422,0,6.281,6.281,0,0,0,.07-.884" transform="translate(11.776 25.115)" fill="#dadf4d"/>
        <path id="Trazado_105037" data-name="Trazado 105037" d="M89.812,184.193,89.5,204.859a.306.306,0,0,0,.309.3h.04a.306.306,0,0,0,.309-.3s-.138-20.666-.309-20.666c0,0-.04-.167-.04,0" transform="translate(12.768 26.265)" fill="#624800"/>
        <path id="Trazado_105038" data-name="Trazado 105038" d="M88.093,190.419a9.432,9.432,0,0,1-1.856-1.847c2.094,3.371,4.02,3.273,4.02,3.273l.041-.474s-.414.315-2.205-.952" transform="translate(12.302 26.9)" fill="#624800"/>
        <path id="Trazado_105039" data-name="Trazado 105039" d="M91.665,189.342c-1.522,1.078-1.874.809-1.874.809l.034.4s1.636.083,3.417-2.781a8.018,8.018,0,0,1-1.577,1.569" transform="translate(12.809 26.786)" fill="#624800"/>
        <path id="Trazado_105040" data-name="Trazado 105040" d="M88.626,187.291a6.456,6.456,0,0,1-1.273-1.266c1.436,2.312,2.757,2.244,2.757,2.244l.029-.326s-.285.217-1.513-.652" transform="translate(12.461 26.537)" fill="#624800"/>
        <path id="Trazado_105041" data-name="Trazado 105041" d="M212.449,146.5a5.666,5.666,0,0,0-5.92,0c-6.459,4.048-25.448,56.06,2.961,56.06,30.069,0,9.419-52.011,2.959-56.06" transform="translate(27.719 20.78)" fill="#33a257"/>
        <path id="Trazado_105042" data-name="Trazado 105042" d="M201.9,181.526c-.456-20.491,5.616-35.747,4.628-35.127-6.461,4.048-25.448,56.061,2.959,56.061,0,0-7.135-.582-7.587-20.933" transform="translate(27.719 20.882)" fill="#00744c"/>
        <path id="Trazado_105043" data-name="Trazado 105043" d="M208.843,168.488l-2.017,39.16c.48-.022,3.619.029,4.1,0-.149-16.752-1.666-39.16-1.97-39.16,0,0-.111-.459-.111,0" transform="translate(29.504 24.006)" fill="#624800"/>
        <path id="Trazado_105044" data-name="Trazado 105044" d="M203.985,185.554a25.816,25.816,0,0,1-5.089-5.061c5.744,9.241,11.022,8.971,11.022,8.971l.111-1.3s-1.135.866-6.043-2.609" transform="translate(28.373 25.748)" fill="#624800"/>
        <path id="Trazado_105045" data-name="Trazado 105045" d="M213.777,182.6c-4.173,2.953-5.137,2.217-5.137,2.217l.095,1.106s4.486.23,9.366-7.624a21.914,21.914,0,0,1-4.324,4.3" transform="translate(29.763 25.435)" fill="#624800"/>
        <path id="Trazado_105046" data-name="Trazado 105046" d="M205.447,176.98a17.709,17.709,0,0,1-3.491-3.471c3.94,6.338,7.561,6.153,7.561,6.153l.077-.892s-.778.594-4.147-1.789" transform="translate(28.81 24.752)" fill="#624800"/>
        <path id="Trazado_105047" data-name="Trazado 105047" d="M153.237,163.75a3.944,3.944,0,0,0-4.124,0c-4.5,2.82-17.725,39.048,2.063,39.048,20.944,0,6.561-36.228,2.061-39.048" transform="translate(20.058 23.276)" fill="#33a257"/>
        <path id="Trazado_105048" data-name="Trazado 105048" d="M145.891,188.146c-.318-14.273,3.912-24.9,3.223-24.468-4.5,2.82-17.726,39.048,2.061,39.048,0,0-4.969-.4-5.285-14.58" transform="translate(20.058 23.347)" fill="#00744c"/>
        <path id="Trazado_105049" data-name="Trazado 105049" d="M150.726,179.066l-1.4,27.276c.333-.016,2.52.019,2.852,0-.1-11.669-1.16-27.276-1.372-27.276,0,0-.075-.32-.075,0" transform="translate(21.301 25.524)" fill="#624800"/>
        <path id="Trazado_105050" data-name="Trazado 105050" d="M147.342,190.951a17.97,17.97,0,0,1-3.545-3.525c4,6.437,7.677,6.249,7.677,6.249l.078-.906s-.791.6-4.211-1.818" transform="translate(20.513 26.737)" fill="#624800"/>
        <path id="Trazado_105051" data-name="Trazado 105051" d="M154.163,188.9c-2.906,2.057-3.579,1.544-3.579,1.544l.066.771s3.125.159,6.525-5.311a15.314,15.314,0,0,1-3.012,3" transform="translate(21.481 26.519)" fill="#624800"/>
        <path id="Trazado_105052" data-name="Trazado 105052" d="M148.361,184.98a12.347,12.347,0,0,1-2.433-2.418c2.745,4.415,5.266,4.286,5.266,4.286l.055-.622s-.544.414-2.889-1.247" transform="translate(20.817 26.043)" fill="#624800"/>
        <path id="Trazado_105053" data-name="Trazado 105053" d="M195.577,158.544a4.29,4.29,0,0,0-4.484,0c-4.894,3.067-20.535,42.463,2.242,42.463,21.518,0,7.135-39.4,2.242-42.463" transform="translate(25.862 22.527)" fill="#97c266"/>
        <path id="Trazado_105054" data-name="Trazado 105054" d="M186.508,185.224c-.335-14.978,4.1-26.129,3.381-25.675-4.721,2.959-18.6,40.977,2.164,40.977,0,0-5.215-.425-5.545-15.3" transform="translate(25.815 22.758)" fill="#71924d"/>
        <path id="Trazado_105055" data-name="Trazado 105055" d="M191.528,177.623l-1.5,29.1c.357-.017,2.688.021,3.044,0-.111-12.448-1.239-29.1-1.464-29.1,0,0-.082-.341-.082,0" transform="translate(27.108 25.317)" fill="#624800"/>
        <path id="Trazado_105056" data-name="Trazado 105056" d="M187.918,190.3a19.167,19.167,0,0,1-3.781-3.76c4.268,6.866,8.191,6.666,8.191,6.666l.082-.968s-.843.643-4.492-1.938" transform="translate(26.268 26.611)" fill="#624800"/>
        <path id="Trazado_105057" data-name="Trazado 105057" d="M195.194,188.11c-3.1,2.2-3.818,1.647-3.818,1.647l.071.823s3.333.17,6.96-5.665a16.331,16.331,0,0,1-3.213,3.2" transform="translate(27.3 26.379)" fill="#624800"/>
        <path id="Trazado_105058" data-name="Trazado 105058" d="M189,183.933a13.162,13.162,0,0,1-2.594-2.579c2.927,4.71,5.618,4.572,5.618,4.572l.057-.663s-.579.441-3.082-1.33" transform="translate(26.592 25.871)" fill="#624800"/>
        <path id="Trazado_105059" data-name="Trazado 105059" d="M125.341,158.393a4.29,4.29,0,0,0-4.484,0c-4.894,3.067-20.535,42.463,2.242,42.463,21.518,0,7.135-39.4,2.242-42.463" transform="translate(15.843 22.505)" fill="#009969"/>
        <path id="Trazado_105060" data-name="Trazado 105060" d="M116.271,185.073c-.334-14.978,4.106-26.129,3.382-25.675-4.721,2.959-18.6,40.977,2.164,40.977,0,0-5.215-.425-5.546-15.3" transform="translate(15.795 22.737)" fill="#00744c"/>
        <path id="Trazado_105061" data-name="Trazado 105061" d="M121.291,177.472l-1.5,29.1c.357-.017,2.689.021,3.044,0-.111-12.449-1.237-29.1-1.464-29.1,0,0-.082-.342-.082,0" transform="translate(17.089 25.295)" fill="#624800"/>
        <path id="Trazado_105062" data-name="Trazado 105062" d="M117.681,190.151a19.167,19.167,0,0,1-3.781-3.76c4.268,6.866,8.189,6.666,8.189,6.666l.083-.968s-.843.644-4.492-1.938" transform="translate(16.248 26.589)" fill="#624800"/>
        <path id="Trazado_105063" data-name="Trazado 105063" d="M124.958,187.959c-3.1,2.194-3.818,1.647-3.818,1.647l.071.823s3.333.17,6.96-5.665a16.331,16.331,0,0,1-3.213,3.2" transform="translate(17.281 26.357)" fill="#624800"/>
        <path id="Trazado_105064" data-name="Trazado 105064" d="M118.767,183.781a13.162,13.162,0,0,1-2.594-2.579c2.927,4.71,5.618,4.572,5.618,4.572l.057-.663s-.579.441-3.082-1.33" transform="translate(16.572 25.849)" fill="#624800"/>
        <path id="Trazado_105065" data-name="Trazado 105065" d="M140.057,151.489a5.051,5.051,0,0,0-5.277,0c-5.759,3.609-24.167,49.974,2.638,49.974,25.323,0,8.4-46.365,2.638-49.974" transform="translate(17.582 21.504)" fill="#00b452"/>
        <path id="Trazado_105066" data-name="Trazado 105066" d="M129.777,183.161c-.4-17.79,4.876-31.034,4.018-30.5-5.608,3.515-22.093,48.669,2.57,48.669,0,0-6.194-.5-6.587-18.173" transform="translate(17.573 21.776)" fill="#00873e"/>
        <path id="Trazado_105067" data-name="Trazado 105067" d="M135.554,174.632l-1.666,32.345c.4-.018,2.989.023,3.385,0-.123-13.838-1.377-32.345-1.627-32.345,0,0-.091-.379-.091,0" transform="translate(19.1 24.888)" fill="#624800"/>
        <path id="Trazado_105068" data-name="Trazado 105068" d="M131.542,188.727a21.328,21.328,0,0,1-4.2-4.18c4.743,7.632,9.1,7.409,9.1,7.409l.093-1.075s-.938.716-4.993-2.154" transform="translate(18.165 26.326)" fill="#624800"/>
        <path id="Trazado_105069" data-name="Trazado 105069" d="M139.63,186.29c-3.446,2.438-4.243,1.831-4.243,1.831l.078.914s3.706.19,7.737-6.3a18.1,18.1,0,0,1-3.572,3.552" transform="translate(19.313 26.068)" fill="#624800"/>
        <path id="Trazado_105070" data-name="Trazado 105070" d="M132.749,181.645a14.621,14.621,0,0,1-2.883-2.866c3.254,5.236,6.245,5.083,6.245,5.083l.063-.738s-.642.49-3.425-1.479" transform="translate(18.526 25.503)" fill="#624800"/>
        <path id="Trazado_105071" data-name="Trazado 105071" d="M117.345,173.07a9.349,9.349,0,1,0-18.7,0,9.245,9.245,0,0,0,.1,1.316,11.867,11.867,0,1,0,18.492,0,9.416,9.416,0,0,0,.1-1.316" transform="translate(13.713 23.355)" fill="#c2d56a"/>
        <path id="Trazado_105072" data-name="Trazado 105072" d="M106.992,171.887l-.513,34.97a.513.513,0,0,0,.513.513h.067a.513.513,0,0,0,.513-.513s-.23-34.97-.513-34.97c0,0-.067-.283-.067,0" transform="translate(15.19 24.502)" fill="#624800"/>
        <path id="Trazado_105073" data-name="Trazado 105073" d="M104.134,182.421a15.809,15.809,0,0,1-3.085-3.124c3.482,5.7,6.683,5.537,6.683,5.537l.067-.8s-.688.535-3.666-1.61" transform="translate(14.415 25.577)" fill="#624800"/>
        <path id="Trazado_105074" data-name="Trazado 105074" d="M110.073,180.6c-2.53,1.823-3.115,1.368-3.115,1.368l.057.683s2.721.142,5.68-4.705a13.429,13.429,0,0,1-2.622,2.654" transform="translate(15.258 25.384)" fill="#624800"/>
        <path id="Trazado_105075" data-name="Trazado 105075" d="M105.021,177.128a10.844,10.844,0,0,1-2.116-2.142c2.388,3.912,4.584,3.8,4.584,3.8l.047-.551s-.473.367-2.515-1.1" transform="translate(14.68 24.962)" fill="#624800"/>
        <path id="Trazado_105076" data-name="Trazado 105076" d="M73.269,181.123a6.706,6.706,0,1,0-13.337.944,8.512,8.512,0,1,0,13.263,0,6.756,6.756,0,0,0,.074-.944" transform="translate(8.281 24.881)" fill="#c2d56a"/>
        <path id="Trazado_105077" data-name="Trazado 105077" d="M65.843,180.274l-.368,25.081a.369.369,0,0,0,.368.369h.048a.369.369,0,0,0,.368-.369s-.165-25.081-.368-25.081c0,0-.048-.2-.048,0" transform="translate(9.34 25.704)" fill="#624800"/>
        <path id="Trazado_105078" data-name="Trazado 105078" d="M63.794,187.83a11.353,11.353,0,0,1-2.213-2.241c2.5,4.092,4.793,3.972,4.793,3.972l.049-.576s-.494.383-2.629-1.155" transform="translate(8.785 26.475)" fill="#624800"/>
        <path id="Trazado_105079" data-name="Trazado 105079" d="M68.053,186.523c-1.815,1.307-2.234.982-2.234.982l.041.49s1.951.1,4.074-3.375a9.665,9.665,0,0,1-1.881,1.9" transform="translate(9.389 26.336)" fill="#624800"/>
        <path id="Trazado_105080" data-name="Trazado 105080" d="M64.43,184.034a7.816,7.816,0,0,1-1.519-1.537c1.714,2.806,3.289,2.724,3.289,2.724l.033-.4s-.338.263-1.8-.792" transform="translate(8.974 26.034)" fill="#624800"/>
        <path id="Trazado_105081" data-name="Trazado 105081" d="M61.335,199.237a2.59,2.59,0,0,0-1.666.606c.009-.121.019-.243.019-.367a4.952,4.952,0,0,0-8.78-3.141,3.47,3.47,0,0,0-1.062-.168,3.425,3.425,0,0,0-1.432.314A6.9,6.9,0,0,0,34.7,197.528c0,.033,0,.064,0,.1a3.449,3.449,0,1,0-.807,6.8v.128H61.7V204.4a2.594,2.594,0,0,0-.361-5.163" transform="translate(4.344 27.194)" fill="#93b033"/>
        <path id="Trazado_105082" data-name="Trazado 105082" d="M40.368,190.81a6.309,6.309,0,1,0,0,12.617s-3.623-1.146-3.9-6.309a6.482,6.482,0,0,1,3.9-6.309" transform="translate(4.859 27.22)" fill="#6d9300"/>
        <path id="Trazado_105083" data-name="Trazado 105083" d="M47.907,195.546a3.289,3.289,0,0,0-3.238,3.338,3.675,3.675,0,0,1,6.575-.1,3.289,3.289,0,0,0-3.337-3.239" transform="translate(6.372 27.895)" fill="#6d9300"/>
        <path id="Trazado_105084" data-name="Trazado 105084" d="M130.2,145.114a4.838,4.838,0,0,0-1.492,1.767,4.856,4.856,0,0,0-2.131-.825c-1.883-.278-3.271.378-3.443,1.544,0,0,.521-1.057,3.325-.738a5.083,5.083,0,0,1,2.034.638l-.051,1.453.7-.16.816-.186-.742-1.267a6.625,6.625,0,0,1,1.475-1.572c2-1.6,3.271-.947,3.271-.947-.705-.944-2.235-.847-3.759.295" transform="translate(17.565 20.567)" fill="#84888a"/>
        <path id="Trazado_105085" data-name="Trazado 105085" d="M72.8,117.868a4.178,4.178,0,0,0-1.226,1.641,4.1,4.1,0,0,0-1.831-.834c-1.607-.309-2.771.28-2.889,1.381,0,0,.417-.991,2.807-.62a4.208,4.208,0,0,1,1.744.654l-.009,1.377.59-.135.688-.158-.66-1.219a5.649,5.649,0,0,1,1.216-1.457c1.658-1.471,2.758-.819,2.758-.819-.623-.912-1.921-.856-3.188.19" transform="translate(9.537 16.696)" fill="#84888a"/>
        <path id="Trazado_105086" data-name="Trazado 105086" d="M70.705,131.991a2.434,2.434,0,0,0-.762.875,2.467,2.467,0,0,0-1.078-.4c-.953-.13-1.659.2-1.751.771,0,0,.267-.522,1.688-.375a2.613,2.613,0,0,1,1.03.307l-.032.715.354-.081.414-.095-.371-.62a3.345,3.345,0,0,1,.753-.779c1.017-.8,1.661-.478,1.661-.478-.354-.463-1.13-.409-1.906.158" transform="translate(9.574 18.762)" fill="#84888a"/>
        <path id="Trazado_105087" data-name="Trazado 105087" d="M44.281,125.473a3.34,3.34,0,0,0-1.04,1.193,3.341,3.341,0,0,0-1.467-.544c-1.3-.177-2.261.27-2.385,1.052,0,0,.365-.712,2.3-.512a3.554,3.554,0,0,1,1.4.418l-.042.976.482-.111.564-.129-.506-.847a4.613,4.613,0,0,1,1.026-1.062c1.386-1.083,2.264-.651,2.264-.651-.482-.63-1.539-.556-2.6.216" transform="translate(5.619 17.808)" fill="#84888a"/>
        <path id="Trazado_105088" data-name="Trazado 105088" d="M130.774,137.5a1.766,1.766,0,0,0-.554.636,1.8,1.8,0,0,0-.783-.29c-.694-.095-1.207.144-1.273.561,0,0,.194-.379,1.227-.273a1.9,1.9,0,0,1,.747.224l-.023.52.258-.059.3-.069-.27-.451a2.431,2.431,0,0,1,.547-.567c.739-.578,1.208-.347,1.208-.347-.257-.336-.822-.3-1.386.115" transform="translate(18.283 19.566)" fill="#84888a"/>
        <path id="Trazado_105089" data-name="Trazado 105089" d="M216.621,200.96a1.663,1.663,0,0,0-1.07.389c.007-.078.013-.155.013-.235a3.178,3.178,0,0,0-5.636-2.016,2.192,2.192,0,0,0-1.6.094,4.425,4.425,0,0,0-8.8.672c0,.022,0,.041,0,.063a2.214,2.214,0,1,0-.518,4.366v.082h17.84v-.1a1.665,1.665,0,0,0-.232-3.314" transform="translate(28.074 27.879)" fill="#93b033"/>
        <path id="Trazado_105090" data-name="Trazado 105090" d="M203.163,195.551a4.049,4.049,0,1,0,0,8.1s-2.325-.735-2.5-4.048a4.161,4.161,0,0,1,2.5-4.05" transform="translate(28.404 27.896)" fill="#6d9300"/>
        <path id="Trazado_105091" data-name="Trazado 105091" d="M208,198.591a2.11,2.11,0,0,0-2.078,2.141,2.359,2.359,0,0,1,4.22-.063A2.11,2.11,0,0,0,208,198.591" transform="translate(29.376 28.33)" fill="#6d9300"/>
        <path id="Trazado_105092" data-name="Trazado 105092" d="M99.337,199.314a2.3,2.3,0,0,0-.535.065c0-.022,0-.042,0-.064a4.565,4.565,0,0,0-9.078-.694,2.265,2.265,0,0,0-.947-.208,2.3,2.3,0,0,0-.7.111,3.279,3.279,0,0,0-5.814,2.08c0,.082.007.162.013.243a1.717,1.717,0,1,0-1.341,3.017v.1h18.4v-.085a2.285,2.285,0,0,0,0-4.569" transform="translate(11.334 27.781)" fill="#789c00"/>
        <path id="Trazado_105093" data-name="Trazado 105093" d="M92.81,194.867a4.291,4.291,0,0,1,2.582,4.176c-.183,3.419-2.582,4.178-2.582,4.178a4.177,4.177,0,1,0,0-8.354" transform="translate(13.24 27.798)" fill="#00744c"/>
        <path id="Trazado_105094" data-name="Trazado 105094" d="M87.84,198a2.176,2.176,0,0,0-2.209,2.144,2.433,2.433,0,0,1,4.352.065A2.176,2.176,0,0,0,87.84,198" transform="translate(12.216 28.246)" fill="#00744c"/>
        <path id="Trazado_105095" data-name="Trazado 105095" d="M85.223,175.073a8.6,8.6,0,1,0-17.106,1.21,10.917,10.917,0,1,0,17.011,0,8.616,8.616,0,0,0,.095-1.21" transform="translate(9.373 23.748)" fill="#97c266"/>
        <path id="Trazado_105096" data-name="Trazado 105096" d="M75.7,173.983l-.472,32.169a.472.472,0,0,0,.472.472h.062a.472.472,0,0,0,.472-.472s-.211-32.169-.472-32.169c0,0-.062-.261-.062,0" transform="translate(10.731 24.803)" fill="#624800"/>
        <path id="Trazado_105097" data-name="Trazado 105097" d="M73.07,183.674a14.553,14.553,0,0,1-2.838-2.874c3.2,5.247,6.149,5.094,6.149,5.094l.062-.739s-.633.493-3.372-1.481" transform="translate(10.019 25.792)" fill="#624800"/>
        <path id="Trazado_105098" data-name="Trazado 105098" d="M78.533,182c-2.328,1.677-2.866,1.26-2.866,1.26l.053.626s2.5.131,5.225-4.327A12.327,12.327,0,0,1,78.533,182" transform="translate(10.794 25.614)" fill="#624800"/>
        <path id="Trazado_105099" data-name="Trazado 105099" d="M73.886,178.806a9.97,9.97,0,0,1-1.947-1.971c2.2,3.6,4.218,3.494,4.218,3.494l.043-.507s-.435.338-2.314-1.016" transform="translate(10.262 25.226)" fill="#624800"/>
        <path id="Trazado_105100" data-name="Trazado 105100" d="M313.811,90.922a6.447,6.447,0,1,0,6.448,6.448,6.448,6.448,0,0,0-6.448-6.448" transform="translate(43.846 12.97)" fill="#aaabb0"/>
        <path id="Trazado_105101" data-name="Trazado 105101" d="M265.311,90.373a4.1,4.1,0,1,0,4.1,4.1,4.1,4.1,0,0,0-4.1-4.1" transform="translate(37.262 12.892)" fill="#aaabb0"/>
        <path id="Trazado_105102" data-name="Trazado 105102" d="M274.055,76.818a7.927,7.927,0,1,0,7.927,7.928,7.927,7.927,0,0,0-7.927-7.928" transform="translate(37.964 10.958)" fill="#c8c7c7"/>
        <path id="Trazado_105103" data-name="Trazado 105103" d="M304.823,102.876a2.712,2.712,0,1,0,2.736,2.689,2.712,2.712,0,0,0-2.736-2.689" transform="translate(43.1 14.676)" fill="#aaabb0"/>
        <path id="Trazado_105104" data-name="Trazado 105104" d="M393.288,84.173l-.551.01A8.477,8.477,0,0,0,382.3,76.09a9.926,9.926,0,0,0-19.171,1.715,7.878,7.878,0,0,0-1.031-.056,7.747,7.747,0,0,0-7.6,7.681,14.257,14.257,0,0,0-9.777,10.363l60.443-1.124c-1.676-6.094-5.292-10.621-11.884-10.5" transform="translate(49.177 9.906)" fill="#95969c"/>
        <path id="Trazado_105105" data-name="Trazado 105105" d="M393.363,84.21l-.551.007a8.479,8.479,0,0,0-10.378-8.167,9.926,9.926,0,0,0-19.183,1.584,7.689,7.689,0,0,0-8.68,7.564,14.261,14.261,0,0,0-9.849,10.294l60.963-.708c-1.635-6.105-5.732-10.654-12.324-10.574" transform="translate(49.176 9.891)" fill="#95969c"/>
        <path id="Trazado_105106" data-name="Trazado 105106" d="M360.09,76.5s5.288,1.717,5.023,6.647A7.117,7.117,0,0,1,360.09,89.8a6.647,6.647,0,0,0,0-13.295" transform="translate(51.368 10.913)" fill="#a3a1a1"/>
        <path id="Trazado_105107" data-name="Trazado 105107" d="M390.07,82.314a9.812,9.812,0,0,0-9.957,9.663s2.63-8.245,9.9-7.745a10.765,10.765,0,0,1,9.719,8.039,9.811,9.811,0,0,0-9.663-9.957" transform="translate(54.224 11.742)" fill="#a3a1a1"/>
        <path id="Trazado_105108" data-name="Trazado 105108" d="M92.536,44.52a4.889,4.889,0,1,0,4.889,4.889,4.89,4.89,0,0,0-4.889-4.889" transform="translate(12.503 6.351)" fill="#dceef7"/>
        <path id="Trazado_105109" data-name="Trazado 105109" d="M68.886,56.232A1.818,1.818,0,1,0,70.7,58.05a1.817,1.817,0,0,0-1.818-1.818" transform="translate(9.567 8.022)" fill="#fff"/>
        <path id="Trazado_105110" data-name="Trazado 105110" d="M151.695,103.972A2.306,2.306,0,1,0,154,106.278a2.306,2.306,0,0,0-2.306-2.306" transform="translate(21.311 14.832)" fill="#fff"/>
        <path id="Trazado_105111" data-name="Trazado 105111" d="M123.433,116.569a11.7,11.7,0,1,0,11.7,11.7,11.7,11.7,0,0,0-11.7-11.7" transform="translate(15.939 16.629)" fill="#fdffb2"/>
        <path id="Trazado_105112" data-name="Trazado 105112" d="M123.784,116.569a11.7,11.7,0,1,0,0,23.4s-6.351-5.852-6.351-11.7,6.351-11.7,6.351-11.7" transform="translate(15.989 16.629)" fill="#fff566"/>
        <path id="Trazado_105113" data-name="Trazado 105113" d="M294.745,60.491h-13.5a7.467,7.467,0,0,0,0,14.933h13.5a7.467,7.467,0,0,0,0-14.933" transform="translate(39.056 8.629)" fill="#aaabb0"/>
        <path id="Trazado_105114" data-name="Trazado 105114" d="M286.343,0h-13.5a7.467,7.467,0,0,0,0,14.933h13.5a7.467,7.467,0,0,0,0-14.933" transform="translate(37.857)" fill="#c8c7c7"/>
        <path id="Trazado_105115" data-name="Trazado 105115" d="M228.224,77.221H221.7V92.154h6.525a7.467,7.467,0,0,0,0-14.933" transform="translate(31.626 11.016)" fill="#aaabb0"/>
        <path id="Trazado_105116" data-name="Trazado 105116" d="M326.645,38.385h-21.6a11.948,11.948,0,0,0,0,23.9h21.6a11.948,11.948,0,0,0,0-23.9" transform="translate(41.811 5.476)" fill="#c8c7c7"/>
        <path id="Trazado_105117" data-name="Trazado 105117" d="M355.371,52.141H317.13a7.613,7.613,0,0,0,0,15.227h38.24a7.613,7.613,0,0,0,0-15.227" transform="translate(44.153 7.438)" fill="#c8c7c7"/>
        <path id="Trazado_105118" data-name="Trazado 105118" d="M174.455,276.941H155.772a3.719,3.719,0,1,0,0,7.439h18.682a3.719,3.719,0,1,0,0-7.439" transform="translate(21.691 39.506)" fill="#a1d1e0"/>
        <path id="Trazado_105119" data-name="Trazado 105119" d="M167.891,258.3h-57.7c-6.318,0-9.2,2.458-9.2,5.463s2.884,5.462,9.2,5.462h57.7c6.318,0,9.2-2.458,9.2-5.462s-2.884-5.463-9.2-5.463" transform="translate(14.407 36.847)" fill="#a1d1e0"/>
        <path id="Trazado_105120" data-name="Trazado 105120" d="M327.885,246.975H305.7a4.417,4.417,0,1,0,0,8.834h22.185a4.417,4.417,0,0,0,0-8.834" transform="translate(42.979 35.232)" fill="#aaabb0"/>
        <path id="Trazado_105121" data-name="Trazado 105121" d="M317.944,251.849H281.729a7.21,7.21,0,0,0,0,14.42h36.215a7.21,7.21,0,0,0,0-14.42" transform="translate(39.161 35.927)" fill="#aaabb0"/>
        <path id="Trazado_105122" data-name="Trazado 105122" d="M139.163,247.243a6.529,6.529,0,0,1-.764.054,9.271,9.271,0,0,1-7.035-3.7l-.166-.211-.175.206c-1.226,1.4-3.77,3.74-7.012,3.74a9.191,9.191,0,0,1-6.972-3.733l-.166-.21-.176.2a10.285,10.285,0,0,1-5.708,3.621l-.16.03.082.438.16-.03a10.579,10.579,0,0,0,5.783-3.569,9.575,9.575,0,0,0,7.122,3.7h.034c3.281,0,5.857-2.254,7.172-3.7a9.656,9.656,0,0,0,7.185,3.666,7.073,7.073,0,0,0,.858-.058l.173-.022-.086-.436Z" transform="translate(15.81 34.719)" fill="#0065c4"/>
        <path id="Trazado_105123" data-name="Trazado 105123" d="M139.238,248.9a6.666,6.666,0,0,1-.839.063,9.272,9.272,0,0,1-7.036-3.7l-.165-.21-.175.206c-1.227,1.4-3.77,3.74-7.012,3.74a9.193,9.193,0,0,1-6.974-3.733l-.165-.21-.177.2a10.281,10.281,0,0,1-5.708,3.621l-.159.03.082.438.16-.031a10.565,10.565,0,0,0,5.782-3.569,9.575,9.575,0,0,0,7.123,3.7h.034c3.281,0,5.857-2.254,7.171-3.7a9.656,9.656,0,0,0,7.185,3.666,7.151,7.151,0,0,0,.913-.063l.146-.019-.006-.447Z" transform="translate(15.81 34.958)" fill="#0065c4"/>
        <path id="Trazado_105124" data-name="Trazado 105124" d="M138.4,250.639a9.271,9.271,0,0,1-7.035-3.7l-.166-.211-.175.206c-1.226,1.4-3.77,3.74-7.012,3.74a9.188,9.188,0,0,1-6.972-3.733l-.166-.21-.176.2a10.283,10.283,0,0,1-5.708,3.621l-.16.03.082.438.16-.03a10.579,10.579,0,0,0,5.783-3.569,9.575,9.575,0,0,0,7.122,3.7h.034c3.281,0,5.857-2.254,7.172-3.7a9.656,9.656,0,0,0,7.185,3.666,7.024,7.024,0,0,0,.906-.065l.137-.018,0-.448-.184.024a6.346,6.346,0,0,1-.833.063" transform="translate(15.81 35.196)" fill="#0065c4"/>
        <path id="Trazado_105125" data-name="Trazado 105125" d="M473.965,202.4H27.983c-14.881,0-13.626,14.639,0,14.639H473.965c12.373,0,11.118-14.639,0-14.639" transform="translate(2.466 28.873)" fill="#009969"/>
        <path id="Trazado_105126" data-name="Trazado 105126" d="M437.8,228.027a8.418,8.418,0,0,0-1.3-.107H57.931c-11.892.121-12.728,12.354,0,12.354H437.15c7.01,0,6.8-11.281.65-12.247" transform="translate(6.947 32.513)" fill="#84888a"/>
        <path id="Trazado_105127" data-name="Trazado 105127" d="M498.723,215.351a10.062,10.062,0,0,0-1.539-.139H11c-14.461,0-14.878,14.642,0,14.642H497.958c9.013,0,9.486-13.141.766-14.5" transform="translate(0 30.701)" fill="#00744c"/>
        <path id="Trazado_105128" data-name="Trazado 105128" d="M444.908,202.4H220.977V217.04H444.908c12.373,0,11.118-14.639,0-14.639" transform="translate(31.523 28.873)" fill="#cf9e50"/>
        <path id="Trazado_105129" data-name="Trazado 105129" d="M413.287,228.026H220.976v12.233h191.6c6.985,0,6.8-11.2.713-12.233" transform="translate(31.523 32.529)" fill="#84888a"/>
        <path id="Trazado_105130" data-name="Trazado 105130" d="M467.2,215.351a10.061,10.061,0,0,0-1.539-.139H220.977v14.521H411.922a8.414,8.414,0,0,1,1.3.107c.022,0,.042.01.064.014h53.147c9.014,0,9.487-13.141.767-14.5" transform="translate(31.523 30.701)" fill="#ab6e37"/>
        <path id="Trazado_105131" data-name="Trazado 105131" d="M411.921,227.92H220.977v.121h192.31c-.022,0-.041-.01-.063-.014a8.429,8.429,0,0,0-1.3-.107" transform="translate(31.523 32.513)" fill="#ab6e37"/>
        <path id="Trazado_105132" data-name="Trazado 105132" d="M293.58,114.168l-4.563,101.658,16.888.2-2.155-101.738Z" transform="translate(41.229 16.286)" fill="#a3a1a1"/>
        <path id="Trazado_105133" data-name="Trazado 105133" d="M289.017,215.826l8.444.1,1.2-101.7-5.086-.061Z" transform="translate(41.229 16.286)" fill="#757474"/>
        <path id="Trazado_105134" data-name="Trazado 105134" d="M297.968,135.7l-5.831-.069-.265,5.9,6.026.071,6.025.072-.125-5.908Z" transform="translate(41.636 19.348)" fill="#edecec"/>
        <path id="Trazado_105135" data-name="Trazado 105135" d="M297.9,147.783l-6.3-.074-.387,8.628,6.585.078,6.584.079-.183-8.636Z" transform="translate(41.542 21.071)" fill="#edecec"/>
      </g>
    </g>
  </g>
</svg>
