<svg id="Grupo_58006" data-name="Grupo 58006" xmlns="http://www.w3.org/2000/svg" xmlns:xlink="http://www.w3.org/1999/xlink" width="135.854" height="177.657" viewBox="0 0 135.854 177.657">
  <defs>
    <clipPath id="clip-path">
      <rect id="Rectángulo_6479" data-name="Rectángulo 6479" width="135.854" height="177.657" fill="none"/>
    </clipPath>
  </defs>
  <path id="Trazado_113644" data-name="Trazado 113644" d="M75.488,145.918l20.377-15.4,5.565,35ZM42.6,130.157l20.857,15.761L36.9,165.984Zm1.291-8.113.217-1.369,25.366-19.167,24.75,18.7.349,2.2-25.1,18.966Zm31.6-25.08L88.914,86.819l3.668,23.061ZM49.551,86.454l13.907,10.51-17.706,13.38ZM86.4,71l1.225,7.706L69.476,92.418,50.841,78.34,52.01,71l-7.162-1.14L29.257,167.9l4.222.672-2.756,2.082,4.373,5.785,34.379-25.976,34.379,25.976,4.369-5.785-2.847-2.153,3.776-.6L93.561,69.859Z" transform="translate(0.203 0.485)" fill="#517774"/>
  <path id="Trazado_113645" data-name="Trazado 113645" d="M85.686,86.7,72.257,96.846l17.1,12.916-.369-2.309L74.946,96.846l11.028-8.331Z" transform="translate(0.502 0.602)" fill="#446360"/>
  <path id="Trazado_113646" data-name="Trazado 113646" d="M42.037,131.554l-2.4-1.814-5.7,35.826L37,163.259Z" transform="translate(0.236 0.902)" fill="#446360"/>
  <path id="Trazado_113647" data-name="Trazado 113647" d="M67.805,140.138,43.567,121.825l.217-1.368L67.805,102.3l-1.343-1.016L41.1,120.456l-.217,1.368,25.582,19.33Z" transform="translate(0.284 0.704)" fill="#446360"/>
  <path id="Trazado_113648" data-name="Trazado 113648" d="M42.727,110.229l3.056-2.309,3.142-19.767-2.4-1.814Z" transform="translate(0.297 0.6)" fill="#446360"/>
  <path id="Trazado_113649" data-name="Trazado 113649" d="M90.272,70.275,105.795,167.9l-3.776.6,2.852,2.153-3.4,4.492,1.71,1.293,4.374-5.785-2.849-2.153,3.775-.6L92.892,69.858Z" transform="translate(0.627 0.485)" fill="#446360"/>
  <path id="Trazado_113650" data-name="Trazado 113650" d="M92.635,130.1,72.258,145.5,98.2,165.1l-.367-2.307L74.946,145.5l17.977-13.584Z" transform="translate(0.502 0.904)" fill="#446360"/>
  <path id="Trazado_113651" data-name="Trazado 113651" d="M33.841,174.589l.98,1.294,33.034-24.961-1.343-1.015Z" transform="translate(0.235 1.042)" fill="#446360"/>
  <path id="Trazado_113652" data-name="Trazado 113652" d="M48.971,71l-1.166,7.341L66.438,92.418,67.781,91.4,50.493,78.339,51.661,71,44.5,69.858l-.066.417Z" transform="translate(0.309 0.485)" fill="#446360"/>
  <g id="Grupo_57890" data-name="Grupo 57890">
    <g id="Grupo_57889" data-name="Grupo 57889" clip-path="url(#clip-path)">
      <path id="Trazado_113653" data-name="Trazado 113653" d="M59.627,58.364a1.39,1.39,0,0,0,1.982-1.857C54.519,44.531,37.016,21.232,12.8,31.767-19.211,45.7,16.954,71.111,33.083,58.158c10.308-8.278,20.519-3.976,26.544.205" transform="translate(0 0.202)" fill="#2f4442"/>
      <path id="Trazado_113654" data-name="Trazado 113654" d="M75.718,58.364a1.39,1.39,0,0,1-1.982-1.857c7.089-11.976,24.593-35.275,48.807-24.74,32.012,13.929-4.154,39.343-20.282,26.391-10.309-8.278-20.52-3.976-26.543.205" transform="translate(0.511 0.202)" fill="#2f4442"/>
      <path id="Trazado_113655" data-name="Trazado 113655" d="M71.325,43.211S90.63,16.82,77.434,5.09,52.753,4.112,53,15.109,68.636,50.053,68.636,50.053Z" transform="translate(0.368 0)" fill="#2f4442"/>
      <path id="Trazado_113656" data-name="Trazado 113656" d="M121.982,176.534H16.574a3.143,3.143,0,0,1-3.132-3.134v-8.685a3.143,3.143,0,0,1,3.132-3.133H121.982a3.142,3.142,0,0,1,3.133,3.133V173.4a3.141,3.141,0,0,1-3.133,3.134" transform="translate(0.093 1.123)" fill="#517774"/>
      <path id="Trazado_113657" data-name="Trazado 113657" d="M122.183,161.583H16.372a2.939,2.939,0,0,0-2.93,2.932v.734H116.074a2.94,2.94,0,0,1,2.932,2.932v8.353h3.177a2.941,2.941,0,0,0,2.931-2.931v-9.088a2.941,2.941,0,0,0-2.931-2.932" transform="translate(0.093 1.123)" fill="#3c5654"/>
      <path id="Trazado_113658" data-name="Trazado 113658" d="M94.527,72.783H43.654a3.144,3.144,0,0,1-3.136-3.134V68.086a3.146,3.146,0,0,1,3.136-3.136H94.527a3.145,3.145,0,0,1,3.136,3.136v1.564a3.143,3.143,0,0,1-3.136,3.134" transform="translate(0.282 0.451)" fill="#517774"/>
    </g>
  </g>
</svg>
