<svg id="Grupo_80403" data-name="Grupo 80403" xmlns="http://www.w3.org/2000/svg" xmlns:xlink="http://www.w3.org/1999/xlink" width="117.062" height="128" viewBox="0 0 117.062 128">
  <defs>
    <clipPath id="clip-path">
      <rect id="Rectángulo_34041" data-name="Rectángulo 34041" width="117.062" height="128.001" fill="#12263f"/>
    </clipPath>
  </defs>
  <g id="Grupo_80402" data-name="Grupo 80402" transform="translate(0 0)" clip-path="url(#clip-path)">
    <path id="Trazado_113900" data-name="Trazado 113900" d="M36.67,107.081c7.672-6.16.562-19.154-3.127-25.566-2.754-4.789-6.8-8.656-9.4-13.58-3.019-5.71-2.919-12.948-2.936-19.216-.026-8.583-13.4-8.586-13.313,0,.117,11.1,1.517,21.89,8.213,31.074,3.253,4.462,7.03,8.457,10.146,13.043,2.876,4.238,3.21,9.508,5.9,13.663a2.936,2.936,0,0,0,4.518.582" transform="translate(2.357 12.623)" fill="#12263f"/>
    <path id="Trazado_113901" data-name="Trazado 113901" d="M18.469,75.784c11.482-1.5,11.891-20.587,9.944-28.865-.979-4.164-7.333-2.4-6.391,1.762a30.334,30.334,0,0,1-4.877,24.8,1.54,1.54,0,0,0,1.325,2.308" transform="translate(5.052 13.298)" fill="#12263f"/>
    <path id="Trazado_113902" data-name="Trazado 113902" d="M33.317,81.146a106.8,106.8,0,0,1-14.132-3.131c-5.351-1.463-7.856-3.928-11.571-7.646-3.472-3.475-8.2.184-7.554,4.4C1.078,81.414,9.623,85.176,15.409,86.4a28.36,28.36,0,0,0,18.78-2.036c1.74-.83.623-3.024-.871-3.217" transform="translate(0 20.595)" fill="#12263f"/>
    <path id="Trazado_113903" data-name="Trazado 113903" d="M34.908,115.856c1.249-2.385,1.566-5.018,2.4-7.58,1.4-4.3,3.3-8.455,5.115-12.593,3.631-8.285,8.329-16.066,12.03-24.327a79.425,79.425,0,0,0,6.762-24.214c.918-8.833-1.254-16.644-1.68-25.323-.387-7.881-12.7-7.9-12.27,0,.462,8.62,2.792,16.579,2.143,25.323-.7,9.387-4.511,18.341-8.5,26.728-3.716,7.811-7.65,15.59-10.072,23.923-1.617,5.566-3.964,13.7.29,18.55a2.421,2.421,0,0,0,3.785-.487" transform="translate(8.572 4.747)" fill="#12263f"/>
    <path id="Trazado_113904" data-name="Trazado 113904" d="M51.054,64.776A77,77,0,0,1,37.374,40.64c-2.94-9.011-1.266-18.555-3.646-27.547-1.257-4.753-8.369-4.777-9.614,0C21.452,23.3,23.648,35.909,27.2,45.664,31.007,56.1,39.109,63.065,48.8,67.7a1.871,1.871,0,0,0,2.257-2.926" transform="translate(6.847 2.842)" fill="#12263f"/>
    <path id="Trazado_113905" data-name="Trazado 113905" d="M35.905,36.16c-4.2-2.561-8.848-4.236-13.088-6.736-4.794-2.828-6.8-7.911-11.145-10.951C9.556,16.993,5.7,18.39,5.313,21.06,3.284,35.069,24.17,42.925,35.225,41.366c2.592-.365,2.572-4.051.68-5.206" transform="translate(1.545 5.336)" fill="#12263f"/>
    <path id="Trazado_113906" data-name="Trazado 113906" d="M51.424,51.751c9.186.049,15.348-9.865,18.661-17.233,4.175-9.279,7.51-20.069,4.668-30.163C72.606-3.284,60.71-.035,62.868,7.632a38.852,38.852,0,0,1-.18,22.025c-2.445,7.729-7.29,12.809-12.8,18.4a2.183,2.183,0,0,0,1.532,3.694" transform="translate(14.712 0)" fill="#12263f"/>
    <path id="Trazado_113907" data-name="Trazado 113907" d="M35.885,109.618c6.358-10.5,18.943-15.167,29.311-20.6C81.187,80.645,87.551,66,83.512,48.476c-1.674-7.265-13.4-5.723-13.021,1.762.432,8.551,1.934,15.418-4.445,22.171C61.631,77.083,55.782,80.116,50.392,83.5c-8.006,5.028-22.283,14.292-18.461,25.6a2.185,2.185,0,0,0,3.954.517" transform="translate(9.343 13.064)" fill="#12263f"/>
    <path id="Trazado_113908" data-name="Trazado 113908" d="M65.414,75.779c6.833,4.262,17.1-4.4,21.118-9.321C92.791,58.783,96.6,45.445,91.506,36.4c-2.248-4-8.08-2.034-8.268,2.239-.458,10.316-.332,18.616-8.505,26.187-1.332,1.232-15.019,7.4-9.318,10.957" transform="translate(19.117 10.217)" fill="#12263f"/>
    <path id="Trazado_113909" data-name="Trazado 113909" d="M59.94,77.131c.418-1.274-.426-2.289-.828-3.42a15,15,0,0,1-.458-5.725c.17-3.68,1.449-8.434.582-12.017-.723-2.985-4.681-3.183-6.208-.812-2.628,4.081-1.695,11.918-.705,16.363a10.937,10.937,0,0,0,3.393,6.28c1.252,1,3.619,1.175,4.225-.669" transform="translate(15.32 15.983)" fill="#12263f"/>
    <path id="Trazado_113910" data-name="Trazado 113910" d="M55.8,85.461c10.731,1.427,21.062,4.693,31.55.171,7.184-3.1,13.2-8.277,13.732-16.486.361-5.624-8.537-5.651-8.765,0-.235,5.8-7.352,8.881-12.14,10.238-8.135,2.306-16.7-.9-25,1.45-2.757.779-1.862,4.3.626,4.627" transform="translate(15.967 19.381)" fill="#12263f"/>
    <path id="Trazado_113911" data-name="Trazado 113911" d="M83.326,46.183c-2.88-1.815-4.206-4.5-5.177-7.76a26.521,26.521,0,0,1-1.219-5.212c-.2-2.243.048-3.919-1.592-5.78a4.353,4.353,0,0,0-5.279-.68c-5.349,3.171-1.727,12.432.408,16.619,2.024,3.971,7.7,10.925,12.86,7.4a2.694,2.694,0,0,0,0-4.59" transform="translate(20.084 7.811)" fill="#12263f"/>
    <path id="Trazado_113912" data-name="Trazado 113912" d="M18.907,99.675c4.648,1.415,10.431-.358,15.284-.486,6.155-.162,12.835,1.174,18.82-.391a2.437,2.437,0,0,0,0-4.667c-5.866-1.622-12.767-.979-18.82-.832-5.089.125-12.34-.005-15.862,4.189a1.326,1.326,0,0,0,.578,2.187" transform="translate(5.365 27.78)" fill="#12263f"/>
  </g>
</svg>
