<svg id="Grupo_80416" data-name="Grupo 80416" xmlns="http://www.w3.org/2000/svg" xmlns:xlink="http://www.w3.org/1999/xlink" width="63.423" height="140.5" viewBox="0 0 63.423 140.5">
  <defs>
    <clipPath id="clip-path">
      <rect id="Rectángulo_34046" data-name="Rectángulo 34046" width="63.423" height="140.5" fill="#12263f"/>
    </clipPath>
    <clipPath id="clip-path-3">
      <rect id="Rectángulo_34043" data-name="Rectángulo 34043" width="53.483" height="24.952" fill="#12263f"/>
    </clipPath>
    <clipPath id="clip-path-4">
      <rect id="Rectángulo_34044" data-name="Rectángulo 34044" width="46.801" height="17.798" fill="#12263f"/>
    </clipPath>
  </defs>
  <g id="Grupo_80415" data-name="Grupo 80415" clip-path="url(#clip-path)">
    <g id="Grupo_80414" data-name="Grupo 80414">
      <g id="Grupo_80413" data-name="Grupo 80413" clip-path="url(#clip-path)">
        <path id="Trazado_113917" data-name="Trazado 113917" d="M12.6,0c1.453,1.677,2.169,2.532,2.916,3.357,8.554,9.461,8.819,16.954.978,27.1C13.383,34.485,10.148,38.424,7.25,42.6-9.048,66.043,3.5,95.054,31.26,98.021c6.711.718,13.159-.471,18.4-3.829-4.759,0-9.812.378-14.79-.073C21.655,92.927,12.731,83.6,13.045,71,13.461,54.341,22.8,42.3,34.391,30.98,39.774,36.734,43.972,42.4,44.68,50.058c.734,7.953-3.695,13.655-9.219,19.551C48.28,67.438,55.243,57.423,53.1,44.751A61.394,61.394,0,0,0,36.063,11.315C29.98,5.144,22.764.72,12.6,0" transform="translate(0)" fill="#12263f"/>
        <path id="Trazado_113918" data-name="Trazado 113918" d="M54.254,31.831c33.057,60.388-15.118,59.153-26.464,58.1h0c-1.451-.135-2.305-.267-2.305-.267v2.055a38.934,38.934,0,0,0,11.163,8.009,17.7,17.7,0,0,0,2.552,1,21.366,21.366,0,0,0,13.3.2A25.016,25.016,0,0,0,68.75,86.242c13.12-28.011-14.5-54.411-14.5-54.411" transform="translate(-8.913 -11.133)" fill="#12263f"/>
        <g id="Grupo_80409" data-name="Grupo 80409" transform="translate(0.051 115.547)" opacity="0.3">
          <g id="Grupo_80408" data-name="Grupo 80408">
            <g id="Grupo_80407" data-name="Grupo 80407" clip-path="url(#clip-path-3)">
              <path id="Trazado_113919" data-name="Trazado 113919" d="M12.676,202.647c1.454-.425,2.169-.642,2.916-.852,8.554-2.4,8.819-4.307.979-6.886-3.109-1.022-6.344-2.022-9.243-3.082-16.3-5.957-3.753-13.327,24.01-14.081a101.567,101.567,0,0,1,18.4.973c-4.76,0-9.812-.1-14.791.018-13.209.3-22.134,2.672-21.819,5.874.416,4.231,9.752,7.29,21.346,10.166,5.383-1.461,9.58-2.9,10.288-4.846.734-2.02-3.695-3.468-9.219-4.967,12.819.551,19.782,3.1,17.637,6.315-2.174,3.263-7.884,6.136-17.036,8.494a98.421,98.421,0,0,1-23.464,2.874" transform="translate(-0.078 -177.694)" fill="#12263f"/>
            </g>
          </g>
        </g>
        <g id="Grupo_80412" data-name="Grupo 80412" transform="translate(16.622 117.444)" opacity="0.3">
          <g id="Grupo_80411" data-name="Grupo 80411">
            <g id="Grupo_80410" data-name="Grupo 80410" clip-path="url(#clip-path-4)">
              <path id="Trazado_113920" data-name="Trazado 113920" d="M54.331,198.408c33.057-15.341-15.118-15.027-26.464-14.76h0c-1.45.035-2.3.068-2.3.068V183.2a86.421,86.421,0,0,1,11.163-2.035q1.215-.148,2.552-.253a82.019,82.019,0,0,1,13.3-.052c7.15.489,13.538,1.956,16.247,3.731,13.119,7.116-14.5,13.823-14.5,13.823" transform="translate(-25.562 -180.611)" fill="#12263f"/>
            </g>
          </g>
        </g>
      </g>
    </g>
  </g>
</svg>
