<svg id="Grupo_80250" data-name="Grupo 80250" xmlns="http://www.w3.org/2000/svg" xmlns:xlink="http://www.w3.org/1999/xlink" width="223" height="306.343" viewBox="0 0 223 306.343">
  <defs>
    <clipPath id="clip-path">
      <rect id="Rectángulo_33816" data-name="Rectángulo 33816" width="223" height="306.343" fill="none"/>
    </clipPath>
    <clipPath id="clip-path-2">
      <rect id="Rectángulo_33815" data-name="Rectángulo 33815" width="222.999" height="306.343" fill="none"/>
    </clipPath>
    <clipPath id="clip-path-3">
      <rect id="Rectángulo_33795" data-name="Rectángulo 33795" width="14.616" height="73.061" fill="none"/>
    </clipPath>
    <clipPath id="clip-path-4">
      <rect id="Rectángulo_33796" data-name="Rectángulo 33796" width="93.608" height="31.577" fill="none"/>
    </clipPath>
    <clipPath id="clip-path-5">
      <rect id="Rectángulo_33797" data-name="Rectángulo 33797" width="79.451" height="142.241" fill="none"/>
    </clipPath>
    <clipPath id="clip-path-6">
      <rect id="Rectángulo_33798" data-name="Rectángulo 33798" width="79.856" height="65.141" fill="none"/>
    </clipPath>
    <clipPath id="clip-path-7">
      <rect id="Rectángulo_33799" data-name="Rectángulo 33799" width="9.686" height="1.661" fill="none"/>
    </clipPath>
    <clipPath id="clip-path-8">
      <rect id="Rectángulo_33800" data-name="Rectángulo 33800" width="14.9" height="9.218" fill="none"/>
    </clipPath>
    <clipPath id="clip-path-9">
      <rect id="Rectángulo_33801" data-name="Rectángulo 33801" width="16.293" height="4.177" fill="none"/>
    </clipPath>
    <clipPath id="clip-path-10">
      <rect id="Rectángulo_33802" data-name="Rectángulo 33802" width="20.521" height="31.999" fill="none"/>
    </clipPath>
    <clipPath id="clip-path-11">
      <rect id="Rectángulo_33803" data-name="Rectángulo 33803" width="8.491" height="41.684" fill="none"/>
    </clipPath>
    <clipPath id="clip-path-12">
      <rect id="Rectángulo_33804" data-name="Rectángulo 33804" width="34.174" height="33.103" fill="none"/>
    </clipPath>
    <clipPath id="clip-path-13">
      <rect id="Rectángulo_33805" data-name="Rectángulo 33805" width="20.792" height="37.159" fill="none"/>
    </clipPath>
    <clipPath id="clip-path-14">
      <rect id="Rectángulo_33806" data-name="Rectángulo 33806" width="18.501" height="5.111" fill="none"/>
    </clipPath>
    <clipPath id="clip-path-15">
      <rect id="Rectángulo_33807" data-name="Rectángulo 33807" width="16.542" height="49.772" fill="none"/>
    </clipPath>
    <clipPath id="clip-path-16">
      <rect id="Rectángulo_33808" data-name="Rectángulo 33808" width="2.119" height="17.397" fill="none"/>
    </clipPath>
    <clipPath id="clip-path-17">
      <rect id="Rectángulo_33809" data-name="Rectángulo 33809" width="37.163" height="66.9" fill="none"/>
    </clipPath>
    <clipPath id="clip-path-18">
      <rect id="Rectángulo_33810" data-name="Rectángulo 33810" width="31.504" height="64.546" fill="none"/>
    </clipPath>
    <clipPath id="clip-path-19">
      <rect id="Rectángulo_33811" data-name="Rectángulo 33811" width="13.473" height="70.839" fill="none"/>
    </clipPath>
    <clipPath id="clip-path-20">
      <rect id="Rectángulo_33812" data-name="Rectángulo 33812" width="76.206" height="12.947" fill="none"/>
    </clipPath>
    <clipPath id="clip-path-21">
      <rect id="Rectángulo_33813" data-name="Rectángulo 33813" width="56.422" height="72.742" fill="none"/>
    </clipPath>
    <clipPath id="clip-path-22">
      <rect id="Rectángulo_33814" data-name="Rectángulo 33814" width="64.619" height="76.411" fill="none"/>
    </clipPath>
  </defs>
  <g id="Grupo_80249" data-name="Grupo 80249" clip-path="url(#clip-path)">
    <g id="Grupo_80248" data-name="Grupo 80248">
      <g id="Grupo_80247" data-name="Grupo 80247" clip-path="url(#clip-path-2)">
        <path id="Trazado_113790" data-name="Trazado 113790" d="M176.693,373.178,161.252,349.2s.181-6.177,19.8-9.81,59.222-5.45,68.305-2.907,5.45,13.807,5.45,13.807l-11.263,67.033s-30.519.908-30.519,0-36.333-44.144-36.333-44.144" transform="translate(-77.224 -160.574)" fill="#f4c8af"/>
        <g id="Grupo_80189" data-name="Grupo 80189" transform="translate(153.274 191.895)" opacity="0.34">
          <g id="Grupo_80188" data-name="Grupo 80188">
            <g id="Grupo_80187" data-name="Grupo 80187" clip-path="url(#clip-path-3)">
              <path id="Trazado_113791" data-name="Trazado 113791" d="M297.919,368.249s-4.626,28.615-3.646,45.859,11.938,36.727,14.21,22-10.564-67.861-10.564-67.861" transform="translate(-294.136 -368.249)" fill="#301919"/>
            </g>
          </g>
        </g>
        <path id="Trazado_113792" data-name="Trazado 113792" d="M264.161,457.156H85.951a16.347,16.347,0,0,0,3.516-1.661,36.335,36.335,0,0,0,7.215-5.788c6.346-6.447,14.209-18.222,19.788-39.42q.764-2.9,1.425-5.716a228.206,228.206,0,0,0,4.755-27.982c2.463-22.97.635-37.533,2.542-37.151,1.255.251,8.992,1.833,18.249,3.323,4.949.795,10.333,1.56,15.392,2.084a79,79,0,0,0,15.407.455c1.113-.128,2.141-.241,3.093-.332,1.666-.162,3.1-.258,4.339-.258h0c6.376,0,7.533,2.566,8.367,12.169.92,10.581,6.113,30.094,7.707,35.918.3,1.075.467,1.685.467,1.685s-.081-7.424-.15-16.652c-.02-2.852-.039-5.876-.056-8.908v-.046c-.064-12.629-.064-25.354.206-26.167.544-1.634,7.631-1.634,15.26-6.538a11.906,11.906,0,0,0,3.036-2.913c4.949-6.563,6.012-18.341,7.862-18.341S223.371,340,223.789,356.6a67.978,67.978,0,0,0,.588,7.909c1.294,8.736,4.7,36.492,13.417,59.542v0c5.965,15.771,14.413,29.338,26.368,33.1" transform="translate(-41.162 -150.813)" fill="#914c4b"/>
        <g id="Grupo_80192" data-name="Grupo 80192" transform="translate(44.789 274.766)" opacity="0.47">
          <g id="Grupo_80191" data-name="Grupo 80191">
            <g id="Grupo_80190" data-name="Grupo 80190" clip-path="url(#clip-path-4)">
              <path id="Trazado_113793" data-name="Trazado 113793" d="M179.558,558.858H85.95s4.676-1.3,10.732-7.449c5.835,7.122,22.423,5.013,31.324-6.132,12.181-15.249,20.415-27.839,18.513-7.129s5.847,20.671,11.384,14.4,12.607-12.769,14.426-3.226c.78,4.088,3.8,8.086,7.23,9.541" transform="translate(-85.95 -527.281)" fill="#663535"/>
            </g>
          </g>
        </g>
        <g id="Grupo_80195" data-name="Grupo 80195" transform="translate(143.549 164.102)" opacity="0.47">
          <g id="Grupo_80194" data-name="Grupo 80194">
            <g id="Grupo_80193" data-name="Grupo 80193" clip-path="url(#clip-path-5)">
              <path id="Trazado_113794" data-name="Trazado 113794" d="M354.924,457.156H275.473c2.85-1.388,5.35-5.428,6.413-13.581,2.953-22.632,7.38-39.24,10.333-30.381s8.859,42.937,20.3,39.371-1.108-25.46,4.429-36.817-11.812-52.6-11.812-63.935-4.429-8.967-5.537,0-4.142,6.091-7.382-1.506c-3.16-7.412-3.433,17.342-3.445,18.567-.064-12.629-.064-25.354.206-26.167.544-1.634,7.631-1.634,15.26-6.538s8.719-21.254,10.9-21.254-2.18,34.877,0,49.593,10.355,83.383,39.784,92.648" transform="translate(-275.474 -314.915)" fill="#663535"/>
            </g>
          </g>
        </g>
        <g id="Grupo_80198" data-name="Grupo 80198" transform="translate(76.733 188.617)" opacity="0.47">
          <g id="Grupo_80197" data-name="Grupo 80197">
            <g id="Grupo_80196" data-name="Grupo 80196" clip-path="url(#clip-path-6)">
              <path id="Trazado_113795" data-name="Trazado 113795" d="M227.107,415.325c-.411,3.967-5.889.1-13.04-21.791s-8.352-24.251-17.949-15.392-8.121-7.013-14.4-9.5-9.6,18.358-13.655,10.975-5.537-4.429-9.228,11.832c-2.5,11-7.214,24.638-11.589,35.65,9.036-38.431,4.7-65.652,7.3-65.133,2.724.546,35.967,7.36,49.049,5.861s14.713-.955,15.8,11.578c.92,10.581,6.113,30.094,7.707,35.918" transform="translate(-147.252 -361.959)" fill="#663535"/>
            </g>
          </g>
        </g>
        <g id="Grupo_80201" data-name="Grupo 80201" transform="translate(44.789 304.682)" opacity="0.94">
          <g id="Grupo_80200" data-name="Grupo 80200">
            <g id="Grupo_80199" data-name="Grupo 80199" clip-path="url(#clip-path-7)">
              <path id="Trazado_113796" data-name="Trazado 113796" d="M89.467,584.69a59.84,59.84,0,0,0,6.169,1.661H85.951a16.34,16.34,0,0,0,3.516-1.661" transform="translate(-85.951 -584.69)" fill="#663535"/>
            </g>
          </g>
        </g>
        <g id="Grupo_80204" data-name="Grupo 80204" transform="translate(84.876 297.125)" opacity="0.94">
          <g id="Grupo_80203" data-name="Grupo 80203">
            <g id="Grupo_80202" data-name="Grupo 80202" clip-path="url(#clip-path-8)">
              <path id="Trazado_113797" data-name="Trazado 113797" d="M177.4,578.062a7.716,7.716,0,0,0,.381,1.344h-14.9a14.574,14.574,0,0,0,4.183-2.3c10.335-8.448,8.121-10.318,10.335.952" transform="translate(-162.878 -570.188)" fill="#663535"/>
            </g>
          </g>
        </g>
        <g id="Grupo_80207" data-name="Grupo 80207" transform="translate(110.857 302.166)" opacity="0.94">
          <g id="Grupo_80206" data-name="Grupo 80206">
            <g id="Grupo_80205" data-name="Grupo 80205" clip-path="url(#clip-path-9)">
              <path id="Trazado_113798" data-name="Trazado 113798" d="M224.32,580.382c.97.832,2.636,2.2,4.71,3.657H212.737c4.732-2.4,9.55-5.4,11.583-3.657" transform="translate(-212.737 -579.862)" fill="#663535"/>
            </g>
          </g>
        </g>
        <g id="Grupo_80210" data-name="Grupo 80210" transform="translate(151.069 274.345)" opacity="0.94">
          <g id="Grupo_80209" data-name="Grupo 80209">
            <g id="Grupo_80208" data-name="Grupo 80208" clip-path="url(#clip-path-10)">
              <path id="Trazado_113799" data-name="Trazado 113799" d="M310.426,558.471H289.9c6.642-14.066,8.118-43.581,9.964-27.163,1.435,12.77,2.872,22.106,10.557,27.163" transform="translate(-289.905 -526.472)" fill="#663535"/>
            </g>
          </g>
        </g>
        <g id="Grupo_80213" data-name="Grupo 80213" transform="translate(175.353 164.102)" opacity="0.94">
          <g id="Grupo_80212" data-name="Grupo 80212">
            <g id="Grupo_80211" data-name="Grupo 80211" clip-path="url(#clip-path-11)">
              <path id="Trazado_113800" data-name="Trazado 113800" d="M343.78,356.6c-3.246-7.616-6.041-15.446-7.274-23.344,4.949-6.563,6.011-18.34,7.862-18.34S343.362,340,343.78,356.6" transform="translate(-336.506 -314.915)" fill="#663535"/>
            </g>
          </g>
        </g>
        <g id="Grupo_80216" data-name="Grupo 80216" transform="translate(188.826 273.24)" opacity="0.94">
          <g id="Grupo_80215" data-name="Grupo 80215">
            <g id="Grupo_80214" data-name="Grupo 80214" clip-path="url(#clip-path-12)">
              <path id="Trazado_113801" data-name="Trazado 113801" d="M396.534,557.456H362.36c2.73-5.451.5-15.213,3.214-15.789,2.635-.559,3.561-7.085,4.592-17.314,5.965,15.771,14.413,29.338,26.368,33.1" transform="translate(-362.361 -524.353)" fill="#663535"/>
            </g>
          </g>
        </g>
        <g id="Grupo_80219" data-name="Grupo 80219" transform="translate(81.487 188.617)" opacity="0.94">
          <g id="Grupo_80218" data-name="Grupo 80218">
            <g id="Grupo_80217" data-name="Grupo 80217" clip-path="url(#clip-path-13)">
              <path id="Trazado_113802" data-name="Trazado 113802" d="M158.917,361.966c1.255.251,8.992,1.833,18.249,3.322-3.6,3.022-4.092,6-7.048,2.54-4.183-4.9-6.644,1.949-7.628,6.514s-6.115,24.776-6.115,24.776c2.463-22.97.635-37.533,2.542-37.151" transform="translate(-156.375 -361.959)" fill="#663535"/>
            </g>
          </g>
        </g>
        <g id="Grupo_80222" data-name="Grupo 80222" transform="translate(117.671 194.03)" opacity="0.94">
          <g id="Grupo_80221" data-name="Grupo 80221">
            <g id="Grupo_80220" data-name="Grupo 80220" clip-path="url(#clip-path-14)">
              <path id="Trazado_113803" data-name="Trazado 113803" d="M241.22,372.8c1.113-.128,2.141-.241,3.093-.332-4.683,1.279-10,4.988-13.732,4.988-2.611,0-3.627-2.5-4.769-5.111a78.993,78.993,0,0,0,15.407.455" transform="translate(-225.813 -372.348)" fill="#663535"/>
            </g>
          </g>
        </g>
        <g id="Grupo_80225" data-name="Grupo 80225" transform="translate(140.515 193.896)" opacity="0.94">
          <g id="Grupo_80224" data-name="Grupo 80224">
            <g id="Grupo_80223" data-name="Grupo 80223" clip-path="url(#clip-path-15)">
              <path id="Trazado_113804" data-name="Trazado 113804" d="M285.724,420.176c.3,1.076.467,1.686.467,1.686-9.538-10.351-8.564-41.278-13.507-47.725a5.357,5.357,0,0,0-3.034-2.047c6.376,0,7.533,2.566,8.367,12.169.92,10.581,6.113,30.094,7.707,35.918" transform="translate(-269.651 -372.089)" fill="#663535"/>
            </g>
          </g>
        </g>
        <g id="Grupo_80228" data-name="Grupo 80228" transform="translate(156.907 227.016)" opacity="0.94">
          <g id="Grupo_80227" data-name="Grupo 80227">
            <g id="Grupo_80226" data-name="Grupo 80226" clip-path="url(#clip-path-16)">
              <path id="Trazado_113805" data-name="Trazado 113805" d="M301.257,452.3s-.081-7.424-.15-16.652c2.416,12.156,3.15,19.908.15,16.652" transform="translate(-301.107 -435.647)" fill="#663535"/>
            </g>
          </g>
        </g>
        <g id="Grupo_80231" data-name="Grupo 80231" transform="translate(78.592 210.525)" opacity="0.1">
          <g id="Grupo_80230" data-name="Grupo 80230">
            <g id="Grupo_80229" data-name="Grupo 80229" clip-path="url(#clip-path-17)">
              <path id="Trazado_113806" data-name="Trazado 113806" d="M164.111,412.258c-.958,4.647-5.511,36.221-11.663,50.74s6.74,6.152,12.106-2.215,9.126-27.807,9.953-20.425,1.811,17.226,6.241,8.859,7.874-25.234,7.136-29.966-6.4,10.771-9.105,11.755,4.5-23.114-1.194-17.34-6.245,1.71-5.581-5.546-6.147-4.335-7.893,4.137" transform="translate(-150.82 -404.001)" fill="#f4c8af"/>
            </g>
          </g>
        </g>
        <g id="Grupo_80234" data-name="Grupo 80234" transform="translate(117.646 227.483)" opacity="0.1">
          <g id="Grupo_80233" data-name="Grupo 80233">
            <g id="Grupo_80232" data-name="Grupo 80232" clip-path="url(#clip-path-18)">
              <path id="Trazado_113807" data-name="Trazado 113807" d="M231.649,458.157c-.736,6.622-6.3,27.315-5.859,32.975s7.582-5.906,10.781-11.074,3.035,24.608,7.055,20.671,3.773-21.9,6.234-30.514,5.232,4.48,7.045-4.035-3.674-22.05-5.237-14.913-4.516-3.2-4.024-11.32-3.888-.492-6.128,10.09-7.653-11.812-9.868,8.121" transform="translate(-225.764 -436.544)" fill="#f4c8af"/>
            </g>
          </g>
        </g>
        <g id="Grupo_80237" data-name="Grupo 80237" transform="translate(164.963 214.214)" opacity="0.1">
          <g id="Grupo_80236" data-name="Grupo 80236">
            <g id="Grupo_80235" data-name="Grupo 80235" clip-path="url(#clip-path-19)">
              <path id="Trazado_113808" data-name="Trazado 113808" d="M324.6,422.642c1.06,4.849,4.466,19.384,5.309,26.52s-2.559,6.152-2.949,15.011-.244,22.64-3.763,16-3.726-22.9-5.934-50.447,1.43-18.7,2.907-10.336,2.246-6.73,4.429,3.256" transform="translate(-316.567 -411.081)" fill="#f4c8af"/>
            </g>
          </g>
        </g>
        <g id="Grupo_80240" data-name="Grupo 80240" transform="translate(92.909 176.939)" opacity="0.34">
          <g id="Grupo_80239" data-name="Grupo 80239">
            <g id="Grupo_80238" data-name="Grupo 80238" clip-path="url(#clip-path-20)">
              <path id="Trazado_113809" data-name="Trazado 113809" d="M178.676,347.555c-1.97,2.893,3.662,5.339,16.95,4.847s19.7.315,30.273.034,12.844-1.361,20.815-4.881,10.526-7.457,4.327-7.457-14.787-1.23-28.211,0-40.854,2.611-44.155,7.457" transform="translate(-178.294 -339.55)" fill="#301919"/>
            </g>
          </g>
        </g>
        <path id="Trazado_113810" data-name="Trazado 113810" d="M196.04,349.341s6.2,3.2,23.322,0,33.68-.843,35.729-5.906-26.234.738-40.261,1.477-20.448.492-18.791,4.429" transform="translate(-93.761 -163.487)" fill="#f4c8af"/>
        <path id="Trazado_113811" data-name="Trazado 113811" d="M2.024,4.735A10.927,10.927,0,0,1,3.37,3.158,11.135,11.135,0,0,1,17.535,2.022L158.673,101.1l-8.209,11.694s-2.632-1.894-6.955-4.934C127.239,96.4,86.988,68.6,72.71,63.8c-18.079-6.081-20.567-9.861-32.554-20.31S26.291,34.269,15.732,29.4C10.3,26.9,5.667,22.129,2.437,18.082A11.127,11.127,0,0,1,2.024,4.735" transform="translate(0 0)" fill="#566670"/>
        <path id="Trazado_113812" data-name="Trazado 113812" d="M6.467,3.158A11.135,11.135,0,0,1,20.633,2.022L161.77,101.1l-8.209,11.693s-2.632-1.893-6.956-4.933c.82-2.74,1.913-5.9,2.951-7.376,2.032-2.9-37.549-30.172-55.181-38.736S78.283,49.178,54.711,33.139C32.936,18.322,21.128,2.909,6.467,3.158" transform="translate(-3.097 0)" fill="#46545c"/>
        <path id="Trazado_113813" data-name="Trazado 113813" d="M262.977,219.558c-.052.086-.111.173-.167.253l-9.615,13.7c-7.781,12.863-13.19,28.962-16.664,41.9-5.114.532-10.282.827-15.287.955-6.5.165-12.735.052-18.21-.18-1.966-.083-3.834-.184-5.584-.29h0c-2.677-.165-5.074-.347-7.117-.52q-1.646-1.325-3.241-2.716c-.352-.3-.7-.61-1.051-.92a233.339,233.339,0,0,1-17.457-17.376c-.138-.148-.27-.3-.409-.448,0,0,34.58-18.946,53.6-42.46l5.712-8.138,3.9-5.559a8.134,8.134,0,0,1,.921-1.1c.039-.039.081-.079.123-.118.027-.03.056-.057.086-.084.091-.086.182-.167.276-.249a.126.126,0,0,0,.022-.017c.091-.076.185-.153.278-.224.027-.022.054-.042.081-.061.052-.042.106-.079.157-.118.123-.087.249-.17.374-.249.083-.054.17-.106.256-.158l.039-.022q.3-.174.606-.317l0,0c.1-.047.207-.091.31-.135.138-.061.276-.116.416-.165l.256-.089c.106-.034.214-.067.323-.1.056-.017.113-.032.17-.047.12-.03.243-.059.366-.084s.231-.044.347-.064c.224-.036.446-.064.67-.083.032,0,.064,0,.1,0,.1-.008.192-.015.288-.018s.19,0,.283,0,.182,0,.273,0c.067,0,.133.005.2.01s.16.01.239.017l.236.022h0c.113.015.226.03.34.047.1.017.189.032.283.052.066.012.133.027.2.042.042.01.086.017.128.03.077.017.15.034.224.056.047.012.093.025.14.04s.116.032.175.049c.111.037.224.074.335.114l.019.007q.145.052.288.11c.037.015.074.03.11.047.074.03.148.061.219.1.034.012.066.03.1.044.1.047.194.1.29.145.044.022.089.047.133.071.069.034.135.073.2.113s.133.079.2.12.11.069.167.106c.076.049.152.1.226.153l5.318,3.733,3.529,2.476,2.48,1.742,5.266,3.7,1.349.947a8.232,8.232,0,0,1,2.173,11.217" transform="translate(-80.538 -93.027)" fill="#d6605e"/>
        <path id="Trazado_113814" data-name="Trazado 113814" d="M168.173,253.911s34.58-18.946,53.6-42.458l9.615-13.7a8.236,8.236,0,0,1,11.473-2.009l17.94,12.594a8.23,8.23,0,0,1,2.173,11.217c-2.591-1.147-5.5-2.392-8.767-3.728-20.807-8.5-26.611-.721-26.611-.721-27.582,29.325-53.927,37.821-59.018,39.251-.136-.147-.27-.3-.407-.449" transform="translate(-80.538 -93.027)" fill="#c75957"/>
        <g id="Grupo_80243" data-name="Grupo 80243" transform="translate(122.495 110.671)" opacity="0.18">
          <g id="Grupo_80242" data-name="Grupo 80242">
            <g id="Grupo_80241" data-name="Grupo 80241" clip-path="url(#clip-path-21)">
              <path id="Trazado_113815" data-name="Trazado 113815" d="M291.492,216.076q-3.049,4.171-5.825,8.2c-17.484,25.359-27.143,46.389-32.387,60.765-6.5.165-12.735.052-18.21-.18,11.992-17.445,32.011-45.631,44.231-62.776,2.771-3.888,5.141-7.21,6.925-9.708Z" transform="translate(-235.07 -212.38)" fill="#fff"/>
            </g>
          </g>
        </g>
        <g id="Grupo_80246" data-name="Grupo 80246" transform="translate(106.551 106.453)" opacity="0.18">
          <g id="Grupo_80245" data-name="Grupo 80245">
            <g id="Grupo_80244" data-name="Grupo 80244" clip-path="url(#clip-path-22)">
              <path id="Trazado_113816" data-name="Trazado 113816" d="M269.093,206.762l-7.8,10.626L214.834,280.7h0c-2.677-.165-5.074-.347-7.117-.519q-1.646-1.326-3.241-2.717c17.925-17.918,38.475-43.591,51.687-60.763,3.834-4.986,7.05-9.258,9.4-12.413Z" transform="translate(-204.474 -204.286)" fill="#fff"/>
            </g>
          </g>
        </g>
      </g>
    </g>
  </g>
</svg>
