<svg id="Grupo_80418" data-name="Grupo 80418" xmlns="http://www.w3.org/2000/svg" xmlns:xlink="http://www.w3.org/1999/xlink" width="76.899" height="105.155" viewBox="0 0 76.899 105.155">
  <defs>
    <clipPath id="clip-path">
      <rect id="Rectángulo_34047" data-name="Rectángulo 34047" width="76.899" height="105.155" fill="#12263f"/>
    </clipPath>
  </defs>
  <g id="Grupo_80417" data-name="Grupo 80417" clip-path="url(#clip-path)">
    <path id="Trazado_113921" data-name="Trazado 113921" d="M37.416,102.245c4.326-8.307-.4-19.627-5.78-26.372-4.5-5.642-9.342-10.448-12.761-16.929C14.96,51.525,14.6,44.013,16.952,36.08c.7-2.367-2.992-4.174-4.053-1.812-5.227,11.638-.8,23.959,6.09,33.85,3.59,5.152,8.7,9.084,12,14.377a28.308,28.308,0,0,1,4.173,18.744c-.2,1.268,1.538,2.371,2.249,1.006" fill="#12263f"/>
    <path id="Trazado_113922" data-name="Trazado 113922" d="M27.291,101.51c2.19,3.137,7.4,3.357,10.867,3.555a55.538,55.538,0,0,0,14.5-1.051c2.5-.551,2.081-4.584-.511-4.5-3.8.125-7.633.859-11.433,1.16a60.226,60.226,0,0,1-12.5-.705,1.04,1.04,0,0,0-.927,1.539" fill="#12263f"/>
    <path id="Trazado_113923" data-name="Trazado 113923" d="M37.859,104.452c6.324-12.664,5.338-29.414,3.753-43.034-1.924-16.555-5.9-32.772-8.087-49.288-.387-2.924-4.857-1.785-4.455,1.126C31.1,27.97,34.542,42.439,36.825,57.113A148.259,148.259,0,0,1,38.65,81.35c-.072,7.692-1.869,14.918-2.983,22.457-.172,1.161,1.683,1.663,2.192.645" fill="#12263f"/>
    <path id="Trazado_113924" data-name="Trazado 113924" d="M40.8,100.661c2.192-8.98,3.028-18.1,9.219-25.416,4.923-5.818,11.194-10.067,15.3-16.623,8.17-13.054,5.574-30.335,3.759-44.753-.383-3.035-4.993-1.842-4.614,1.166,2.006,15.94,4.187,33.657-7.177,46.7-4.671,5.36-10.237,9.619-13.857,15.859-4.016,6.919-3.435,15.159-4.417,22.786-.132,1.029,1.548,1.271,1.79.283" fill="#12263f"/>
    <path id="Trazado_113925" data-name="Trazado 113925" d="M35.894,102.51C31.8,93.436,23.064,86,17.02,78.184,9.347,68.261,4.364,57.329,4.218,44.622,4.186,41.908-.031,41.809,0,44.532.141,56.8,4.247,67.577,11.443,77.419A138.461,138.461,0,0,0,22.116,89.7c4.166,4.478,8.158,9.566,12.824,13.519a.6.6,0,0,0,.954-.7" fill="#12263f"/>
    <path id="Trazado_113926" data-name="Trazado 113926" d="M38.674,99.87a82.965,82.965,0,0,1,2.743-25.15c2.206-8.38,5.142-16.53,7.029-25,3.487-15.649.148-32.657-3.744-47.908-.8-3.115-5.658-1.9-4.842,1.224,4.346,16.615,7,33.556,2.984,50.489-3.559,15.017-9.661,30.95-5.625,46.509.2.789,1.489.686,1.455-.166" fill="#12263f"/>
    <path id="Trazado_113927" data-name="Trazado 113927" d="M39.7,100.411c12.112-3.639,17.045-20.064,20.231-30.758A76.861,76.861,0,0,0,63.3,45.963c-.162-8.03-.589-16.913-2.334-24.749-.531-2.384-3.685-1.665-3.97.451-.94,6.958.631,14.291,1.113,21.263a68.509,68.509,0,0,1-2.184,22.839,116.5,116.5,0,0,1-5.914,17.474c-2.748,6.106-6.651,10.672-11.3,15.385a1.062,1.062,0,0,0,.988,1.785" fill="#12263f"/>
    <path id="Trazado_113928" data-name="Trazado 113928" d="M39.33,96.383C37.215,66.7,30.015,36.047,14.393,10.34c-1.97-3.244-7.146-.393-5.162,2.873C24.32,38.042,32.175,68.287,37.714,96.567c.177.9,1.682.744,1.616-.184" fill="#12263f"/>
    <path id="Trazado_113929" data-name="Trazado 113929" d="M43.829,101.919c6.517-7.691,16.194-11.652,22.4-19.537A52.069,52.069,0,0,0,76.9,52.1c.027-2.148-3.245-2.751-3.786-.6-2.769,11.02-4.371,21.848-12.484,30.516-6.192,6.614-15.2,9.8-18.986,18.559-.52,1.2,1.349,2.322,2.186,1.336" fill="#12263f"/>
  </g>
</svg>
