<svg id="Grupo_57997" data-name="Grupo 57997" xmlns="http://www.w3.org/2000/svg" xmlns:xlink="http://www.w3.org/1999/xlink" width="110.705" height="139.564" viewBox="0 0 110.705 139.564">
  <defs>
    <clipPath id="clip-path">
      <rect id="Rectángulo_6475" data-name="Rectángulo 6475" width="110.705" height="139.564" fill="none"/>
    </clipPath>
  </defs>
  <g id="Grupo_57870" data-name="Grupo 57870" clip-path="url(#clip-path)">
    <path id="Trazado_113627" data-name="Trazado 113627" d="M105.519,120.656V75.318c3.324-1.707,5.186-3.612,5.186-5.622s-1.862-3.917-5.186-5.623V18.814c3.215-1.684,5.007-3.557,5.007-5.533C110.526,5.944,85.785,0,55.263,0S0,5.944,0,13.281c0,1.826,1.527,3.559,4.292,5.141V64.659C1.643,66.214.179,67.914.179,69.7s1.464,3.482,4.113,5.034v46.515C1.643,122.8.179,124.5.179,126.281c0,7.337,24.742,13.283,55.263,13.283s55.263-5.946,55.263-13.283c0-2.009-1.862-3.916-5.186-5.625" fill="#8fb7b3"/>
    <path id="Trazado_113628" data-name="Trazado 113628" d="M55.376,134.081c22.314,0,41.419-3.156,49.342-7.635-4.465,5.333-24.857,9.36-49.342,9.36s-44.878-4.027-49.344-9.36c7.925,4.48,27.029,7.635,49.344,7.635" transform="translate(0.066 -3.143)" fill="#688e8a"/>
    <path id="Trazado_113629" data-name="Trazado 113629" d="M55.2,8.8c22.314,0,41.419,3.158,49.344,7.634C100.076,11.1,79.684,7.075,55.2,7.075S10.323,11.1,5.856,16.435C13.781,11.959,32.885,8.8,55.2,8.8" transform="translate(0.064 -0.176)" fill="#688e8a"/>
    <path id="Trazado_113630" data-name="Trazado 113630" d="M54.889,62.193a10.88,10.88,0,0,1,4.122.8l7.53-17.6q-11.652-6.347-23.3,0L50.767,63a10.884,10.884,0,0,1,4.122-.8" transform="translate(0.472 -1.05)" fill="#587773"/>
    <path id="Trazado_113631" data-name="Trazado 113631" d="M45.924,78.256a9.913,9.913,0,0,1-1.336-3.846L25.021,76.919q.124,12.91,11.652,19.467L48.709,81.3a10.294,10.294,0,0,1-2.785-3.041" transform="translate(0.273 -1.85)" fill="#587773"/>
    <path id="Trazado_113632" data-name="Trazado 113632" d="M65.155,74.434a9.948,9.948,0,0,1-1.337,3.846,10.3,10.3,0,0,1-2.785,3.04l12.037,15.09q11.526-6.556,11.652-19.468Z" transform="translate(0.666 -1.85)" fill="#587773"/>
    <path id="Trazado_113633" data-name="Trazado 113633" d="M54.829,67.086A5.917,5.917,0,1,0,60.957,73a6.025,6.025,0,0,0-6.128-5.912" transform="translate(0.532 -1.668)" fill="#587773"/>
    <path id="Trazado_113634" data-name="Trazado 113634" d="M44.514,46.013q10.678-5.817,21.358-.967-11.317-5.814-22.634.352L50.768,63c.285-.116.579-.219.877-.312Z" transform="translate(0.472 -1.05)" fill="#405b57"/>
    <path id="Trazado_113635" data-name="Trazado 113635" d="M26.3,77.537,44.72,75.175c-.055-.257-.1-.508-.132-.765L25.021,76.919q.124,12.91,11.652,19.467l.082-.1A21.161,21.161,0,0,1,26.3,77.537" transform="translate(0.273 -1.85)" fill="#405b57"/>
    <path id="Trazado_113636" data-name="Trazado 113636" d="M62.309,81.937a10.3,10.3,0,0,0,2.784-3.04,9.911,9.911,0,0,0,1.338-3.847l18.279,2.345c0-.15.009-.3.011-.451L65.155,74.435a9.937,9.937,0,0,1-1.337,3.846,10.309,10.309,0,0,1-2.784,3.041L73.07,96.412c.18-.1.358-.21.534-.315Z" transform="translate(0.666 -1.85)" fill="#405b57"/>
    <path id="Trazado_113637" data-name="Trazado 113637" d="M49.977,73.615A6.025,6.025,0,0,1,56.1,67.7a6.275,6.275,0,0,1,2.078.353,6.251,6.251,0,0,0-3.354-.966A6.025,6.025,0,0,0,48.7,73a5.93,5.93,0,0,0,4.053,5.562,5.855,5.855,0,0,1-2.776-4.946" transform="translate(0.532 -1.668)" fill="#405b57"/>
  </g>
</svg>
