<svg id="Grupo_80448" data-name="Grupo 80448" xmlns="http://www.w3.org/2000/svg" xmlns:xlink="http://www.w3.org/1999/xlink" width="295.372" height="296.204" viewBox="0 0 295.372 296.204">
  <defs>
    <clipPath id="clip-path">
      <rect id="Rect치ngulo_34055" data-name="Rect치ngulo 34055" width="295.372" height="296.204" fill="none"/>
    </clipPath>
    <clipPath id="clip-path-3">
      <rect id="Rect치ngulo_34053" data-name="Rect치ngulo 34053" width="45.845" height="48.066" fill="none"/>
    </clipPath>
  </defs>
  <g id="Grupo_80447" data-name="Grupo 80447" clip-path="url(#clip-path)">
    <g id="Grupo_80446" data-name="Grupo 80446">
      <g id="Grupo_80445" data-name="Grupo 80445" clip-path="url(#clip-path)">
        <path id="Trazado_113963" data-name="Trazado 113963" d="M295.311,147.657A147.656,147.656,0,1,0,0,147.657Z" transform="translate(0 0)" fill="#c6efec"/>
        <path id="Trazado_113964" data-name="Trazado 113964" d="M97.325,86.463a12.18,12.18,0,1,1,7.082-22.086,10.117,10.117,0,0,1,18.145,7.987,7.23,7.23,0,1,1,2.253,14.1Z" transform="translate(-15.349 -10.836)" fill="#fff"/>
        <path id="Trazado_113965" data-name="Trazado 113965" d="M212,72.91a24.834,24.834,0,1,1-24.834-24.833A24.833,24.833,0,0,1,212,72.91" transform="translate(-29.265 -8.667)" fill="#fdd93a"/>
        <path id="Trazado_113966" data-name="Trazado 113966" d="M161.829,154.184s-13.418-50.726-27.491-51.381-24.218,33.382-24.218,33.382-20.385-69.446-43.2-73.636C34.849,56.658,9.976,154.184,9.976,154.184Z" transform="translate(-1.798 -11.229)" fill="#014b56"/>
        <path id="Trazado_113967" data-name="Trazado 113967" d="M102.624,129.313C78.34,122.264,82.531,74.108,64.611,65.1a17.3,17.3,0,0,1,12.158-2.55C93.386,65.6,108.71,103.26,115.812,123.5c0,0-3.043,8.756-13.188,5.81" transform="translate(-11.648 -11.23)" fill="#036a75"/>
        <path id="Trazado_113968" data-name="Trazado 113968" d="M180.726,155.807c-10.125-4.709-18.075-34.357-27.8-41.466a10.947,10.947,0,0,1,7.179-2.631c10.711.5,21.041,30,25.365,44.066a5.044,5.044,0,0,1-4.747.03" transform="translate(-27.569 -20.137)" fill="#036a75"/>
        <path id="Trazado_113969" data-name="Trazado 113969" d="M180.127,162.856c.612-11.324,4.069-27.293,11.338-33.68,7.332-6.443,24.057-6.678,33.234-6.1,20.5,1.742,35.186-20.615,55.992-22.647,33.655-2.9,39.708,42.682,39.708,62.425Z" transform="translate(-32.472 -18.081)" fill="#1c5447"/>
        <path id="Trazado_113970" data-name="Trazado 113970" d="M196.952,140.294a47.418,47.418,0,0,1,21.691-8.627c19.719-1.972,41.655-3.944,58.417-15.282,4.67-3.221,11.655-10.228,18.55-13.668a29.1,29.1,0,0,0-14.7-2.286c-20.806,2.033-35.492,24.389-55.992,22.647-9.177-.581-25.9-.345-33.234,6.1-5.488,4.824-8.8,15.112-10.361,24.737,4.368-5.354,10.537-10.159,15.633-13.618" transform="translate(-32.687 -18.081)" fill="#25705c"/>
        <path id="Trazado_113971" data-name="Trazado 113971" d="M295.449,181.391a147.511,147.511,0,1,1-295.023,0Z" transform="translate(-0.077 -32.7)" fill="#008594"/>
        <path id="Trazado_113972" data-name="Trazado 113972" d="M266.29,183.863a110.132,110.132,0,1,1-220.264,0Z" transform="translate(-8.297 -33.145)" fill="#00a7af"/>
        <path id="Trazado_113973" data-name="Trazado 113973" d="M31.684,195.84a7.174,7.174,0,0,0,6.127,2.657c2.77-.131,5.855-.639,7.132,2.715,1.139,2.994.352,5.857-1.6,8.41-6.623,8.668-7.074,18.367-4.854,28.573,1.939,8.908,8.266,14.276,15.448,18.587,6.6,3.963,8.611,9.64,7.962,16.672-.8,8.631-.084,17.31-.52,25.948a147.321,147.321,0,0,0,20.68,12.984,4.524,4.524,0,0,1,1.1-1.389c4.127-3.535,4.327-11.4,12.146-10.984.364.016.908-1.361,1.19-2.153,1.423-3.974,4.645-8.418,3.813-11.871-2.281-9.482,4.282-9.934,9.965-12.411,8.665-3.78,10.4-6.366,8.169-12.988-2.517-7.485-1.059-13.581,3.22-19.951,4.862-7.237,3.51-11.492-3.908-15.807a71.621,71.621,0,0,0-9.383-4.915c-6.716-2.667-12.9-5.8-16-12.9-1.366-3.117-3.431-5.246-7.263-4.9-2.615.235-3.194-2.164-3.527-3.813-1.491-7.365-6.378-7.625-12.017-5.85-3.072.967-5.546.954-6.926-2.187-3.153-7.18-7.223-5.5-11.763-1.518a28.854,28.854,0,0,1-4.2,2.908c-4.928,2.958-7.753,2.1-10.215-3.2a18.751,18.751,0,0,1-1.439-4.89,4.022,4.022,0,0,0-1.2-2.533H10.817c8.4,2.939,15.032,8.324,20.867,14.807" transform="translate(-1.95 -32.635)" fill="#93c647"/>
        <path id="Trazado_113974" data-name="Trazado 113974" d="M313.015,188.326c-1.236-1.03-2.338.534-3.474.606-2.917.182-7.144,4.055-8.343.094-.925-3.051,4.435-4.1,7.373-5.075a39.658,39.658,0,0,0,6.808-2.918H298.824a22.855,22.855,0,0,0-.274,5.949c-2.986-.151-2.9-2.907-4.549-3.59-.4-.794-.852-1.576-1.3-2.358H185.714c1.357,4.87,6.569,10.129,9.3,15.084a75.359,75.359,0,0,0,4.433,6.258c2.951,4.263,7.823,5.2,11.875,2.112,4.976-3.79,11.473.16,16.526-3.3.225-.155,1.148.488,1.6.916a38.112,38.112,0,0,0,11.257,6.923c-5.088,5.8-5.92,6.284-2.046,12.928,4.222,7.24.953,15.965,5.876,22.8.581.806-.257,2.866-.791,4.2-4.313,10.817-2.981,21.147,2.469,31.173a3.709,3.709,0,0,0,1.016.335c2.12,5.189,3.393,10.528,2.8,16.193-.288,2.755.589,5.192,3.712,4.114,7.113-2.458,15.605-.593,21.406-7.413,2.808-3.3,5.735-6.082,5.041-10.866-.338-2.3.913-3.9,2.548-5.48,1.653-1.59,3.425-3.763,2.416-6.132-2.605-6.1.989-9.119,5.513-11.29,4.973-2.387,6.109-5.982,5.722-11.142-.5-6.563-.034-13.193-.321-19.781-.289-6.526,5.009-10.142,7.8-14.878,4.023-6.814,6.23-14.152,8.953-21.371.457-1.212,1.742-2.808.2-4.1" transform="translate(-33.479 -32.635)" fill="#93c647"/>
        <path id="Trazado_113975" data-name="Trazado 113975" d="M116.716,274.519c8.665-3.78,10.4-6.366,8.169-12.988-2.517-7.485-1.059-13.581,3.22-19.951,4.862-7.237,3.51-11.492-3.908-15.807a71.684,71.684,0,0,0-9.384-4.915c-6.716-2.667-12.9-5.8-16-12.9-1.366-3.117-3.431-5.246-7.263-4.9-2.615.235-3.194-2.164-3.527-3.813-1.491-7.365-6.378-7.625-12.016-5.85-3.073.967-5.547.954-6.927-2.187-3.153-7.18-7.223-5.5-11.763-1.518a28.854,28.854,0,0,1-4.2,2.908c-2.744,1.648-4.835,2.108-6.574,1.28q.237,2.754.608,5.468a4.175,4.175,0,0,1,4.236,2.808c1.139,2.994.352,5.857-1.6,8.41-.132.174-.248.35-.375.525a110.361,110.361,0,0,0,56.927,71.4c.557-5.279,5.759-5.955,10.381-7.97" transform="translate(-8.39 -33.578)" fill="#a6d062"/>
        <path id="Trazado_113976" data-name="Trazado 113976" d="M291.671,183.863H186.821c2.031,4.194,6.09,8.587,8.387,12.764a75.235,75.235,0,0,0,4.433,6.259c2.951,4.262,7.823,5.2,11.875,2.111,4.976-3.79,11.473.16,16.526-3.3.225-.155,1.148.489,1.6.916a38.1,38.1,0,0,0,11.257,6.923c-5.088,5.8-5.921,6.284-2.047,12.928,4.222,7.24.953,15.966,5.876,22.8.581.8-.257,2.866-.79,4.2a33.894,33.894,0,0,0-.223,25.3,110.012,110.012,0,0,0,47.957-90.909" transform="translate(-33.678 -33.145)" fill="#a6d062"/>
        <path id="Trazado_113977" data-name="Trazado 113977" d="M295.311,177.163c0,7.447-66.107,13.485-147.656,13.485S0,184.61,0,177.163s66.108-13.486,147.655-13.486,147.656,6.037,147.656,13.486" transform="translate(0 -29.506)" fill="#94e1db"/>
        <path id="Trazado_113978" data-name="Trazado 113978" d="M304.633,181.148c-.423,5.323-8.274,5-12.061,4.848-5.283-.215-10.465-1.278-15.708-1.856-8.039-.884-16.475,1.193-24.334,2.629-9.824,1.8-19.642,2.861-29.391.048a.378.378,0,0,0-.2.728c9.664,2.789,19.415,1.814,29.166.066,8.51-1.526,17.382-3.687,26.068-2.557,5.81.756,11.6,1.864,17.483,1.73,3.836-.085,9.355-.88,9.731-5.636.038-.486-.716-.482-.754,0" transform="translate(-40.142 -32.59)" fill="#c6efec"/>
        <path id="Trazado_113979" data-name="Trazado 113979" d="M303.1,182.45c3.976.272,8.8.725,11.392-2.952.281-.4-.375-.774-.652-.38-2.4,3.4-7.1,2.825-10.74,2.579-.485-.034-.482.721,0,.753" transform="translate(-54.575 -32.26)" fill="#c6efec"/>
        <path id="Trazado_113980" data-name="Trazado 113980" d="M208.628,176.189c-2.587-.643-5.261-.923-7.891-1.339-2-.317-4.368-.573-6.089-1.73-2.313-1.552,1.912-4.44,2.97-5.21.391-.284.015-.939-.38-.652-1.441,1.048-4.28,2.872-4,5.025.221,1.7,2.574,2.288,3.927,2.638,2.731.7,5.574.962,8.351,1.42,2.081.343,5.554.637,6.926,2.5.285.388.942.012.652-.38-1.018-1.381-2.88-1.875-4.463-2.268" transform="translate(-34.831 -30.139)" fill="#c6efec"/>
        <path id="Trazado_113981" data-name="Trazado 113981" d="M210.422,190.423c-3.231-.131-5.354-2.908-8.451-3.508-.474-.091-.677.637-.2.729,3.175.613,5.306,3.4,8.651,3.533.487.02.485-.734,0-.754" transform="translate(-36.324 -33.694)" fill="#c6efec"/>
        <path id="Trazado_113982" data-name="Trazado 113982" d="M191.276,179.143a23.544,23.544,0,0,1-7.418-2.069,5.07,5.07,0,0,1-2.732-2.456c-.555-1.489,1.114-2.846,2.117-3.631.383-.3-.155-.83-.533-.534-2.191,1.712-3.5,4.243-.878,6.25s6.233,2.814,9.443,3.194c.482.058.475-.7,0-.754" transform="translate(-32.517 -30.712)" fill="#c6efec"/>
        <path id="Trazado_113983" data-name="Trazado 113983" d="M201.167,122.179c2.621-.4,6.7-1.433,8.276-3.583,1.648-2.221.931-4.73-1.792-4.8.932-1.362.932-4.228-.645-5.017-1.577-.859-3.3.932-4.156,2.079-.072-1.935-.788-7.238-3.942-5.948-2.365,1-1.72,4.73-1.361,6.593a2.376,2.376,0,0,0-4.3-.215c-1,1.935.573,3.655,1.934,4.872-2.365.359-3.869,2.581-2.076,4.659,1.718,1.863,5.664,1.729,8.063,1.362" transform="translate(-34.669 -18.876)" fill="#427824"/>
        <path id="Trazado_113984" data-name="Trazado 113984" d="M204.887,119.294a12.906,12.906,0,0,1-.687,1.15,6.9,6.9,0,0,1-.066-1.137.243.243,0,0,0-.485,0,5.578,5.578,0,0,0,.173,1.653l0,.009a10.281,10.281,0,0,1-1.614,1.712c.015-1.253.011-2.506,0-3.759a4.279,4.279,0,0,0,1.448-1.848c.131-.281-.287-.527-.418-.244a4.38,4.38,0,0,1-1.033,1.488c-.009-1.441-.024-2.882-.025-4.323a.486.486,0,0,0-.971,0c0,1.109.008,2.218.016,3.326a4.246,4.246,0,0,1-1.843-1.806c-.139-.28-.557-.034-.42.245a4.811,4.811,0,0,0,2.266,2.109c.01,1.426.016,2.853.008,4.28a3.681,3.681,0,0,1-.964-.6c.136-.354.237-.717.339-1.082a.242.242,0,0,0-.467-.129c-.08.284-.162.567-.257.847a4.812,4.812,0,0,1-1.028-1.614c-.107-.29-.575-.166-.469.13a5.078,5.078,0,0,0,2.844,2.968c0,.07,0,.141,0,.211-.026,2.888-.38,5.756-.408,8.641a.485.485,0,0,0,.97,0c.027-2.74.336-5.468.4-8.21a10.9,10.9,0,0,0,1.339-1.24,9.625,9.625,0,0,0,1.108.209c.306.043.437-.423.128-.467s-.584-.093-.874-.157a12.564,12.564,0,0,0,1.4-2.116c.147-.275-.272-.521-.42-.244" transform="translate(-35.763 -20.465)" fill="#c67728"/>
        <path id="Trazado_113985" data-name="Trazado 113985" d="M30.761,142.775c5.564-.853,14.218-3.041,17.564-7.6,3.5-4.714,1.976-10.037-3.8-10.189,1.978-2.889,1.978-8.972-1.368-10.645-3.345-1.826-7,1.977-8.82,4.411-.152-4.106-1.673-15.36-8.364-12.622-5.018,2.129-3.649,10.037-2.89,13.989-1.825-3.8-7.147-4.409-9.124-.456-2.13,4.106,1.216,7.755,4.106,10.342-5.018.76-8.212,5.474-4.41,9.884,3.649,3.954,12.021,3.669,17.109,2.89" transform="translate(-2.159 -19.055)" fill="#8dc73d"/>
        <path id="Trazado_113986" data-name="Trazado 113986" d="M38.658,136.652a27.821,27.821,0,0,1-1.459,2.441,14.514,14.514,0,0,1-.139-2.413.515.515,0,0,0-1.03,0,11.8,11.8,0,0,0,.368,3.508c0,.008.007.011.01.02a21.812,21.812,0,0,1-3.426,3.632c.03-2.659.024-5.318.007-7.977a9.091,9.091,0,0,0,3.07-3.921c.28-.6-.607-1.12-.889-.519a9.312,9.312,0,0,1-2.188,3.157c-.023-3.057-.055-6.116-.058-9.174a1.03,1.03,0,0,0-2.058,0c0,2.353.02,4.706.036,7.059A9,9,0,0,1,27,128.633c-.3-.593-1.185-.072-.889.52a10.2,10.2,0,0,0,4.8,4.477c.021,3.026.034,6.054.017,9.081a7.735,7.735,0,0,1-2.046-1.274c.288-.749.5-1.521.721-2.294a.515.515,0,0,0-.992-.274c-.171.6-.348,1.2-.547,1.8a10.275,10.275,0,0,1-2.18-3.425c-.225-.619-1.22-.352-.993.274a10.771,10.771,0,0,0,6.032,6.3c0,.151,0,.3,0,.449-.058,6.129-.807,12.216-.869,18.336a1.03,1.03,0,0,0,2.059,0c.057-5.814.713-11.6.845-17.423a22.971,22.971,0,0,0,2.849-2.631,20.1,20.1,0,0,0,2.346.443c.648.093.929-.9.274-.992-.624-.089-1.243-.2-1.857-.334a26.408,26.408,0,0,0,2.977-4.488c.311-.586-.578-1.106-.889-.521" transform="translate(-4.481 -22.428)" fill="#c67728"/>
        <path id="Trazado_113987" data-name="Trazado 113987" d="M77.7,156.984c-2.653-.379-4.773-5.91-3.031-8.108,1.971-2.425,5.532-.3,6.592,1.894a15.063,15.063,0,0,1,.757-5.227c.379-1.062,2.122-4.471,3.789-3.789,1.212.454,1.288,3.94,1.288,5a24.2,24.2,0,0,1-.606,4.7c.681-2.576,4.925-2.8,5.379,0,.38,2.121-2.121,5.227-4.244,5.532Z" transform="translate(-13.347 -25.538)" fill="#8cc63e"/>
        <path id="Trazado_113988" data-name="Trazado 113988" d="M88.416,154.119a11.454,11.454,0,0,1-4.849,2.374c.166-1.03.286-2.064.41-3.1a7.33,7.33,0,0,0,1.45-.813c.279-.176.021-.621-.258-.443a9.722,9.722,0,0,1-1.121.677,28.4,28.4,0,0,1,.673-3.772.257.257,0,0,0-.5-.137c-.655,2.48-.75,5-1.162,7.5a6.778,6.778,0,0,1-2.456-1.59,5.041,5.041,0,0,0,.316-1.074c.069-.322-.425-.459-.494-.136a5.887,5.887,0,0,1-.207.812,6.137,6.137,0,0,1-1.445-2.1c-.1-.312-.6-.178-.5.136a4.143,4.143,0,0,0,.445.9,4.68,4.68,0,0,1-1.3.008c-.329-.034-.325.479,0,.513a4.672,4.672,0,0,0,1.619-.061c.343.448.737.865,1.106,1.275a6.93,6.93,0,0,0,2.822,1.831c-.006.033-.01.065-.016.1-.061.322.434.461.5.136.008-.046.015-.091.023-.138a11.687,11.687,0,0,0,5.2-2.461c.266-.192.011-.637-.257-.443" transform="translate(-13.914 -26.811)" fill="#8e4819"/>
        <path id="Trazado_113989" data-name="Trazado 113989" d="M54.587,149.392c3.457,1.448,10.627-.912,11.834-4,1.568-3.971-1.041-6.28-4.743-5.609,2.457-3.831,4.376-15.824-.461-18.31-6.04-3.192-7.891,10.253-8.55,13.692-1.633-1.387-3.944-2.46-5.777-.841-1.945,1.616-1.025,4.432-.2,6.577,1.136,3.046,4.688,7.148,7.892,8.491" transform="translate(-8.245 -21.811)" fill="#1c5447"/>
        <path id="Trazado_113990" data-name="Trazado 113990" d="M53.671,141.8a12.708,12.708,0,0,0,1.053,2.387,2.547,2.547,0,0,0,.3-1.123.378.378,0,0,1,.755.022,3.8,3.8,0,0,1-.6,1.848,10.5,10.5,0,0,0,2.2,2.488c.267-4.772.582-9.542.975-14.306.08-.966,1.589-.926,1.509.045-.13,1.574-.238,3.149-.352,4.724a6.544,6.544,0,0,0,2.146-2.447c.239-.424.88-.022.64.4a6.739,6.739,0,0,1-2.852,2.923q-.932,13.056-1.306,26.144a.755.755,0,0,1-1.508-.045q.25-8.281.7-16.554a12.706,12.706,0,0,1-4.386-6.328c-.145-.466.59-.64.734-.179" transform="translate(-9.54 -23.87)" fill="#c67728"/>
        <path id="Trazado_113991" data-name="Trazado 113991" d="M225.071,163.923c-2.321-31.149,8.956-40.415,8.956-40.415s10.574-.664,18.109-5.257c6.8-4.143,20.432-12.03,20.432-12.03s-12.872,15.6-10.551,57.7Z" transform="translate(-40.517 -19.149)" fill="#00a7af"/>
        <path id="Trazado_113992" data-name="Trazado 113992" d="M261.523,180.021a6.718,6.718,0,1,0-3.467-12.462,5.363,5.363,0,0,0-9.519,4.772,3.222,3.222,0,0,0-3.349-.219,6.634,6.634,0,0,0-12.064-1.387,7.681,7.681,0,0,0-14.649-.645c-.133-.011-.262-.04-.4-.04a4.991,4.991,0,1,0,0,9.981Z" transform="translate(-38.413 -29.746)" fill="#fff"/>
        <g id="Grupo_80444" data-name="Grupo 80444" transform="translate(186.206 87.072)" opacity="0.5">
          <g id="Grupo_80443" data-name="Grupo 80443">
            <g id="Grupo_80442" data-name="Grupo 80442" clip-path="url(#clip-path-3)">
              <path id="Trazado_113993" data-name="Trazado 113993" d="M252.568,118.251c-7.534,4.593-18.109,5.257-18.109,5.257s-3.6,2.961-6.311,11.149c-1.039,5.264-1.721,9.878.37,10.151,2.491.227,6.116-8.381,8.607-9.74,4.531-2.491,3.4,3.172,2.946,6.569-.679,3.4-1.814,8.607.9,11.325,3.4,3.4,7.023-.453,8.607-3.624,1.362-2.039,2.267-25.6,8.156-21.972,2.718,1.585-.68,7.7,0,9.74,1.338,2.867,3.8,1.058,5.49-.8,2.723-21.52,9.773-30.084,9.773-30.084s-13.635,7.887-20.433,12.03" transform="translate(-227.156 -106.221)" fill="#94e1db"/>
            </g>
          </g>
        </g>
        <path id="Trazado_113994" data-name="Trazado 113994" d="M136.818,173.188a19.909,19.909,0,0,0,7.25-3.842c2.518-2.11-8.761-13.439-35.041-13.439C39.333,155.906,0,169.371,0,175.762c0,7.447,66.108,13.485,147.655,13.485q8.757,0,17.257-.093c.24-.462,1.5-10.5-28.094-15.967" transform="translate(0 -28.105)" fill="#cee94e"/>
        <path id="Trazado_113995" data-name="Trazado 113995" d="M111.656,157.543c-4.238,1.061-12.086-2.926-12.931-6.7-1.107-4.852,2.307-7.051,6.455-5.627-2.156-4.85-2.249-19.009,3.761-21.021,7.525-2.612,7.284,13.208,7.438,17.289,2.127-1.312,4.979-2.139,6.807.05,1.956,2.205.4,5.287-.936,7.614-1.848,3.309-6.664,7.41-10.593,8.392" transform="translate(-17.759 -22.337)" fill="#8bc53b"/>
        <path id="Trazado_113996" data-name="Trazado 113996" d="M117.274,148.718a12.886,12.886,0,0,1-1.148,2.405,2.616,2.616,0,0,1-.27-1.156c.016-.5-.756-.5-.771,0a3.89,3.89,0,0,0,.552,1.905,10.67,10.67,0,0,1-2.316,2.474c-.127-4.88-.3-9.759-.561-14.635-.052-.989-1.594-.994-1.542,0,.084,1.611.147,3.222.216,4.834a6.684,6.684,0,0,1-2.117-2.562c-.232-.44-.9-.05-.666.389a6.886,6.886,0,0,0,2.823,3.071q.556,13.357.54,26.73a.771.771,0,0,0,1.542,0q0-8.462-.209-16.922a12.983,12.983,0,0,0,4.669-6.327c.162-.472-.583-.672-.743-.2" transform="translate(-19.578 -25.052)" fill="#c67728"/>
        <path id="Trazado_113997" data-name="Trazado 113997" d="M213.255,130.846c-1.758.44-5.014-1.215-5.367-2.781-.459-2.014.957-2.926,2.679-2.335-.9-2.013-.932-7.891,1.561-8.726,3.123-1.084,3.024,5.483,3.089,7.177.882-.544,2.067-.889,2.824.021.813.915.166,2.194-.388,3.16a8.35,8.35,0,0,1-4.4,3.483" transform="translate(-37.46 -21.071)" fill="#8bc53b"/>
        <path id="Trazado_113998" data-name="Trazado 113998" d="M215.588,127.181a5.285,5.285,0,0,1-.479,1,1.1,1.1,0,0,1-.111-.48.16.16,0,0,0-.32,0,1.609,1.609,0,0,0,.229.79,4.476,4.476,0,0,1-.961,1.029c-.052-2.026-.126-4.053-.232-6.077-.023-.411-.663-.412-.64,0,.034.669.061,1.339.088,2.006a2.787,2.787,0,0,1-.879-1.063c-.094-.182-.37-.021-.275.161a2.849,2.849,0,0,0,1.171,1.275q.231,5.547.225,11.1a.32.32,0,0,0,.64,0q0-3.513-.088-7.024a5.381,5.381,0,0,0,1.939-2.627c.069-.2-.242-.28-.307-.085" transform="translate(-38.216 -22.197)" fill="#8e4819"/>
        <path id="Trazado_113999" data-name="Trazado 113999" d="M141.278,172.417c-4.255.525-11.052.71-14.447-1.943-3.539-2.733-3.524-6.949.681-8.254-2.048-1.71-3.305-6.169-1.2-8.086,2.076-2.03,5.536,0,7.377,1.41-.738-3.042-1.949-11.6,3.522-10.982,4.118.524,4.75,6.6,5.01,9.659.552-3.164,4.327-4.71,6.594-2.221,2.409,2.57.711,5.936-.873,8.428,3.836-.48,7.151,2.317,5.277,6.334-1.858,3.653-8.054,5.174-11.943,5.655" transform="translate(-22.401 -26.055)" fill="#145a38"/>
        <path id="Trazado_114000" data-name="Trazado 114000" d="M143.829,167.637a21.614,21.614,0,0,1-1.111,1.859,10.986,10.986,0,0,1-.106-1.839.392.392,0,0,0-.784,0,8.987,8.987,0,0,0,.28,2.672c0,.006.006.008.007.015a16.574,16.574,0,0,1-2.608,2.766c.022-2.025.018-4.049,0-6.075a6.906,6.906,0,0,0,2.338-2.985c.214-.455-.462-.853-.676-.4a7.084,7.084,0,0,1-1.666,2.406c-.018-2.329-.043-4.658-.044-6.987a.784.784,0,0,0-1.567,0c0,1.792.014,3.584.026,5.377a6.859,6.859,0,0,1-2.976-2.919c-.225-.452-.9-.056-.676.4a7.772,7.772,0,0,0,3.659,3.408c.016,2.305.025,4.61.012,6.915a5.885,5.885,0,0,1-1.558-.969c.22-.571.383-1.159.549-1.748a.392.392,0,0,0-.755-.207c-.13.459-.266.916-.416,1.368a7.815,7.815,0,0,1-1.661-2.608c-.171-.471-.929-.268-.756.208a8.205,8.205,0,0,0,4.594,4.8c0,.114,0,.229,0,.342-.044,4.668-.615,9.3-.662,13.966a.784.784,0,0,0,1.567,0c.045-4.43.544-8.839.645-13.271a17.516,17.516,0,0,0,2.168-2,15.477,15.477,0,0,0,1.788.338c.493.071.707-.684.207-.756-.475-.068-.946-.15-1.413-.255a20.2,20.2,0,0,0,2.267-3.417c.236-.447-.439-.843-.677-.4" transform="translate(-24.034 -28.539)" fill="#c67728"/>
        <path id="Trazado_114001" data-name="Trazado 114001" d="M177.3,192.9c-2.637-1.13-3.986-6.782-1.255-8.291,2.921-1.6,5.087.189,7.819.755.189-2.827.189-8.291,3.769-9.138,2.636-.659,4.428,3.767,4.613,5.841,2.546-3.58,6.31-3.016,6.314,1.789,0,3.768-.974,5.276-2.8,9.044Z" transform="translate(-31.466 -31.756)" fill="#8cc63e"/>
        <path id="Trazado_114002" data-name="Trazado 114002" d="M194.925,185.114a20.621,20.621,0,0,1-2.1,3.462,4.748,4.748,0,0,1-.252-1.112c-.032-.407-.67-.41-.637,0a6.583,6.583,0,0,0,.422,1.7,11.959,11.959,0,0,1-3.608,2.981,41.585,41.585,0,0,0,.437-10.8c-.022-.408-.66-.41-.637,0,.108,2.053.2,4.1.115,6.136a3.5,3.5,0,0,1-1.4-1.876.319.319,0,0,0-.615.17,3.979,3.979,0,0,0,1.987,2.39,26.191,26.191,0,0,1-.521,3.927c-1.109-.288-2.226-.546-3.34-.82,0-.7-.034-1.4-.067-2.093-.019-.41-.657-.412-.637,0q.048.966.064,1.935a12.746,12.746,0,0,1-4.685-1.751c-.319-.252-.774.194-.452.449a6.441,6.441,0,0,0,2.039,1.019,5.026,5.026,0,0,1-1.248.4.319.319,0,0,0,.17.615,3.955,3.955,0,0,0,1.814-.771c.271.086.543.176.812.275a54.624,54.624,0,0,0,5.4,1.366v0a.32.32,0,0,0,.574.255,12.229,12.229,0,0,0,4.326-3.422.276.276,0,0,0,.18-.219,20.444,20.444,0,0,0,2.412-3.894c.18-.371-.37-.693-.549-.322" transform="translate(-32.249 -32.635)" fill="#8e4819"/>
        <path id="Trazado_114003" data-name="Trazado 114003" d="M112.1,182.293c2.16-.926,3.266-5.556,1.027-6.791-2.392-1.312-4.167.155-6.4.618-.155-2.316-.155-6.791-3.086-7.486-2.161-.54-3.627,3.087-3.781,4.785-2.084-2.933-5.168-2.471-5.171,1.466,0,3.087.8,4.322,2.29,7.409Z" transform="translate(-17.068 -30.39)" fill="#1c5447"/>
        <path id="Trazado_114004" data-name="Trazado 114004" d="M98.993,175.916a16.911,16.911,0,0,0,1.715,2.836,3.87,3.87,0,0,0,.208-.912c.026-.333.548-.335.522,0a5.528,5.528,0,0,1-.345,1.4,9.829,9.829,0,0,0,2.954,2.441,34.1,34.1,0,0,1-.357-8.851c.018-.335.54-.337.522,0-.089,1.682-.16,3.357-.094,5.025a2.851,2.851,0,0,0,1.15-1.535.261.261,0,0,1,.5.138,3.258,3.258,0,0,1-1.628,1.958,21.6,21.6,0,0,0,.426,3.217c.91-.234,1.825-.448,2.736-.673,0-.572.026-1.142.054-1.713.016-.335.539-.337.522,0-.025.53-.045,1.057-.052,1.587a10.457,10.457,0,0,0,3.837-1.436c.261-.207.634.16.37.37a5.344,5.344,0,0,1-1.669.835,4.127,4.127,0,0,0,1.021.325.262.262,0,0,1-.139.5,3.244,3.244,0,0,1-1.487-.632c-.221.071-.444.144-.665.225a44.227,44.227,0,0,1-4.422,1.118v0a.263.263,0,0,1-.471.21,10.023,10.023,0,0,1-3.542-2.8.225.225,0,0,1-.148-.179,16.832,16.832,0,0,1-1.976-3.19c-.147-.3.3-.567.451-.264" transform="translate(-17.759 -31.11)" fill="#8e4819"/>
        <path id="Trazado_114005" data-name="Trazado 114005" d="M17.373,174.9c-1.121-3.1-.4-15.043,3.893-14.91,4.354.131,4.288,5.212,5.013,8.181,1.254-2.111,5.741-4.354,6-.33.066,1.913-1.743,5.355-3.232,7.06Z" transform="translate(-3.047 -28.841)" fill="#427824"/>
        <path id="Trazado_114006" data-name="Trazado 114006" d="M28.707,175.2c.059-.074.111-.152.168-.229a.2.2,0,0,0,.116,0c.524-.163,1.057-.292,1.581-.455.274-.085.157-.516-.119-.43-.4.124-.8.231-1.2.347.281-.434.543-.881.832-1.312.637-.95,1.339-1.853,1.94-2.828.152-.247-.234-.471-.385-.225-.48.78-1.016,1.519-1.547,2.264-.112.157-.217.32-.322.481-.042-.278-.091-.555-.111-.836s-.466-.288-.447,0c.03.435.134.86.168,1.294a.217.217,0,0,0,.034.1,15,15,0,0,1-1.023,1.512c-.179.222.135.54.316.316" transform="translate(-5.108 -30.638)" fill="#8e4819"/>
        <path id="Trazado_114007" data-name="Trazado 114007" d="M24.294,170.837c.177-.224-.136-.542-.316-.316-.269.339-.558.659-.854.971a6.032,6.032,0,0,1-.161-.775c-.041-.284-.471-.163-.431.119a5.616,5.616,0,0,0,.232,1.028c-.277.273-.565.536-.859.793a55.74,55.74,0,0,1,.3-8.733c.035-.285-.412-.282-.447,0-.125,1.041-.21,2.1-.267,3.167-.2-.229-.408-.447-.586-.692s-.555-.007-.385.225c.291.4.675.728.934,1.15l0,0a63.934,63.934,0,0,0,.088,6.569c.017.286.464.288.446,0-.022-.37-.042-.743-.059-1.116a16.983,16.983,0,0,0,2.366-2.391" transform="translate(-3.691 -29.512)" fill="#8e4819"/>
        <path id="Trazado_114008" data-name="Trazado 114008" d="M47.136,182.051l-.023-.05c-.161-.456-.89-.26-.728.2a.829.829,0,0,0,.37.5.377.377,0,0,0,.381-.651" transform="translate(-8.358 -32.763)" fill="#8cc63e"/>
        <path id="Trazado_114009" data-name="Trazado 114009" d="M48.906,181.957c-.007.132-.03.261-.039.393-.034.485.721.482.755,0,.009-.132.032-.262.039-.393.027-.486-.728-.484-.755,0" transform="translate(-8.809 -32.736)" fill="#8cc63e"/>
        <path id="Trazado_114010" data-name="Trazado 114010" d="M58.267,184.641v.276a.377.377,0,0,0,.754,0v-.276a.377.377,0,0,0-.754,0" transform="translate(-10.504 -33.22)" fill="#8cc63e"/>
        <path id="Trazado_114011" data-name="Trazado 114011" d="M56.362,185.557a.382.382,0,0,1,.026.174.378.378,0,0,0,.755,0,1.558,1.558,0,0,0-.053-.374.378.378,0,0,0-.728.2" transform="translate(-10.158 -33.366)" fill="#8cc63e"/>
        <path id="Trazado_114012" data-name="Trazado 114012" d="M60.917,186.083a2.377,2.377,0,0,0-.2.354c-.191.442.459.827.653.38a2.294,2.294,0,0,1,.2-.353c.267-.408-.386-.786-.652-.38" transform="translate(-10.94 -33.514)" fill="#8cc63e"/>
        <path id="Trazado_114013" data-name="Trazado 114013" d="M82.805,186.942c-.225-.43-.878-.05-.653.38a.855.855,0,0,0,.119.2c.278.4.933.019.652-.381a.848.848,0,0,1-.118-.2" transform="translate(-14.801 -33.666)" fill="#8cc63e"/>
        <path id="Trazado_114014" data-name="Trazado 114014" d="M83.156,186.512v.2a.378.378,0,0,0,.755,0v-.2a.378.378,0,0,0-.755,0" transform="translate(-14.991 -33.557)" fill="#8cc63e"/>
        <path id="Trazado_114015" data-name="Trazado 114015" d="M84.433,187.277l-.06.109c-.31.371.221.908.534.534a1.457,1.457,0,0,0,.254-.442c.175-.454-.556-.65-.728-.2" transform="translate(-15.193 -33.715)" fill="#8cc63e"/>
        <path id="Trazado_114016" data-name="Trazado 114016" d="M80.8,187.931c-.066-.039-.131-.078-.2-.118a.378.378,0,0,0-.381.652c.065.04.13.079.2.118a.378.378,0,0,0,.381-.652" transform="translate(-14.43 -33.847)" fill="#8cc63e"/>
        <path id="Trazado_114017" data-name="Trazado 114017" d="M70.337,165.553c-.221-.434-.871-.052-.652.381a2.127,2.127,0,0,0,.256.391c.308.377.839-.161.534-.534a1.266,1.266,0,0,1-.138-.238" transform="translate(-12.554 -29.81)" fill="#8cc63e"/>
        <path id="Trazado_114018" data-name="Trazado 114018" d="M71.787,165.121a2.785,2.785,0,0,1-.237.393c-.275.4.38.78.652.38a2.516,2.516,0,0,0,.235-.393c.2-.44-.452-.825-.65-.381" transform="translate(-12.887 -29.731)" fill="#8cc63e"/>
        <path id="Trazado_114019" data-name="Trazado 114019" d="M70.822,167.33c-.008.046-.017.09-.025.136a.377.377,0,0,0,.727.2,1.3,1.3,0,0,0,.053-.336c.02-.486-.735-.485-.755,0" transform="translate(-12.759 -30.099)" fill="#8cc63e"/>
        <path id="Trazado_114020" data-name="Trazado 114020" d="M61.882,166.08c-.167-.452-.9-.257-.728.2a3.8,3.8,0,0,0,.157.366c.214.437.865.054.652-.38a1.122,1.122,0,0,1-.08-.185" transform="translate(-11.02 -29.893)" fill="#8cc63e"/>
        <path id="Trazado_114021" data-name="Trazado 114021" d="M64.282,166.567l-.118.157c-.293.389.363.766.652.381l.117-.157c.293-.39-.362-.766-.651-.381" transform="translate(-11.554 -29.998)" fill="#8cc63e"/>
        <path id="Trazado_114022" data-name="Trazado 114022" d="M36.236,177.4c-.263-.407-.916-.03-.652.381a1.66,1.66,0,0,1,.118.235c.2.443.848.06.652-.38a1.714,1.714,0,0,0-.118-.236" transform="translate(-6.404 -31.949)" fill="#8cc63e"/>
        <path id="Trazado_114023" data-name="Trazado 114023" d="M36.555,177.693c.008.046.017.09.026.135.02.485.775.487.755,0a1.344,1.344,0,0,0-.053-.336.378.378,0,0,0-.728.2" transform="translate(-6.587 -31.949)" fill="#8cc63e"/>
        <path id="Trazado_114024" data-name="Trazado 114024" d="M29.795,177.835v.153c-.106.474.621.675.727.2a1.176,1.176,0,0,0,0-.555c-.106-.475-.833-.274-.727.2" transform="translate(-5.369 -31.974)" fill="#8cc63e"/>
        <path id="Trazado_114025" data-name="Trazado 114025" d="M31.149,177.588c-.047.147-.111.286-.157.433-.148.465.58.662.727.2.048-.147.111-.286.158-.433.148-.465-.581-.662-.728-.2" transform="translate(-5.583 -31.967)" fill="#8cc63e"/>
        <path id="Trazado_114026" data-name="Trazado 114026" d="M17.284,177.748a2.315,2.315,0,0,0-.132-.3.378.378,0,0,0-.653.381.908.908,0,0,1,.12.263.4.4,0,0,0,.675.119.376.376,0,0,0,.734-.1V177.8a.375.375,0,0,0-.745-.048" transform="translate(-2.965 -31.956)" fill="#8cc63e"/>
        <path id="Trazado_114027" data-name="Trazado 114027" d="M12.783,177.6c-.289-.384-.944-.009-.653.381q.178.235.355.471c.288.384.944.009.652-.38l-.354-.472" transform="translate(-2.174 -31.987)" fill="#8cc63e"/>
        <path id="Trazado_114028" data-name="Trazado 114028" d="M10.854,177.664c-.377-.3-.915.231-.534.534.234.185.488.347.707.55.357.33.892-.2.534-.534-.221-.2-.472-.363-.707-.55" transform="translate(-1.837 -32.012)" fill="#8cc63e"/>
        <path id="Trazado_114029" data-name="Trazado 114029" d="M12.966,176.323a.759.759,0,0,1,0-.31c.085-.475-.642-.68-.727-.2a1.923,1.923,0,0,0,0,.712c.085.479.812.275.727-.2" transform="translate(-2.2 -31.645)" fill="#8cc63e"/>
        <path id="Trazado_114030" data-name="Trazado 114030" d="M33.436,164.451a.724.724,0,0,1-.016.073.506.506,0,0,1-.068-.174c-.107-.474-.834-.273-.728.2a1.157,1.157,0,0,0,.527.737.325.325,0,0,0,.473-.1.367.367,0,0,0,.475-.246,2.157,2.157,0,0,0,.092-.493c.035-.486-.72-.483-.754,0" transform="translate(-5.879 -29.579)" fill="#8cc63e"/>
        <path id="Trazado_114031" data-name="Trazado 114031" d="M57.328,160.9c-.152-.46-.882-.262-.728.2l.118.353c.153.459.882.262.727-.2-.039-.118-.078-.236-.117-.354" transform="translate(-10.2 -28.959)" fill="#8cc63e"/>
        <path id="Trazado_114032" data-name="Trazado 114032" d="M58.678,161.527a2.9,2.9,0,0,0-.053-.533c-.092-.478-.819-.275-.728.2a1.742,1.742,0,0,1,.026.333.378.378,0,0,0,.755,0" transform="translate(-10.436 -28.973)" fill="#8cc63e"/>
        <path id="Trazado_114033" data-name="Trazado 114033" d="M60.892,161.506c.057-.133.109-.266.156-.4.157-.462-.572-.659-.727-.2-.025.076-.051.15-.08.224-.192.442.458.826.652.381" transform="translate(-10.853 -28.959)" fill="#8cc63e"/>
        <path id="Trazado_114034" data-name="Trazado 114034" d="M51.478,161.257a.378.378,0,0,0-.534.534,4.908,4.908,0,0,1,.393.433c.3.382.831-.157.534-.534a4.784,4.784,0,0,0-.393-.433" transform="translate(-9.164 -29.05)" fill="#8cc63e"/>
        <path id="Trazado_114035" data-name="Trazado 114035" d="M98.252,184.784c.089-.476-.638-.679-.729-.2a1.773,1.773,0,0,0-.03.355.384.384,0,0,0-.174-.148,1.18,1.18,0,0,1-.423-.374c-.311-.375-.842.162-.534.534a1.886,1.886,0,0,0,.757.57.31.31,0,0,0,.436-.235.377.377,0,0,0,.7-.27.411.411,0,0,1,0-.231" transform="translate(-17.355 -33.222)" fill="#8cc63e"/>
        <path id="Trazado_114036" data-name="Trazado 114036" d="M139.293,193.738c-.035.084-.071.169-.107.253l-.007-.007a.776.776,0,0,1-.3-.257c-.267-.4-.907-.033-.657.367a.534.534,0,0,1-.327-.4c-.1-.476-.83-.274-.727.2a1.237,1.237,0,0,0,.684.854.4.4,0,0,0,.566-.418,1.476,1.476,0,0,0,.377.3.347.347,0,0,0,.337.007.419.419,0,0,0,.65-.153c.077-.184.16-.367.236-.551.186-.451-.544-.643-.728-.2" transform="translate(-24.726 -34.87)" fill="#8cc63e"/>
        <path id="Trazado_114037" data-name="Trazado 114037" d="M171.61,192.261c-.1-.478-.825-.274-.727.2a1.5,1.5,0,0,0,.49.834c.362.321.9-.209.534-.534a.839.839,0,0,1-.3-.5" transform="translate(-30.804 -34.61)" fill="#8cc63e"/>
        <path id="Trazado_114038" data-name="Trazado 114038" d="M174.308,194.235c-.054-.477-.81-.484-.755,0a1.941,1.941,0,0,0,.209.662c.214.436.865.054.652-.38a.889.889,0,0,1-.106-.282" transform="translate(-31.286 -34.95)" fill="#8cc63e"/>
        <path id="Trazado_114039" data-name="Trazado 114039" d="M173.014,192.076a.377.377,0,0,0-.754,0,1.711,1.711,0,0,0,.052.414.378.378,0,0,0,.728-.2.512.512,0,0,1-.026-.214" transform="translate(-31.053 -34.56)" fill="#8cc63e"/>
        <path id="Trazado_114040" data-name="Trazado 114040" d="M164.464,177.637a.378.378,0,0,0-.728.2c.048.158.109.312.157.471a.377.377,0,0,0,.727-.2c-.048-.16-.108-.313-.157-.472" transform="translate(-29.514 -31.975)" fill="#8cc63e"/>
        <path id="Trazado_114041" data-name="Trazado 114041" d="M165.917,177.737a.378.378,0,0,0-.755,0,1.413,1.413,0,0,0,.053.415c.143.464.871.266.727-.2a.475.475,0,0,1-.025-.214" transform="translate(-29.774 -31.975)" fill="#8cc63e"/>
        <path id="Trazado_114042" data-name="Trazado 114042" d="M173.55,171.37a.656.656,0,0,1-.1-.2c-.058-.476-.813-.482-.755,0a1.27,1.27,0,0,0,.209.584c.263.407.916.03.651-.381" transform="translate(-31.13 -30.792)" fill="#8cc63e"/>
        <path id="Trazado_114043" data-name="Trazado 114043" d="M174.53,170.724c.009-.043.019-.087.028-.13.1-.475-.628-.676-.728-.2-.038.184-.079.366-.118.55a.393.393,0,0,0,.6.4c.034.3.39.53.617.242a1.354,1.354,0,0,0,.254-.521.382.382,0,0,0-.657-.341" transform="translate(-31.314 -30.668)" fill="#8cc63e"/>
        <path id="Trazado_114044" data-name="Trazado 114044" d="M171.221,172.118c.376.3.914-.23.534-.534-.066-.052-.133-.1-.2-.157-.366-.317-.9.213-.534.534.063.055.13.1.2.157" transform="translate(-30.808 -30.886)" fill="#8cc63e"/>
        <path id="Trazado_114045" data-name="Trazado 114045" d="M166.334,162.2c-.128.178-.241.363-.354.55a.378.378,0,0,0,.652.381c.113-.187.227-.372.354-.55.284-.4-.371-.773-.652-.381" transform="translate(-29.911 -29.21)" fill="#8cc63e"/>
        <path id="Trazado_114046" data-name="Trazado 114046" d="M165.616,162.346a1.4,1.4,0,0,1,.238-.578c.283-.4-.372-.774-.652-.381a1.908,1.908,0,0,0-.314.758c-.093.476.634.678.728.2" transform="translate(-29.723 -29.063)" fill="#8cc63e"/>
        <path id="Trazado_114047" data-name="Trazado 114047" d="M164.524,161.74a3.662,3.662,0,0,0-.157-.55c-.169-.452-.9-.257-.727.2a3.785,3.785,0,0,1,.157.55c.1.476.828.275.728-.2" transform="translate(-29.495 -29.012)" fill="#8cc63e"/>
        <path id="Trazado_114048" data-name="Trazado 114048" d="M167.59,163.5a1.315,1.315,0,0,0-.351.257c-.352.338.183.871.534.534a.392.392,0,0,1,.2-.138c.439-.211.056-.861-.381-.653" transform="translate(-30.128 -29.467)" fill="#8cc63e"/>
        <path id="Trazado_114049" data-name="Trazado 114049" d="M119.051,168.906c-.086-.478-.813-.275-.728.2a2.126,2.126,0,0,0,.235.68c.235.426.887.045.651-.381a1.544,1.544,0,0,1-.158-.5" transform="translate(-21.329 -30.4)" fill="#8cc63e"/>
        <path id="Trazado_114050" data-name="Trazado 114050" d="M119.832,168.954c-.039.184-.08.366-.118.55-.1.475.63.677.728.2.039-.184.08-.366.118-.55.1-.475-.628-.677-.728-.2" transform="translate(-21.579 -30.409)" fill="#8cc63e"/>
        <path id="Trazado_114051" data-name="Trazado 114051" d="M265.352,72.575a12.18,12.18,0,1,0-7.08-22.086,10.117,10.117,0,0,0-18.145,7.987,7.23,7.23,0,1,0-2.253,14.1Z" transform="translate(-41.578 -8.332)" fill="#fff"/>
      </g>
    </g>
  </g>
</svg>
