<svg id="Grupo_57996" data-name="Grupo 57996" xmlns="http://www.w3.org/2000/svg" xmlns:xlink="http://www.w3.org/1999/xlink" width="94.172" height="155.071" viewBox="0 0 94.172 155.071">
  <defs>
    <clipPath id="clip-path">
      <rect id="Rectángulo_6474" data-name="Rectángulo 6474" width="94.172" height="155.071" fill="none"/>
    </clipPath>
    <clipPath id="clip-path-3">
      <rect id="Rectángulo_6466" data-name="Rectángulo 6466" width="90.622" height="18.571" fill="none"/>
    </clipPath>
    <clipPath id="clip-path-4">
      <rect id="Rectángulo_6467" data-name="Rectángulo 6467" width="90.622" height="18.572" fill="none"/>
    </clipPath>
    <clipPath id="clip-path-5">
      <rect id="Rectángulo_6468" data-name="Rectángulo 6468" width="23.977" height="131.317" fill="none"/>
    </clipPath>
    <clipPath id="clip-path-6">
      <rect id="Rectángulo_6469" data-name="Rectángulo 6469" width="15.917" height="128.817" fill="none"/>
    </clipPath>
    <clipPath id="clip-path-7">
      <rect id="Rectángulo_6470" data-name="Rectángulo 6470" width="94.092" height="18.572" fill="none"/>
    </clipPath>
    <clipPath id="clip-path-8">
      <rect id="Rectángulo_6471" data-name="Rectángulo 6471" width="16.963" height="33.745" fill="none"/>
    </clipPath>
    <clipPath id="clip-path-9">
      <rect id="Rectángulo_6472" data-name="Rectángulo 6472" width="6.25" height="1.404" fill="none"/>
    </clipPath>
  </defs>
  <g id="Grupo_57868" data-name="Grupo 57868" clip-path="url(#clip-path)">
    <g id="Grupo_57867" data-name="Grupo 57867">
      <g id="Grupo_57866" data-name="Grupo 57866" clip-path="url(#clip-path)">
        <path id="Trazado_113600" data-name="Trazado 113600" d="M0,164.052v-6.071a94.783,94.783,0,0,1,94.092,0v6.071a94.737,94.737,0,0,0-94.092,0" transform="translate(0 -22.016)" fill="#383839"/>
        <path id="Trazado_113601" data-name="Trazado 113601" d="M92.828,20.684V142.247a99.518,99.518,0,0,1-90.786,0V18.937a122.447,122.447,0,0,0,46.6,9.642,122.4,122.4,0,0,0,44.186-7.894" transform="translate(-0.309 -2.866)" fill="#4f4e51"/>
        <g id="Grupo_57847" data-name="Grupo 57847" transform="translate(1.862 47.763)" opacity="0.21">
          <g id="Grupo_57846" data-name="Grupo 57846">
            <g id="Grupo_57845" data-name="Grupo 57845" clip-path="url(#clip-path-3)">
              <path id="Trazado_113602" data-name="Trazado 113602" d="M92.817,56.28v6.071a89.246,89.246,0,0,1-44.537,12.5,89.264,89.264,0,0,1-46.085-12.5V56.28a89.248,89.248,0,0,0,44.022,12.5,89.3,89.3,0,0,0,46.6-12.5" transform="translate(-2.194 -56.28)" fill="#fff"/>
            </g>
          </g>
        </g>
        <g id="Grupo_57850" data-name="Grupo 57850" transform="translate(1.862 98.826)" opacity="0.21">
          <g id="Grupo_57849" data-name="Grupo 57849">
            <g id="Grupo_57848" data-name="Grupo 57848" clip-path="url(#clip-path-4)">
              <path id="Trazado_113603" data-name="Trazado 113603" d="M92.817,116.449v6.07a89.244,89.244,0,0,1-44.537,12.5,89.279,89.279,0,0,1-46.085-12.5v-6.07a89.257,89.257,0,0,0,44.022,12.5,89.293,89.293,0,0,0,46.6-12.5" transform="translate(-2.194 -116.449)" fill="#fff"/>
            </g>
          </g>
        </g>
        <g id="Grupo_57853" data-name="Grupo 57853" transform="translate(1.733 20.269)" opacity="0.71">
          <g id="Grupo_57852" data-name="Grupo 57852">
            <g id="Grupo_57851" data-name="Grupo 57851" clip-path="url(#clip-path-5)">
              <path id="Trazado_113604" data-name="Trazado 113604" d="M2.043,23.883l.042,120.425L26.019,155.2V30.577Z" transform="translate(-2.043 -23.883)" fill="#323031"/>
            </g>
          </g>
        </g>
        <path id="Trazado_113605" data-name="Trazado 113605" d="M92.726,60.277v6.071a89.229,89.229,0,0,1-44.537,12.5A89.274,89.274,0,0,1,2.1,66.348V60.277a89.247,89.247,0,0,0,44.022,12.5,89.294,89.294,0,0,0,46.6-12.5" transform="translate(-0.318 -9.122)" fill="#282828"/>
        <path id="Trazado_113606" data-name="Trazado 113606" d="M92.726,120.446v6.07a89.246,89.246,0,0,1-44.537,12.5A89.272,89.272,0,0,1,2.1,126.516v-6.07a89.265,89.265,0,0,0,44.022,12.5,89.31,89.31,0,0,0,46.6-12.5" transform="translate(-0.318 -18.227)" fill="#282828"/>
        <path id="Trazado_113607" data-name="Trazado 113607" d="M92.817,57.543v6.07a89.228,89.228,0,0,1-44.537,12.5,89.255,89.255,0,0,1-46.085-12.5v-6.07a89.259,89.259,0,0,0,44.022,12.5,89.3,89.3,0,0,0,46.6-12.5" transform="translate(-0.332 -8.708)" fill="#383839"/>
        <path id="Trazado_113608" data-name="Trazado 113608" d="M92.817,117.71v6.071a89.255,89.255,0,0,1-44.537,12.5,89.264,89.264,0,0,1-46.085-12.5V117.71a89.256,89.256,0,0,0,44.022,12.5,89.283,89.283,0,0,0,46.6-12.5" transform="translate(-0.332 -17.813)" fill="#383839"/>
        <g id="Grupo_57856" data-name="Grupo 57856" transform="translate(69.452 20.269)" opacity="0.21">
          <g id="Grupo_57855" data-name="Grupo 57855">
            <g id="Grupo_57854" data-name="Grupo 57854" clip-path="url(#clip-path-6)">
              <path id="Trazado_113609" data-name="Trazado 113609" d="M97.754,23.883V147.344L81.837,152.7V29.788Z" transform="translate(-81.837 -23.883)" fill="#fff"/>
            </g>
          </g>
        </g>
        <path id="Trazado_113610" data-name="Trazado 113610" d="M2.1,13.936c0,5.718,20.3,10.355,45.35,10.355S92.8,19.655,92.8,13.936,72.5,3.581,47.453,3.581,2.1,8.217,2.1,13.936" transform="translate(-0.318 -0.542)" fill="#5e5f60"/>
        <path id="Trazado_113611" data-name="Trazado 113611" d="M94.092,14.286V10.809A107.78,107.78,0,0,0,0,10.809v3.834a102.572,102.572,0,0,1,94.092-.357" transform="translate(0 0)" fill="#424242"/>
        <path id="Trazado_113612" data-name="Trazado 113612" d="M94.186,160.837v6.071a94.766,94.766,0,0,1-94.092,0v-6.071a94.726,94.726,0,0,0,94.092,0" transform="translate(-0.014 -24.339)" fill="#383839"/>
        <g id="Grupo_57859" data-name="Grupo 57859" transform="translate(0 135.427)" opacity="0.21">
          <g id="Grupo_57858" data-name="Grupo 57858">
            <g id="Grupo_57857" data-name="Grupo 57857" clip-path="url(#clip-path-7)">
              <path id="Trazado_113613" data-name="Trazado 113613" d="M94.092,159.575v6.071a94.772,94.772,0,0,1-94.092,0v-6.071a94.731,94.731,0,0,0,94.092,0" transform="translate(0 -159.575)" fill="#fff"/>
            </g>
          </g>
        </g>
        <path id="Trazado_113614" data-name="Trazado 113614" d="M94.092,15.676v6.071a95.234,95.234,0,0,1-46.243,12.5A95.294,95.294,0,0,1,0,21.747V15.676a95.226,95.226,0,0,0,45.707,12.5,95.355,95.355,0,0,0,48.385-12.5" transform="translate(0 -2.372)" fill="#282828"/>
        <path id="Trazado_113615" data-name="Trazado 113615" d="M94.186,12.943v6.071a95.249,95.249,0,0,1-46.243,12.5A95.3,95.3,0,0,1,.094,19.014V12.943A95.242,95.242,0,0,0,45.8,25.44a95.359,95.359,0,0,0,48.384-12.5" transform="translate(-0.014 -1.959)" fill="#383839"/>
        <path id="Trazado_113616" data-name="Trazado 113616" d="M69.845,15.419V12.206H85.914v3.213a26.414,26.414,0,0,1-8.392,1.248,26.4,26.4,0,0,1-7.677-1.248" transform="translate(-10.57 -1.847)" fill="#464547"/>
        <path id="Trazado_113617" data-name="Trazado 113617" d="M69.845,12.04c0,.838,3.6,1.517,8.034,1.517s8.034-.678,8.034-1.517-3.6-1.518-8.034-1.518-8.034.681-8.034,1.518" transform="translate(-10.57 -1.592)" fill="#383839"/>
        <path id="Trazado_113618" data-name="Trazado 113618" d="M94.092,160.837v6.071a94.766,94.766,0,0,1-94.092,0v-6.071a94.726,94.726,0,0,0,94.092,0" transform="translate(0 -24.339)" fill="#383839"/>
        <path id="Trazado_113619" data-name="Trazado 113619" d="M37.165,103.75A16.887,16.887,0,1,0,54.053,86.865,16.888,16.888,0,0,0,37.165,103.75" transform="translate(-5.624 -13.145)" fill="#ffe236"/>
        <path id="Trazado_113620" data-name="Trazado 113620" d="M40.088,104.192A14.407,14.407,0,1,1,54.5,118.6a14.423,14.423,0,0,1-14.407-14.408m.177,0A14.228,14.228,0,1,0,54.5,89.964a14.245,14.245,0,0,0-14.23,14.228" transform="translate(-6.066 -13.587)" fill="#282828"/>
        <g id="Grupo_57862" data-name="Grupo 57862" transform="translate(31.422 73.741)" opacity="0.19">
          <g id="Grupo_57861" data-name="Grupo 57861">
            <g id="Grupo_57860" data-name="Grupo 57860" clip-path="url(#clip-path-8)">
              <path id="Trazado_113621" data-name="Trazado 113621" d="M53.987,86.89a16.873,16.873,0,1,0,0,33.745Z" transform="translate(-37.024 -86.89)" fill="#323031"/>
            </g>
          </g>
        </g>
        <g id="Grupo_57865" data-name="Grupo 57865" transform="translate(66.416 9.485)" opacity="0.21">
          <g id="Grupo_57864" data-name="Grupo 57864">
            <g id="Grupo_57863" data-name="Grupo 57863" clip-path="url(#clip-path-9)">
              <path id="Trazado_113622" data-name="Trazado 113622" d="M84.152,12.406a2.05,2.05,0,0,1-1.608,0c-2.212-.726-4.322-.832-4.284-1.071.066-.408,6.2.011,6.249.715.01.148-.251.3-.356.356" transform="translate(-78.259 -11.176)" fill="#fff"/>
            </g>
          </g>
        </g>
        <path id="Trazado_113623" data-name="Trazado 113623" d="M54.153,107.094a2.691,2.691,0,1,0,2.691-2.691,2.691,2.691,0,0,0-2.691,2.691" transform="translate(-8.195 -15.799)" fill="#282828"/>
        <path id="Trazado_113624" data-name="Trazado 113624" d="M58.078,102.225a3.115,3.115,0,0,0-3.005,0q-1.349-3.315-2.7-6.629a8.7,8.7,0,0,1,8.4,0q-1.347,3.315-2.7,6.629" transform="translate(-7.926 -14.303)" fill="#282828"/>
        <path id="Trazado_113625" data-name="Trazado 113625" d="M51.436,108.425a3.122,3.122,0,0,0,1.486,2.612q-2.216,2.81-4.429,5.62a8.7,8.7,0,0,1-4.152-7.3l7.095-.929" transform="translate(-6.71 -16.408)" fill="#282828"/>
        <path id="Trazado_113626" data-name="Trazado 113626" d="M59.625,110.953a3.116,3.116,0,0,0,1.553-2.573l7.069,1.113a8.7,8.7,0,0,1-4.339,7.194q-2.141-2.867-4.283-5.734" transform="translate(-9.023 -16.401)" fill="#282828"/>
      </g>
    </g>
  </g>
</svg>
