<svg xmlns="http://www.w3.org/2000/svg" xmlns:xlink="http://www.w3.org/1999/xlink" width="147.976" height="119.56" viewBox="0 0 147.976 119.56">
  <defs>
    <clipPath id="clip-path">
      <rect id="Rectángulo_6120" data-name="Rectángulo 6120" width="147.976" height="119.56" fill="#adc46c"/>
    </clipPath>
  </defs>
  <g id="Grupo_80461" data-name="Grupo 80461" transform="translate(-347.024 -4273)">
    <g id="Grupo_57278" data-name="Grupo 57278" transform="translate(347.024 4273)">
      <g id="Grupo_57277" data-name="Grupo 57277" transform="translate(0 0)" clip-path="url(#clip-path)">
        <path id="Trazado_106159" data-name="Trazado 106159" d="M48.71,56.275H14.249a10.714,10.714,0,0,1-10.7-10.7V21.195a10.715,10.715,0,0,1,10.7-10.7H48.71a2.538,2.538,0,0,1,2.538,2.538V53.737a2.538,2.538,0,0,1-2.538,2.538M14.249,15.569a5.633,5.633,0,0,0-5.626,5.626V45.573A5.634,5.634,0,0,0,14.249,51.2H46.172V15.569Z" transform="translate(6 17.751)" fill="#adc46c"/>
        <path id="Trazado_106160" data-name="Trazado 106160" d="M12.085,41.182H8.543A8.553,8.553,0,0,1,0,32.639V22.48a8.553,8.553,0,0,1,8.543-8.543h3.542a2.538,2.538,0,0,1,2.538,2.538V38.644a2.538,2.538,0,0,1-2.538,2.538M8.543,19.013A3.471,3.471,0,0,0,5.076,22.48V32.639a3.471,3.471,0,0,0,3.467,3.467h1V19.013Z" transform="translate(0 23.577)" fill="#adc46c"/>
        <path id="Trazado_106161" data-name="Trazado 106161" d="M33.044,40.391h-22.5a4.261,4.261,0,0,1-4.258-4.258V28.155a2.538,2.538,0,0,1,2.538-2.538H34.764A2.538,2.538,0,0,1,37.3,28.155v7.978a4.262,4.262,0,0,1-4.258,4.258M11.36,35.315H32.229V30.691H11.36Z" transform="translate(10.63 43.335)" fill="#adc46c"/>
        <path id="Trazado_106162" data-name="Trazado 106162" d="M24.329,70.13a10.879,10.879,0,0,1-10.662-8.506l-6.681-29.3a2.538,2.538,0,0,1,2.474-3.1h22.5A2.539,2.539,0,0,1,34.5,31.688l.762,27.2A10.94,10.94,0,0,1,24.329,70.13M12.642,34.3l5.973,26.2A5.861,5.861,0,0,0,30.189,59.03L29.5,34.3H12.642" transform="translate(11.712 49.43)" fill="#adc46c"/>
        <path id="Trazado_106163" data-name="Trazado 106163" d="M31.277,42.188a2.538,2.538,0,0,1-2.538-2.538V10.063a2.538,2.538,0,1,1,5.076,0V39.65a2.538,2.538,0,0,1-2.538,2.538" transform="translate(48.616 12.73)" fill="#adc46c"/>
        <path id="Trazado_106164" data-name="Trazado 106164" d="M31.277,43.936A2.538,2.538,0,0,1,28.739,41.4V25.047a2.538,2.538,0,0,1,5.076,0V41.4a2.538,2.538,0,0,1-2.538,2.538" transform="translate(48.616 38.081)" fill="#adc46c"/>
        <path id="Trazado_106165" data-name="Trazado 106165" d="M47.1,69.284a2.45,2.45,0,0,1-.767-.118L21.155,61.177a2.532,2.532,0,0,1-1.771-2.417V18.054a2.537,2.537,0,0,1,1.771-2.42l25.18-7.989a2.538,2.538,0,1,1,1.537,4.837L24.46,19.911V56.9l23.4,7.424a2.539,2.539,0,0,1-.767,4.958" transform="translate(32.791 12.73)" fill="#adc46c"/>
        <path id="Trazado_106166" data-name="Trazado 106166" d="M35.181,41.094a2.539,2.539,0,0,1-2.538-2.538V16.5a2.54,2.54,0,0,1,2.783-2.527,13.62,13.62,0,0,1,0,27.113c-.081.008-.161.013-.242.013m2.538-21.323V35.28a8.561,8.561,0,0,0,0-15.509" transform="translate(55.22 23.611)" fill="#adc46c"/>
        <path id="Trazado_106167" data-name="Trazado 106167" d="M78.895,47.609H7.943a2.538,2.538,0,0,1,0-5.076H78.895a2.538,2.538,0,1,1,0,5.076" transform="translate(9.143 71.951)" fill="#adc46c"/>
        <path id="Trazado_106168" data-name="Trazado 106168" d="M51.987,44.681a2.54,2.54,0,0,1-2.536-2.538V33.651H46.208a8.671,8.671,0,0,1-8.664-8.659V8.662A8.674,8.674,0,0,1,46.208,0H75.8a8.669,8.669,0,0,1,8.662,8.662v16.33A8.667,8.667,0,0,1,75.8,33.651H67.117L53.54,44.151a2.527,2.527,0,0,1-1.553.53m-5.779-39.6a3.589,3.589,0,0,0-3.585,3.585v16.33a3.587,3.587,0,0,0,3.585,3.583h5.779a2.54,2.54,0,0,1,2.541,2.538v5.86L64.7,29.1a2.553,2.553,0,0,1,1.55-.53H75.8a3.587,3.587,0,0,0,3.588-3.583V8.662A3.59,3.59,0,0,0,75.8,5.076Z" transform="translate(63.511 0)" fill="#adc46c"/>
        <path id="Trazado_106169" data-name="Trazado 106169" d="M35.181,74.791a2.538,2.538,0,0,1-2.538-2.538V8.806a2.538,2.538,0,0,1,5.076,0V72.253a2.538,2.538,0,0,1-2.538,2.538" transform="translate(55.22 10.607)" fill="#adc46c"/>
        <path id="Trazado_106170" data-name="Trazado 106170" d="M59.627,10.334H45.17a2.538,2.538,0,0,1,0-5.076H59.627a2.538,2.538,0,1,1,0,5.076" transform="translate(72.118 8.895)" fill="#adc46c"/>
      </g>
    </g>
  </g>
</svg>
