<svg id="Grupo_57716" data-name="Grupo 57716" xmlns="http://www.w3.org/2000/svg" xmlns:xlink="http://www.w3.org/1999/xlink" width="70.023" height="91" viewBox="0 0 70.023 91">
  <defs>
    <clipPath id="clip-path">
      <rect id="Rectángulo_6386" data-name="Rectángulo 6386" width="70.023" height="91" fill="none" stroke="#707070" stroke-width="3"/>
    </clipPath>
  </defs>
  <g id="Grupo_57715" data-name="Grupo 57715" transform="translate(0 0)" clip-path="url(#clip-path)">
    <path id="Trazado_106365" data-name="Trazado 106365" d="M22.165,42.568a10.5,10.5,0,0,1-2.211-2.316c-.152-.261-.116-.376-.1-.413.156-.459,1.338-.969,2.2-1.336,1.178-.5,2.29-.976,2.707-1.832A9.888,9.888,0,0,0,24.885,28a61.483,61.483,0,0,0-7.038-11.276l-.233-.3h-8.9l-.237.3A61.992,61.992,0,0,0,1.436,28a9.894,9.894,0,0,0,.13,8.668C1.983,37.526,3.095,38,4.275,38.5c.861.367,2.044.877,2.2,1.336.015.037.051.152-.1.413a10.408,10.408,0,0,1-2.217,2.316C2.5,44,.627,45.623.572,48.1c-.073,3.366,0,21.568,0,21.749l.05.262c.086.242,2.193,5.948,6.431,5.948H19.273c4.236,0,6.346-5.706,6.434-5.948l.046-.262c0-.182.075-18.384,0-21.749C25.7,45.623,23.82,44,22.165,42.568Z" transform="translate(0.418 13.725)" fill="none" stroke="#fff" stroke-miterlimit="10" stroke-width="3"/>
    <path id="Trazado_106366" data-name="Trazado 106366" d="M49.482,43.317a5.672,5.672,0,0,1-1.743-2.043c-.991-1.96.519-4.445,1.734-6.445a15.419,15.419,0,0,0,1.017-1.821,14.044,14.044,0,0,0,.147-11.028A83.77,83.77,0,0,0,42.552,7.339l-.233-.33h-12.1l-.233.33A83.85,83.85,0,0,0,21.9,21.981a14.035,14.035,0,0,0,.149,11.024,16.01,16.01,0,0,0,1.017,1.832c1.217,2,2.725,4.478,1.734,6.438a5.692,5.692,0,0,1-1.745,2.043c-1.019.822-2.068,1.674-2.129,4.718-.086,4.386,0,28.1,0,28.34l.039.229c.1.314,2.487,7.624,7.31,7.624H44.261c4.823,0,7.214-7.31,7.313-7.624l.035-.229c0-.244.088-23.953,0-28.34C51.55,44.991,50.5,44.139,49.482,43.317Z" transform="translate(17.414 5.854)" fill="none" stroke="#fff" stroke-miterlimit="10" stroke-width="3"/>
    <rect id="Rectángulo_6384" data-name="Rectángulo 6384" width="19.171" height="21.924" rx="1.28" transform="translate(48.304 54.657)" fill="none" stroke="#fff" stroke-miterlimit="10" stroke-width="3"/>
    <path id="Trazado_106367" data-name="Trazado 106367" d="M38.153.5H28.368a4.139,4.139,0,0,0-3.915,4.322V9.691a4.137,4.137,0,0,0,3.915,4.32h9.785a4.137,4.137,0,0,0,3.916-4.32V4.822A4.139,4.139,0,0,0,38.153.5Z" transform="translate(20.424 0.418)" fill="none" stroke="#fff" stroke-miterlimit="10" stroke-width="3"/>
    <path id="Rectángulo_6385" data-name="Rectángulo 6385" d="M1.907,0h11.67a1.907,1.907,0,0,1,1.907,1.907V8.828a1.906,1.906,0,0,1-1.906,1.906H1.907A1.907,1.907,0,0,1,0,8.827V1.907A1.907,1.907,0,0,1,1.907,0Z" transform="translate(5.838 20.691)" fill="none" stroke="#fff" stroke-miterlimit="10" stroke-width="3"/>
  </g>
</svg>
