<svg xmlns="http://www.w3.org/2000/svg" xmlns:xlink="http://www.w3.org/1999/xlink" width="77.435" height="75" viewBox="0 0 77.435 75">
  <defs>
    <clipPath id="clip-path">
      <rect id="Rectángulo_6383" data-name="Rectángulo 6383" width="77.435" height="75" fill="none" stroke="#707070" stroke-width="3"/>
    </clipPath>
  </defs>
  <g id="Grupo_57714" data-name="Grupo 57714" transform="translate(0 0)">
    <g id="Grupo_57712" data-name="Grupo 57712" transform="translate(0 0)" clip-path="url(#clip-path)">
      <path id="Trazado_106362" data-name="Trazado 106362" d="M74.53,2.265h-22.5a1.658,1.658,0,0,0-1.125.444L31.7,20.669a2.229,2.229,0,0,1-.51-.313L15.868,7.327a1.634,1.634,0,0,0-.662-.322,1.6,1.6,0,0,0-.04-.473l-1.17-4.779A1.646,1.646,0,0,0,11.29.928L1.039,10.267a1.643,1.643,0,0,0,.708,2.811l5.037,1.257a1.706,1.706,0,0,0,.4.048c.032,0,.062-.016.093-.018a1.628,1.628,0,0,0,.215.512l11,16.964a4.516,4.516,0,0,1,.243,1.866V72.1a1.643,1.643,0,0,0,1.642,1.644H74.53A1.642,1.642,0,0,0,76.174,72.1V3.911A1.644,1.644,0,0,0,74.53,2.265ZM54.579,10.494H68.023v7.859H46.173Z" transform="translate(0.38 0.381)" fill="none" stroke="#fff" stroke-miterlimit="10" stroke-width="3"/>
      <path id="Trazado_106363" data-name="Trazado 106363" d="M54.5,34.617A19.085,19.085,0,1,1,35.418,15.534,19.083,19.083,0,0,1,54.5,34.617Z" transform="translate(12.414 11.808)" fill="none" stroke="#fff" stroke-miterlimit="10" stroke-width="3"/>
      <path id="Trazado_106364" data-name="Trazado 106364" d="M31.39,18.067l-.7-1.179-.708,1.179c-.3.509-7.422,12.484-7.422,18.317,0,5.5,2.962,8.661,8.13,8.661s8.128-3.159,8.128-8.661C38.816,30.552,31.695,18.576,31.39,18.067Z" transform="translate(17.146 12.837)" fill="none" stroke="#fff" stroke-miterlimit="10" stroke-width="3"/>
    </g>
  </g>
</svg>
